<svg width="50" height="50" viewBox="0 0 50 50" fill="none" xmlns="http://www.w3.org/2000/svg">
<path d="M21.7604 34.4791L36.5 19.7395L34.1042 17.3958L21.7604 29.7395L15.5104 23.4895L13.1667 25.8333L21.7604 34.4791ZM24.8333 45.8333C21.9861 45.8333 19.2951 45.2864 16.7604 44.1927C14.2257 43.0989 12.0122 41.6059 10.1198 39.7135C8.22743 37.8211 6.73438 35.6076 5.64063 33.0729C4.54688 30.5382 4 27.8472 4 25C4 22.118 4.54688 19.4097 5.64063 16.875C6.73438 14.3402 8.22743 12.1354 10.1198 10.2604C12.0122 8.38538 14.2257 6.901 16.7604 5.80725C19.2951 4.7135 21.9861 4.16663 24.8333 4.16663C27.7153 4.16663 30.4236 4.7135 32.9583 5.80725C35.4931 6.901 37.6979 8.38538 39.5729 10.2604C41.4479 12.1354 42.9323 14.3402 44.026 16.875C45.1198 19.4097 45.6667 22.118 45.6667 25C45.6667 27.8472 45.1198 30.5382 44.026 33.0729C42.9323 35.6076 41.4479 37.8211 39.5729 39.7135C37.6979 41.6059 35.4931 43.0989 32.9583 44.1927C30.4236 45.2864 27.7153 45.8333 24.8333 45.8333ZM24.8333 42.7083C29.7639 42.7083 33.9479 40.9809 37.3854 37.526C40.8229 34.0711 42.5417 29.8958 42.5417 25C42.5417 20.0694 40.8229 15.8854 37.3854 12.4479C33.9479 9.01038 29.7639 7.29163 24.8333 7.29163C19.9375 7.29163 15.7622 9.01038 12.3073 12.4479C8.85243 15.8854 7.125 20.0694 7.125 25C7.125 29.8958 8.85243 34.0711 12.3073 37.526C15.7622 40.9809 19.9375 42.7083 24.8333 42.7083Z" fill="#77B748"/>
</svg>
