<?xml version="1.0" encoding="UTF-8"?>
<svg xmlns="http://www.w3.org/2000/svg" viewBox="0 0 375.5 667.5">
  <defs>
    <style>
      .cls-1 {
        fill: #fff2c8;
        stroke: #787778;
      }

      .cls-1, .cls-2 {
        stroke-miterlimit: 10;
        stroke-width: .5px;
      }

      .cls-2 {
        fill: #fff;
        stroke: #777677;
      }
    </style>
  </defs>
  <g id="Layer_1" data-name="Layer 1">
    <path class="cls-1" d="M77.04,514.25v11h0c-3.04,1.72-5,4.97-5,8.71,0,5.52,4.48,10,10,10s10-4.48,10-10c0-3.74-1.96-6.99-5-8.71h0v-11h42.86v11h0c-3.04,1.72-5,4.97-5,8.71,0,5.52,4.48,10,10,10s10-4.48,10-10c0-3.74-1.96-6.99-5-8.71h0v-11h42.86v11h0c-3.04,1.72-5,4.97-5,8.71,0,5.52,4.48,10,10,10s10-4.48,10-10c0-3.74-1.96-6.99-5-8.71h0v-11h42.91v11h0c-3.04,1.72-5,4.97-5,8.71,0,5.52,4.48,10,10,10s10-4.48,10-10c0-3.74-1.96-6.99-5-8.71h0v-11h42.86v11h0c-3.04,1.72-5,4.97-5,8.71,0,5.52,4.48,10,10,10s10-4.48,10-10c0-3.74-1.96-6.99-5-8.71h0v-11h76.72v192H.25v-192h76.79Z"/>
  </g>
  <g id="Layer_2" data-name="Layer 2">
    <path class="cls-2" d="M.25.25v514h76.8v-14.78h0c-3.03-1.72-5-4.97-5-8.7,0-5.52,4.48-10,10-10s10,4.48,10,10c0,3.73-1.97,6.98-5,8.7h0v14.78h42.84v-14.78h.08c-3.03-1.72-5.08-4.97-5.08-8.7,0-5.52,4.48-10,10-10s10,4.48,10,10c0,3.73-2.05,6.98-5.08,8.7h.08v14.78h42.85v-14.78h0c-3.03-1.72-5-4.97-5-8.7,0-5.52,4.48-10,10-10s10,4.48,10,10c0,3.73-1.97,6.98-5,8.7h0v14.78h42.84v-14.78h0c-3.03-1.72-5-4.97-5-8.7,0-5.52,4.48-10,10-10s10,4.48,10,10c0,3.73-1.97,6.98-5,8.7h0v14.78h42.83v-14.78h0c-3.03-1.72-5-4.97-5-8.7,0-5.52,4.48-10,10-10s10,4.48,10,10c0,3.73-1.97,6.98-5,8.7h0v14.78h76.83V.25H.25Z"/>
  </g>
</svg>