<svg width="375" height="667" viewBox="0 0 375 667" fill="none" xmlns="http://www.w3.org/2000/svg">
<g clip-path="url(#clip0_563_11640)">
<rect width="375" height="667" fill="white"/>
<g filter="url(#filter0_d_563_11640)">
<mask id="path-1-inside-1_563_11640" fill="white">
<path fill-rule="evenodd" clip-rule="evenodd" d="M193 480H245V466.001C242.571 464.176 241 461.272 241 458C241 452.477 245.477 448 251 448C256.523 448 261 452.477 261 458C261 461.272 259.429 464.176 257 466.001V480H309V466.001C306.571 464.176 305 461.272 305 458C305 452.477 309.477 448 315 448C320.523 448 325 452.477 325 458C325 461.272 323.429 464.176 321 466.001V480H375V0H0V480H53V466.001C50.5711 464.176 49 461.272 49 458C49 452.477 53.4772 448 59 448C64.5229 448 69 452.477 69 458C69 461.272 67.4289 464.176 65 466.001V480H117V466.001C114.571 464.176 113 461.272 113 458C113 452.477 117.477 448 123 448C128.523 448 133 452.477 133 458C133 461.272 131.429 464.176 129 466.001V480H181V466.001C178.571 464.176 177 461.272 177 458C177 452.477 181.477 448 187 448C192.523 448 197 452.477 197 458C197 461.272 195.429 464.176 193 466.001V480Z"/>
</mask>
<path fill-rule="evenodd" clip-rule="evenodd" d="M193 480H245V466.001C242.571 464.176 241 461.272 241 458C241 452.477 245.477 448 251 448C256.523 448 261 452.477 261 458C261 461.272 259.429 464.176 257 466.001V480H309V466.001C306.571 464.176 305 461.272 305 458C305 452.477 309.477 448 315 448C320.523 448 325 452.477 325 458C325 461.272 323.429 464.176 321 466.001V480H375V0H0V480H53V466.001C50.5711 464.176 49 461.272 49 458C49 452.477 53.4772 448 59 448C64.5229 448 69 452.477 69 458C69 461.272 67.4289 464.176 65 466.001V480H117V466.001C114.571 464.176 113 461.272 113 458C113 452.477 117.477 448 123 448C128.523 448 133 452.477 133 458C133 461.272 131.429 464.176 129 466.001V480H181V466.001C178.571 464.176 177 461.272 177 458C177 452.477 181.477 448 187 448C192.523 448 197 452.477 197 458C197 461.272 195.429 464.176 193 466.001V480Z" fill="white"/>
<path d="M245 480V480.5H245.5V480H245ZM193 480H192.5V480.5H193V480ZM245 466.001H245.5V465.751L245.3 465.601L245 466.001ZM257 466.001L256.7 465.601L256.5 465.751V466.001H257ZM257 480H256.5V480.5H257V480ZM309 480V480.5H309.5V480H309ZM309 466.001H309.5V465.751L309.3 465.601L309 466.001ZM321 466.001L320.7 465.601L320.5 465.751V466.001H321ZM321 480H320.5V480.5H321V480ZM375 480V480.5H375.5V480H375ZM375 0H375.5V-0.5H375V0ZM0 0V-0.5H-0.5V0H0ZM0 480H-0.5V480.5H0V480ZM53 480V480.5H53.5V480H53ZM53 466.001H53.5V465.751L53.3003 465.601L53 466.001ZM65 466.001L64.6997 465.601L64.5 465.751V466.001H65ZM65 480H64.5V480.5H65V480ZM117 480V480.5H117.5V480H117ZM117 466.001H117.5V465.751L117.3 465.601L117 466.001ZM129 466.001L128.7 465.601L128.5 465.751V466.001H129ZM129 480H128.5V480.5H129V480ZM181 480V480.5H181.5V480H181ZM181 466.001H181.5V465.751L181.3 465.601L181 466.001ZM193 466.001L192.7 465.601L192.5 465.751V466.001H193ZM245 479.5H193V480.5H245V479.5ZM244.5 466.001V480H245.5V466.001H244.5ZM240.5 458C240.5 461.436 242.15 464.486 244.7 466.401L245.3 465.601C242.992 463.867 241.5 461.108 241.5 458H240.5ZM251 447.5C245.201 447.5 240.5 452.201 240.5 458H241.5C241.5 452.753 245.753 448.5 251 448.5V447.5ZM261.5 458C261.5 452.201 256.799 447.5 251 447.5V448.5C256.247 448.5 260.5 452.753 260.5 458H261.5ZM257.3 466.401C259.85 464.486 261.5 461.436 261.5 458H260.5C260.5 461.108 259.008 463.867 256.7 465.601L257.3 466.401ZM257.5 480V466.001H256.5V480H257.5ZM309 479.5H257V480.5H309V479.5ZM308.5 466.001V480H309.5V466.001H308.5ZM304.5 458C304.5 461.436 306.15 464.486 308.7 466.401L309.3 465.601C306.992 463.867 305.5 461.108 305.5 458H304.5ZM315 447.5C309.201 447.5 304.5 452.201 304.5 458H305.5C305.5 452.753 309.753 448.5 315 448.5V447.5ZM325.5 458C325.5 452.201 320.799 447.5 315 447.5V448.5C320.247 448.5 324.5 452.753 324.5 458H325.5ZM321.3 466.401C323.85 464.486 325.5 461.436 325.5 458H324.5C324.5 461.108 323.008 463.867 320.7 465.601L321.3 466.401ZM321.5 480V466.001H320.5V480H321.5ZM375 479.5H321V480.5H375V479.5ZM374.5 0V480H375.5V0H374.5ZM0 0.5H375V-0.5H0V0.5ZM0.5 480V0H-0.5V480H0.5ZM53 479.5H0V480.5H53V479.5ZM52.5 466.001V480H53.5V466.001H52.5ZM48.5 458C48.5 461.436 50.1505 464.486 52.6997 466.401L53.3003 465.601C50.9917 463.867 49.5 461.108 49.5 458H48.5ZM59 447.5C53.201 447.5 48.5 452.201 48.5 458H49.5C49.5 452.753 53.7533 448.5 59 448.5V447.5ZM69.5 458C69.5 452.201 64.799 447.5 59 447.5V448.5C64.2467 448.5 68.5 452.753 68.5 458H69.5ZM65.3003 466.401C67.8495 464.486 69.5 461.436 69.5 458H68.5C68.5 461.108 67.0083 463.867 64.6997 465.601L65.3003 466.401ZM65.5 480V466.001H64.5V480H65.5ZM117 479.5H65V480.5H117V479.5ZM116.5 466.001V480H117.5V466.001H116.5ZM112.5 458C112.5 461.436 114.15 464.486 116.7 466.401L117.3 465.601C114.992 463.867 113.5 461.108 113.5 458H112.5ZM123 447.5C117.201 447.5 112.5 452.201 112.5 458H113.5C113.5 452.753 117.753 448.5 123 448.5V447.5ZM133.5 458C133.5 452.201 128.799 447.5 123 447.5V448.5C128.247 448.5 132.5 452.753 132.5 458H133.5ZM129.3 466.401C131.85 464.486 133.5 461.436 133.5 458H132.5C132.5 461.108 131.008 463.867 128.7 465.601L129.3 466.401ZM129.5 480V466.001H128.5V480H129.5ZM181 479.5H129V480.5H181V479.5ZM180.5 466.001V480H181.5V466.001H180.5ZM176.5 458C176.5 461.436 178.15 464.486 180.7 466.401L181.3 465.601C178.992 463.867 177.5 461.108 177.5 458H176.5ZM187 447.5C181.201 447.5 176.5 452.201 176.5 458H177.5C177.5 452.753 181.753 448.5 187 448.5V447.5ZM197.5 458C197.5 452.201 192.799 447.5 187 447.5V448.5C192.247 448.5 196.5 452.753 196.5 458H197.5ZM193.3 466.401C195.85 464.486 197.5 461.436 197.5 458H196.5C196.5 461.108 195.008 463.867 192.7 465.601L193.3 466.401ZM193.5 480V466.001H192.5V480H193.5Z" fill="#767676" mask="url(#path-1-inside-1_563_11640)"/>
</g>
<g filter="url(#filter1_d_563_11640)">
<mask id="path-3-inside-2_563_11640" fill="white">
<path fill-rule="evenodd" clip-rule="evenodd" d="M193 480H245V493.999C242.571 495.824 241 498.728 241 502C241 507.523 245.477 512 251 512C256.523 512 261 507.523 261 502C261 498.728 259.429 495.824 257 493.999V480H309V493.999C306.571 495.824 305 498.728 305 502C305 507.523 309.477 512 315 512C320.523 512 325 507.523 325 502C325 498.728 323.429 495.824 321 493.999V480H375V667H0V480H53V493.999C50.5711 495.824 49 498.728 49 502C49 507.523 53.4772 512 59 512C64.5229 512 69 507.523 69 502C69 498.728 67.4289 495.824 65 493.999V480H117V493.999C114.571 495.824 113 498.728 113 502C113 507.523 117.477 512 123 512C128.523 512 133 507.523 133 502C133 498.728 131.429 495.824 129 493.999V480H181V493.999C178.571 495.824 177 498.728 177 502C177 507.523 181.477 512 187 512C192.523 512 197 507.523 197 502C197 498.728 195.429 495.824 193 493.999V480Z"/>
</mask>
<path fill-rule="evenodd" clip-rule="evenodd" d="M193 480H245V493.999C242.571 495.824 241 498.728 241 502C241 507.523 245.477 512 251 512C256.523 512 261 507.523 261 502C261 498.728 259.429 495.824 257 493.999V480H309V493.999C306.571 495.824 305 498.728 305 502C305 507.523 309.477 512 315 512C320.523 512 325 507.523 325 502C325 498.728 323.429 495.824 321 493.999V480H375V667H0V480H53V493.999C50.5711 495.824 49 498.728 49 502C49 507.523 53.4772 512 59 512C64.5229 512 69 507.523 69 502C69 498.728 67.4289 495.824 65 493.999V480H117V493.999C114.571 495.824 113 498.728 113 502C113 507.523 117.477 512 123 512C128.523 512 133 507.523 133 502C133 498.728 131.429 495.824 129 493.999V480H181V493.999C178.571 495.824 177 498.728 177 502C177 507.523 181.477 512 187 512C192.523 512 197 507.523 197 502C197 498.728 195.429 495.824 193 493.999V480Z" fill="#FCF9D1"/>
<path d="M245 480H245.5V479.5H245V480ZM193 480V479.5H192.5V480H193ZM245 493.999L245.3 494.399L245.5 494.249V493.999H245ZM257 493.999H256.5V494.249L256.7 494.399L257 493.999ZM257 480V479.5H256.5V480H257ZM309 480H309.5V479.5H309V480ZM309 493.999L309.3 494.399L309.5 494.249V493.999H309ZM321 493.999H320.5V494.249L320.7 494.399L321 493.999ZM321 480V479.5H320.5V480H321ZM375 480H375.5V479.5H375V480ZM375 667V667.5H375.5V667H375ZM0 667H-0.5V667.5H0V667ZM0 480V479.5H-0.5V480H0ZM53 480H53.5V479.5H53V480ZM53 493.999L53.3003 494.399L53.5 494.249V493.999H53ZM65 493.999H64.5V494.249L64.6997 494.399L65 493.999ZM65 480V479.5H64.5V480H65ZM117 480H117.5V479.5H117V480ZM117 493.999L117.3 494.399L117.5 494.249V493.999H117ZM129 493.999H128.5V494.249L128.7 494.399L129 493.999ZM129 480V479.5H128.5V480H129ZM181 480H181.5V479.5H181V480ZM181 493.999L181.3 494.399L181.5 494.249V493.999H181ZM193 493.999H192.5V494.249L192.7 494.399L193 493.999ZM245 479.5H193V480.5H245V479.5ZM245.5 493.999V480H244.5V493.999H245.5ZM241.5 502C241.5 498.892 242.992 496.133 245.3 494.399L244.7 493.599C242.151 495.514 240.5 498.564 240.5 502H241.5ZM251 511.5C245.753 511.5 241.5 507.247 241.5 502H240.5C240.5 507.799 245.201 512.5 251 512.5V511.5ZM260.5 502C260.5 507.247 256.247 511.5 251 511.5V512.5C256.799 512.5 261.5 507.799 261.5 502H260.5ZM256.7 494.399C259.008 496.133 260.5 498.892 260.5 502H261.5C261.5 498.564 259.849 495.514 257.3 493.599L256.7 494.399ZM256.5 480V493.999H257.5V480H256.5ZM309 479.5H257V480.5H309V479.5ZM309.5 493.999V480H308.5V493.999H309.5ZM305.5 502C305.5 498.892 306.992 496.133 309.3 494.399L308.7 493.599C306.151 495.514 304.5 498.564 304.5 502H305.5ZM315 511.5C309.753 511.5 305.5 507.247 305.5 502H304.5C304.5 507.799 309.201 512.5 315 512.5V511.5ZM324.5 502C324.5 507.247 320.247 511.5 315 511.5V512.5C320.799 512.5 325.5 507.799 325.5 502H324.5ZM320.7 494.399C323.008 496.133 324.5 498.892 324.5 502H325.5C325.5 498.564 323.849 495.514 321.3 493.599L320.7 494.399ZM320.5 480V493.999H321.5V480H320.5ZM375 479.5H321V480.5H375V479.5ZM375.5 667V480H374.5V667H375.5ZM0 667.5H375V666.5H0V667.5ZM-0.5 480V667H0.5V480H-0.5ZM53 479.5H0V480.5H53V479.5ZM53.5 493.999V480H52.5V493.999H53.5ZM49.5 502C49.5 498.892 50.9917 496.133 53.3003 494.399L52.6997 493.599C50.1505 495.514 48.5 498.564 48.5 502H49.5ZM59 511.5C53.7533 511.5 49.5 507.247 49.5 502H48.5C48.5 507.799 53.201 512.5 59 512.5V511.5ZM68.5 502C68.5 507.247 64.2467 511.5 59 511.5V512.5C64.799 512.5 69.5 507.799 69.5 502H68.5ZM64.6997 494.399C67.0083 496.133 68.5 498.892 68.5 502H69.5C69.5 498.564 67.8495 495.514 65.3003 493.599L64.6997 494.399ZM64.5 480V493.999H65.5V480H64.5ZM117 479.5H65V480.5H117V479.5ZM117.5 493.999V480H116.5V493.999H117.5ZM113.5 502C113.5 498.892 114.992 496.133 117.3 494.399L116.7 493.599C114.151 495.514 112.5 498.564 112.5 502H113.5ZM123 511.5C117.753 511.5 113.5 507.247 113.5 502H112.5C112.5 507.799 117.201 512.5 123 512.5V511.5ZM132.5 502C132.5 507.247 128.247 511.5 123 511.5V512.5C128.799 512.5 133.5 507.799 133.5 502H132.5ZM128.7 494.399C131.008 496.133 132.5 498.892 132.5 502H133.5C133.5 498.564 131.849 495.514 129.3 493.599L128.7 494.399ZM128.5 480V493.999H129.5V480H128.5ZM181 479.5H129V480.5H181V479.5ZM181.5 493.999V480H180.5V493.999H181.5ZM177.5 502C177.5 498.892 178.992 496.133 181.3 494.399L180.7 493.599C178.151 495.514 176.5 498.564 176.5 502H177.5ZM187 511.5C181.753 511.5 177.5 507.247 177.5 502H176.5C176.5 507.799 181.201 512.5 187 512.5V511.5ZM196.5 502C196.5 507.247 192.247 511.5 187 511.5V512.5C192.799 512.5 197.5 507.799 197.5 502H196.5ZM192.7 494.399C195.008 496.133 196.5 498.892 196.5 502H197.5C197.5 498.564 195.849 495.514 193.3 493.599L192.7 494.399ZM192.5 480V493.999H193.5V480H192.5Z" fill="#767676" mask="url(#path-3-inside-2_563_11640)"/>
</g>
</g>
<defs>
<filter id="filter0_d_563_11640" x="-4" y="0" width="383" height="488" filterUnits="userSpaceOnUse" color-interpolation-filters="sRGB">
<feFlood flood-opacity="0" result="BackgroundImageFix"/>
<feColorMatrix in="SourceAlpha" type="matrix" values="0 0 0 0 0 0 0 0 0 0 0 0 0 0 0 0 0 0 127 0" result="hardAlpha"/>
<feOffset dy="4"/>
<feGaussianBlur stdDeviation="2"/>
<feComposite in2="hardAlpha" operator="out"/>
<feColorMatrix type="matrix" values="0 0 0 0 0 0 0 0 0 0 0 0 0 0 0 0 0 0 0.25 0"/>
<feBlend mode="normal" in2="BackgroundImageFix" result="effect1_dropShadow_563_11640"/>
<feBlend mode="normal" in="SourceGraphic" in2="effect1_dropShadow_563_11640" result="shape"/>
</filter>
<filter id="filter1_d_563_11640" x="-4" y="480" width="383" height="195" filterUnits="userSpaceOnUse" color-interpolation-filters="sRGB">
<feFlood flood-opacity="0" result="BackgroundImageFix"/>
<feColorMatrix in="SourceAlpha" type="matrix" values="0 0 0 0 0 0 0 0 0 0 0 0 0 0 0 0 0 0 127 0" result="hardAlpha"/>
<feOffset dy="4"/>
<feGaussianBlur stdDeviation="2"/>
<feComposite in2="hardAlpha" operator="out"/>
<feColorMatrix type="matrix" values="0 0 0 0 0 0 0 0 0 0 0 0 0 0 0 0 0 0 0.25 0"/>
<feBlend mode="normal" in2="BackgroundImageFix" result="effect1_dropShadow_563_11640"/>
<feBlend mode="normal" in="SourceGraphic" in2="effect1_dropShadow_563_11640" result="shape"/>
</filter>
<clipPath id="clip0_563_11640">
<rect width="375" height="667" fill="white"/>
</clipPath>
</defs>
</svg>
