<?xml version="1.0" encoding="UTF-8"?>
<svg xmlns="http://www.w3.org/2000/svg" width="360" height="640" viewBox="0 0 360 640" fill="none">
<g clip-path="url(#clip0_198_3818)">
<rect width="360" height="640" fill="white"/>
<mask id="path-1-inside-1_198_3818" fill="white">
<path fill-rule="evenodd" clip-rule="evenodd" d="M294 474V462.662C291.011 460.933 289 457.701 289 454C289 448.477 293.477 444 299 444C304.523 444 309 448.477 309 454C309 457.701 306.989 460.933 304 462.662V474H376V-166H-32V474H54V462.662C51.011 460.933 49 457.701 49 454C49 448.477 53.4771 444 59 444C64.5229 444 69 448.477 69 454C69 457.701 66.989 460.933 64 462.662V474H114V462.662C111.011 460.933 109 457.701 109 454C109 448.477 113.477 444 119 444C124.523 444 129 448.477 129 454C129 457.701 126.989 460.933 124 462.662V474H174V462.662C171.011 460.933 169 457.701 169 454C169 448.477 173.477 444 179 444C184.523 444 189 448.477 189 454C189 457.701 186.989 460.933 184 462.662V474H234V462.662C231.011 460.933 229 457.701 229 454C229 448.477 233.477 444 239 444C244.523 444 249 448.477 249 454C249 457.701 246.989 460.933 244 462.662V474H294Z"/>
</mask>
<path fill-rule="evenodd" clip-rule="evenodd" d="M294 474V462.662C291.011 460.933 289 457.701 289 454C289 448.477 293.477 444 299 444C304.523 444 309 448.477 309 454C309 457.701 306.989 460.933 304 462.662V474H376V-166H-32V474H54V462.662C51.011 460.933 49 457.701 49 454C49 448.477 53.4771 444 59 444C64.5229 444 69 448.477 69 454C69 457.701 66.989 460.933 64 462.662V474H114V462.662C111.011 460.933 109 457.701 109 454C109 448.477 113.477 444 119 444C124.523 444 129 448.477 129 454C129 457.701 126.989 460.933 124 462.662V474H174V462.662C171.011 460.933 169 457.701 169 454C169 448.477 173.477 444 179 444C184.523 444 189 448.477 189 454C189 457.701 186.989 460.933 184 462.662V474H234V462.662C231.011 460.933 229 457.701 229 454C229 448.477 233.477 444 239 444C244.523 444 249 448.477 249 454C249 457.701 246.989 460.933 244 462.662V474H294Z" fill="white"/>
<path d="M294 474H294.5V474.5H294V474ZM294 462.662L294.25 462.229L294.5 462.374V462.662H294ZM304 462.662H303.5V462.374L303.75 462.229L304 462.662ZM304 474V474.5H303.5V474H304ZM376 474H376.5V474.5H376V474ZM376 -166V-166.5H376.5V-166H376ZM-32 -166H-32.5V-166.5H-32V-166ZM-32 474V474.5H-32.5V474H-32ZM54 474H54.5V474.5H54V474ZM54 462.662L54.2504 462.229L54.5 462.374V462.662H54ZM64 462.662H63.5V462.374L63.7496 462.229L64 462.662ZM64 474V474.5H63.5V474H64ZM114 474H114.5V474.5H114V474ZM114 462.662L114.25 462.229L114.5 462.374V462.662H114ZM124 462.662H123.5V462.374L123.75 462.229L124 462.662ZM124 474V474.5H123.5V474H124ZM174 474H174.5V474.5H174V474ZM174 462.662L174.25 462.229L174.5 462.374V462.662H174ZM184 462.662H183.5V462.374L183.75 462.229L184 462.662ZM184 474V474.5H183.5V474H184ZM234 474H234.5V474.5H234V474ZM234 462.662L234.25 462.229L234.5 462.374V462.662H234ZM244 462.662H243.5V462.374L243.75 462.229L244 462.662ZM244 474V474.5H243.5V474H244ZM293.5 474V462.662H294.5V474H293.5ZM293.75 463.095C290.612 461.28 288.5 457.887 288.5 454H289.5C289.5 457.516 291.409 460.586 294.25 462.229L293.75 463.095ZM288.5 454C288.5 448.201 293.201 443.5 299 443.5V444.5C293.753 444.5 289.5 448.753 289.5 454H288.5ZM299 443.5C304.799 443.5 309.5 448.201 309.5 454H308.5C308.5 448.753 304.247 444.5 299 444.5V443.5ZM309.5 454C309.5 457.887 307.388 461.28 304.25 463.095L303.75 462.229C306.591 460.586 308.5 457.516 308.5 454H309.5ZM304.5 462.662V474H303.5V462.662H304.5ZM304 473.5H376V474.5H304V473.5ZM375.5 474V-166H376.5V474H375.5ZM376 -165.5H-32V-166.5H376V-165.5ZM-31.5 -166V474H-32.5V-166H-31.5ZM-32 473.5H54V474.5H-32V473.5ZM53.5 474V462.662H54.5V474H53.5ZM53.7496 463.095C50.6125 461.28 48.5 457.887 48.5 454H49.5C49.5 457.516 51.4095 460.586 54.2504 462.229L53.7496 463.095ZM48.5 454C48.5 448.201 53.201 443.5 59 443.5V444.5C53.7533 444.5 49.5 448.753 49.5 454H48.5ZM59 443.5C64.799 443.5 69.5 448.201 69.5 454H68.5C68.5 448.753 64.2467 444.5 59 444.5V443.5ZM69.5 454C69.5 457.887 67.3875 461.28 64.2504 463.095L63.7496 462.229C66.5905 460.586 68.5 457.516 68.5 454H69.5ZM64.5 462.662V474H63.5V462.662H64.5ZM64 473.5H114V474.5H64V473.5ZM113.5 474V462.662H114.5V474H113.5ZM113.75 463.095C110.612 461.28 108.5 457.887 108.5 454H109.5C109.5 457.516 111.409 460.586 114.25 462.229L113.75 463.095ZM108.5 454C108.5 448.201 113.201 443.5 119 443.5V444.5C113.753 444.5 109.5 448.753 109.5 454H108.5ZM119 443.5C124.799 443.5 129.5 448.201 129.5 454H128.5C128.5 448.753 124.247 444.5 119 444.5V443.5ZM129.5 454C129.5 457.887 127.388 461.28 124.25 463.095L123.75 462.229C126.591 460.586 128.5 457.516 128.5 454H129.5ZM124.5 462.662V474H123.5V462.662H124.5ZM124 473.5H174V474.5H124V473.5ZM173.5 474V462.662H174.5V474H173.5ZM173.75 463.095C170.612 461.28 168.5 457.887 168.5 454H169.5C169.5 457.516 171.409 460.586 174.25 462.229L173.75 463.095ZM168.5 454C168.5 448.201 173.201 443.5 179 443.5V444.5C173.753 444.5 169.5 448.753 169.5 454H168.5ZM179 443.5C184.799 443.5 189.5 448.201 189.5 454H188.5C188.5 448.753 184.247 444.5 179 444.5V443.5ZM189.5 454C189.5 457.887 187.388 461.28 184.25 463.095L183.75 462.229C186.591 460.586 188.5 457.516 188.5 454H189.5ZM184.5 462.662V474H183.5V462.662H184.5ZM184 473.5H234V474.5H184V473.5ZM233.5 474V462.662H234.5V474H233.5ZM233.75 463.095C230.612 461.28 228.5 457.887 228.5 454H229.5C229.5 457.516 231.409 460.586 234.25 462.229L233.75 463.095ZM228.5 454C228.5 448.201 233.201 443.5 239 443.5V444.5C233.753 444.5 229.5 448.753 229.5 454H228.5ZM239 443.5C244.799 443.5 249.5 448.201 249.5 454H248.5C248.5 448.753 244.247 444.5 239 444.5V443.5ZM249.5 454C249.5 457.887 247.388 461.28 244.25 463.095L243.75 462.229C246.591 460.586 248.5 457.516 248.5 454H249.5ZM244.5 462.662V474H243.5V462.662H244.5ZM244 473.5H294V474.5H244V473.5Z" fill="#767676" mask="url(#path-1-inside-1_198_3818)"/>
<g filter="url(#filter0_d_198_3818)">
<mask id="path-3-inside-2_198_3818" fill="white">
<path fill-rule="evenodd" clip-rule="evenodd" d="M294 474V485.338C291.011 487.067 289 490.299 289 494C289 499.523 293.477 504 299 504C304.523 504 309 499.523 309 494C309 490.299 306.989 487.067 304 485.338V474H376V1114H-32V474H54V485.338C51.011 487.067 49 490.299 49 494C49 499.523 53.4771 504 59 504C64.5229 504 69 499.523 69 494C69 490.299 66.989 487.067 64 485.338V474H114V485.338C111.011 487.067 109 490.299 109 494C109 499.523 113.477 504 119 504C124.523 504 129 499.523 129 494C129 490.299 126.989 487.067 124 485.338V474H174V485.338C171.011 487.067 169 490.299 169 494C169 499.523 173.477 504 179 504C184.523 504 189 499.523 189 494C189 490.299 186.989 487.067 184 485.338V474H234V485.338C231.011 487.067 229 490.299 229 494C229 499.523 233.477 504 239 504C244.523 504 249 499.523 249 494C249 490.299 246.989 487.067 244 485.338V474H294Z"/>
</mask>
<path fill-rule="evenodd" clip-rule="evenodd" d="M294 474V485.338C291.011 487.067 289 490.299 289 494C289 499.523 293.477 504 299 504C304.523 504 309 499.523 309 494C309 490.299 306.989 487.067 304 485.338V474H376V1114H-32V474H54V485.338C51.011 487.067 49 490.299 49 494C49 499.523 53.4771 504 59 504C64.5229 504 69 499.523 69 494C69 490.299 66.989 487.067 64 485.338V474H114V485.338C111.011 487.067 109 490.299 109 494C109 499.523 113.477 504 119 504C124.523 504 129 499.523 129 494C129 490.299 126.989 487.067 124 485.338V474H174V485.338C171.011 487.067 169 490.299 169 494C169 499.523 173.477 504 179 504C184.523 504 189 499.523 189 494C189 490.299 186.989 487.067 184 485.338V474H234V485.338C231.011 487.067 229 490.299 229 494C229 499.523 233.477 504 239 504C244.523 504 249 499.523 249 494C249 490.299 246.989 487.067 244 485.338V474H294Z" fill="#FEF2C6"/>
<path d="M294 474H294.5V473.5H294V474ZM294 485.338L294.25 485.771L294.5 485.626V485.338H294ZM304 485.338H303.5V485.626L303.75 485.771L304 485.338ZM304 474V473.5H303.5V474H304ZM376 474H376.5V473.5H376V474ZM376 1114V1114.5H376.5V1114H376ZM-32 1114H-32.5V1114.5H-32V1114ZM-32 474V473.5H-32.5V474H-32ZM54 474H54.5V473.5H54V474ZM54 485.338L54.2504 485.771L54.5 485.626V485.338H54ZM64 485.338H63.5V485.626L63.7496 485.771L64 485.338ZM64 474V473.5H63.5V474H64ZM114 474H114.5V473.5H114V474ZM114 485.338L114.25 485.771L114.5 485.626V485.338H114ZM124 485.338H123.5V485.626L123.75 485.771L124 485.338ZM124 474V473.5H123.5V474H124ZM174 474H174.5V473.5H174V474ZM174 485.338L174.25 485.771L174.5 485.626V485.338H174ZM184 485.338H183.5V485.626L183.75 485.771L184 485.338ZM184 474V473.5H183.5V474H184ZM234 474H234.5V473.5H234V474ZM234 485.338L234.25 485.771L234.5 485.626V485.338H234ZM244 485.338H243.5V485.626L243.75 485.771L244 485.338ZM244 474V473.5H243.5V474H244ZM293.5 474V485.338H294.5V474H293.5ZM293.75 484.905C290.612 486.72 288.5 490.113 288.5 494H289.5C289.5 490.484 291.409 487.414 294.25 485.771L293.75 484.905ZM288.5 494C288.5 499.799 293.201 504.5 299 504.5V503.5C293.753 503.5 289.5 499.247 289.5 494H288.5ZM299 504.5C304.799 504.5 309.5 499.799 309.5 494H308.5C308.5 499.247 304.247 503.5 299 503.5V504.5ZM309.5 494C309.5 490.113 307.388 486.72 304.25 484.905L303.75 485.771C306.591 487.414 308.5 490.484 308.5 494H309.5ZM304.5 485.338V474H303.5V485.338H304.5ZM304 474.5H376V473.5H304V474.5ZM375.5 474V1114H376.5V474H375.5ZM376 1113.5H-32V1114.5H376V1113.5ZM-31.5 1114V474H-32.5V1114H-31.5ZM-32 474.5H54V473.5H-32V474.5ZM53.5 474V485.338H54.5V474H53.5ZM53.7496 484.905C50.6125 486.72 48.5 490.113 48.5 494H49.5C49.5 490.484 51.4095 487.414 54.2504 485.771L53.7496 484.905ZM48.5 494C48.5 499.799 53.201 504.5 59 504.5V503.5C53.7533 503.5 49.5 499.247 49.5 494H48.5ZM59 504.5C64.799 504.5 69.5 499.799 69.5 494H68.5C68.5 499.247 64.2467 503.5 59 503.5V504.5ZM69.5 494C69.5 490.113 67.3875 486.72 64.2504 484.905L63.7496 485.771C66.5905 487.414 68.5 490.484 68.5 494H69.5ZM64.5 485.338V474H63.5V485.338H64.5ZM64 474.5H114V473.5H64V474.5ZM113.5 474V485.338H114.5V474H113.5ZM113.75 484.905C110.612 486.72 108.5 490.113 108.5 494H109.5C109.5 490.484 111.409 487.414 114.25 485.771L113.75 484.905ZM108.5 494C108.5 499.799 113.201 504.5 119 504.5V503.5C113.753 503.5 109.5 499.247 109.5 494H108.5ZM119 504.5C124.799 504.5 129.5 499.799 129.5 494H128.5C128.5 499.247 124.247 503.5 119 503.5V504.5ZM129.5 494C129.5 490.113 127.388 486.72 124.25 484.905L123.75 485.771C126.591 487.414 128.5 490.484 128.5 494H129.5ZM124.5 485.338V474H123.5V485.338H124.5ZM124 474.5H174V473.5H124V474.5ZM173.5 474V485.338H174.5V474H173.5ZM173.75 484.905C170.612 486.72 168.5 490.113 168.5 494H169.5C169.5 490.484 171.409 487.414 174.25 485.771L173.75 484.905ZM168.5 494C168.5 499.799 173.201 504.5 179 504.5V503.5C173.753 503.5 169.5 499.247 169.5 494H168.5ZM179 504.5C184.799 504.5 189.5 499.799 189.5 494H188.5C188.5 499.247 184.247 503.5 179 503.5V504.5ZM189.5 494C189.5 490.113 187.388 486.72 184.25 484.905L183.75 485.771C186.591 487.414 188.5 490.484 188.5 494H189.5ZM184.5 485.338V474H183.5V485.338H184.5ZM184 474.5H234V473.5H184V474.5ZM233.5 474V485.338H234.5V474H233.5ZM233.75 484.905C230.612 486.72 228.5 490.113 228.5 494H229.5C229.5 490.484 231.409 487.414 234.25 485.771L233.75 484.905ZM228.5 494C228.5 499.799 233.201 504.5 239 504.5V503.5C233.753 503.5 229.5 499.247 229.5 494H228.5ZM239 504.5C244.799 504.5 249.5 499.799 249.5 494H248.5C248.5 499.247 244.247 503.5 239 503.5V504.5ZM249.5 494C249.5 490.113 247.388 486.72 244.25 484.905L243.75 485.771C246.591 487.414 248.5 490.484 248.5 494H249.5ZM244.5 485.338V474H243.5V485.338H244.5ZM244 474.5H294V473.5H244V474.5Z" fill="#767676" mask="url(#path-3-inside-2_198_3818)"/>
</g>
</g>
<defs>
<filter id="filter0_d_198_3818" x="-38" y="462" width="428" height="660" filterUnits="userSpaceOnUse" color-interpolation-filters="sRGB">
<feFlood flood-opacity="0" result="BackgroundImageFix"/>
<feColorMatrix in="SourceAlpha" type="matrix" values="0 0 0 0 0 0 0 0 0 0 0 0 0 0 0 0 0 0 127 0" result="hardAlpha"/>
<feOffset dx="4" dy="-2"/>
<feGaussianBlur stdDeviation="5"/>
<feComposite in2="hardAlpha" operator="out"/>
<feColorMatrix type="matrix" values="0 0 0 0 0 0 0 0 0 0 0 0 0 0 0 0 0 0 0.25 0"/>
<feBlend mode="normal" in2="BackgroundImageFix" result="effect1_dropShadow_198_3818"/>
<feBlend mode="normal" in="SourceGraphic" in2="effect1_dropShadow_198_3818" result="shape"/>
</filter>
<clipPath id="clip0_198_3818">
<rect width="360" height="640" fill="white"/>
</clipPath>
</defs>
</svg>