<?xml version="1.0" encoding="UTF-8"?>
<svg id="Layer_1" data-name="Layer 1" xmlns="http://www.w3.org/2000/svg" viewBox="0 0 375 192">
  <defs>
    <style>
      .cls-1 {
        fill: #fff2c7;
        stroke: #777677;
        stroke-miterlimit: 10;
        stroke-width: .5px;
      }
    </style>
  </defs>
  <path class="cls-1" d="M298.35,0v11h0c3.04,1.72,5,4.97,5,8.71,0,5.52-4.48,10-10,10s-10-4.48-10-10c0-3.74,1.96-6.99,5-8.71h0V0h-42.86v11h0c3.04,1.72,5,4.97,5,8.71,0,5.52-4.48,10-10,10s-10-4.48-10-10c0-3.74,1.96-6.99,5-8.71h0V0h-42.86v11h0c3.04,1.72,5,4.97,5,8.71,0,5.52-4.48,10-10,10s-10-4.48-10-10c0-3.74,1.96-6.99,5-8.71h0V0h-42.91v11h0c3.04,1.72,5,4.97,5,8.71,0,5.52-4.48,10-10,10s-10-4.48-10-10c0-3.74,1.96-6.99,5-8.71h0V0h-42.86v11h0c3.04,1.72,5,4.97,5,8.71,0,5.52-4.48,10-10,10s-10-4.48-10-10c0-3.74,1.96-6.99,5-8.71h0V0H.14v192h375V0h-76.79Z"/>
</svg>