<?xml version="1.0" encoding="UTF-8"?>
<svg id="Layer_1" data-name="Layer 1" xmlns="http://www.w3.org/2000/svg" viewBox="0 0 376 515">
  <defs>
    <style>
      .cls-1 {
        fill: #fff;
        stroke: #777677;
        stroke-miterlimit: 10;
      }
    </style>
  </defs>
  <path class="cls-1" d="M.5.5v514h62.5v-14.78h0c-3.03-1.72-5-4.97-5-8.7,0-5.52,4.48-10,10-10s10,4.48,10,10c0,3.73-1.97,6.98-5,8.7h0v14.78h50v-14.78h0c-3.03-1.72-5-4.97-5-8.7,0-5.52,4.48-10,10-10s10,4.48,10,10c0,3.73-1.97,6.98-5,8.7h0v14.78h50v-14.78h0c-3.03-1.72-5-4.97-5-8.7,0-5.52,4.48-10,10-10s10,4.48,10,10c0,3.73-1.97,6.98-5,8.7h0v14.78h50v-14.78h0c-3.03-1.72-5-4.97-5-8.7,0-5.52,4.48-10,10-10s10,4.48,10,10c0,3.73-1.97,6.98-5,8.7h0v14.78h50v-14.78h0c-3.03-1.72-5-4.97-5-8.7,0-5.52,4.48-10,10-10s10,4.48,10,10c0,3.73-1.97,6.98-5,8.7h0v14.78h62.5V.5H.5Z"/>
</svg>