<svg width="375" height="265" viewBox="0 0 375 265" fill="none" xmlns="http://www.w3.org/2000/svg">
<mask id="path-1-inside-1_263_3805" fill="white">
<path fill-rule="evenodd" clip-rule="evenodd" d="M307.292 11.7627V0H255.208V11.763C258.321 13.5569 260.416 16.9098 260.416 20.7499C260.416 26.4799 255.752 31.1249 249.999 31.1249C244.246 31.1249 239.583 26.4799 239.583 20.7499C239.583 16.9096 241.678 13.5566 244.791 11.7628V0H192.708V11.7627C195.822 13.5565 197.917 16.9096 197.917 20.75C197.917 26.48 193.253 31.125 187.501 31.125C181.748 31.125 177.084 26.48 177.084 20.75C177.084 16.91 179.178 13.5573 182.292 11.7633V0H130.209V11.7633C133.322 13.5573 135.416 16.91 135.416 20.75C135.416 26.48 130.753 31.125 125 31.125C119.247 31.125 114.583 26.48 114.583 20.75C114.583 16.9096 116.678 13.5565 119.792 11.7627V0H67.708V11.763C70.8214 13.5569 72.9161 16.9098 72.9161 20.7499C72.9161 26.4799 68.2524 31.1249 62.4995 31.1249C56.7465 31.1249 52.0828 26.4799 52.0828 20.7499C52.0828 16.9096 54.1777 13.5566 57.2913 11.7628V0H0V265H375V0H317.709V11.7633C320.822 13.5573 322.916 16.91 322.916 20.75C322.916 26.48 318.253 31.125 312.5 31.125C306.747 31.125 302.083 26.48 302.083 20.75C302.083 16.9096 304.178 13.5565 307.292 11.7627Z"/>
</mask>
<path fill-rule="evenodd" clip-rule="evenodd" d="M307.292 11.7627V0H255.208V11.763C258.321 13.5569 260.416 16.9098 260.416 20.7499C260.416 26.4799 255.752 31.1249 249.999 31.1249C244.246 31.1249 239.583 26.4799 239.583 20.7499C239.583 16.9096 241.678 13.5566 244.791 11.7628V0H192.708V11.7627C195.822 13.5565 197.917 16.9096 197.917 20.75C197.917 26.48 193.253 31.125 187.501 31.125C181.748 31.125 177.084 26.48 177.084 20.75C177.084 16.91 179.178 13.5573 182.292 11.7633V0H130.209V11.7633C133.322 13.5573 135.416 16.91 135.416 20.75C135.416 26.48 130.753 31.125 125 31.125C119.247 31.125 114.583 26.48 114.583 20.75C114.583 16.9096 116.678 13.5565 119.792 11.7627V0H67.708V11.763C70.8214 13.5569 72.9161 16.9098 72.9161 20.7499C72.9161 26.4799 68.2524 31.1249 62.4995 31.1249C56.7465 31.1249 52.0828 26.4799 52.0828 20.7499C52.0828 16.9096 54.1777 13.5566 57.2913 11.7628V0H0V265H375V0H317.709V11.7633C320.822 13.5573 322.916 16.91 322.916 20.75C322.916 26.48 318.253 31.125 312.5 31.125C306.747 31.125 302.083 26.48 302.083 20.75C302.083 16.9096 304.178 13.5565 307.292 11.7627Z" fill="white"/>
<path d="M307.292 0H307.792V-0.5H307.292V0ZM307.292 11.7627L307.542 12.1959L307.792 12.0517V11.7627H307.292ZM255.208 0V-0.5H254.708V0H255.208ZM255.208 11.763H254.708V12.052L254.958 12.1962L255.208 11.763ZM244.791 11.7628L245.041 12.196L245.291 12.0518V11.7628H244.791ZM244.791 0H245.291V-0.5H244.791V0ZM192.708 0V-0.5H192.208V0H192.708ZM192.708 11.7627H192.208V12.0517L192.459 12.1959L192.708 11.7627ZM182.292 11.7633L182.541 12.1965L182.792 12.0523V11.7633H182.292ZM182.292 0H182.792V-0.5H182.292V0ZM130.209 0V-0.5H129.709V0H130.209ZM130.209 11.7633H129.709V12.0523L129.959 12.1965L130.209 11.7633ZM119.792 11.7627L120.042 12.1959L120.292 12.0517V11.7627H119.792ZM119.792 0H120.292V-0.5H119.792V0ZM67.708 0V-0.5H67.208V0H67.708ZM67.708 11.763H67.208V12.052L67.4584 12.1962L67.708 11.763ZM57.2913 11.7628L57.5409 12.196L57.7913 12.0518V11.7628H57.2913ZM57.2913 0H57.7913V-0.5H57.2913V0ZM0 0V-0.5H-0.5V0H0ZM0 265H-0.5V265.5H0V265ZM375 265V265.5H375.5V265H375ZM375 0H375.5V-0.5H375V0ZM317.709 0V-0.5H317.209V0H317.709ZM317.709 11.7633H317.209V12.0523L317.459 12.1965L317.709 11.7633ZM306.792 0V11.7627H307.792V0H306.792ZM255.208 0.5H307.292V-0.5H255.208V0.5ZM255.708 11.763V0H254.708V11.763H255.708ZM260.916 20.7499C260.916 16.7231 258.719 13.209 255.458 11.3298L254.958 12.1962C257.924 13.9049 259.916 17.0965 259.916 20.7499H260.916ZM249.999 31.6249C256.027 31.6249 260.916 26.7579 260.916 20.7499H259.916C259.916 26.2018 255.478 30.6249 249.999 30.6249V31.6249ZM239.083 20.7499C239.083 26.7579 243.972 31.6249 249.999 31.6249V30.6249C244.521 30.6249 240.083 26.2018 240.083 20.7499H239.083ZM244.542 11.3295C241.28 13.2086 239.083 16.7229 239.083 20.7499H240.083C240.083 17.0963 242.075 13.9046 245.041 12.196L244.542 11.3295ZM244.291 0V11.7628H245.291V0H244.291ZM192.708 0.5H244.791V-0.5H192.708V0.5ZM193.208 11.7627V0H192.208V11.7627H193.208ZM198.417 20.75C198.417 16.7229 196.22 13.2085 192.958 11.3294L192.459 12.1959C195.425 13.9045 197.417 17.0963 197.417 20.75H198.417ZM187.501 31.625C193.528 31.625 198.417 26.758 198.417 20.75H197.417C197.417 26.2019 192.979 30.625 187.501 30.625V31.625ZM176.584 20.75C176.584 26.758 181.473 31.625 187.501 31.625V30.625C182.022 30.625 177.584 26.2019 177.584 20.75H176.584ZM182.042 11.3301C178.781 13.2093 176.584 16.7233 176.584 20.75H177.584C177.584 17.0967 179.576 13.9052 182.541 12.1965L182.042 11.3301ZM181.792 0V11.7633H182.792V0H181.792ZM130.209 0.5H182.292V-0.5H130.209V0.5ZM130.709 11.7633V0H129.709V11.7633H130.709ZM135.916 20.75C135.916 16.7233 133.719 13.2093 130.458 11.3301L129.959 12.1965C132.924 13.9052 134.916 17.0967 134.916 20.75H135.916ZM125 31.625C131.027 31.625 135.916 26.758 135.916 20.75H134.916C134.916 26.2019 130.479 30.625 125 30.625V31.625ZM114.083 20.75C114.083 26.758 118.973 31.625 125 31.625V30.625C119.521 30.625 115.083 26.2019 115.083 20.75H114.083ZM119.542 11.3294C116.281 13.2085 114.083 16.7229 114.083 20.75H115.083C115.083 17.0963 117.076 13.9045 120.042 12.1959L119.542 11.3294ZM119.292 0V11.7627H120.292V0H119.292ZM67.708 0.5H119.792V-0.5H67.708V0.5ZM68.208 11.763V0H67.208V11.763H68.208ZM73.4161 20.7499C73.4161 16.7231 71.219 13.209 67.9576 11.3298L67.4584 12.1962C70.4239 13.9049 72.4161 17.0965 72.4161 20.7499H73.4161ZM62.4995 31.6249C68.5267 31.6249 73.4161 26.7579 73.4161 20.7499H72.4161C72.4161 26.2018 67.9782 30.6249 62.4995 30.6249V31.6249ZM51.5828 20.7499C51.5828 26.7579 56.4722 31.6249 62.4995 31.6249V30.6249C57.0207 30.6249 52.5828 26.2018 52.5828 20.7499H51.5828ZM57.0417 11.3295C53.7801 13.2086 51.5828 16.7229 51.5828 20.7499H52.5828C52.5828 17.0963 54.5752 13.9046 57.5409 12.196L57.0417 11.3295ZM56.7913 0V11.7628H57.7913V0H56.7913ZM0 0.5H57.2913V-0.5H0V0.5ZM0.5 265V0H-0.5V265H0.5ZM0 265.5H375V264.5H0V265.5ZM374.5 0V265H375.5V0H374.5ZM317.709 0.5H375V-0.5H317.709V0.5ZM318.209 11.7633V0H317.209V11.7633H318.209ZM323.416 20.75C323.416 16.7233 321.22 13.2093 317.958 11.3301L317.459 12.1965C320.424 13.9052 322.416 17.0967 322.416 20.75H323.416ZM312.5 31.625C318.527 31.625 323.416 26.758 323.416 20.75H322.416C322.416 26.2019 317.979 30.625 312.5 30.625V31.625ZM301.583 20.75C301.583 26.758 306.473 31.625 312.5 31.625V30.625C307.021 30.625 302.583 26.2019 302.583 20.75H301.583ZM307.042 11.3294C303.781 13.2085 301.583 16.7229 301.583 20.75H302.583C302.583 17.0963 304.576 13.9045 307.542 12.1959L307.042 11.3294Z" fill="#767676" mask="url(#path-1-inside-1_263_3805)"/>
</svg>
