<svg xmlns="http://www.w3.org/2000/svg" width="50" height="51" viewBox="0 0 50 51" fill="none">
  <path d="M24.9743 36.1116C27.4916 36.1116 29.601 35.2605 31.3024 33.5582C33.0038 31.856 33.8545 29.7456 33.8545 27.227C33.8545 24.7083 33.0038 22.6066 31.3024 20.9217C29.601 19.2368 27.4916 18.3944 24.9743 18.3944C22.4569 18.3944 20.3562 19.2368 18.6722 20.9217C16.9882 22.6066 16.1462 24.7083 16.1462 27.227C16.1462 29.7456 16.9882 31.856 18.6722 33.5582C20.3562 35.2605 22.4569 36.1116 24.9743 36.1116ZM24.9743 32.985C23.325 32.985 21.9621 32.4379 20.8857 31.3436C19.8094 30.2493 19.2712 28.8771 19.2712 27.227C19.2712 25.5768 19.8094 24.2133 20.8857 23.1364C21.9621 22.0594 23.325 21.521 24.9743 21.521C26.6236 21.521 27.9951 22.0594 29.0889 23.1364C30.1826 24.2133 30.7295 25.5768 30.7295 27.227C30.7295 28.8771 30.1826 30.2493 29.0889 31.3436C27.9951 32.4379 26.6236 32.985 24.9743 32.985ZM7.29199 43.7717C6.45866 43.7717 5.72949 43.459 5.10449 42.8337C4.47949 42.2084 4.16699 41.4789 4.16699 40.6451V13.913C4.16699 13.114 4.47949 12.3932 5.10449 11.7505C5.72949 11.1078 6.45866 10.7864 7.29199 10.7864H14.9482L18.7503 6.25293H31.2503L35.0524 10.7864H42.7087C43.5073 10.7864 44.2278 11.1078 44.8701 11.7505C45.5125 12.3932 45.8337 13.114 45.8337 13.913V40.6451C45.8337 41.4789 45.5125 42.2084 44.8701 42.8337C44.2278 43.459 43.5073 43.7717 42.7087 43.7717H7.29199ZM7.29199 40.6451H42.7087V13.913H33.5941L29.792 9.37949H20.2087L16.4066 13.913H7.29199V40.6451Z" fill="#767676"/>
</svg>
