<svg width="326" height="185" viewBox="0 0 326 185" fill="none" xmlns="http://www.w3.org/2000/svg">
<mask id="path-1-inside-1_788_8386" fill="white">
<path fill-rule="evenodd" clip-rule="evenodd" d="M198 35H306C317.046 35 326 43.9543 326 55V165C326 176.046 317.046 185 306 185H20C8.9543 185 0 176.046 0 165V55C0 43.9543 8.95431 35 20 35H128C128 15.67 143.67 0 163 0C182.33 0 198 15.67 198 35Z"/>
</mask>
<path fill-rule="evenodd" clip-rule="evenodd" d="M198 35H306C317.046 35 326 43.9543 326 55V165C326 176.046 317.046 185 306 185H20C8.9543 185 0 176.046 0 165V55C0 43.9543 8.95431 35 20 35H128C128 15.67 143.67 0 163 0C182.33 0 198 15.67 198 35Z" fill="white"/>
<path d="M198 35H197.5V35.5H198V35ZM128 35V35.5H128.5V35H128ZM198.5 35C198.5 34.6662 198.495 34.3335 198.486 34.0019L197.487 34.0295C197.496 34.3519 197.5 34.6754 197.5 35H198.5ZM198.376 32.0141C198.321 31.3493 198.247 30.6895 198.156 30.0355L197.165 30.1741C197.254 30.8097 197.326 31.4509 197.38 32.0972L198.376 32.0141ZM197.824 28.0723C197.695 27.4185 197.548 26.7712 197.383 26.1309L196.415 26.38C196.575 27.0021 196.718 27.6311 196.843 28.2664L197.824 28.0723ZM196.832 24.2161C196.63 23.5815 196.411 22.9545 196.174 22.3359L195.24 22.6927C195.47 23.2938 195.683 23.9029 195.879 24.5196L196.832 24.2161ZM195.411 20.4961C195.139 19.8889 194.851 19.2909 194.546 18.7024L193.658 19.1621C193.954 19.7339 194.235 20.3151 194.499 20.905L195.411 20.4961ZM193.581 16.9604C193.243 16.3881 192.889 15.8263 192.52 15.2753L191.689 15.8316C192.048 16.3671 192.392 16.9132 192.72 17.4692L193.581 16.9604ZM191.367 13.6521C190.967 13.1216 190.552 12.6027 190.124 12.0959L189.36 12.7415C189.777 13.234 190.179 13.7384 190.568 14.254L191.367 13.6521ZM188.797 10.6116C188.34 10.1292 187.871 9.65967 187.388 9.2035L186.701 9.93004C187.17 10.3734 187.627 10.8298 188.07 11.2987L188.797 10.6116ZM185.904 7.87608C185.397 7.44773 184.878 7.03333 184.348 6.63345L183.746 7.43201C184.262 7.82067 184.766 8.22346 185.259 8.6398L185.904 7.87608ZM182.725 5.47973C182.174 5.11086 181.612 4.757 181.04 4.41874L180.531 5.27958C181.087 5.6083 181.633 5.9522 182.168 6.3107L182.725 5.47973ZM179.298 3.45392C178.709 3.14929 178.111 2.86064 177.504 2.58855L177.095 3.50109C177.685 3.76548 178.266 4.04597 178.838 4.34199L179.298 3.45392ZM175.664 1.82559C175.045 1.5893 174.419 1.3698 173.784 1.16768L173.48 2.12052C174.097 2.31691 174.706 2.53017 175.307 2.75976L175.664 1.82559ZM171.869 0.617024C171.229 0.452319 170.581 0.305033 169.928 0.175697L169.734 1.15669C170.369 1.28236 170.998 1.42547 171.62 1.5855L171.869 0.617024ZM167.965 -0.155558C167.31 -0.247092 166.651 -0.320801 165.986 -0.376181L165.903 0.620368C166.549 0.674197 167.19 0.745837 167.826 0.83479L167.965 -0.155558ZM163.998 -0.486236C163.666 -0.495392 163.334 -0.5 163 -0.5V0.5C163.325 0.5 163.648 0.504481 163.97 0.513383L163.998 -0.486236ZM163 -0.5C162.666 -0.5 162.334 -0.495392 162.002 -0.486236L162.03 0.513383C162.352 0.504481 162.675 0.5 163 0.5V-0.5ZM160.014 -0.376181C159.349 -0.320801 158.69 -0.247092 158.035 -0.155558L158.174 0.83479C158.81 0.745837 159.451 0.674197 160.097 0.620368L160.014 -0.376181ZM156.072 0.175697C155.419 0.305032 154.771 0.452319 154.131 0.617023L154.38 1.5855C155.002 1.42547 155.631 1.28236 156.266 1.15669L156.072 0.175697ZM152.216 1.16768C151.581 1.3698 150.955 1.5893 150.336 1.82559L150.693 2.75976C151.294 2.53017 151.903 2.31691 152.52 2.12052L152.216 1.16768ZM148.496 2.58855C147.889 2.86064 147.291 3.14929 146.702 3.45392L147.162 4.34199C147.734 4.04597 148.315 3.76548 148.905 3.50109L148.496 2.58855ZM144.96 4.41874C144.388 4.757 143.826 5.11086 143.275 5.47973L143.832 6.31069C144.367 5.9522 144.913 5.6083 145.469 5.27958L144.96 4.41874ZM141.652 6.63345C141.122 7.03332 140.603 7.44773 140.096 7.87608L140.741 8.6398C141.234 8.22345 141.738 7.82067 142.254 7.43201L141.652 6.63345ZM138.612 9.20349C138.129 9.65966 137.66 10.1292 137.203 10.6115L137.93 11.2987C138.373 10.8298 138.83 10.3734 139.299 9.93004L138.612 9.20349ZM135.876 12.0959C135.448 12.6027 135.033 13.1216 134.633 13.6521L135.432 14.254C135.821 13.7384 136.223 13.234 136.64 12.7415L135.876 12.0959ZM133.48 15.2753C133.111 15.8263 132.757 16.3881 132.419 16.9604L133.28 17.4692C133.608 16.9132 133.952 16.3671 134.311 15.8316L133.48 15.2753ZM131.454 18.7024C131.149 19.2909 130.861 19.8889 130.589 20.4961L131.501 20.905C131.765 20.3151 132.046 19.7339 132.342 19.1621L131.454 18.7024ZM129.826 22.3359C129.589 22.9545 129.37 23.5815 129.168 24.2161L130.121 24.5196C130.317 23.9029 130.53 23.2938 130.76 22.6927L129.826 22.3359ZM128.617 26.1309C128.452 26.7712 128.305 27.4185 128.176 28.0723L129.157 28.2664C129.282 27.6311 129.425 27.0021 129.585 26.38L128.617 26.1309ZM127.844 30.0355C127.753 30.6895 127.679 31.3493 127.624 32.0141L128.62 32.0972C128.674 31.4509 128.746 30.8097 128.835 30.1741L127.844 30.0355ZM127.514 34.0019C127.505 34.3335 127.5 34.6662 127.5 35H128.5C128.5 34.6754 128.504 34.3519 128.513 34.0295L127.514 34.0019ZM128 34.5H127V35.5H128V34.5ZM125 34.5H123V35.5H125V34.5ZM121 34.5H119V35.5H121V34.5ZM117 34.5H115V35.5H117V34.5ZM113 34.5H111V35.5H113V34.5ZM109 34.5H107V35.5H109V34.5ZM105 34.5H103V35.5H105V34.5ZM101 34.5H99V35.5H101V34.5ZM97 34.5H95V35.5H97V34.5ZM93 34.5H91V35.5H93V34.5ZM89 34.5H87V35.5H89V34.5ZM85 34.5H83V35.5H85V34.5ZM81 34.5H79V35.5H81V34.5ZM77 34.5H75V35.5H77V34.5ZM73 34.5H71V35.5H73V34.5ZM69 34.5H67V35.5H69V34.5ZM65 34.5H63V35.5H65V34.5ZM61 34.5H59V35.5H61V34.5ZM57 34.5H55V35.5H57V34.5ZM53 34.5H51V35.5H53V34.5ZM49 34.5H47V35.5H49V34.5ZM45 34.5H43V35.5H45V34.5ZM41 34.5H39V35.5H41V34.5ZM37 34.5H35V35.5H37V34.5ZM33 34.5H31V35.5H33V34.5ZM29 34.5H27V35.5H29V34.5ZM25 34.5H23V35.5H25V34.5ZM21 34.5H20V35.5H21V34.5ZM20 34.5C19.6628 34.5 19.3274 34.5081 18.9941 34.5243L19.0424 35.5231C19.3596 35.5078 19.6789 35.5 20 35.5V34.5ZM16.9915 34.7193C16.3225 34.8177 15.664 34.9484 15.0175 35.1098L15.2598 36.08C15.8745 35.9265 16.5007 35.8022 17.1371 35.7086L16.9915 34.7193ZM13.0916 35.6933C12.457 35.9204 11.8368 36.1779 11.2329 36.4641L11.661 37.3678C12.2354 37.0957 12.8251 36.8508 13.4286 36.6348L13.0916 35.6933ZM9.45918 37.4141C8.88285 37.7602 8.32496 38.1339 7.78734 38.5333L8.38366 39.336C8.89515 38.9561 9.42587 38.6006 9.97408 38.2713L9.45918 37.4141ZM6.23292 39.8104C5.73592 40.2611 5.26113 40.7359 4.81041 41.2329L5.55116 41.9047C5.98003 41.4318 6.4318 40.98 6.9047 40.5512L6.23292 39.8104ZM3.5333 42.7873C3.13392 43.325 2.76024 43.8828 2.41407 44.4592L3.27132 44.9741C3.6006 44.4259 3.95608 43.8952 4.33604 43.3837L3.5333 42.7873ZM1.46409 46.2329C1.17795 46.8368 0.920436 47.457 0.693316 48.0916L1.63484 48.4286C1.8508 47.8251 2.09567 47.2354 2.36779 46.661L1.46409 46.2329ZM0.109826 50.0175C-0.0515992 50.664 -0.182331 51.3225 -0.28074 51.9915L0.708614 52.1371C0.802214 51.5007 0.926542 50.8745 1.08003 50.2598L0.109826 50.0175ZM-0.475742 53.9941C-0.491853 54.3274 -0.5 54.6628 -0.5 55H0.5C0.5 54.6789 0.507758 54.3596 0.523092 54.0424L-0.475742 53.9941ZM-0.5 55V55.9821H0.5V55H-0.5ZM-0.5 57.9464V59.9107H0.5V57.9464H-0.5ZM-0.5 61.875V63.8393H0.5V61.875H-0.5ZM-0.5 65.8036V67.7679H0.5V65.8036H-0.5ZM-0.5 69.7321V71.6964H0.5V69.7321H-0.5ZM-0.5 73.6607V75.625H0.5V73.6607H-0.5ZM-0.5 77.5893V79.5536H0.5V77.5893H-0.5ZM-0.5 81.5179V83.4821H0.5V81.5179H-0.5ZM-0.5 85.4464V87.4107H0.5V85.4464H-0.5ZM-0.5 89.375V91.3393H0.5V89.375H-0.5ZM-0.5 93.3036V95.2679H0.5V93.3036H-0.5ZM-0.5 97.2321V99.1964H0.5V97.2321H-0.5ZM-0.5 101.161V103.125H0.5V101.161H-0.5ZM-0.5 105.089V107.054H0.5V105.089H-0.5ZM-0.5 109.018V110.982H0.5V109.018H-0.5ZM-0.5 112.946V114.911H0.5V112.946H-0.5ZM-0.5 116.875V118.839H0.5V116.875H-0.5ZM-0.5 120.804V122.768H0.5V120.804H-0.5ZM-0.5 124.732V126.696H0.5V124.732H-0.5ZM-0.5 128.661V130.625H0.5V128.661H-0.5ZM-0.5 132.589V134.554H0.5V132.589H-0.5ZM-0.5 136.518V138.482H0.5V136.518H-0.5ZM-0.5 140.446V142.411H0.5V140.446H-0.5ZM-0.5 144.375V146.339H0.5V144.375H-0.5ZM-0.5 148.304V150.268H0.5V148.304H-0.5ZM-0.5 152.232V154.196H0.5V152.232H-0.5ZM-0.5 156.161V158.125H0.5V156.161H-0.5ZM-0.5 160.089V162.054H0.5V160.089H-0.5ZM-0.5 164.018V165H0.5V164.018H-0.5ZM-0.5 165C-0.5 165.337 -0.491853 165.673 -0.475742 166.006L0.523092 165.958C0.507758 165.64 0.5 165.321 0.5 165H-0.5ZM-0.28074 168.008C-0.182332 168.677 -0.0515993 169.336 0.109826 169.982L1.08003 169.74C0.926541 169.126 0.802213 168.499 0.708614 167.863L-0.28074 168.008ZM0.693316 171.908C0.920435 172.543 1.17795 173.163 1.46409 173.767L2.36779 173.339C2.09567 172.765 1.8508 172.175 1.63484 171.571L0.693316 171.908ZM2.41407 175.541C2.76024 176.117 3.13392 176.675 3.53329 177.213L4.33604 176.616C3.95608 176.105 3.6006 175.574 3.27131 175.026L2.41407 175.541ZM4.81041 178.767C5.26113 179.264 5.73592 179.739 6.23292 180.19L6.9047 179.449C6.43179 179.02 5.98003 178.568 5.55116 178.095L4.81041 178.767ZM7.78734 181.467C8.32496 181.866 8.88284 182.24 9.45917 182.586L9.97408 181.729C9.42587 181.399 8.89515 181.044 8.38366 180.664L7.78734 181.467ZM11.2329 183.536C11.8368 183.822 12.457 184.08 13.0916 184.307L13.4286 183.365C12.8251 183.149 12.2354 182.904 11.661 182.632L11.2329 183.536ZM15.0175 184.89C15.664 185.052 16.3225 185.182 16.9915 185.281L17.1371 184.291C16.5007 184.198 15.8745 184.073 15.2598 183.92L15.0175 184.89ZM18.9941 185.476C19.3274 185.492 19.6628 185.5 20 185.5V184.5C19.6789 184.5 19.3596 184.492 19.0424 184.477L18.9941 185.476ZM20 185.5H20.9931V184.5H20V185.5ZM22.9792 185.5H24.9653V184.5H22.9792V185.5ZM26.9514 185.5H28.9375V184.5H26.9514V185.5ZM30.9236 185.5H32.9097V184.5H30.9236V185.5ZM34.8958 185.5H36.8819V184.5H34.8958V185.5ZM38.8681 185.5H40.8542V184.5H38.8681V185.5ZM42.8403 185.5H44.8264V184.5H42.8403V185.5ZM46.8125 185.5H48.7986V184.5H46.8125V185.5ZM50.7847 185.5H52.7708V184.5H50.7847V185.5ZM54.7569 185.5H56.743V184.5H54.7569V185.5ZM58.7292 185.5H60.7153V184.5H58.7292V185.5ZM62.7014 185.5H64.6875V184.5H62.7014V185.5ZM66.6736 185.5H68.6597V184.5H66.6736V185.5ZM70.6458 185.5H72.6319V184.5H70.6458V185.5ZM74.618 185.5H76.6042V184.5H74.618V185.5ZM78.5903 185.5H80.5764V184.5H78.5903V185.5ZM82.5625 185.5H84.5486V184.5H82.5625V185.5ZM86.5347 185.5H88.5208V184.5H86.5347V185.5ZM90.5069 185.5H92.4931V184.5H90.5069V185.5ZM94.4792 185.5H96.4653V184.5H94.4792V185.5ZM98.4514 185.5H100.438V184.5H98.4514V185.5ZM102.424 185.5H104.41V184.5H102.424V185.5ZM106.396 185.5H108.382V184.5H106.396V185.5ZM110.368 185.5H112.354V184.5H110.368V185.5ZM114.34 185.5H116.326V184.5H114.34V185.5ZM118.313 185.5H120.299V184.5H118.313V185.5ZM122.285 185.5H124.271V184.5H122.285V185.5ZM126.257 185.5H128.243V184.5H126.257V185.5ZM130.229 185.5H132.215V184.5H130.229V185.5ZM134.201 185.5H136.188V184.5H134.201V185.5ZM138.174 185.5H140.16V184.5H138.174V185.5ZM142.146 185.5H144.132V184.5H142.146V185.5ZM146.118 185.5H148.104V184.5H146.118V185.5ZM150.09 185.5H152.076V184.5H150.09V185.5ZM154.063 185.5H156.049V184.5H154.063V185.5ZM158.035 185.5H160.021V184.5H158.035V185.5ZM162.007 185.5H163.993V184.5H162.007V185.5ZM165.979 185.5H167.965V184.5H165.979V185.5ZM169.952 185.5H171.938V184.5H169.952V185.5ZM173.924 185.5H175.91V184.5H173.924V185.5ZM177.896 185.5H179.882V184.5H177.896V185.5ZM181.868 185.5H183.854V184.5H181.868V185.5ZM185.84 185.5H187.827V184.5H185.84V185.5ZM189.813 185.5H191.799V184.5H189.813V185.5ZM193.785 185.5H195.771V184.5H193.785V185.5ZM197.757 185.5H199.743V184.5H197.757V185.5ZM201.729 185.5H203.715V184.5H201.729V185.5ZM205.702 185.5H207.688V184.5H205.702V185.5ZM209.674 185.5H211.66V184.5H209.674V185.5ZM213.646 185.5H215.632V184.5H213.646V185.5ZM217.618 185.5H219.604V184.5H217.618V185.5ZM221.59 185.5H223.577V184.5H221.59V185.5ZM225.563 185.5H227.549V184.5H225.563V185.5ZM229.535 185.5H231.521V184.5H229.535V185.5ZM233.507 185.5H235.493V184.5H233.507V185.5ZM237.479 185.5H239.466V184.5H237.479V185.5ZM241.452 185.5H243.438V184.5H241.452V185.5ZM245.424 185.5H247.41V184.5H245.424V185.5ZM249.396 185.5H251.382V184.5H249.396V185.5ZM253.368 185.5H255.354V184.5H253.368V185.5ZM257.341 185.5H259.327V184.5H257.341V185.5ZM261.313 185.5H263.299V184.5H261.313V185.5ZM265.285 185.5H267.271V184.5H265.285V185.5ZM269.257 185.5H271.243V184.5H269.257V185.5ZM273.229 185.5H275.216V184.5H273.229V185.5ZM277.202 185.5H279.188V184.5H277.202V185.5ZM281.174 185.5H283.16V184.5H281.174V185.5ZM285.146 185.5H287.132V184.5H285.146V185.5ZM289.118 185.5H291.104V184.5H289.118V185.5ZM293.091 185.5H295.077V184.5H293.091V185.5ZM297.063 185.5H299.049V184.5H297.063V185.5ZM301.035 185.5H303.021V184.5H301.035V185.5ZM305.007 185.5H306V184.5H305.007V185.5ZM306 185.5C306.337 185.5 306.673 185.492 307.006 185.476L306.958 184.477C306.64 184.492 306.321 184.5 306 184.5V185.5ZM309.008 185.281C309.677 185.182 310.336 185.052 310.982 184.89L310.74 183.92C310.126 184.073 309.499 184.198 308.863 184.291L309.008 185.281ZM312.908 184.307C313.543 184.08 314.163 183.822 314.767 183.536L314.339 182.632C313.765 182.904 313.175 183.149 312.571 183.365L312.908 184.307ZM316.541 182.586C317.117 182.24 317.675 181.866 318.213 181.467L317.616 180.664C317.105 181.044 316.574 181.399 316.026 181.729L316.541 182.586ZM319.767 180.19C320.264 179.739 320.739 179.264 321.19 178.767L320.449 178.095C320.02 178.568 319.568 179.02 319.095 179.449L319.767 180.19ZM322.467 177.213C322.866 176.675 323.24 176.117 323.586 175.541L322.729 175.026C322.399 175.574 322.044 176.105 321.664 176.616L322.467 177.213ZM324.536 173.767C324.822 173.163 325.08 172.543 325.307 171.908L324.365 171.571C324.149 172.175 323.904 172.765 323.632 173.339L324.536 173.767ZM325.89 169.982C326.052 169.336 326.182 168.677 326.281 168.008L325.291 167.863C325.198 168.499 325.073 169.126 324.92 169.74L325.89 169.982ZM326.476 166.006C326.492 165.673 326.5 165.337 326.5 165H325.5C325.5 165.321 325.492 165.64 325.477 165.958L326.476 166.006ZM326.5 165V164.018H325.5V165H326.5ZM326.5 162.054V160.089H325.5V162.054H326.5ZM326.5 158.125V156.161H325.5V158.125H326.5ZM326.5 154.196V152.232H325.5V154.196H326.5ZM326.5 150.268V148.304H325.5V150.268H326.5ZM326.5 146.339V144.375H325.5V146.339H326.5ZM326.5 142.411V140.446H325.5V142.411H326.5ZM326.5 138.482V136.518H325.5V138.482H326.5ZM326.5 134.554V132.589H325.5V134.554H326.5ZM326.5 130.625V128.661H325.5V130.625H326.5ZM326.5 126.696V124.732H325.5V126.696H326.5ZM326.5 122.768V120.804H325.5V122.768H326.5ZM326.5 118.839V116.875H325.5V118.839H326.5ZM326.5 114.911V112.946H325.5V114.911H326.5ZM326.5 110.982V109.018H325.5V110.982H326.5ZM326.5 107.054V105.089H325.5V107.054H326.5ZM326.5 103.125V101.161H325.5V103.125H326.5ZM326.5 99.1964V97.2321H325.5V99.1964H326.5ZM326.5 95.2678V93.3036H325.5V95.2678H326.5ZM326.5 91.3393V89.375H325.5V91.3393H326.5ZM326.5 87.4107V85.4464H325.5V87.4107H326.5ZM326.5 83.4821V81.5178H325.5V83.4821H326.5ZM326.5 79.5536V77.5893H325.5V79.5536H326.5ZM326.5 75.625V73.6607H325.5V75.625H326.5ZM326.5 71.6964V69.7321H325.5V71.6964H326.5ZM326.5 67.7678V65.8035H325.5V67.7678H326.5ZM326.5 63.8393V61.875H325.5V63.8393H326.5ZM326.5 59.9107V57.9464H325.5V59.9107H326.5ZM326.5 55.9821V55H325.5V55.9821H326.5ZM326.5 55C326.5 54.6628 326.492 54.3274 326.476 53.9941L325.477 54.0424C325.492 54.3596 325.5 54.6789 325.5 55H326.5ZM326.281 51.9915C326.182 51.3225 326.052 50.664 325.89 50.0175L324.92 50.2598C325.073 50.8745 325.198 51.5007 325.291 52.1371L326.281 51.9915ZM325.307 48.0916C325.08 47.457 324.822 46.8368 324.536 46.2329L323.632 46.661C323.904 47.2354 324.149 47.8251 324.365 48.4286L325.307 48.0916ZM323.586 44.4592C323.24 43.8828 322.866 43.325 322.467 42.7873L321.664 43.3837C322.044 43.8952 322.399 44.4259 322.729 44.9741L323.586 44.4592ZM321.19 41.2329C320.739 40.7359 320.264 40.2611 319.767 39.8104L319.095 40.5512C319.568 40.98 320.02 41.4318 320.449 41.9047L321.19 41.2329ZM318.213 38.5333C317.675 38.1339 317.117 37.7602 316.541 37.4141L316.026 38.2713C316.574 38.6006 317.105 38.9561 317.616 39.336L318.213 38.5333ZM314.767 36.4641C314.163 36.1779 313.543 35.9204 312.908 35.6933L312.571 36.6348C313.175 36.8508 313.765 37.0957 314.339 37.3678L314.767 36.4641ZM310.982 35.1098C310.336 34.9484 309.677 34.8177 309.008 34.7193L308.863 35.7086C309.499 35.8022 310.126 35.9265 310.74 36.08L310.982 35.1098ZM307.006 34.5243C306.673 34.5081 306.337 34.5 306 34.5V35.5C306.321 35.5 306.64 35.5078 306.958 35.5231L307.006 34.5243ZM306 34.5H305V35.5H306V34.5ZM303 34.5H301V35.5H303V34.5ZM299 34.5H297V35.5H299V34.5ZM295 34.5H293V35.5H295V34.5ZM291 34.5H289V35.5H291V34.5ZM287 34.5H285V35.5H287V34.5ZM283 34.5H281V35.5H283V34.5ZM279 34.5H277V35.5H279V34.5ZM275 34.5H273V35.5H275V34.5ZM271 34.5H269V35.5H271V34.5ZM267 34.5H265V35.5H267V34.5ZM263 34.5H261V35.5H263V34.5ZM259 34.5H257V35.5H259V34.5ZM255 34.5H253V35.5H255V34.5ZM251 34.5H249V35.5H251V34.5ZM247 34.5H245V35.5H247V34.5ZM243 34.5H241V35.5H243V34.5ZM239 34.5H237V35.5H239V34.5ZM235 34.5H233V35.5H235V34.5ZM231 34.5H229V35.5H231V34.5ZM227 34.5H225V35.5H227V34.5ZM223 34.5H221V35.5H223V34.5ZM219 34.5H217V35.5H219V34.5ZM215 34.5H213V35.5H215V34.5ZM211 34.5H209V35.5H211V34.5ZM207 34.5H205V35.5H207V34.5ZM203 34.5H201V35.5H203V34.5ZM199 34.5H198V35.5H199V34.5ZM198 35H197V36H198V35ZM128 35V36H129V35H128ZM199 35C199 34.6616 198.995 34.3243 198.986 33.9881L196.987 34.0433C196.996 34.3611 197 34.68 197 35H199ZM198.874 31.9726C198.818 31.2984 198.744 30.6295 198.651 29.9662L196.67 30.2434C196.758 30.8698 196.828 31.5017 196.881 32.1387L198.874 31.9726ZM198.315 27.9753C198.184 27.3122 198.034 26.6557 197.867 26.0063L195.93 26.5045C196.088 27.1176 196.229 27.7374 196.353 28.3634L198.315 27.9753ZM197.309 24.0644C197.104 23.4207 196.881 22.7849 196.641 22.1575L194.773 22.8711C194.999 23.4634 195.21 24.0637 195.403 24.6713L197.309 24.0644ZM195.868 20.2916C195.592 19.6759 195.299 19.0693 194.99 18.4725L193.214 19.392C193.506 19.9555 193.782 20.5282 194.043 21.1095L195.868 20.2916ZM194.012 16.7059C193.669 16.1256 193.31 15.5559 192.936 14.9971L191.274 16.1098C191.627 16.6375 191.966 17.1757 192.29 17.7237L194.012 16.7059ZM191.766 13.3512C191.36 12.8132 190.94 12.287 190.506 11.7732L188.978 13.0642C189.389 13.5497 189.786 14.0468 190.169 14.555L191.766 13.3512ZM189.16 10.268C188.697 9.7789 188.221 9.30278 187.732 8.84023L186.358 10.2933C186.82 10.7303 187.27 11.1802 187.707 11.6422L189.16 10.268ZM186.227 7.49422C185.713 7.05987 185.187 6.63966 184.649 6.23417L183.445 7.8313C183.953 8.21434 184.45 8.61132 184.936 9.02166L186.227 7.49422ZM183.003 5.06424C182.444 4.69019 181.874 4.33135 181.294 3.98832L180.276 5.71C180.824 6.03396 181.363 6.37287 181.89 6.72618L183.003 5.06424ZM179.527 3.00989C178.931 2.70096 178.324 2.40822 177.708 2.13227L176.89 3.95736C177.472 4.2179 178.045 4.4943 178.608 4.78602L179.527 3.00989ZM175.843 1.3585C175.215 1.11886 174.579 0.896251 173.936 0.691253L173.329 2.59694C173.936 2.79046 174.537 3.00061 175.129 3.22685L175.843 1.3585ZM171.994 0.132785C171.344 -0.0342561 170.688 -0.18363 170.025 -0.314797L169.637 1.64718C170.263 1.77102 170.882 1.91205 171.495 2.06974L171.994 0.132785ZM168.034 -0.650732C167.371 -0.743556 166.702 -0.8183 166.027 -0.874456L165.861 1.11864C166.498 1.1717 167.13 1.2423 167.757 1.32996L168.034 -0.650732ZM164.012 -0.986046C163.676 -0.995329 163.338 -1 163 -1V1C163.32 1 163.639 1.00442 163.957 1.01319L164.012 -0.986046ZM163 -1C162.662 -1 162.324 -0.995329 161.988 -0.986046L162.043 1.01319C162.361 1.00442 162.68 1 163 1V-1ZM159.973 -0.874456C159.298 -0.8183 158.629 -0.743557 157.966 -0.650733L158.243 1.32996C158.87 1.2423 159.502 1.1717 160.139 1.11864L159.973 -0.874456ZM155.975 -0.314797C155.312 -0.183631 154.656 -0.0342564 154.006 0.132785L154.505 2.06974C155.118 1.91205 155.737 1.77102 156.363 1.64718L155.975 -0.314797ZM152.064 0.691253C151.421 0.896251 150.785 1.11886 150.157 1.3585L150.871 3.22685C151.463 3.00061 152.064 2.79046 152.671 2.59694L152.064 0.691253ZM148.292 2.13227C147.676 2.40822 147.069 2.70096 146.473 3.00989L147.392 4.78602C147.955 4.4943 148.528 4.2179 149.11 3.95736L148.292 2.13227ZM144.706 3.98832C144.126 4.33135 143.556 4.69019 142.997 5.06424L144.11 6.72618C144.637 6.37287 145.176 6.03396 145.724 5.71L144.706 3.98832ZM141.351 6.23417C140.813 6.63965 140.287 7.05987 139.773 7.49422L141.064 9.02166C141.55 8.61131 142.047 8.21434 142.555 7.83129L141.351 6.23417ZM138.268 8.84022C137.779 9.30278 137.303 9.7789 136.84 10.268L138.293 11.6422C138.73 11.1801 139.18 10.7303 139.642 10.2933L138.268 8.84022ZM135.494 11.7732C135.06 12.287 134.64 12.8132 134.234 13.3512L135.831 14.555C136.214 14.0468 136.611 13.5497 137.022 13.0642L135.494 11.7732ZM133.064 14.9971C132.69 15.5559 132.331 16.1256 131.988 16.7059L133.71 17.7237C134.034 17.1757 134.373 16.6375 134.726 16.1098L133.064 14.9971ZM131.01 18.4725C130.701 19.0693 130.408 19.6759 130.132 20.2916L131.957 21.1095C132.218 20.5282 132.494 19.9555 132.786 19.392L131.01 18.4725ZM129.359 22.1575C129.119 22.7849 128.896 23.4207 128.691 24.0644L130.597 24.6713C130.79 24.0637 131.001 23.4634 131.227 22.8711L129.359 22.1575ZM128.133 26.0063C127.966 26.6557 127.816 27.3122 127.685 27.9753L129.647 28.3634C129.771 27.7374 129.912 27.1176 130.07 26.5045L128.133 26.0063ZM127.349 29.9662C127.256 30.6295 127.182 31.2984 127.126 31.9726L129.119 32.1387C129.172 31.5017 129.242 30.8698 129.33 30.2434L127.349 29.9662ZM127.014 33.9881C127.005 34.3243 127 34.6616 127 35H129C129 34.68 129.004 34.3611 129.013 34.0433L127.014 33.9881ZM128 34H127V36H128V34ZM125 34H123V36H125V34ZM121 34H119V36H121V34ZM117 34H115V36H117V34ZM113 34H111V36H113V34ZM109 34H107V36H109V34ZM105 34H103V36H105V34ZM101 34H99V36H101V34ZM97 34H95V36H97V34ZM93 34H91V36H93V34ZM89 34H87V36H89V34ZM85 34H83V36H85V34ZM81 34H79V36H81V34ZM77 34H75V36H77V34ZM73 34H71V36H73V34ZM69 34H67V36H69V34ZM65 34H63V36H65V34ZM61 34H59V36H61V34ZM57 34H55V36H57V34ZM53 34H51V36H53V34ZM49 34H47V36H49V34ZM45 34H43V36H45V34ZM41 34H39V36H41V34ZM37 34H35V36H37V34ZM33 34H31V36H33V34ZM29 34H27V36H29V34ZM25 34H23V36H25V34ZM21 34H20V36H21V34ZM20 34C19.6547 34 19.3113 34.0083 18.97 34.0248L19.0665 36.0225C19.3757 36.0076 19.6869 36 20 36V34ZM16.9188 34.2246C16.2334 34.3254 15.5587 34.4593 14.8964 34.6247L15.3809 36.5651C15.9797 36.4156 16.5898 36.2945 17.2098 36.2033L16.9188 34.2246ZM12.9232 35.2226C12.2729 35.4553 11.6375 35.7191 11.0188 36.0122L11.8751 37.8196C12.4347 37.5545 13.0092 37.316 13.597 37.1056L12.9232 35.2226ZM9.20173 36.9854C8.61133 37.3401 8.03987 37.7228 7.48918 38.1319L8.68182 39.7374C9.18025 39.3672 9.69738 39.0208 10.2315 38.6999L9.20173 36.9854ZM5.89703 39.44C5.38798 39.9017 4.90169 40.388 4.44003 40.897L5.92154 42.2406C6.33948 41.7797 6.77973 41.3395 7.24059 40.9215L5.89703 39.44ZM3.13192 42.4892C2.72284 43.0399 2.34006 43.6113 1.98544 44.2017L3.69994 45.2315C4.02078 44.6974 4.36716 44.1802 4.73742 43.6818L3.13192 42.4892ZM1.01224 46.0188C0.719086 46.6375 0.455253 47.2729 0.222552 47.9232L2.10561 48.597C2.31598 48.0092 2.55453 47.4347 2.81964 46.8751L1.01224 46.0188ZM-0.375277 49.8964C-0.54067 50.5587 -0.674604 51.2334 -0.775417 51.9188L1.20329 52.2098C1.29449 51.5899 1.41561 50.9797 1.56514 50.3809L-0.375277 49.8964ZM-0.975159 53.97C-0.991659 54.3113 -1 54.6547 -1 55H1C1 54.6869 1.00756 54.3757 1.02251 54.0665L-0.975159 53.97ZM-1 55V55.9821H1V55H-1ZM-1 57.9464V59.9107H1V57.9464H-1ZM-1 61.875V63.8393H1V61.875H-1ZM-1 65.8036V67.7679H1V65.8036H-1ZM-1 69.7321V71.6964H1V69.7321H-1ZM-1 73.6607V75.625H1V73.6607H-1ZM-1 77.5893V79.5536H1V77.5893H-1ZM-1 81.5179V83.4821H1V81.5179H-1ZM-1 85.4464V87.4107H1V85.4464H-1ZM-1 89.375V91.3393H1V89.375H-1ZM-1 93.3036V95.2679H1V93.3036H-1ZM-1 97.2321V99.1964H1V97.2321H-1ZM-1 101.161V103.125H1V101.161H-1ZM-1 105.089V107.054H1V105.089H-1ZM-1 109.018V110.982H1V109.018H-1ZM-1 112.946V114.911H1V112.946H-1ZM-1 116.875V118.839H1V116.875H-1ZM-1 120.804V122.768H1V120.804H-1ZM-1 124.732V126.696H1V124.732H-1ZM-1 128.661V130.625H1V128.661H-1ZM-1 132.589V134.554H1V132.589H-1ZM-1 136.518V138.482H1V136.518H-1ZM-1 140.446V142.411H1V140.446H-1ZM-1 144.375V146.339H1V144.375H-1ZM-1 148.304V150.268H1V148.304H-1ZM-1 152.232V154.196H1V152.232H-1ZM-1 156.161V158.125H1V156.161H-1ZM-1 160.089V162.054H1V160.089H-1ZM-1 164.018V165H1V164.018H-1ZM-1 165C-1 165.345 -0.991659 165.689 -0.975159 166.03L1.02251 165.933C1.00756 165.624 1 165.313 1 165H-1ZM-0.775417 168.081C-0.674604 168.767 -0.54067 169.441 -0.375277 170.104L1.56514 169.619C1.41561 169.02 1.29449 168.41 1.20329 167.79L-0.775417 168.081ZM0.222552 172.077C0.455253 172.727 0.719085 173.362 1.01224 173.981L2.81964 173.125C2.55453 172.565 2.31598 171.991 2.10561 171.403L0.222552 172.077ZM1.98544 175.798C2.34006 176.389 2.72284 176.96 3.13192 177.511L4.73742 176.318C4.36716 175.82 4.02077 175.303 3.69994 174.768L1.98544 175.798ZM4.44003 179.103C4.90168 179.612 5.38798 180.098 5.89703 180.56L7.24059 179.078C6.77973 178.661 6.33948 178.22 5.92154 177.759L4.44003 179.103ZM7.48918 181.868C8.03987 182.277 8.61133 182.66 9.20172 183.015L10.2315 181.3C9.69738 180.979 9.18024 180.633 8.68182 180.263L7.48918 181.868ZM11.0188 183.988C11.6375 184.281 12.2729 184.545 12.9232 184.777L13.597 182.894C13.0092 182.684 12.4347 182.445 11.8751 182.18L11.0188 183.988ZM14.8964 185.375C15.5587 185.541 16.2334 185.675 16.9188 185.775L17.2098 183.797C16.5898 183.706 15.9797 183.584 15.3809 183.435L14.8964 185.375ZM18.97 185.975C19.3113 185.992 19.6547 186 20 186V184C19.6869 184 19.3757 183.992 19.0665 183.977L18.97 185.975ZM20 186H20.9931V184H20V186ZM22.9792 186H24.9653V184H22.9792V186ZM26.9514 186H28.9375V184H26.9514V186ZM30.9236 186H32.9097V184H30.9236V186ZM34.8958 186H36.8819V184H34.8958V186ZM38.8681 186H40.8542V184H38.8681V186ZM42.8403 186H44.8264V184H42.8403V186ZM46.8125 186H48.7986V184H46.8125V186ZM50.7847 186H52.7708V184H50.7847V186ZM54.7569 186H56.743V184H54.7569V186ZM58.7292 186H60.7153V184H58.7292V186ZM62.7014 186H64.6875V184H62.7014V186ZM66.6736 186H68.6597V184H66.6736V186ZM70.6458 186H72.6319V184H70.6458V186ZM74.618 186H76.6042V184H74.618V186ZM78.5903 186H80.5764V184H78.5903V186ZM82.5625 186H84.5486V184H82.5625V186ZM86.5347 186H88.5208V184H86.5347V186ZM90.5069 186H92.4931V184H90.5069V186ZM94.4792 186H96.4653V184H94.4792V186ZM98.4514 186H100.438V184H98.4514V186ZM102.424 186H104.41V184H102.424V186ZM106.396 186H108.382V184H106.396V186ZM110.368 186H112.354V184H110.368V186ZM114.34 186H116.326V184H114.34V186ZM118.313 186H120.299V184H118.313V186ZM122.285 186H124.271V184H122.285V186ZM126.257 186H128.243V184H126.257V186ZM130.229 186H132.215V184H130.229V186ZM134.201 186H136.188V184H134.201V186ZM138.174 186H140.16V184H138.174V186ZM142.146 186H144.132V184H142.146V186ZM146.118 186H148.104V184H146.118V186ZM150.09 186H152.076V184H150.09V186ZM154.063 186H156.049V184H154.063V186ZM158.035 186H160.021V184H158.035V186ZM162.007 186H163.993V184H162.007V186ZM165.979 186H167.965V184H165.979V186ZM169.952 186H171.938V184H169.952V186ZM173.924 186H175.91V184H173.924V186ZM177.896 186H179.882V184H177.896V186ZM181.868 186H183.854V184H181.868V186ZM185.84 186H187.827V184H185.84V186ZM189.813 186H191.799V184H189.813V186ZM193.785 186H195.771V184H193.785V186ZM197.757 186H199.743V184H197.757V186ZM201.729 186H203.715V184H201.729V186ZM205.702 186H207.688V184H205.702V186ZM209.674 186H211.66V184H209.674V186ZM213.646 186H215.632V184H213.646V186ZM217.618 186H219.604V184H217.618V186ZM221.59 186H223.577V184H221.59V186ZM225.563 186H227.549V184H225.563V186ZM229.535 186H231.521V184H229.535V186ZM233.507 186H235.493V184H233.507V186ZM237.479 186H239.466V184H237.479V186ZM241.452 186H243.438V184H241.452V186ZM245.424 186H247.41V184H245.424V186ZM249.396 186H251.382V184H249.396V186ZM253.368 186H255.354V184H253.368V186ZM257.341 186H259.327V184H257.341V186ZM261.313 186H263.299V184H261.313V186ZM265.285 186H267.271V184H265.285V186ZM269.257 186H271.243V184H269.257V186ZM273.229 186H275.216V184H273.229V186ZM277.202 186H279.188V184H277.202V186ZM281.174 186H283.16V184H281.174V186ZM285.146 186H287.132V184H285.146V186ZM289.118 186H291.104V184H289.118V186ZM293.091 186H295.077V184H293.091V186ZM297.063 186H299.049V184H297.063V186ZM301.035 186H303.021V184H301.035V186ZM305.007 186H306V184H305.007V186ZM306 186C306.345 186 306.689 185.992 307.03 185.975L306.933 183.977C306.624 183.992 306.313 184 306 184V186ZM309.081 185.775C309.767 185.675 310.441 185.541 311.104 185.375L310.619 183.435C310.02 183.584 309.41 183.706 308.79 183.797L309.081 185.775ZM313.077 184.777C313.727 184.545 314.362 184.281 314.981 183.988L314.125 182.18C313.565 182.445 312.991 182.684 312.403 182.894L313.077 184.777ZM316.798 183.015C317.389 182.66 317.96 182.277 318.511 181.868L317.318 180.263C316.82 180.633 316.303 180.979 315.768 181.3L316.798 183.015ZM320.103 180.56C320.612 180.098 321.098 179.612 321.56 179.103L320.078 177.759C319.661 178.22 319.22 178.661 318.759 179.078L320.103 180.56ZM322.868 177.511C323.277 176.96 323.66 176.389 324.015 175.798L322.3 174.768C321.979 175.303 321.633 175.82 321.263 176.318L322.868 177.511ZM324.988 173.981C325.281 173.362 325.545 172.727 325.777 172.077L323.894 171.403C323.684 171.991 323.445 172.565 323.18 173.125L324.988 173.981ZM326.375 170.104C326.541 169.441 326.675 168.767 326.775 168.081L324.797 167.79C324.706 168.41 324.584 169.02 324.435 169.619L326.375 170.104ZM326.975 166.03C326.992 165.689 327 165.345 327 165H325C325 165.313 324.992 165.624 324.977 165.933L326.975 166.03ZM327 165V164.018H325V165H327ZM327 162.054V160.089H325V162.054H327ZM327 158.125V156.161H325V158.125H327ZM327 154.196V152.232H325V154.196H327ZM327 150.268V148.304H325V150.268H327ZM327 146.339V144.375H325V146.339H327ZM327 142.411V140.446H325V142.411H327ZM327 138.482V136.518H325V138.482H327ZM327 134.554V132.589H325V134.554H327ZM327 130.625V128.661H325V130.625H327ZM327 126.696V124.732H325V126.696H327ZM327 122.768V120.804H325V122.768H327ZM327 118.839V116.875H325V118.839H327ZM327 114.911V112.946H325V114.911H327ZM327 110.982V109.018H325V110.982H327ZM327 107.054V105.089H325V107.054H327ZM327 103.125V101.161H325V103.125H327ZM327 99.1964V97.2321H325V99.1964H327ZM327 95.2678V93.3036H325V95.2678H327ZM327 91.3393V89.375H325V91.3393H327ZM327 87.4107V85.4464H325V87.4107H327ZM327 83.4821V81.5178H325V83.4821H327ZM327 79.5536V77.5893H325V79.5536H327ZM327 75.625V73.6607H325V75.625H327ZM327 71.6964V69.7321H325V71.6964H327ZM327 67.7678V65.8035H325V67.7678H327ZM327 63.8393V61.875H325V63.8393H327ZM327 59.9107V57.9464H325V59.9107H327ZM327 55.9821V55H325V55.9821H327ZM327 55C327 54.6547 326.992 54.3113 326.975 53.97L324.977 54.0665C324.992 54.3757 325 54.6869 325 55H327ZM326.775 51.9188C326.675 51.2334 326.541 50.5587 326.375 49.8964L324.435 50.3809C324.584 50.9797 324.706 51.5899 324.797 52.2098L326.775 51.9188ZM325.777 47.9232C325.545 47.2729 325.281 46.6375 324.988 46.0188L323.18 46.8751C323.445 47.4347 323.684 48.0092 323.894 48.597L325.777 47.9232ZM324.015 44.2017C323.66 43.6113 323.277 43.0399 322.868 42.4892L321.263 43.6818C321.633 44.1802 321.979 44.6974 322.3 45.2315L324.015 44.2017ZM321.56 40.897C321.098 40.388 320.612 39.9017 320.103 39.44L318.759 40.9215C319.22 41.3395 319.661 41.7797 320.078 42.2406L321.56 40.897ZM318.511 38.1319C317.96 37.7228 317.389 37.3401 316.798 36.9854L315.768 38.6999C316.303 39.0208 316.82 39.3672 317.318 39.7374L318.511 38.1319ZM314.981 36.0122C314.362 35.7191 313.727 35.4553 313.077 35.2226L312.403 37.1056C312.991 37.316 313.565 37.5545 314.125 37.8196L314.981 36.0122ZM311.104 34.6247C310.441 34.4593 309.767 34.3254 309.081 34.2246L308.79 36.2033C309.41 36.2945 310.02 36.4156 310.619 36.5651L311.104 34.6247ZM307.03 34.0248C306.689 34.0083 306.345 34 306 34V36C306.313 36 306.624 36.0076 306.933 36.0225L307.03 34.0248ZM306 34H305V36H306V34ZM303 34H301V36H303V34ZM299 34H297V36H299V34ZM295 34H293V36H295V34ZM291 34H289V36H291V34ZM287 34H285V36H287V34ZM283 34H281V36H283V34ZM279 34H277V36H279V34ZM275 34H273V36H275V34ZM271 34H269V36H271V34ZM267 34H265V36H267V34ZM263 34H261V36H263V34ZM259 34H257V36H259V34ZM255 34H253V36H255V34ZM251 34H249V36H251V34ZM247 34H245V36H247V34ZM243 34H241V36H243V34ZM239 34H237V36H239V34ZM235 34H233V36H235V34ZM231 34H229V36H231V34ZM227 34H225V36H227V34ZM223 34H221V36H223V34ZM219 34H217V36H219V34ZM215 34H213V36H215V34ZM211 34H209V36H211V34ZM207 34H205V36H207V34ZM203 34H201V36H203V34ZM199 34H198V36H199V34Z" fill="black" mask="url(#path-1-inside-1_788_8386)"/>
</svg>
