<svg width="50" height="50" viewBox="0 0 50 50" fill="none" xmlns="http://www.w3.org/2000/svg">
<path d="M24.9998 35.4167C25.5901 35.4167 26.0849 35.217 26.4842 34.8177C26.8835 34.4184 27.0832 33.9236 27.0832 33.3333C27.0832 32.7431 26.8835 32.2483 26.4842 31.849C26.0849 31.4497 25.5901 31.25 24.9998 31.25C24.4096 31.25 23.9148 31.4497 23.5155 31.849C23.1162 32.2483 22.9165 32.7431 22.9165 33.3333C22.9165 33.9236 23.1162 34.4184 23.5155 34.8177C23.9148 35.217 24.4096 35.4167 24.9998 35.4167ZM22.9165 27.0833H27.0832V14.5833H22.9165V27.0833ZM24.9998 45.8333C22.1179 45.8333 19.4096 45.2865 16.8748 44.1927C14.3401 43.099 12.1353 41.6146 10.2603 39.7396C8.38525 37.8646 6.90088 35.6597 5.80713 33.125C4.71338 30.5903 4.1665 27.882 4.1665 25C4.1665 22.1181 4.71338 19.4097 5.80713 16.875C6.90088 14.3403 8.38525 12.1354 10.2603 10.2604C12.1353 8.38542 14.3401 6.90105 16.8748 5.8073C19.4096 4.71355 22.1179 4.16667 24.9998 4.16667C27.8818 4.16667 30.5901 4.71355 33.1248 5.8073C35.6596 6.90105 37.8644 8.38542 39.7394 10.2604C41.6144 12.1354 43.0988 14.3403 44.1925 16.875C45.2863 19.4097 45.8332 22.1181 45.8332 25C45.8332 27.882 45.2863 30.5903 44.1925 33.125C43.0988 35.6597 41.6144 37.8646 39.7394 39.7396C37.8644 41.6146 35.6596 43.099 33.1248 44.1927C30.5901 45.2865 27.8818 45.8333 24.9998 45.8333ZM24.9998 41.6667C29.6526 41.6667 33.5936 40.0521 36.8228 36.8229C40.0519 33.5938 41.6665 29.6528 41.6665 25C41.6665 20.3472 40.0519 16.4063 36.8228 13.1771C33.5936 9.94792 29.6526 8.33334 24.9998 8.33334C20.3471 8.33334 16.4061 9.94792 13.1769 13.1771C9.94775 16.4063 8.33317 20.3472 8.33317 25C8.33317 29.6528 9.94775 33.5938 13.1769 36.8229C16.4061 40.0521 20.3471 41.6667 24.9998 41.6667Z" fill="#FFCC00"/>
</svg>
