<svg width="375" height="667" viewBox="0 0 375 667" fill="none" xmlns="http://www.w3.org/2000/svg">
<g clip-path="url(#clip0_524_11901)">
<rect width="375" height="667" fill="#FCF9D1"/>
<g clip-path="url(#clip1_524_11901)">
<path d="M375 624.75V110.75H298.2V125.53C301.23 127.25 303.2 130.5 303.2 134.23C303.2 139.75 298.72 144.23 293.2 144.23C287.68 144.23 283.2 139.75 283.2 134.23C283.2 130.5 285.17 127.25 288.2 125.53V110.75H245.36V125.53H245.28C248.31 127.25 250.36 130.5 250.36 134.23C250.36 139.75 245.88 144.23 240.36 144.23C234.84 144.23 230.36 139.75 230.36 134.23C230.36 130.5 232.41 127.25 235.44 125.53H235.36V110.75H192.51V125.53C195.54 127.25 197.51 130.5 197.51 134.23C197.51 139.75 193.03 144.23 187.51 144.23C181.99 144.23 177.51 139.75 177.51 134.23C177.51 130.5 179.48 127.25 182.51 125.53V110.75H139.67V125.53C142.7 127.25 144.67 130.5 144.67 134.23C144.67 139.75 140.19 144.23 134.67 144.23C129.15 144.23 124.67 139.75 124.67 134.23C124.67 130.5 126.64 127.25 129.67 125.53V110.75H86.84V125.53C89.87 127.25 91.84 130.5 91.84 134.23C91.84 139.75 87.36 144.23 81.84 144.23C76.32 144.23 71.84 139.75 71.84 134.23C71.84 130.5 73.81 127.25 76.84 125.53V110.75H0.0100098V624.75H375Z" fill="white" stroke="#777677" stroke-width="0.5" stroke-miterlimit="10"/>
</g>
</g>
<defs>
<clipPath id="clip0_524_11901">
<rect width="375" height="667" fill="white"/>
</clipPath>
<clipPath id="clip1_524_11901">
<rect width="375.49" height="514.5" fill="white" transform="matrix(-1 0 0 -1 375.49 625)"/>
</clipPath>
</defs>
</svg>
