<svg width="363" height="646" viewBox="0 0 363 646" fill="none" xmlns="http://www.w3.org/2000/svg">
<g clip-path="url(#clip0_437_7479)">
<path d="M362.497 0.503418H0.50293V644.83H362.497V0.503418Z" fill="#FCF9D1" stroke="#EFF0F1" stroke-miterlimit="10"/>
<path d="M0.50293 628.722H362.497" stroke="#EFF0F1" stroke-miterlimit="10"/>
<path d="M0.50293 612.614H362.497" stroke="#EFF0F1" stroke-miterlimit="10"/>
<path d="M0.50293 596.505H362.497" stroke="#EFF0F1" stroke-miterlimit="10"/>
<path d="M0.50293 580.397H362.497" stroke="#EFF0F1" stroke-miterlimit="10"/>
<path d="M0.50293 564.289H362.497" stroke="#EFF0F1" stroke-miterlimit="10"/>
<path d="M0.50293 548.181H362.497" stroke="#EFF0F1" stroke-miterlimit="10"/>
<path d="M0.50293 532.073H362.497" stroke="#EFF0F1" stroke-miterlimit="10"/>
<path d="M0.50293 515.965H362.497" stroke="#EFF0F1" stroke-miterlimit="10"/>
<path d="M0.50293 499.856H362.497" stroke="#EFF0F1" stroke-miterlimit="10"/>
<path d="M0.50293 483.748H362.497" stroke="#EFF0F1" stroke-miterlimit="10"/>
<path d="M0.50293 467.64H362.497" stroke="#EFF0F1" stroke-miterlimit="10"/>
<path d="M0.50293 451.532H362.497" stroke="#EFF0F1" stroke-miterlimit="10"/>
<path d="M0.50293 435.424H362.497" stroke="#EFF0F1" stroke-miterlimit="10"/>
<path d="M0.50293 419.315H362.497" stroke="#EFF0F1" stroke-miterlimit="10"/>
<path d="M0.50293 403.208H362.497" stroke="#EFF0F1" stroke-miterlimit="10"/>
<path d="M0.50293 387.099H362.497" stroke="#EFF0F1" stroke-miterlimit="10"/>
<path d="M0.50293 370.991H362.497" stroke="#EFF0F1" stroke-miterlimit="10"/>
<path d="M0.50293 354.883H362.497" stroke="#EFF0F1" stroke-miterlimit="10"/>
<path d="M0.50293 338.775H362.497" stroke="#EFF0F1" stroke-miterlimit="10"/>
<path d="M0.50293 322.667H362.497" stroke="#EFF0F1" stroke-miterlimit="10"/>
<path d="M0.50293 306.559H362.497" stroke="#EFF0F1" stroke-miterlimit="10"/>
<path d="M0.50293 290.45H362.497" stroke="#EFF0F1" stroke-miterlimit="10"/>
<path d="M0.50293 274.342H362.497" stroke="#EFF0F1" stroke-miterlimit="10"/>
<path d="M0.50293 258.234H362.497" stroke="#EFF0F1" stroke-miterlimit="10"/>
<path d="M0.50293 242.126H362.497" stroke="#EFF0F1" stroke-miterlimit="10"/>
<path d="M0.50293 226.018H362.497" stroke="#EFF0F1" stroke-miterlimit="10"/>
<path d="M0.50293 209.909H362.497" stroke="#EFF0F1" stroke-miterlimit="10"/>
<path d="M0.50293 193.801H362.497" stroke="#EFF0F1" stroke-miterlimit="10"/>
<path d="M0.50293 177.693H362.497" stroke="#EFF0F1" stroke-miterlimit="10"/>
<path d="M0.50293 161.585H362.497" stroke="#EFF0F1" stroke-miterlimit="10"/>
<path d="M0.50293 145.477H362.497" stroke="#EFF0F1" stroke-miterlimit="10"/>
<path d="M0.50293 129.369H362.497" stroke="#EFF0F1" stroke-miterlimit="10"/>
<path d="M0.50293 113.26H362.497" stroke="#EFF0F1" stroke-miterlimit="10"/>
<path d="M0.50293 97.1523H362.497" stroke="#EFF0F1" stroke-miterlimit="10"/>
<path d="M0.50293 81.0442H362.497" stroke="#EFF0F1" stroke-miterlimit="10"/>
<path d="M0.50293 64.936H362.497" stroke="#EFF0F1" stroke-miterlimit="10"/>
<path d="M0.50293 48.8279H362.497" stroke="#EFF0F1" stroke-miterlimit="10"/>
<path d="M0.50293 32.7197H362.497" stroke="#EFF0F1" stroke-miterlimit="10"/>
<path d="M0.50293 16.6116H362.497" stroke="#EFF0F1" stroke-miterlimit="10"/>
<path d="M346.047 0.503418V644.83" stroke="#EFF0F1" stroke-miterlimit="10"/>
<path d="M329.586 0.503418V644.83" stroke="#EFF0F1" stroke-miterlimit="10"/>
<path d="M313.136 0.503418V644.83" stroke="#EFF0F1" stroke-miterlimit="10"/>
<path d="M296.685 0.503418V644.83" stroke="#EFF0F1" stroke-miterlimit="10"/>
<path d="M280.224 0.503418V644.83" stroke="#EFF0F1" stroke-miterlimit="10"/>
<path d="M263.773 0.503418V644.83" stroke="#EFF0F1" stroke-miterlimit="10"/>
<path d="M247.312 0.503418V644.83" stroke="#EFF0F1" stroke-miterlimit="10"/>
<path d="M230.862 0.503418V644.83" stroke="#EFF0F1" stroke-miterlimit="10"/>
<path d="M214.411 0.503418V644.83" stroke="#EFF0F1" stroke-miterlimit="10"/>
<path d="M197.95 0.503418V644.83" stroke="#EFF0F1" stroke-miterlimit="10"/>
<path d="M181.5 0.503418V644.83" stroke="#EFF0F1" stroke-miterlimit="10"/>
<path d="M165.05 0.503418V644.83" stroke="#EFF0F1" stroke-miterlimit="10"/>
<path d="M148.589 0.503418V644.83" stroke="#EFF0F1" stroke-miterlimit="10"/>
<path d="M132.138 0.503418V644.83" stroke="#EFF0F1" stroke-miterlimit="10"/>
<path d="M115.688 0.503418V644.83" stroke="#EFF0F1" stroke-miterlimit="10"/>
<path d="M99.2266 0.503418V644.83" stroke="#EFF0F1" stroke-miterlimit="10"/>
<path d="M82.7764 0.503418V644.83" stroke="#EFF0F1" stroke-miterlimit="10"/>
<path d="M66.3154 0.503418V644.83" stroke="#EFF0F1" stroke-miterlimit="10"/>
<path d="M49.8643 0.503418V644.83" stroke="#EFF0F1" stroke-miterlimit="10"/>
<path d="M33.4141 0.503418V644.83" stroke="#EFF0F1" stroke-miterlimit="10"/>
<path d="M16.9531 0.503418V644.83" stroke="#EFF0F1" stroke-miterlimit="10"/>
<rect x="326" y="101" width="444" height="290" rx="145" transform="rotate(90 326 101)" fill="url(#paint0_radial_437_7479)"/>
<path d="M106.029 314.648C108.705 314.648 110.697 316.309 110.717 318.633C110.697 320.977 108.705 322.617 106.029 322.617C103.334 322.617 101.342 320.977 101.342 318.633C101.342 316.309 103.334 314.648 106.029 314.648ZM106.029 316.445C104.545 316.445 103.451 317.285 103.451 318.633C103.451 320 104.545 320.859 106.029 320.859C107.514 320.859 108.607 320 108.607 318.633C108.607 317.285 107.514 316.445 106.029 316.445ZM115.736 314.082V323.008H113.549V314.082H115.736ZM115.736 323.77V328.379H106.186V329.805H116.264V331.523H104.057V326.777H113.568V325.469H104.018V323.77H115.736ZM132.561 314.082V331.738H130.373V314.082H132.561ZM127.287 315.957C127.287 321.211 125.256 325.684 119.064 328.613L117.932 326.875C122.551 324.678 124.699 321.689 125.08 317.676H118.83V315.957H127.287ZM148.428 314.082V320.977H151.045V322.793H148.428V331.699H146.26V314.082H148.428ZM143.76 315.918C143.76 321.113 141.611 325.664 135.732 328.555L134.502 326.875C138.799 324.736 141.123 321.729 141.572 317.715H135.459V315.918H143.76ZM161.959 317.148C161.959 319.316 163.365 321.465 166.139 322.383L165.045 324.062C163.072 323.408 161.666 322.08 160.904 320.43C160.113 322.236 158.648 323.672 156.588 324.375L155.436 322.695C158.287 321.758 159.771 319.473 159.771 317.148V316.934H156.041V315.195H165.631V316.934H161.959V317.148ZM169.557 314.082V318.496H172.018V320.312H169.557V324.727H167.389V314.082H169.557ZM169.557 325.547V331.738H167.389V327.285H157.799V325.547H169.557ZM178.881 316.621C178.861 319.023 180.268 321.211 183.041 322.09L181.869 323.789C179.945 323.115 178.598 321.836 177.846 320.156C177.064 322.08 175.59 323.594 173.451 324.336L172.299 322.578C175.229 321.621 176.693 319.258 176.693 316.719V315.039H178.881V316.621ZM187.201 314.082V324.473H185.033V319.277H181.518V317.5H185.033V314.082H187.201ZM181.225 324.941C184.975 324.941 187.26 326.191 187.26 328.34C187.26 330.488 184.975 331.719 181.225 331.719C177.494 331.719 175.209 330.488 175.229 328.34C175.209 326.191 177.494 324.941 181.225 324.941ZM181.225 326.621C178.764 326.621 177.377 327.227 177.377 328.34C177.377 329.414 178.764 330.02 181.225 330.02C183.686 330.02 185.092 329.414 185.092 328.34C185.092 327.227 183.686 326.621 181.225 326.621ZM199.709 321.406V323.164H196.135V326.25C197.678 326.182 199.221 326.074 200.686 325.918L200.861 327.52C196.975 328.105 192.893 328.145 189.553 328.145L189.279 326.348C190.734 326.357 192.326 326.357 193.967 326.309V323.164H190.51V315.703H199.631V317.422H192.658V321.406H199.709ZM203.908 314.082V331.758H201.74V314.082H203.908ZM212.451 325.527C212.432 327.021 213.115 328.564 214.639 329.551C216.162 328.486 216.846 326.855 216.865 325.527V324.707H218.994V325.527C218.994 327.363 220.068 329.141 222.432 329.883L221.338 331.504C219.629 330.898 218.496 329.766 217.9 328.34C217.314 329.746 216.26 330.996 214.639 331.641C212.998 331.025 211.953 329.824 211.377 328.398C210.752 329.766 209.629 330.889 207.998 331.504L206.943 329.883C209.229 329.102 210.322 327.266 210.342 325.527V324.707H212.451V325.527ZM210.889 315.02C213.145 315.02 214.961 316.348 215.42 318.301H218.604V314.082H220.771V324.043H218.604V320.059H215.439C215.02 322.07 213.184 323.418 210.889 323.418C208.213 323.418 206.221 321.68 206.221 319.219C206.221 316.777 208.213 315.02 210.889 315.02ZM210.889 316.836C209.404 316.836 208.311 317.773 208.311 319.219C208.311 320.645 209.404 321.621 210.889 321.621C212.334 321.621 213.428 320.645 213.428 319.219C213.428 317.773 212.334 316.836 210.889 316.836ZM227.596 315.371C229.988 315.371 231.756 317.363 232.068 320.586H235.428V314.082H237.576V331.758H235.428V322.344H232.088C231.854 325.752 230.057 327.852 227.596 327.852C224.939 327.852 223.064 325.449 223.064 321.602C223.064 317.793 224.939 315.371 227.596 315.371ZM227.596 317.324C226.131 317.324 225.135 318.906 225.154 321.602C225.135 324.316 226.131 325.898 227.596 325.898C229.061 325.898 230.037 324.316 230.057 321.602C230.037 318.906 229.061 317.324 227.596 317.324ZM255.689 327.812V329.59H239.557V327.812H243.287V323.34C241.881 322.539 241.031 321.279 241.041 319.707C241.021 316.895 243.795 315.039 247.584 315.039C251.393 315.039 254.166 316.895 254.166 319.707C254.166 321.25 253.346 322.49 251.979 323.301V327.812H255.689ZM247.584 316.758C244.947 316.758 243.15 317.871 243.17 319.707C243.15 321.523 244.947 322.656 247.584 322.656C250.221 322.656 252.037 321.523 252.037 319.707C252.037 317.871 250.221 316.758 247.584 316.758ZM245.436 327.812H249.771V324.121C249.098 324.277 248.365 324.355 247.584 324.355C246.822 324.355 246.1 324.277 245.436 324.141V327.812ZM259.975 315.859L259.76 325.84H257.553L257.318 315.859H259.975ZM258.666 330.156C257.826 330.156 257.143 329.473 257.143 328.633C257.143 327.812 257.826 327.129 258.666 327.129C259.467 327.129 260.17 327.812 260.17 328.633C260.17 329.473 259.467 330.156 258.666 330.156Z" fill="black"/>
</g>
<defs>
<radialGradient id="paint0_radial_437_7479" cx="0" cy="0" r="1" gradientUnits="userSpaceOnUse" gradientTransform="translate(548 246) scale(222 145)">
<stop stop-color="white" stop-opacity="0"/>
<stop offset="1" stop-color="white"/>
</radialGradient>
<clipPath id="clip0_437_7479">
<rect width="363" height="645.333" fill="white"/>
</clipPath>
</defs>
</svg>
