<svg xmlns="http://www.w3.org/2000/svg" width="200" height="200" viewBox="0 0 200 200" fill="none">
    <g clip-path="url(#clip0_514_12034)">
        <path d="M100 200C155.228 200 200 155.228 200 100C200 44.7715 155.228 0 100 0C44.7715 0 0 44.7715 0 100C0 155.228 44.7715 200 100 200Z" fill="#797979"/>
        <path d="M133.534 37.2366C130.634 29.5605 127.704 20.6402 119.446 17.2486C111.188 13.8571 103.462 19.4863 99.3378 26.1489C95.7154 32.0088 93.4176 40.2268 96.6586 46.7188C98.515 50.4415 102.769 53.0504 106.914 51.475C111.058 49.8997 112.944 45.304 113.044 40.9994C113.205 33.6946 110.104 25.6271 103.733 21.6135C95.3843 16.3656 85.1094 20.4495 78.6173 26.7208C75.3462 29.8816 72.7474 33.7548 71.1519 38.0193C69.697 41.8924 69.0548 46.8392 71.3727 50.5117C72.6972 52.6089 74.8043 54.2745 77.2627 54.7662C80.2629 55.3682 83.1126 54.3247 85.4305 52.4182C89.8957 48.7457 91.2904 42.2838 91.0897 36.765C90.889 31.2462 89.1531 26.0385 84.5675 23.0383C80.7044 20.5198 75.5168 20.4295 71.3225 22.1152C67.3791 23.7106 63.6263 26.6506 60.5559 29.5705C58.1878 31.8182 56.2513 34.4772 54.2143 37.0159C52.6289 38.9926 51.0135 40.9292 49.3478 42.8356C48.2842 44.0598 48.1437 45.886 49.3478 47.0901C50.4415 48.1838 52.5286 48.3243 53.6023 47.0901C56.171 44.1501 58.5792 41.0997 61.0275 38.0494C62.6831 35.9823 64.4491 34.0357 66.4961 32.3299C67.2687 31.6877 67.1985 31.7479 67.941 31.1961C68.7337 30.6141 69.5364 30.0421 70.3492 29.4903C72.0149 28.3464 73.3293 27.6039 75.2157 27.1824C78.0554 26.5402 81.0857 27.2025 82.9922 29.5806C83.0223 29.6107 83.2129 29.9017 83.4236 30.2729C83.6344 30.6442 83.825 30.9954 83.9856 31.3666C84.417 32.3701 84.698 33.4838 84.8786 34.5575C85.2398 36.6948 85.1997 39.0227 84.8284 41.1599C84.4873 43.1066 83.8451 45.1535 82.631 46.7188C82.0891 47.4212 81.3667 48.0534 80.5639 48.4949C79.7612 48.9364 79.42 49.0167 78.537 48.8962C79.119 48.9765 77.7142 48.6153 78.246 48.826C78.1557 48.7859 77.2226 48.244 77.5437 48.4748C76.751 47.8928 76.4901 47.5216 76.1188 46.6085C76.2593 46.9597 75.9482 45.9061 75.9282 45.8158C76.0084 46.2372 75.8981 45.1937 75.888 45.0732C75.888 44.722 75.888 44.3608 75.8981 44.0096C75.8981 43.829 75.9282 43.6484 75.9382 43.4678C75.9683 42.8858 75.8981 43.6584 75.9482 43.2972C76.5402 39.7853 77.8346 37.1864 79.9819 34.2264C81.9185 31.5473 84.7482 28.9986 87.7785 27.3129C89.414 26.3998 90.8088 25.8479 92.7554 25.4164C93.6685 25.2157 93.9595 25.1957 94.983 25.1957C95.4144 25.1957 95.8359 25.2358 96.2673 25.2559C96.3376 25.2559 96.8694 25.3261 96.3877 25.2559C96.6386 25.286 96.8794 25.3361 97.1303 25.3863C97.5116 25.4666 97.8928 25.5569 98.2641 25.6773C98.4447 25.7275 99.2575 26.0185 99.107 25.9583C99.3378 26.0486 100.411 26.6205 100.933 26.9617C101.094 27.062 101.826 27.634 101.405 27.2828C101.676 27.5135 101.947 27.7443 102.208 27.9851C102.468 28.226 102.709 28.4869 102.95 28.7477C103.07 28.8782 103.191 29.0086 103.301 29.1491C103.341 29.1993 103.793 29.7612 103.562 29.4702C103.331 29.1792 103.683 29.6408 103.723 29.701C103.823 29.8515 103.923 29.992 104.024 30.1425C104.224 30.4435 104.405 30.7445 104.586 31.0556C104.766 31.3666 104.937 31.6777 105.097 31.9988C105.168 32.1292 105.639 33.1828 105.408 32.6209C105.99 34.0056 106.412 35.4706 106.703 36.9456C106.773 37.2868 106.823 37.6279 106.883 37.9691C106.903 38.0995 106.944 38.5611 106.883 37.929C106.903 38.0995 106.924 38.2601 106.934 38.4307C107.004 39.123 107.034 39.8154 107.034 40.5178C107.034 41.0395 107.014 41.8523 106.974 42.2035C106.954 42.354 106.823 42.9661 106.733 43.2771C106.673 43.4778 106.612 43.6785 106.542 43.8692C106.442 44.1802 106.683 43.6384 106.452 44.0999C106.291 44.4311 106.101 44.7421 105.89 45.0431C106.211 44.5615 105.649 45.2539 105.539 45.4044C105.238 45.7756 105.459 45.4947 105.599 45.4044C105.469 45.4947 105.338 45.575 105.208 45.6653C105.077 45.7556 104.937 45.8057 104.806 45.886C105.408 45.5549 104.897 45.8459 104.696 45.886C104.555 45.9161 104.415 45.9462 104.265 45.9763C104.576 45.9161 104.696 46.0666 104.415 45.9261C104.355 45.896 104.024 45.9161 103.974 45.9061C104.134 45.9061 104.566 46.0967 104.114 45.9061C103.994 45.8559 103.803 45.8158 103.683 45.7857C103.803 45.8158 104.214 46.0967 103.763 45.8158C103.642 45.7355 103.472 45.6352 103.341 45.5749C102.87 45.3642 103.472 45.7355 103.241 45.5147C102.388 44.7221 101.786 43.7889 101.405 42.3941C101.335 42.1433 101.284 41.8924 101.234 41.6315C101.064 40.8188 101.204 41.9225 101.204 41.4108C101.204 40.7485 101.134 40.0863 101.164 39.424C101.174 39.113 101.204 38.8019 101.224 38.4909C101.234 38.3303 101.254 38.1698 101.274 38.0092C101.264 38.1196 101.164 38.6514 101.274 38.0795C101.395 37.367 101.525 36.6647 101.706 35.9623C101.886 35.2599 102.077 34.5976 102.308 33.9253C102.428 33.5842 102.549 33.243 102.679 32.9019C102.739 32.7313 102.81 32.5607 102.88 32.3901C103.01 32.0791 102.719 32.7313 102.95 32.2296C103.622 30.8047 104.355 29.42 105.248 28.1256C105.348 27.9751 105.91 27.2125 105.599 27.6239C105.82 27.3329 106.061 27.052 106.301 26.7811C106.803 26.1991 107.345 25.6472 107.917 25.1355C108.047 25.015 108.188 24.8946 108.318 24.7843C108.378 24.7341 108.81 24.3729 108.529 24.5936C108.248 24.8144 108.69 24.4732 108.76 24.423C108.9 24.3227 109.051 24.2224 109.191 24.122C109.813 23.7006 110.466 23.3594 111.138 23.0283C111.258 22.9781 111.65 22.7774 111.138 23.0283C111.298 22.9681 111.469 22.9079 111.63 22.8477C111.961 22.7373 112.302 22.637 112.643 22.5467C112.984 22.4563 113.335 22.3961 113.687 22.3359C113.064 22.4463 114.279 22.2958 114.509 22.2958C115.914 22.2557 117.138 22.657 118.383 23.3695C119.787 24.1622 120.57 24.9047 121.764 26.3094C122.145 26.761 121.945 26.5202 121.864 26.4098C121.985 26.5703 122.105 26.7409 122.226 26.9015C122.466 27.2326 122.697 27.5737 122.908 27.9149C123.41 28.6976 123.861 29.5103 124.283 30.3331C124.654 31.0656 125.005 31.8081 125.336 32.5707C125.416 32.7614 125.497 32.942 125.577 33.1327C125.527 33.0122 125.396 32.6911 125.627 33.2531C125.798 33.6745 125.958 34.0859 126.129 34.5073C126.691 35.9422 127.202 37.3971 127.754 38.832C128.326 40.3472 129.791 41.3907 131.457 40.9392C132.912 40.5378 134.136 38.7618 133.564 37.2366H133.534Z" fill="#414141"/>
        <path d="M72.9379 171.162C75.4164 178.557 77.955 187.628 85.6311 191.29C93.8289 195.194 102.097 190.217 106.723 183.343C110.576 177.614 113.205 169.306 110.004 162.733C108.218 159.061 104.074 156.382 99.9598 157.877C95.615 159.442 93.8089 163.877 93.548 168.182C93.1065 175.477 95.9562 183.444 102.057 187.748C110.074 193.398 120.459 189.685 127.182 183.845C130.504 180.965 133.293 177.293 135.039 173.249C136.785 169.205 137.889 164.058 135.46 159.994C134.206 157.897 132.099 156.171 129.691 155.649C126.721 155.007 123.861 155.95 121.523 157.796C116.958 161.409 115.352 167.68 115.342 173.269C115.342 178.527 116.948 184.056 121.443 187.176C125.216 189.795 130.413 190.086 134.648 188.511C138.641 187.026 142.444 184.246 145.635 181.447C148.083 179.3 150.11 176.731 152.238 174.273C153.903 172.336 155.619 170.45 157.365 168.583C160.014 165.764 155.77 161.499 153.11 164.329C150.441 167.168 147.913 170.118 145.374 173.058C144.501 174.072 143.608 175.065 142.655 175.998C142.213 176.43 141.752 176.861 141.29 177.263C141.039 177.473 140.789 177.694 140.538 177.895C140.407 178.005 139.665 178.577 140.116 178.236C137.206 180.454 134.096 182.781 130.584 183.373C130.524 183.373 130.193 183.424 129.741 183.444C129.36 183.464 128.988 183.464 128.607 183.444C127.945 183.414 127.313 183.313 126.329 182.982C125.747 182.781 125.356 182.591 124.594 182.069C124.543 182.039 124.152 181.728 124.473 181.989C124.313 181.858 124.162 181.718 124.022 181.577C123.721 181.286 123.389 180.905 123.379 180.905C120.981 177.674 120.981 172.848 121.764 169.085C122.155 167.198 122.828 165.232 124.012 163.727C124.614 162.954 125.386 162.252 126.269 161.83C126.992 161.479 127.614 161.369 128.166 161.459C128.467 161.509 129.179 161.84 129.41 162.041C129.731 162.312 129.962 162.573 129.992 162.623C130.112 162.783 130.594 163.687 130.514 163.476C130.895 164.419 130.845 164.63 130.835 165.523C130.835 165.884 130.805 166.245 130.775 166.606C130.734 167.198 130.754 166.767 130.775 166.637C130.734 166.918 130.684 167.198 130.624 167.479C129.962 170.65 128.356 173.61 126.329 176.079C123.881 179.059 121.132 181.337 117.68 183.002C116.315 183.654 114.389 184.297 112.633 184.527C111.328 184.698 109.693 184.517 108.358 184.146C107.987 184.046 107.626 183.915 107.265 183.795C107.174 183.765 106.733 183.564 107.204 183.775C107.034 183.695 106.873 183.624 106.703 183.534C106.382 183.373 106.061 183.193 105.749 183.002C105.599 182.912 105.448 182.812 105.298 182.711C105.238 182.671 104.656 182.25 104.957 182.47C105.258 182.691 104.806 182.34 104.746 182.29C104.616 182.169 104.475 182.059 104.345 181.939C104.084 181.698 103.833 181.447 103.592 181.196C103.351 180.945 103.121 180.674 102.9 180.403C102.679 180.132 102.94 180.454 102.96 180.494C102.799 180.283 102.649 180.062 102.498 179.841C102.107 179.249 101.746 178.637 101.425 178.005C101.264 177.684 101.114 177.363 100.973 177.042C101.224 177.604 100.783 176.54 100.732 176.4C100.241 175.035 99.9197 173.63 99.6688 172.195C99.5685 171.613 99.6588 172.115 99.6688 172.236C99.6487 172.065 99.6287 171.894 99.6086 171.734C99.5785 171.403 99.5484 171.062 99.5283 170.73C99.4882 170.038 99.4782 169.356 99.5083 168.663C99.5584 167.208 99.6989 166.215 100.281 165.141C100.351 165.021 100.943 164.148 100.562 164.62C100.773 164.359 101.023 164.128 101.264 163.887C101.646 163.496 101.334 163.857 101.224 163.917C101.334 163.847 101.515 163.757 101.625 163.676C101.987 163.386 101.696 163.636 101.525 163.697C101.696 163.636 101.876 163.586 102.057 163.526C102.749 163.305 101.625 163.506 102.338 163.496C103.05 163.486 101.937 163.305 102.629 163.526C102.769 163.566 102.92 163.616 103.06 163.656C103.452 163.777 102.629 163.396 102.98 163.636C103.111 163.727 103.251 163.807 103.391 163.877C103.662 164.028 103.09 163.546 103.482 163.937C103.562 164.018 104.264 164.76 103.923 164.339C104.174 164.65 104.375 165.011 104.565 165.352C104.877 165.934 105.057 166.446 105.248 167.249C105.298 167.479 105.398 168.302 105.308 167.429C105.328 167.67 105.358 167.911 105.378 168.162C105.418 168.794 105.408 169.426 105.358 170.058C105.338 170.369 105.298 170.69 105.268 171.001C105.358 170.259 105.228 171.212 105.188 171.413C105.047 172.175 104.866 172.928 104.646 173.67C104.445 174.363 104.214 175.045 103.953 175.707C103.883 175.878 103.823 176.049 103.753 176.219C103.803 176.099 103.973 175.727 103.733 176.259C103.562 176.641 103.381 177.022 103.201 177.393C102.508 178.778 101.706 180.102 100.773 181.347C101.104 180.905 100.441 181.748 100.371 181.828C100.13 182.109 99.8795 182.39 99.6287 182.661C99.0868 183.233 98.5249 183.765 97.9229 184.266C97.8627 184.317 97.4111 184.668 97.6921 184.457C97.973 184.246 97.5115 184.578 97.4513 184.628C97.1502 184.828 96.8593 185.029 96.5482 185.22C96.2773 185.38 96.0064 185.531 95.7354 185.681C95.5749 185.762 95.4143 185.832 95.2538 185.922C94.5213 186.303 95.7756 185.762 94.9929 186.032C94.3206 186.263 93.6383 186.484 92.9359 186.625C92.7553 186.655 92.5847 186.695 92.4041 186.715C92.5446 186.695 92.9761 186.685 92.3941 186.705C91.9726 186.715 91.5612 186.755 91.1498 186.745C89.7451 186.715 88.7517 186.303 87.3268 185.39C86.5542 184.899 86.5542 184.899 85.8117 184.186C85.5207 183.905 85.2498 183.614 84.9789 183.323C84.8484 183.173 84.718 183.022 84.5875 182.862C84.2765 182.49 84.5775 182.862 84.4069 182.631C83.4035 181.266 82.5807 179.781 81.8583 178.246C81.4168 177.303 81.4168 177.273 81.0756 176.41C80.7645 175.607 80.4735 174.804 80.1926 173.992C79.6909 172.537 79.2293 171.062 78.7376 169.607C78.2259 168.061 76.6606 167.058 75.0351 167.499C73.5299 167.911 72.4162 169.657 72.9279 171.202L72.9379 171.162Z" fill="#414141"/>
        <path d="M85.1052 108.37C92.1376 107.401 96.6186 97.7673 95.1139 86.8537C93.6093 75.94 86.6886 67.8788 79.6562 68.8483C72.6238 69.8179 68.1428 79.4511 69.6474 90.3648C71.1521 101.278 78.0728 109.34 85.1052 108.37Z" fill="#CACACA"/>
        <path d="M86.1832 104.017C89.5923 103.547 91.705 98.4443 90.9019 92.6196C90.0989 86.795 86.6842 82.4542 83.2751 82.9243C79.8659 83.3943 77.7533 88.4971 78.5564 94.3218C79.3594 100.146 82.7741 104.487 86.1832 104.017Z" fill="black"/>
        <path d="M132.761 87.3023C134.266 76.3887 129.785 66.7554 122.753 65.7858C115.72 64.8163 108.8 72.8775 107.295 83.7912C105.79 94.7048 110.271 104.338 117.304 105.308C124.336 106.277 131.257 98.2159 132.761 87.3023Z" fill="#CACACA"/>
        <path d="M123.848 91.2648C124.651 85.4402 122.538 80.3373 119.129 79.8673C115.72 79.3973 112.305 83.7381 111.502 89.5627C110.699 95.3873 112.812 100.49 116.221 100.96C119.63 101.43 123.045 97.0894 123.848 91.2648Z" fill="black"/>
        <path d="M126.992 120.359C131.296 127.815 130.995 136.053 126.31 138.762C121.624 141.471 114.339 137.608 110.034 130.153" fill="#414141"/>
        <path d="M84.5977 124.413C87.3671 128.186 91.1399 130.393 95.5148 131.888C99.8897 133.384 104.636 134.507 109.201 134.196C117.54 133.624 125.386 128.758 129.3 121.302C130.333 119.336 129.872 116.586 127.774 115.483C125.808 114.449 123.058 114.901 121.955 117.008C121.553 117.78 121.082 118.493 120.62 119.225C120.159 119.958 121.022 118.794 120.389 119.536C120.149 119.817 119.918 120.098 119.667 120.369C119.125 120.961 118.543 121.513 117.941 122.035C117.801 122.155 117.66 122.276 117.52 122.386C117.901 122.105 117.891 122.105 117.5 122.396C117.199 122.607 116.897 122.828 116.586 123.028C115.964 123.43 115.322 123.801 114.66 124.132C114.539 124.192 113.376 124.724 113.827 124.533C114.279 124.343 113.075 124.804 112.954 124.844C112.252 125.075 111.539 125.276 110.817 125.436C110.456 125.517 110.094 125.577 109.723 125.637C110.727 125.467 109.412 125.657 109.201 125.667C105.499 125.918 102.258 125.095 98.505 123.901C97.7725 123.67 97.05 123.41 96.3276 123.129C97.1604 123.45 95.9262 122.938 95.7657 122.868C95.3643 122.677 94.973 122.466 94.5917 122.246C94.2706 122.055 93.9495 121.864 93.6284 121.654C93.508 121.573 92.6751 120.841 93.2973 121.423C93.0263 121.172 92.7354 120.931 92.4745 120.67C92.3541 120.55 91.4008 119.386 91.9326 120.098C90.6182 118.312 88.1799 117.239 86.1128 118.573C84.3468 119.717 83.1728 122.476 84.5877 124.393L84.5977 124.413Z" fill="#231F20"/>
    </g>
    <defs>
        <clipPath id="clip0_514_12034">
            <rect width="200" height="200" fill="white"/>
        </clipPath>
    </defs>
</svg>