<svg xmlns="http://www.w3.org/2000/svg" width="200" height="200" viewBox="0 0 200 200" fill="none">
    <g clip-path="url(#clip0_514_12026)">
        <path d="M100 200C155.228 200 200 155.228 200 100C200 44.7715 155.228 0 100 0C44.7715 0 0 44.7715 0 100C0 155.228 44.7715 200 100 200Z" fill="#797979"/>
        <path d="M90.4154 80.8683C94.2835 67.9423 93.6147 56.3253 88.9216 54.9208C84.2285 53.5164 77.2882 62.8564 73.42 75.7824C69.5519 88.7083 70.2207 100.325 74.9138 101.73C79.607 103.134 86.5472 93.7942 90.4154 80.8683Z" fill="#CACACA"/>
        <path d="M117.92 102.76C124.354 102.76 129.57 93.4117 129.57 81.88C129.57 70.3483 124.354 61 117.92 61C111.486 61 106.27 70.3483 106.27 81.88C106.27 93.4117 111.486 102.76 117.92 102.76Z" fill="#CACACA"/>
        <path d="M162.22 86.88C161.08 79.72 160.13 72.52 158.28 65.5C156.43 58.48 153.43 50.58 147.94 45.19C145.3 42.6 142 40.37 138.29 39.79C134.94 39.27 131.55 39.43 128.36 40.65C121.77 43.18 116.86 48.32 113.02 54.1C109.18 59.88 106.33 66.65 104.55 73.41C102.85 79.88 102.11 86.52 103.26 93.14C104.57 100.67 109.7 109.62 118.63 107.9C126.35 106.42 129.77 97.35 130.74 90.53C131.76 83.36 131.67 76.26 130.57 69.11C129.56 62.55 127.48 55.72 123.58 50.28C119.16 44.11 112.95 40.07 105.28 39.43C101.15 39.09 96.85 40.46 93.13 42.1C89.41 43.74 86.02 46.15 82.95 48.84C76.65 54.36 71.63 61.62 68.35 69.31C66.68 73.23 65.29 77.23 64.64 81.45C63.93 86.03 63.67 90.66 65.12 95.14C66.46 99.28 69.07 103.64 73.2 105.51C75.72 106.65 78.27 107 81.01 106.45C83.75 105.9 85.86 104.43 87.86 102.75C91.68 99.54 94.02 94.82 95.75 90.25C97.63 85.27 98.53 79.95 99.1 74.68C99.67 69.41 99.55 64.11 98.71 58.85C98.02 54.53 96.63 50.13 94.03 46.57C91.43 43.01 88 40.23 83.74 38.75C80.01 37.45 75.67 37.52 71.91 38.68C67.96 39.9 64.58 42.28 61.27 44.69C58.56 46.65 55.91 48.73 53.5 51.05C51.62 52.87 49.9 54.86 48.26 56.9C47.11 58.33 46 59.78 44.88 61.23C44.41 61.84 43.95 62.44 43.48 63.05C43.36 63.21 43.23 63.37 43.11 63.53C43.98 62.4 43.57 62.94 43.37 63.19C43.04 63.62 42.71 64.04 42.37 64.47C39.6 68.02 36.76 71.52 33.84 74.95C32.04 77.07 31.61 80.42 33.84 82.47C35.82 84.29 39.44 84.74 41.36 82.47C44.17 79.16 46.91 75.8 49.58 72.39C50.79 70.84 51.99 69.28 53.2 67.72C53.43 67.42 53.66 67.12 53.89 66.82C54.44 66.11 53.07 67.88 53.81 66.93C54.26 66.35 54.71 65.78 55.16 65.2C58.29 61.25 61.7 57.82 65.6 54.63C64.3 55.69 65.33 54.84 65.66 54.59C65.99 54.34 66.3 54.11 66.63 53.88C67.32 53.38 68.03 52.88 68.73 52.4C70.19 51.39 71.66 50.34 73.25 49.53C73.57 49.37 73.96 49.25 74.26 49.05C73.11 49.81 73.88 49.22 74.44 49.04C75.2 48.79 75.97 48.62 76.76 48.46C77.61 48.29 76.28 48.54 76.21 48.53C76.37 48.55 76.61 48.49 76.78 48.48C77.16 48.45 77.54 48.44 77.92 48.45C78.25 48.45 78.58 48.48 78.91 48.5C80.06 48.56 77.63 48.25 79.02 48.52C79.71 48.65 80.37 48.86 81.03 49.07C82.1 49.42 80.12 48.61 80.92 49.01C81.3 49.2 81.68 49.38 82.05 49.6C82.34 49.77 82.62 49.94 82.9 50.13C83.04 50.22 83.22 50.39 83.37 50.46C82.43 50.01 82.63 49.85 82.98 50.17C83.58 50.7 84.16 51.23 84.69 51.83C84.83 51.98 84.95 52.14 85.09 52.3C85.48 52.74 85.01 52.6 84.83 51.96C84.91 52.26 85.29 52.6 85.46 52.88C85.97 53.67 86.41 54.5 86.82 55.35C87.23 56.2 86.42 54.28 86.89 55.53C87.04 55.92 87.18 56.32 87.3 56.72C87.63 57.76 87.88 58.82 88.1 59.88C88.2 60.35 88.29 60.82 88.37 61.29C88.42 61.61 88.84 63.26 88.48 61.94C88.76 62.99 88.71 64.28 88.76 65.36C88.87 67.65 88.83 69.95 88.67 72.23C88.59 73.36 88.47 74.48 88.35 75.6C88.23 76.63 88.35 75.72 88.36 75.53C88.34 75.82 88.27 76.13 88.23 76.42C88.13 77.09 88.02 77.75 87.9 78.41C87.49 80.65 86.99 82.87 86.31 85.04C86 86.05 85.65 87.05 85.26 88.03C84.76 89.29 85.48 87.6 85.08 88.46C84.83 89 84.57 89.54 84.3 90.07C83.86 90.91 83.39 91.73 82.86 92.52C82.73 92.72 82.58 92.92 82.45 93.12C82.04 93.75 82.64 93.1 82.64 92.89C82.64 93.14 81.94 93.72 81.75 93.93C81.4 94.3 81.04 94.66 80.65 95C80.52 95.11 80.15 95.51 80.02 95.53C80.04 95.53 81.05 94.84 80.17 95.38C79.82 95.59 79.47 95.81 79.11 96C78.93 96.1 78.24 96.44 79 96.07C79.76 95.7 78.92 96.06 78.76 96.1C78.62 96.14 78.28 96.17 78.19 96.23C78.21 96.22 79.39 96.17 78.9 96.13C78.67 96.11 77.35 96.02 78.39 96.2C79.43 96.38 78.31 96.16 78.06 96.09C77.93 96.05 77.71 95.94 77.56 95.92C77.86 95.95 78.73 96.53 77.99 96.07C77.75 95.92 77.46 95.68 77.19 95.57C78.12 95.96 77.97 96.23 77.62 95.88C77.49 95.75 77.34 95.63 77.21 95.49C76.95 95.23 76.72 94.84 76.44 94.62C76.45 94.62 77.06 95.56 76.82 95.1C76.7 94.88 76.53 94.68 76.4 94.46C76.18 94.1 75.98 93.73 75.79 93.36C75.73 93.24 75.59 92.83 75.51 92.78C75.53 92.79 75.89 93.82 75.73 93.29C75.45 92.37 75.11 91.48 74.91 90.53C74.86 90.28 74.67 89.02 74.77 89.86C74.87 90.78 74.72 89.17 74.71 88.99C74.65 88.04 74.68 87.09 74.76 86.13C74.79 85.75 74.82 85.37 74.86 84.99C74.88 84.78 74.91 84.56 74.93 84.35C75.02 83.44 74.89 84.71 74.87 84.8C75.12 83.98 75.15 83.03 75.33 82.19C75.71 80.4 76.2 78.64 76.79 76.91C77.05 76.13 77.34 75.36 77.64 74.6C77.68 74.51 77.81 74.04 77.91 73.94C77.49 74.35 77.54 74.78 77.79 74.23C78.01 73.74 78.23 73.25 78.45 72.76C80.04 69.38 81.97 66.16 84.19 63.15C84.33 62.96 84.48 62.77 84.62 62.57C85.05 61.99 83.99 63.35 84.45 62.79C84.72 62.47 84.97 62.14 85.24 61.82C85.85 61.09 86.47 60.38 87.12 59.68C88.39 58.32 89.73 57.03 91.15 55.83C91.49 55.54 91.88 55.28 92.21 54.97C92.22 54.96 91.33 55.63 91.8 55.29C91.98 55.16 92.16 55.02 92.34 54.89C93.06 54.37 93.79 53.88 94.54 53.41C95.23 52.98 95.94 52.58 96.66 52.21C97.04 52.01 97.42 51.83 97.81 51.65C97.97 51.57 98.26 51.49 98.39 51.39C98.24 51.51 97.31 51.82 97.99 51.56C99.53 50.98 101.09 50.49 102.71 50.2C102.9 50.17 103.13 50.16 103.31 50.1C103.36 50.09 102.07 50.22 102.64 50.19C103.04 50.17 103.44 50.11 103.84 50.09C104.19 50.07 104.54 50.05 104.89 50.06C105.08 50.06 105.26 50.09 105.45 50.11C106.36 50.17 104.35 49.92 105 50.04C106.36 50.29 107.65 50.62 108.95 51.09C109.64 51.34 107.69 50.51 108.85 51.07C109.12 51.2 109.38 51.33 109.64 51.48C110.26 51.82 110.87 52.2 111.45 52.61C111.55 52.68 111.65 52.76 111.75 52.83C112.27 53.18 110.79 52.05 111.27 52.46C111.49 52.65 111.72 52.83 111.94 53.03C112.48 53.51 112.99 54.01 113.47 54.54C113.67 54.76 113.87 54.98 114.06 55.21C114.17 55.34 114.28 55.48 114.39 55.61C114.92 56.23 114.05 55.17 114.04 55.15C114.42 55.74 114.86 56.28 115.24 56.88C116.02 58.1 116.7 59.37 117.3 60.69C117.39 60.89 117.86 61.98 117.48 61.07C117.1 60.16 117.55 61.26 117.63 61.47C117.92 62.22 118.19 62.98 118.44 63.74C119.38 66.63 119.93 69.57 120.44 72.55C120.56 73.23 120.29 71.33 120.37 72.01C120.39 72.21 120.42 72.4 120.44 72.6C120.48 72.94 120.52 73.28 120.55 73.63C120.63 74.41 120.7 75.19 120.75 75.97C120.85 77.51 120.9 79.06 120.9 80.6C120.9 82.05 120.85 83.49 120.75 84.94C120.7 85.61 120.65 86.28 120.58 86.95C120.54 87.3 120.51 87.65 120.47 88C120.32 89.29 120.6 87.15 120.49 87.86C120.23 89.57 119.9 91.27 119.37 92.92C119.25 93.29 119.11 93.66 118.99 94.03C118.57 95.26 119.47 93.09 118.92 94.21C118.58 94.89 118.24 95.57 117.82 96.21C117.65 96.46 117.46 96.7 117.3 96.96C118.15 95.61 117.7 96.44 117.35 96.82C117.14 97.04 116.9 97.23 116.7 97.45C116.58 97.58 116.14 97.89 116.9 97.31C117.66 96.73 117.13 97.15 116.93 97.27C116.7 97.41 116.46 97.53 116.24 97.67C115.6 98.08 117.62 97.27 116.72 97.46C116.55 97.5 116.15 97.56 116.01 97.64C115.68 97.84 116.97 97.38 116.98 97.51C116.98 97.53 116.47 97.53 116.45 97.53C115.48 97.59 117.32 97.72 117.07 97.64C116.88 97.58 116.65 97.54 116.45 97.49C115.4 97.24 117.47 98.08 116.86 97.67C116.67 97.54 116.32 97.27 116.1 97.21C115.78 97.12 116.73 97.68 116.77 97.73C116.71 97.64 116.53 97.53 116.45 97.45C116.24 97.24 116.03 97.03 115.82 96.81C115.74 96.72 115.61 96.5 115.52 96.45C115.5 96.44 116.22 97.46 115.98 97.04C115.79 96.7 115.54 96.39 115.35 96.06C115.16 95.73 114.99 95.41 114.83 95.07C114.75 94.9 114.68 94.69 114.59 94.53C114.58 94.51 114.99 95.63 114.84 95.09C114.58 94.17 114.22 93.3 113.99 92.37C113.78 91.51 113.61 90.63 113.47 89.76C113.22 88.17 113.56 90.76 113.49 89.93C113.46 89.6 113.42 89.28 113.4 88.95C113.31 87.74 113.31 86.53 113.36 85.32C113.39 84.69 113.43 84.07 113.49 83.44C113.52 83.14 113.55 82.84 113.58 82.54C113.6 82.37 113.62 82.19 113.64 82.02C113.75 81.02 113.47 83.12 113.57 82.52C114.06 79.6 114.66 76.73 115.53 73.9C115.97 72.44 116.47 71 117.02 69.58C117.14 69.26 117.27 68.93 117.4 68.61C117.47 68.43 117.55 68.24 117.62 68.06C117.95 67.25 117.46 68.45 117.43 68.51C117.79 67.81 118.07 67.06 118.41 66.35C119.72 63.6 121.22 60.94 122.98 58.45C123.17 58.18 123.36 57.92 123.55 57.66C124.35 56.58 123.02 58.31 123.55 57.64C124.01 57.08 124.46 56.52 124.94 55.98C125.86 54.95 126.85 53.97 127.9 53.07C128.12 52.88 128.35 52.7 128.58 52.52C129.06 52.11 127.57 53.25 128.09 52.9C128.19 52.83 128.29 52.75 128.39 52.68C128.95 52.3 129.51 51.91 130.1 51.57C130.61 51.28 131.13 51.03 131.65 50.77C132.41 50.39 130.36 51.25 131.33 50.91C131.65 50.8 131.97 50.68 132.29 50.58C132.83 50.41 133.37 50.28 133.93 50.18C134.08 50.15 134.23 50.14 134.37 50.11C134.87 50 133.41 50.21 133.51 50.23C133.85 50.28 134.28 50.16 134.63 50.15C135.16 50.14 135.69 50.2 136.22 50.2C137 50.21 135.5 50.09 135.49 50.09C135.64 50.13 135.8 50.13 135.95 50.17C136.3 50.24 136.65 50.31 136.99 50.4C137.1 50.43 137.23 50.48 137.34 50.5C138.03 50.59 136.9 50.31 136.79 50.23C137.06 50.44 137.48 50.58 137.78 50.75C138.42 51.12 138.99 51.6 139.63 51.96C139.58 51.93 138.58 51.09 139.21 51.64C139.35 51.76 139.49 51.88 139.63 52C139.87 52.21 140.11 52.44 140.35 52.66C140.89 53.18 141.4 53.74 141.88 54.31C142 54.46 142.12 54.61 142.24 54.75C142.66 55.25 141.58 53.81 141.93 54.36C142.11 54.64 142.33 54.91 142.52 55.19C142.97 55.84 143.38 56.51 143.78 57.2C144.18 57.89 144.56 58.62 144.91 59.35C145.07 59.68 145.22 60 145.37 60.33C145.46 60.52 145.53 60.71 145.62 60.9C145.9 61.49 145.11 59.61 145.51 60.64C148.03 67.04 149.42 73.77 150.54 80.54C151.05 83.6 151.49 86.68 151.98 89.75C152.42 92.51 156 94.28 158.52 93.47C161.51 92.5 162.7 89.88 162.24 86.93L162.22 86.88Z" fill="#414141"/>
        <path d="M77.09 98.22C80.2988 98.22 82.9 94.1727 82.9 89.18C82.9 84.1873 80.2988 80.14 77.09 80.14C73.8812 80.14 71.28 84.1873 71.28 89.18C71.28 94.1727 73.8812 98.22 77.09 98.22Z" fill="black"/>
        <path d="M115.68 98.78C118.889 98.78 121.49 94.7327 121.49 89.74C121.49 84.7473 118.889 80.7 115.68 80.7C112.471 80.7 109.87 84.7473 109.87 89.74C109.87 94.7327 112.471 98.78 115.68 98.78Z" fill="black"/>
        <path d="M144.26 123.5C146.56 135.06 139.48 146.51 127.86 149.17C116.17 151.84 105 144.35 102.05 133C101.36 130.35 97.26 131.47 97.95 134.13C101.5 147.77 115.08 156.47 128.99 153.27C142.98 150.06 151.1 136.13 148.36 122.37C147.83 119.69 143.72 120.82 144.26 123.5Z" fill="black"/>
    </g>
    <defs>
        <clipPath id="clip0_514_12026">
            <rect width="200" height="200" fill="white"/>
        </clipPath>
    </defs>
</svg>