<svg xmlns="http://www.w3.org/2000/svg" width="200" height="240" viewBox="0 0 200 240" fill="none">
    <g clip-path="url(#clip0_514_12069)">
        <path d="M100 239.64C155.228 239.64 200 194.868 200 139.64C200 84.4115 155.228 39.64 100 39.64C44.7715 39.64 0 84.4115 0 139.64C0 194.868 44.7715 239.64 100 239.64Z" fill="#797979"/>
        <path d="M50.33 87.62C56.98 92.44 63.51 97.5 70.79 101.37C78.07 105.24 87.1 108.47 95.68 106.31C102.44 104.61 107.19 98.34 108.62 91.74C110.05 85.13 109.17 78.19 107.31 71.76C105.42 65.23 102.5 58.85 98.71 53.2C94.92 47.55 90.12 42.21 83.86 39.28C80.22 37.58 76.01 36.4 72.03 37.68C68.34 38.86 65.5 41.96 64.8 45.8C63.23 54.35 69.02 62.17 74.44 68.14C79.86 74.11 86.29 79.33 93.48 82.77C100.67 86.21 109.11 88.25 116.75 85.33C118.72 84.58 120.59 83.69 122.29 82.44C124.29 80.97 125.75 79.43 127.23 77.46C129.36 74.61 130.85 71.23 131.83 67.81C134.03 60.2 133.78 52.02 132.32 44.3C130.9 36.82 128.04 29.29 123.65 23.04C119.26 16.79 113.55 11.76 105.73 10.91C102.18 10.52 98.49 11.67 95.87 14.12C92.88 16.91 91.75 21.17 91.72 25.14C91.68 30.21 93.49 35.18 95.71 39.66C97.93 44.14 101.13 48.6 104.45 52.58C110.65 60 118.86 66.92 128.75 68.16C137.48 69.25 145.78 64.18 149.17 56.15C150.68 52.58 151.28 48.72 151.83 44.9C152.28 41.75 152.64 38.59 152.65 35.4C152.66 29.69 151.67 24.02 150.98 18.37C150.45 14.03 150.01 9.69 149.65 5.33C149.42 2.56 147.37 -0.13 144.33 0.00999986C141.64 0.13 138.77 2.36 139.01 5.33C139.59 12.48 140.54 19.58 141.4 26.7C141.97 31.47 142.21 36.21 141.7 41C141.67 41.31 141.63 41.63 141.59 41.94C141.42 43.3 141.72 41.12 141.59 41.92C141.46 42.72 141.35 43.51 141.22 44.31C140.93 46.01 140.63 47.71 140.24 49.39C140.06 50.19 139.83 50.97 139.55 51.74C139.53 51.78 139.29 52.28 139.31 52.37C139.29 52.26 139.87 51.21 139.44 52.01C139.23 52.39 139.05 52.78 138.83 53.16C138.61 53.54 138.37 53.87 138.15 54.23C137.67 54.99 138.96 53.34 138.13 54.26C137.62 54.83 137.08 55.35 136.52 55.88C135.91 56.46 136.8 55.65 136.89 55.61C136.73 55.68 136.54 55.87 136.4 55.96C136.11 56.16 135.82 56.34 135.51 56.52C135.2 56.7 134.89 56.84 134.59 57.01C133.84 57.41 134.94 56.85 135.04 56.84C134.81 56.88 134.56 57.02 134.33 57.1C133.6 57.35 132.87 57.51 132.12 57.66C131.22 57.84 133.44 57.6 132.14 57.64C131.72 57.65 131.29 57.69 130.87 57.68C130.49 57.68 130.11 57.66 129.73 57.63C129.63 57.63 129.2 57.53 129.07 57.57C129.18 57.54 130.4 57.81 129.49 57.61C128.58 57.41 127.67 57.22 126.78 56.92C126.37 56.79 125.98 56.63 125.57 56.48C125.01 56.27 125.97 56.63 125.97 56.65C125.94 56.58 125.39 56.38 125.27 56.32C124.31 55.85 123.39 55.31 122.49 54.74C121.7 54.24 120.93 53.7 120.16 53.15C119.39 52.6 120.11 53.13 120.25 53.23C120.03 53.07 119.81 52.88 119.6 52.71C119.16 52.36 118.74 51.99 118.31 51.62C116.62 50.15 115.04 48.56 113.54 46.89C112.85 46.12 112.18 45.34 111.52 44.54C111.19 44.14 110.87 43.73 110.55 43.33C111.19 44.14 110.7 43.52 110.57 43.35C110.35 43.05 110.13 42.76 109.91 42.46C108.6 40.66 107.36 38.81 106.25 36.88C105.69 35.9 105.16 34.91 104.67 33.89C104.45 33.43 104.24 32.96 104.03 32.49C103.7 31.77 104.33 33.3 104.07 32.57C103.95 32.24 103.81 31.91 103.69 31.58C103.37 30.68 103.08 29.77 102.84 28.85C102.71 28.35 102.59 27.84 102.5 27.33C102.46 27.14 102.44 26.96 102.4 26.77C102.26 26.09 102.48 27.91 102.42 26.9C102.36 26.03 102.31 25.17 102.37 24.29C102.37 24.13 102.4 23.97 102.41 23.8C102.45 22.9 102.37 24.2 102.33 24.29C102.46 23.95 102.47 23.52 102.56 23.16C102.64 22.85 102.85 22.46 102.88 22.14C102.88 22.11 102.33 23.24 102.58 22.83C102.66 22.7 102.72 22.54 102.79 22.4C102.92 22.16 103.09 21.94 103.21 21.71C103.54 21.08 102.83 22.22 102.78 22.26C102.92 22.17 103.03 21.98 103.14 21.86C103.21 21.79 103.31 21.72 103.37 21.64C103.79 21.12 102.84 22.04 102.78 22.07C102.99 21.97 103.18 21.79 103.39 21.67C103.51 21.6 103.64 21.55 103.75 21.48C104.25 21.16 102.47 21.93 103.05 21.77C103.32 21.69 103.58 21.59 103.85 21.52C104.08 21.46 104.35 21.45 104.58 21.37C103.19 21.85 103.55 21.49 104.25 21.47C104.51 21.47 104.77 21.47 105.03 21.48C105.18 21.48 105.34 21.52 105.49 21.51C106 21.49 104.02 21.22 104.88 21.43C105.43 21.56 105.98 21.66 106.53 21.82C106.81 21.9 107.08 22.01 107.36 22.1C108.36 22.43 106.2 21.55 107.39 22.1C107.95 22.36 108.49 22.65 109.02 22.97C109.33 23.16 109.63 23.35 109.93 23.55C110.04 23.63 110.15 23.71 110.27 23.78C110.98 24.26 110.19 23.75 109.96 23.52C110.96 24.51 112.02 25.36 112.94 26.44C113.2 26.75 113.46 27.05 113.72 27.36C113.84 27.51 113.96 27.7 114.1 27.84C114.13 27.87 113.41 26.9 113.73 27.37C114.2 28.05 114.7 28.71 115.16 29.41C116.04 30.75 116.84 32.15 117.58 33.58C117.96 34.31 118.31 35.05 118.65 35.8C118.75 36.02 119.24 37.16 118.91 36.38C118.58 35.6 118.88 36.33 118.96 36.52C119.06 36.78 119.17 37.04 119.27 37.3C120.49 40.47 121.42 43.75 122.05 47.09C122.21 47.93 122.34 48.76 122.47 49.6C122.56 50.2 122.39 48.99 122.39 49.03C122.41 49.25 122.45 49.48 122.47 49.7C122.53 50.2 122.58 50.71 122.62 51.21C122.76 52.87 122.83 54.53 122.8 56.19C122.79 57.01 122.75 57.82 122.7 58.63C122.67 59.01 122.64 59.38 122.61 59.75C122.56 60.24 122.22 61.7 122.59 60.08C122.24 61.6 122.07 63.14 121.65 64.64C121.46 65.32 121.25 65.99 121.01 66.66C120.88 67.03 120.73 67.4 120.59 67.77C120.53 67.93 120.32 68.45 120.63 67.68C120.98 66.83 120.63 67.66 120.54 67.85C119.93 69.15 119.21 70.41 118.37 71.58C118.26 71.73 118.13 71.88 118.03 72.04C118.06 71.99 118.89 71 118.34 71.63C118.12 71.88 117.91 72.13 117.69 72.38C117.47 72.63 117.25 72.87 117.01 73.1C117.05 73.07 116.49 73.52 116.49 73.53C116.46 73.42 117.56 72.77 116.65 73.4C116.03 73.82 115.41 74.23 114.75 74.59C114.39 74.79 114 74.94 113.64 75.14C113.16 75.41 114.22 74.9 114.2 74.91C113.98 74.94 113.7 75.1 113.49 75.18C112.78 75.43 112.05 75.64 111.31 75.79C110.97 75.86 110.62 75.91 110.27 75.98C109.6 76.11 111.47 75.9 110.79 75.91C110.54 75.91 110.29 75.96 110.04 75.97C109.33 76.02 108.62 76.02 107.91 76C107.55 75.99 107.19 75.96 106.84 75.93C106.63 75.91 106.43 75.88 106.22 75.87C105.55 75.83 107.5 76.08 106.55 75.91C104.97 75.63 103.42 75.27 101.89 74.76C101.47 74.62 101.06 74.47 100.65 74.32C100.45 74.25 99.23 73.74 100.05 74.09C100.82 74.43 99.67 73.92 99.45 73.82C99.04 73.63 98.63 73.43 98.22 73.23C96.61 72.43 95.06 71.53 93.55 70.56C92.81 70.08 92.08 69.59 91.36 69.08C91.02 68.84 90.69 68.6 90.36 68.35C90.22 68.24 90.08 68.14 89.94 68.03C88.98 67.32 90.58 68.55 90.04 68.1C87.3 65.87 84.68 63.52 82.29 60.92C81.21 59.74 80.28 58.33 79.14 57.22C80.21 58.26 79.31 57.44 79.04 57.07C78.83 56.79 78.63 56.51 78.42 56.22C77.81 55.35 77.25 54.46 76.74 53.53C76.53 53.15 76.33 52.77 76.14 52.38C76.05 52.19 75.96 51.9 75.84 51.74C75.84 51.74 76.22 52.76 76.04 52.22C75.77 51.42 75.47 50.65 75.28 49.82C75.21 49.5 75.18 49.15 75.08 48.84C75.53 50.29 75.16 49.54 75.13 48.93C75.12 48.64 75.12 48.35 75.13 48.06C75.13 47.94 75.15 47.82 75.15 47.7C75.15 46.85 74.81 48.98 75.09 48.21C75.17 47.98 75.22 47.72 75.29 47.48C75.54 46.54 74.67 48.54 75.11 47.9C75.23 47.72 75.37 47.5 75.47 47.31C75.72 46.8 74.55 48.28 75 47.93C75.11 47.85 75.25 47.68 75.34 47.58C75.81 47.01 74.13 48.3 74.95 47.88C75.12 47.79 75.41 47.67 75.55 47.55C74.65 48.33 74.36 47.98 74.84 47.86C74.97 47.83 75.11 47.78 75.24 47.74C75.34 47.71 75.45 47.7 75.55 47.67C76.38 47.44 75.07 47.77 74.9 47.74C75.18 47.79 75.55 47.7 75.84 47.71C76.09 47.71 77.17 47.85 76.14 47.7C75.11 47.55 76.24 47.73 76.5 47.79C76.88 47.88 77.26 47.98 77.63 48.1C77.92 48.19 78.53 48.54 78.82 48.53C78.71 48.53 77.64 47.98 78.47 48.4C78.63 48.48 78.79 48.55 78.94 48.63C79.85 49.08 80.73 49.6 81.58 50.16C81.99 50.43 82.39 50.71 82.79 51C83.27 51.35 83.95 52.17 82.74 50.95C83.12 51.34 83.6 51.66 84.01 52.03C84.93 52.87 85.8 53.77 86.62 54.7C87.02 55.15 87.4 55.61 87.78 56.08C87.89 56.22 87.99 56.36 88.11 56.49C88.09 56.47 87.27 55.38 87.77 56.04C87.98 56.33 88.2 56.62 88.41 56.91C89.23 58.04 90 59.21 90.74 60.4C92.31 62.95 93.67 65.62 94.89 68.36C95.41 69.52 94.54 67.48 94.88 68.33C95.03 68.7 95.18 69.07 95.33 69.44C95.6 70.14 95.86 70.84 96.11 71.54C96.61 72.98 97.06 74.45 97.45 75.93C97.81 77.32 98.12 78.73 98.36 80.15C98.41 80.47 98.46 80.8 98.51 81.12C98.63 81.78 98.36 79.87 98.43 80.54C98.45 80.72 98.47 80.91 98.49 81.09C98.56 81.77 98.62 82.45 98.66 83.13C98.73 84.48 98.73 85.84 98.62 87.18C98.6 87.47 98.56 87.77 98.53 88.06C98.44 88.95 98.77 86.68 98.57 87.75C98.45 88.39 98.33 89.02 98.17 89.65C98.02 90.22 97.84 90.78 97.64 91.34C97.6 91.45 97.55 91.56 97.52 91.67C97.33 92.26 98.06 90.48 97.79 91.04C97.64 91.35 97.5 91.66 97.34 91.97C97.1 92.44 96.83 92.9 96.53 93.33C96.39 93.54 95.8 94.32 96.42 93.52C97.06 92.69 96.28 93.66 96.11 93.85C95.75 94.25 95.36 94.6 94.96 94.96C94.85 95.06 94.7 95.15 94.6 95.26C94.61 95.25 95.77 94.45 95.12 94.85C94.85 95.02 94.6 95.21 94.33 95.38C94.18 95.48 93.57 95.72 93.49 95.87C93.52 95.81 94.61 95.52 94.08 95.61C93.87 95.65 93.67 95.74 93.47 95.8C92.71 96.02 91.87 96.07 91.13 96.31C92.23 95.95 92.05 96.21 91.59 96.23C91.38 96.24 91.16 96.27 90.95 96.28C90.57 96.3 90.2 96.31 89.82 96.31C88.94 96.31 88.08 96.21 87.21 96.16C86.62 96.12 87.83 96.25 87.8 96.24C87.59 96.18 87.35 96.17 87.14 96.13C86.69 96.05 86.25 95.96 85.81 95.86C84.96 95.67 84.13 95.44 83.3 95.18C82.47 94.92 81.61 94.62 80.78 94.29C80.55 94.2 80.33 94.11 80.11 94.02C79.98 93.97 79.39 93.73 80.07 94.01C80.79 94.3 80.04 93.99 79.86 93.91C79.58 93.78 79.3 93.66 79.02 93.53C77.31 92.73 75.64 91.84 74 90.9C70.62 88.95 67.37 86.77 64.19 84.52C61.34 82.5 58.54 80.41 55.71 78.35C53.45 76.71 49.68 77.89 48.43 80.26C46.97 83.02 47.93 85.79 50.34 87.54L50.33 87.62Z" fill="#414141"/>
        <path d="M80.85 151.1C87.2841 151.1 92.5 142.983 92.5 132.97C92.5 122.957 87.2841 114.84 80.85 114.84C74.4158 114.84 69.2 122.957 69.2 132.97C69.2 142.983 74.4158 151.1 80.85 151.1Z" fill="#CACACA"/>
        <path d="M75.01 141.87C78.2187 141.87 80.82 137.823 80.82 132.83C80.82 127.837 78.2187 123.79 75.01 123.79C71.8012 123.79 69.2 127.837 69.2 132.83C69.2 137.823 71.8012 141.87 75.01 141.87Z" fill="black"/>
        <path d="M123.24 149.54C129.674 149.54 134.89 141.423 134.89 131.41C134.89 121.397 129.674 113.28 123.24 113.28C116.806 113.28 111.59 121.397 111.59 131.41C111.59 141.423 116.806 149.54 123.24 149.54Z" fill="#CACACA"/>
        <path d="M117.4 140.32C120.609 140.32 123.21 136.273 123.21 131.28C123.21 126.287 120.609 122.24 117.4 122.24C114.191 122.24 111.59 126.287 111.59 131.28C111.59 136.273 114.191 140.32 117.4 140.32Z" fill="black"/>
        <path d="M144.26 156.58C144.68 159.71 139.88 162.46 137.72 163.7C133.95 165.87 129.79 167.31 125.58 168.34C121.08 169.44 104.32 172.89 102.05 166.07C101.19 163.48 97.08 164.59 97.95 167.2C101.33 177.37 119.26 174.27 126.71 172.44C134.08 170.63 149.73 165.61 148.36 155.44C148 152.74 143.9 153.89 144.26 156.57V156.58Z" fill="black"/>
    </g>
    <defs>
        <clipPath id="clip0_514_12069">
            <rect width="200" height="239.64" fill="white"/>
        </clipPath>
    </defs>
</svg>