<svg xmlns="http://www.w3.org/2000/svg" width="200" height="200" viewBox="0 0 200 200" fill="none">
  <g clip-path="url(#clip0_514_12011)">
    <path d="M100 200C155.228 200 200 155.228 200 100C200 44.7715 155.228 0 100 0C44.7715 0 0 44.7715 0 100C0 155.228 44.7715 200 100 200Z" fill="#E5C1DB"/>
    <path d="M136.07 74.3435C137.713 63.4487 133.353 53.7578 126.33 52.6982C119.307 51.6386 112.281 59.6116 110.637 70.5064C108.994 81.4011 113.354 91.0921 120.377 92.1517C127.4 93.2113 134.426 85.2383 136.07 74.3435Z" fill="#FFFFFB"/>
    <path d="M86.024 90.3445C93.0598 89.3745 97.5436 79.7399 96.0387 68.8251C94.5339 57.9102 87.6103 49.8484 80.5745 50.8184C73.5386 51.7885 69.0549 61.4231 70.5597 72.3379C72.0646 83.2527 78.9882 91.3146 86.024 90.3445Z" fill="#FFFFFB"/>
    <path d="M87.0955 85.9952C90.504 85.5252 92.6165 80.4252 91.8139 74.604C91.0113 68.7827 87.5976 64.4446 84.1891 64.9146C80.7806 65.3845 78.6681 70.4845 79.4707 76.3058C80.2733 82.127 83.687 86.4651 87.0955 85.9952Z" fill="black"/>
    <path d="M133.33 75.76C130.47 69.3 123.47 64.36 116.24 66.24C115.1 66.54 114.41 67.8 114.72 68.92C115.03 70.04 116.26 70.74 117.4 70.44C118.54 70.14 119.95 70.11 121.04 70.34C122.49 70.65 123.6 71.14 124.84 71.98C125.39 72.35 125.52 72.46 126.08 72.97C126.59 73.44 127.07 73.95 127.51 74.48C127.78 74.8 128.19 75.39 128.53 75.95C128.92 76.59 129.27 77.26 129.57 77.95C130.05 79.03 131.62 79.28 132.55 78.73C133.66 78.08 133.81 76.83 133.33 75.75V75.76Z" fill="#231F20"/>
    <path d="M84.98 142.69C92.58 142.25 99.52 139.33 104.81 133.81L102.39 133.5C104.12 136.39 107.39 138.02 110.46 139.1C114.56 140.54 119.03 141.05 123.36 140.83C125.33 140.73 125.35 137.65 123.36 137.75C119.52 137.95 115.67 137.54 112 136.37C109.49 135.57 106.47 134.32 105.05 131.95C104.55 131.11 103.32 130.91 102.63 131.64C97.92 136.57 91.78 139.23 84.98 139.62C83.01 139.73 82.99 142.82 84.98 142.7V142.69Z" fill="#231F20"/>
    <path d="M61.06 110.1C62.03 109.89 62.58 109.79 63.44 109.75C63.88 109.73 64.32 109.72 64.76 109.75C64.92 109.75 65.09 109.77 65.25 109.79C66.01 109.86 64.76 109.67 65.47 109.83C65.79 109.9 66.11 109.97 66.42 110.07C66.59 110.12 66.75 110.18 66.91 110.24C66.83 110.21 66.42 110 66.83 110.22C67.09 110.35 67.34 110.5 67.6 110.65C67.74 110.73 67.86 110.83 68 110.92C67.66 110.68 67.83 110.77 68.06 110.98C68.48 111.36 68.86 111.77 69.23 112.2C69.47 112.49 69.03 111.89 69.39 112.43C69.57 112.7 69.75 112.96 69.92 113.23C70.59 114.28 71.16 115.39 71.77 116.47C73.12 118.86 74.72 121.16 77.11 122.61C79.99 124.35 83.5 124.57 86.64 123.45C90.36 122.12 93.75 119.71 96.41 116.81C99.07 113.91 101.43 110.14 101.45 106.05C101.47 102.36 99.63 97.51 95.64 96.6C91.29 95.61 88.31 99.86 87.41 103.55C85.73 110.42 86.83 119.23 91.52 124.73C93.99 127.64 97.92 129.41 101.75 129.02C106.29 128.56 110.35 126.17 113.57 123.02C116.79 119.87 119.49 115.64 120.79 111.19C122 107.05 122.06 101.79 118.46 98.76C113.91 94.93 108.48 98.7 106.2 103.12C103.61 108.12 102.82 114.44 103.84 119.95C104.64 124.31 107.36 128.18 111.93 129.04C115.9 129.79 120.32 128.84 123.69 126.61C126.62 124.67 129.01 122.07 131.51 119.63C132.68 118.49 134.17 117.13 135.2 116.4C136.65 115.37 137.77 114.75 139.24 114.35C140.64 113.97 142.18 113.94 143.69 114.27C145.08 114.57 146.54 113.86 146.93 112.43C147.29 111.12 146.49 109.5 145.09 109.19C141.54 108.42 138.09 108.83 134.85 110.46C132.02 111.88 129.62 114.11 127.38 116.32C126.28 117.4 125.2 118.51 124.08 119.56C123.55 120.05 123.02 120.54 122.47 121C121.95 121.44 121.8 121.57 121.03 122.08C118.84 123.52 115.65 124.49 113.05 123.92C111.77 123.63 110.83 123.12 110.15 122.09C109.13 120.55 108.81 118.55 108.72 116.7C108.51 112.57 109.16 107.23 111.92 103.94C112.42 103.35 113.06 102.76 113.78 102.49C114.3 102.29 114.55 102.4 114.82 102.58C115.05 102.73 115.12 102.78 115.38 103.1C115.38 103.1 115.72 103.62 115.82 103.84C116.1 104.42 116.29 105.19 116.32 105.87C116.44 109.16 114.87 112.7 112.97 115.57C110.97 118.6 108.23 121.24 104.93 122.81C103.55 123.47 101.96 123.89 100.49 123.85C99.3 123.81 98.15 123.4 97.03 122.67C96.16 122.11 95.27 121.16 94.65 120.18C94.26 119.57 93.92 118.93 93.63 118.28C93.61 118.24 93.44 117.82 93.57 118.15C93.5 117.98 93.44 117.8 93.37 117.63C93.23 117.24 93.09 116.84 92.98 116.43C92.11 113.51 91.89 110.98 92.1 107.82C92.12 107.47 92.15 107.12 92.19 106.78C92.21 106.61 92.23 106.44 92.25 106.27C92.19 106.74 92.25 106.31 92.26 106.23C92.41 105.31 92.59 104.36 92.97 103.5C92.97 103.52 93.27 102.92 93.36 102.78C93.55 102.47 93.63 102.38 93.64 102.36C93.75 102.24 93.86 102.13 93.97 102.02C94.25 101.73 93.65 102.22 93.97 102.01C94.09 101.93 94.21 101.86 94.33 101.79C94.48 101.7 93.98 101.74 94.35 101.79C94.89 101.86 94.21 101.65 94.21 101.78C94.21 101.76 94.54 101.78 94.59 101.78C93.86 101.78 94.91 101.96 94.37 101.7C94.54 101.78 95.08 102.22 94.71 101.88C94.82 101.98 94.94 102.09 95.04 102.21C95.51 102.79 94.82 101.79 95.23 102.49C95.97 103.74 96.26 105.16 96.22 106.38C96.22 106.55 96.2 106.73 96.18 106.9C96.23 106.47 96.18 106.9 96.16 106.98C96.09 107.33 96 107.68 95.9 108.03C95.67 108.78 95.55 109.06 95.1 109.87C94.29 111.35 93.45 112.43 92.29 113.62C91.13 114.81 89.97 115.81 88.6 116.7C87.94 117.13 87.25 117.53 86.55 117.89C85.76 118.29 85.65 118.34 84.78 118.62C84.46 118.72 84.14 118.8 83.81 118.88C83.66 118.92 83.49 118.95 83.34 118.97C83.44 118.95 83.86 118.93 83.35 118.97C83.06 118.99 82.77 119 82.48 118.99C82.34 118.99 82.2 118.97 82.06 118.96C82.44 119 82.14 118.98 81.93 118.93C81.64 118.86 81.34 118.8 81.06 118.71C80.95 118.68 80.19 118.39 80.48 118.52C80.79 118.66 80.16 118.35 80.06 118.3C79.77 118.14 79.5 117.96 79.23 117.77C79.7 118.1 79.18 117.72 79.02 117.57C78.83 117.4 78.65 117.22 78.47 117.03C78.29 116.84 78.13 116.65 77.96 116.45C77.87 116.35 77.66 116.06 78.02 116.53C77.92 116.4 77.83 116.27 77.74 116.14C77.14 115.24 76.59 114.32 76.06 113.38C74.96 111.39 73.85 109.34 72.22 107.73C70.2 105.74 67.6 104.73 64.79 104.59C63.08 104.5 61.35 104.77 59.69 105.14C56.38 105.86 57.78 110.93 61.09 110.21L61.06 110.1Z" fill="#9B5EA5"/>
  </g>
  <defs>
    <clipPath id="clip0_514_12011">
      <rect width="200" height="200" fill="white"/>
    </clipPath>
  </defs>
</svg>
