<svg xmlns="http://www.w3.org/2000/svg" width="248" height="200" viewBox="0 0 248 200" fill="none">
    <g clip-path="url(#clip0_514_12014)">
        <path d="M118.21 200C173.438 200 218.21 155.228 218.21 100C218.21 44.7715 173.438 0 118.21 0C62.9815 0 18.21 44.7715 18.21 100C18.21 155.228 62.9815 200 118.21 200Z" fill="#BFE0A6"/>
        <path d="M62.2 159.66C55.5 159.64 48.78 159.78 42.1 159.21C41.2 159.13 40.3 159.04 39.41 158.94C39.19 158.91 37.84 158.76 38.78 158.87C39.63 158.97 38.87 158.87 38.66 158.85C38.39 158.81 38.11 158.77 37.84 158.72C36.18 158.45 34.53 158.12 32.9 157.69C32.14 157.49 31.38 157.27 30.63 157.03C29.88 156.79 29.09 156.35 28.32 156.19C28.39 156.2 29.54 156.74 28.75 156.37C28.61 156.31 28.48 156.25 28.34 156.19C27.98 156.02 27.62 155.85 27.27 155.67C26.58 155.31 25.91 154.93 25.25 154.51C24.97 154.33 24.69 154.14 24.42 153.95C23.32 153.16 25.01 154.48 24.37 153.92C23.8 153.42 23.24 152.93 22.73 152.38C22.47 152.11 22.23 151.82 21.99 151.54C21.42 150.89 22.7 152.62 22.05 151.6C21.88 151.33 21.73 151.07 21.59 150.79C21.23 150.07 21.82 151.34 21.83 151.37C21.8 151.19 21.68 150.97 21.61 150.79C21.41 150.22 21.25 149.64 21.13 149.05C21.1 148.9 21.08 148.74 21.04 148.58C20.93 148.08 21.25 148.13 21.13 149.29C21.16 149 21.07 148.65 21.06 148.36C21.03 147.78 21.05 147.19 21.09 146.61C21.17 145.58 21.23 146.52 21.02 146.97C21.15 146.67 21.15 146.24 21.22 145.92C21.35 145.33 21.52 144.75 21.71 144.18C21.82 143.87 21.94 143.57 22.05 143.26C22.33 142.51 21.49 144.5 22.01 143.38C22.6 142.12 23.31 140.93 24.1 139.79C24.28 139.53 24.47 139.28 24.65 139.02C25.36 138.04 24.01 139.79 24.57 139.12C25.05 138.54 25.53 137.97 26.03 137.41C27.08 136.26 28.19 135.17 29.36 134.14C29.88 133.67 30.42 133.22 30.96 132.78C31.27 132.53 31.61 132.29 31.91 132.02C31.85 132.07 30.86 132.81 31.56 132.29C31.77 132.14 31.97 131.98 32.17 131.83C33.45 130.89 34.78 130 36.13 129.16C38.82 127.49 41.63 126.05 44.52 124.77C44.84 124.63 45.42 124.48 44.07 124.96C44.25 124.9 44.44 124.81 44.62 124.74C44.94 124.61 45.26 124.49 45.57 124.37C46.29 124.1 47.01 123.84 47.73 123.59C49.07 123.14 50.43 122.74 51.81 122.42C52.44 122.27 53.07 122.14 53.7 122.02C53.99 121.97 54.27 121.92 54.56 121.87C55.87 121.64 53.37 121.99 54.47 121.88C55.86 121.75 57.24 121.69 58.64 121.74C59.13 121.76 59.62 121.79 60.11 121.83C60.33 121.85 60.59 121.91 60.81 121.9C60.83 121.9 59.66 121.71 60.24 121.82C61.1 121.99 61.96 122.13 62.8 122.38C63.11 122.47 63.42 122.58 63.73 122.69C64.85 123.07 62.83 122.21 63.54 122.61C64.05 122.89 64.62 123.36 65.15 123.57C64.09 123.16 64.32 122.87 64.88 123.42C65.38 123.91 65.32 124.33 64.7 123.08C64.79 123.26 64.95 123.46 65.06 123.63C65.12 123.72 65.15 123.88 65.23 123.95C65.43 124.12 64.83 122.69 64.94 123.26C64.98 123.45 65.04 123.68 65.1 123.86C65.19 124.11 65.03 122.27 65.01 123.24C65.01 123.31 65.03 123.95 64.99 123.96C64.88 123.96 65.32 122.44 65.1 123.09C65.05 123.24 65.03 123.4 64.99 123.55C64.93 123.77 64.82 123.98 64.77 124.19C65.09 122.76 65.18 123.27 64.85 123.85C64.72 124.07 64.58 124.28 64.44 124.5C63.91 125.32 65.35 123.52 64.47 124.43C64.02 124.9 63.52 125.31 63.06 125.76C62.68 126.13 63.63 125.34 63.59 125.36C63.43 125.45 63.27 125.59 63.12 125.7C62.75 125.96 62.36 126.21 61.97 126.44C61.26 126.87 60.52 127.25 59.77 127.6C59.56 127.7 59.31 127.77 59.12 127.89C59.13 127.89 60.1 127.51 59.54 127.71C59.04 127.89 58.55 128.09 58.05 128.25C56.79 128.67 55.51 129.04 54.22 129.37C52.85 129.72 51.46 130.02 50.07 130.27C49.37 130.4 48.67 130.51 47.97 130.62C47.78 130.65 47.59 130.67 47.4 130.7C46.82 130.8 48.19 130.6 48.1 130.61C47.67 130.65 47.24 130.72 46.81 130.77C43.75 131.11 40.66 131.25 37.58 131.14C36.12 131.09 34.67 130.98 33.22 130.81C31.77 130.64 34.1 130.95 33.21 130.81C32.83 130.75 32.46 130.69 32.08 130.63C31.34 130.5 30.6 130.35 29.87 130.18C28.49 129.86 27.13 129.46 25.8 128.97C25.51 128.86 25.22 128.75 24.93 128.63C24.23 128.36 26.17 129.19 24.98 128.63C24.35 128.34 23.73 128.02 23.12 127.68C22.56 127.36 22.02 127.03 21.49 126.67C21.25 126.5 21.02 126.31 20.77 126.15C22.21 127.06 21.13 126.43 20.77 126.11C20.29 125.7 19.84 125.27 19.41 124.82C19.21 124.61 19.01 124.39 18.82 124.17C18.71 124.04 18.61 123.91 18.5 123.79C18.08 123.32 19.28 124.87 18.79 124.17C18.42 123.65 18.07 123.13 17.75 122.58C17.6 122.32 17.46 122.06 17.32 121.79C17.21 121.58 16.64 120.3 17.04 121.24C17.44 122.18 17 121.09 16.92 120.88C16.8 120.54 16.69 120.19 16.59 119.84C16.51 119.57 16.48 118.98 16.31 118.76C16.3 118.74 16.44 119.97 16.4 119.42C16.38 119.17 16.34 118.92 16.32 118.66C16.26 117.9 16.24 117.14 16.26 116.38C16.27 116.02 16.29 115.66 16.32 115.31C16.34 115.11 16.36 114.9 16.38 114.7C16.46 113.61 16.2 115.67 16.33 115.03C16.64 113.41 16.97 111.82 17.51 110.25C17.65 109.84 17.8 109.43 17.96 109.02C18.02 108.87 18.2 108.54 18.2 108.41C18.2 108.41 17.74 109.43 17.99 108.92C18.41 108.06 18.79 107.19 19.24 106.35C20.06 104.82 20.98 103.35 21.98 101.93C22.25 101.54 22.53 101.17 22.81 100.78C23.05 100.46 23.08 100.09 22.63 101.01C22.72 100.83 22.96 100.59 23.08 100.45C23.68 99.7 24.31 98.97 24.95 98.26C26.21 96.86 27.55 95.53 28.95 94.27C29.63 93.66 30.32 93.06 31.03 92.48C31.19 92.35 32.26 91.48 31.64 91.99C31.05 92.47 31.68 91.96 31.83 91.85C32.07 91.67 32.32 91.49 32.56 91.31C34.07 90.22 35.63 89.2 37.25 88.26C38.87 87.32 40.45 86.55 42.1 85.8C42.84 85.47 41.86 86.01 41.78 85.93C41.79 85.94 42.46 85.66 42.41 85.68C42.78 85.54 43.15 85.4 43.52 85.26C44.35 84.96 45.2 84.69 46.05 84.45C46.83 84.23 47.62 84.03 48.41 83.86C48.77 83.78 49.35 83.79 49.68 83.62C49.69 83.62 48.5 83.73 49.07 83.7C49.34 83.69 49.6 83.65 49.87 83.63C50.66 83.57 51.45 83.57 52.24 83.61C52.57 83.63 52.99 83.74 53.32 83.7C52.33 83.81 52.31 83.54 52.82 83.63C53.07 83.68 53.32 83.72 53.56 83.77C54.28 83.92 54.98 84.11 55.67 84.36C55.84 84.42 56.03 84.52 56.2 84.56C56.13 84.54 54.98 83.97 55.69 84.36C56.01 84.53 56.33 84.69 56.64 84.87C57.1 85.15 57.74 85.87 56.64 84.78C56.85 84.98 57.09 85.16 57.3 85.36C57.46 85.51 58.25 86.47 57.61 85.65C57.01 84.88 57.63 85.78 57.78 86.02C58.34 86.9 57.48 84.83 57.71 85.85C57.77 86.1 57.8 86.44 57.91 86.68C57.45 85.66 57.81 85.49 57.8 86.01C57.8 86.18 57.81 86.35 57.8 86.52C57.8 86.68 57.74 86.9 57.77 87.05C57.75 86.89 58.03 85.75 57.83 86.46C57.72 86.84 57.62 87.22 57.51 87.6C57.27 88.45 58.01 86.6 57.47 87.68C57.25 88.11 57.02 88.53 56.76 88.93C56.66 89.09 56.55 89.25 56.44 89.41C56.33 89.57 56.23 89.72 56.11 89.87C55.88 90.19 55.98 90.05 56.42 89.47C55.79 89.91 55.27 90.76 54.7 91.3C54.33 91.65 53.94 91.96 53.56 92.3C53.37 92.47 52.81 92.97 53.72 92.2C53.47 92.41 53.18 92.6 52.91 92.79C51.12 94.06 49.21 95.14 47.24 96.09C46.77 96.31 46.3 96.52 45.83 96.74C45.11 97.09 46.61 96.43 45.86 96.74C45.58 96.85 45.31 96.96 45.03 97.07C43.92 97.5 42.81 97.91 41.68 98.28C39.48 99.02 37.24 99.65 34.97 100.16C33.88 100.4 32.79 100.62 31.69 100.81C31.18 100.9 30.67 101 30.16 101.05C31.32 100.94 30.51 101 30.27 101.03C29.91 101.07 29.55 101.11 29.19 101.14C27.04 101.34 24.87 101.41 22.71 101.29C22.19 101.26 21.66 101.22 21.14 101.17C20.95 101.15 20.76 101.13 20.57 101.11C19.82 101.05 21.6 101.29 20.87 101.15C19.94 100.96 19.01 100.79 18.1 100.52C17.67 100.39 17.24 100.25 16.82 100.09C15.69 99.69 17.55 100.47 16.72 100.06C15.97 99.68 15.23 99.31 14.52 98.85C14.35 98.74 14.19 98.62 14.02 98.51C13.65 98.27 13.63 97.97 14.37 98.8C14.15 98.55 13.83 98.36 13.58 98.13C13.29 97.87 13.02 97.6 12.75 97.31C12.56 97.11 11.77 96.14 12.33 96.86C12.92 97.64 12.11 96.52 12.01 96.36C11.83 96.08 11.66 95.8 11.51 95.51C11.34 95.19 11.21 94.8 11.01 94.5C11.05 94.56 11.48 95.78 11.23 94.99C11.17 94.81 11.1 94.64 11.05 94.46C10.83 93.78 10.73 93.09 10.55 92.4C10.39 91.75 10.65 93.63 10.63 92.96C10.63 92.77 10.6 92.58 10.58 92.38C10.55 91.94 10.55 91.5 10.56 91.06C10.56 90.71 10.6 90.36 10.62 90.02C10.71 88.75 10.41 90.98 10.62 90.07C10.81 89.24 10.98 88.42 11.25 87.62C11.32 87.41 11.4 87.21 11.47 87C11.78 86.06 11.33 87.36 11.31 87.34C11.24 87.26 11.84 86.17 11.91 86.02C12.3 85.18 12.69 84.35 13.09 83.53C13.77 82.13 14.48 80.75 15.24 79.39C16.48 77.16 17.86 75.03 19.38 72.99C20.05 72.1 18.66 73.88 19.18 73.26C19.37 73.03 19.56 72.79 19.75 72.55C20.14 72.08 20.53 71.61 20.93 71.15C21.74 70.21 22.58 69.29 23.42 68.39C25.47 66.18 27.57 64.01 29.63 61.81C32.51 58.73 35.32 55.59 38.07 52.4C39.88 50.3 40.29 46.93 38.07 44.89C36.08 43.06 32.5 42.65 30.56 44.89C25.48 50.77 20.04 56.3 14.82 62.06C10.81 66.48 7.41001 71.29 4.70001 76.61C2.76001 80.41 0.760008 84.3 0.180008 88.57C-0.399992 92.84 0.250008 96.97 2.27001 100.76C6.62001 108.95 16.02 111.94 24.75 111.98C30.01 112 35.34 111.13 40.41 109.77C45.48 108.41 50.66 106.51 55.28 103.87C63 99.47 72.03 90.22 66.93 80.68C65 77.08 61.08 74.77 57.24 73.76C53.02 72.64 48.68 72.87 44.48 73.91C36.15 75.97 28.54 80.58 22.12 86.18C15.7 91.78 10.24 99 7.37001 107.14C4.82001 114.39 4.87001 122.79 9.41001 129.25C17.69 141.04 33.99 142.94 47.26 141.36C54.35 140.52 62.22 139.14 68.24 135.05C71.37 132.93 74.26 130.06 75.26 126.29C76.26 122.52 75.19 118.87 72.61 116.14C70.03 113.41 66.32 112.06 62.74 111.55C58.76 110.98 54.96 111.06 51.01 111.76C44.27 112.97 37.69 115.88 31.83 119.36C25.45 123.15 19.59 127.96 15.23 134.01C11.35 139.39 9.22001 146.38 11.13 152.92C13.4 160.7 21.08 165.23 28.39 167.47C35.7 169.71 44.04 170.17 51.87 170.28C55.31 170.33 58.75 170.28 62.19 170.3C64.97 170.3 67.63 167.85 67.5 164.99C67.37 162.13 65.17 159.69 62.19 159.68L62.2 159.66Z" fill="#414C39"/>
        <path d="M98.85 111.43C105.273 111.43 110.48 103.331 110.48 93.34C110.48 83.3492 105.273 75.25 98.85 75.25C92.4269 75.25 87.22 83.3492 87.22 93.34C87.22 103.331 92.4269 111.43 98.85 111.43Z" fill="white"/>
        <path d="M104.34 105.06C107.543 105.06 110.14 101.022 110.14 96.04C110.14 91.0584 107.543 87.02 104.34 87.02C101.137 87.02 98.54 91.0584 98.54 96.04C98.54 101.022 101.137 105.06 104.34 105.06Z" fill="black"/>
        <path d="M141.15 109.88C147.573 109.88 152.78 101.781 152.78 91.79C152.78 81.7992 147.573 73.7 141.15 73.7C134.727 73.7 129.52 81.7992 129.52 91.79C129.52 101.781 134.727 109.88 141.15 109.88Z" fill="white"/>
        <path d="M135.32 103.51C138.523 103.51 141.12 99.4716 141.12 94.49C141.12 89.5084 138.523 85.47 135.32 85.47C132.117 85.47 129.52 89.5084 129.52 94.49C129.52 99.4716 132.117 103.51 135.32 103.51Z" fill="black"/>
        <path d="M209.67 145.81C216.47 142.44 223.39 139.24 229.78 135.11C236.71 130.63 243.22 125.07 246.39 117.25C247.81 113.75 248.1 110.1 247.16 106.44C246.36 103.32 244.68 100.54 242.56 98.15C238.43 93.51 232.31 90.74 226.45 89.06C220.08 87.23 213.26 86.5 206.64 86.71C200.02 86.92 194.02 87.87 188.25 90.46C181.7 93.39 173.19 100.2 176.01 108.47C179.06 117.44 190.16 117.88 197.97 116.64C205.18 115.49 212.27 112.98 218.72 109.59C225.17 106.2 231.64 101.28 235.44 94.78C237.39 91.45 238.5 87.76 238.75 83.92C239.02 79.83 237.97 75.87 236.06 72.27C232.54 65.65 226.23 60.6 219.64 57.25C212.26 53.49 204.15 51.33 195.89 50.78C191.93 50.51 187.98 50.76 184.07 51.42C180.16 52.08 176.29 53.35 173.07 55.7C169.64 58.2 166.41 61.67 165.72 66.02C164.87 71.37 167.31 75.75 171.57 78.87C175.83 81.99 181.33 83.02 186.48 83.35C191.89 83.69 197.41 83 202.71 81.94C212.31 80.01 222.56 76.08 228.55 67.96C233.54 61.2 233.62 51.57 228.55 44.83C225.88 41.28 222.35 38.67 218.8 36.06C216.48 34.35 214.06 32.75 211.51 31.39C206.15 28.53 200.32 26.62 194.64 24.49C192.82 23.81 191.01 23.11 189.2 22.4C188.19 22 187.18 21.6 186.18 21.19C185.57 20.94 184.96 20.69 184.36 20.44C184.08 20.32 183.8 20.21 183.52 20.09C182.68 19.74 184.68 20.58 183.27 19.98C181.86 19.38 180.68 19.03 179.18 19.44C177.95 19.78 176.61 20.73 176.01 21.88C174.81 24.15 175.18 27.98 177.91 29.14C184.92 32.11 192.04 34.75 199.15 37.46C199.71 37.67 200.27 37.89 200.82 38.11C201.11 38.22 201.39 38.34 201.68 38.45C201.91 38.54 203.08 39.03 202.09 38.61C201.1 38.19 202.04 38.59 202.28 38.69C202.55 38.81 202.82 38.93 203.09 39.05C203.62 39.29 204.15 39.54 204.68 39.8C206.94 40.91 209.1 42.2 211.18 43.62C212.44 44.48 213.62 45.48 214.89 46.31C214.92 46.33 213.99 45.6 214.44 45.96C214.61 46.09 214.78 46.23 214.95 46.36C215.3 46.64 215.65 46.92 216 47.2C216.72 47.78 217.45 48.36 218.13 48.99C218.73 49.55 219.27 50.15 219.81 50.77C220.4 51.44 219.58 50.53 219.56 50.44C219.58 50.55 219.84 50.83 219.92 50.95C220.18 51.33 220.42 51.72 220.64 52.12C220.81 52.42 220.96 52.74 221.12 53.05C221.51 53.8 220.95 52.68 220.94 52.59C220.97 52.76 221.09 52.97 221.15 53.14C221.43 53.92 221.55 54.71 221.76 55.5C221.9 56.03 221.67 54.75 221.67 54.79C221.67 54.96 221.71 55.18 221.72 55.35C221.75 55.73 221.76 56.11 221.76 56.48C221.76 56.85 221.72 57.24 221.7 57.61C221.7 57.8 221.61 58.34 221.73 57.47C221.86 56.5 221.73 57.39 221.69 57.61C221.54 58.38 221.3 59.11 221.06 59.85C220.78 60.71 221.59 58.79 221.07 59.82C220.86 60.23 220.66 60.64 220.43 61.03C220.22 61.39 219.99 61.74 219.76 62.08C219.68 62.2 219.41 62.49 219.39 62.6C219.39 62.58 220.1 61.77 219.72 62.16C219.06 62.85 218.46 63.58 217.75 64.23C217.45 64.51 217.12 64.76 216.81 65.04C216.27 65.51 217.62 64.47 217.02 64.88C216.82 65.02 216.62 65.17 216.42 65.31C215.52 65.93 214.58 66.49 213.62 67.01C212.75 67.49 211.85 67.94 210.95 68.36C210.77 68.44 210.58 68.53 210.39 68.61C209.47 69.03 210.41 68.64 210.52 68.56C210.09 68.88 209.27 69.05 208.77 69.24C206.63 70.02 204.44 70.67 202.22 71.2C201.16 71.45 200.1 71.68 199.03 71.88C198.46 71.99 197.89 72.09 197.31 72.18C197.02 72.23 196.74 72.27 196.45 72.31C195.84 72.41 196.14 72.37 196.57 72.31C194.23 72.7 191.78 72.83 189.42 72.84C188.21 72.84 187.01 72.8 185.8 72.71C185.58 72.69 184.07 72.55 184.77 72.62C185.47 72.69 184.6 72.59 184.42 72.56C184.08 72.5 183.73 72.44 183.39 72.38C182.41 72.19 181.44 71.94 180.49 71.63C180.31 71.57 178.79 71 179.54 71.3C180.22 71.57 179.64 71.34 179.51 71.27C179.18 71.1 178.84 70.94 178.52 70.75C178.13 70.53 177.74 70.29 177.37 70.03C176.28 69.28 177.95 70.65 177.08 69.78C176.82 69.52 176.57 69.26 176.31 68.99C175.71 68.38 176.58 69.27 176.6 69.37C176.58 69.22 176.31 68.93 176.23 68.78C176.14 68.62 176.07 68.46 175.98 68.3C175.66 67.75 176.35 69.46 176.23 68.84C176.18 68.58 176.11 68.23 176.01 67.99C176.53 69.33 176.08 69.11 176.11 68.67C176.12 68.52 176.11 68.33 176.1 68.18C176.1 68.07 176.16 67.81 176.13 67.69C176.19 67.91 175.84 69.12 176.08 68.24C176.17 67.92 176.29 67.59 176.36 67.27C176.47 66.79 176.05 67.96 176.07 67.94C176.16 67.81 176.23 67.61 176.3 67.47C176.47 67.15 176.65 66.84 176.85 66.54C176.94 66.4 177.11 66.23 177.17 66.08C177.04 66.39 176.37 67.01 176.96 66.38C177.47 65.84 177.97 65.3 178.54 64.82C178.68 64.7 178.9 64.57 179.01 64.43C178.94 64.51 177.96 65.17 178.68 64.7C179.04 64.47 179.38 64.22 179.74 64.01C180.1 63.8 180.48 63.58 180.87 63.38C181.18 63.22 181.82 63.06 182.05 62.82C181.97 62.9 180.84 63.27 181.7 62.98C181.86 62.93 182.01 62.87 182.17 62.81C182.64 62.65 183.12 62.5 183.6 62.37C184.35 62.18 185.11 62.01 185.87 61.86C186.26 61.78 186.65 61.71 187.04 61.65C187.24 61.62 187.44 61.59 187.63 61.56C188.26 61.44 186.18 61.72 187.27 61.61C190.57 61.26 193.87 61.22 197.18 61.52C197.61 61.56 198.04 61.61 198.48 61.66C199.7 61.79 197.57 61.51 198.53 61.66C199.49 61.81 200.37 61.95 201.29 62.13C202.97 62.46 204.63 62.86 206.27 63.34C207.91 63.82 209.62 64.4 211.26 65.05C211.41 65.11 211.69 65.27 211.87 65.3C210.93 65.15 211.07 64.95 211.5 65.15C211.9 65.33 212.29 65.5 212.69 65.68C213.47 66.04 214.24 66.42 215 66.83C216.48 67.62 217.93 68.48 219.31 69.44C219.61 69.64 219.9 69.85 220.19 70.06C220.35 70.18 220.52 70.31 220.68 70.43C221.23 70.82 219.82 69.73 220.33 70.16C220.98 70.71 221.64 71.24 222.27 71.82C223.38 72.85 224.37 73.96 225.34 75.12C225.76 75.62 224.66 74.18 225.03 74.72C225.14 74.88 225.25 75.02 225.36 75.18C225.55 75.45 225.73 75.72 225.91 76C226.34 76.66 226.73 77.35 227.09 78.05C227.24 78.34 227.37 78.63 227.51 78.92C227.87 79.67 227.31 78.46 227.3 78.41C227.34 78.58 227.44 78.76 227.5 78.92C227.77 79.65 227.93 80.37 228.1 81.13C228.28 81.98 228.04 80.66 228.04 80.59C228.04 80.78 228.09 80.98 228.1 81.16C228.14 81.54 228.16 81.92 228.17 82.29C228.19 83.03 228.14 83.76 228.1 84.5C228.06 85.24 228.34 83.11 228.1 84.44C228.04 84.79 227.96 85.15 227.88 85.5C227.71 86.2 227.5 86.88 227.25 87.56C227.19 87.72 227.1 87.9 227.06 88.06C227.07 88.02 227.64 86.79 227.28 87.54C227.14 87.82 227.01 88.11 226.87 88.39C226.52 89.08 226.13 89.75 225.7 90.4C225.52 90.67 225.34 90.94 225.15 91.2C225.04 91.35 224.93 91.5 224.82 91.65C224.45 92.18 225.57 90.75 225.14 91.24C224.64 91.81 224.17 92.41 223.65 92.96C222.58 94.11 221.41 95.17 220.19 96.16C220.03 96.29 219.87 96.41 219.72 96.54C219.28 96.9 220.24 96.15 220.19 96.17C219.85 96.35 219.53 96.66 219.21 96.89C218.5 97.4 217.77 97.88 217.03 98.35C215.66 99.22 214.25 100.01 212.81 100.75C212.06 101.13 211.3 101.5 210.54 101.85C210.21 102 209.87 102.16 209.53 102.3C209.34 102.38 209.14 102.47 208.95 102.55C208.34 102.82 210.08 102.09 209.2 102.44C207.65 103.05 206.1 103.64 204.51 104.15C201.58 105.1 198.59 105.86 195.56 106.36C195.2 106.42 194.85 106.47 194.49 106.53C193.41 106.69 195.55 106.43 194.44 106.53C193.33 106.63 192.32 106.68 191.25 106.66C190.85 106.66 190.45 106.64 190.05 106.61C189.83 106.59 189.61 106.57 189.39 106.55C188.48 106.48 189.78 106.58 189.86 106.62C189.19 106.34 188.31 106.33 187.6 106.1C187.43 106.05 187.26 105.98 187.09 105.93C186.32 105.7 187.6 106.15 187.64 106.18C187.4 106 187.04 105.9 186.77 105.75C186.57 105.64 186.22 105.3 186 105.26C185.99 105.26 186.93 106.07 186.65 105.76C186.53 105.63 186.38 105.53 186.26 105.41C185.75 104.92 185.87 104.54 186.43 105.73C186.33 105.51 186.15 105.29 186.02 105.08C185.51 104.27 186.24 105.75 186.22 105.58C186.22 105.48 185.94 104.84 186.02 104.77C186.15 104.66 186.05 106.37 186.15 105.62C186.16 105.51 186.15 105.34 186.15 105.24C186.11 104.27 186.01 105.91 186.06 105.77C186.15 105.53 186.2 105.22 186.27 104.97C186.53 104.01 185.6 106.19 186.21 105.12C186.35 104.88 186.48 104.63 186.63 104.4C186.72 104.26 186.82 104.13 186.91 103.99C187.24 103.46 186.12 104.91 186.56 104.44C187.13 103.84 187.66 103.23 188.29 102.69C188.41 102.59 188.55 102.49 188.66 102.38C189.14 101.9 187.8 103 188.37 102.6C188.71 102.37 189.03 102.13 189.37 101.9C190.29 101.3 191.25 100.76 192.23 100.27C192.56 100.1 192.9 99.95 193.24 99.78C193.33 99.74 193.42 99.7 193.51 99.66C194.18 99.33 192.74 99.98 192.8 99.96C193.36 99.76 193.91 99.52 194.47 99.33C196.81 98.54 199.23 98.04 201.67 97.67C202.41 97.56 200.21 97.85 201.52 97.7C201.86 97.66 202.2 97.62 202.55 97.59C203.25 97.52 203.94 97.46 204.64 97.42C206.07 97.33 207.51 97.29 208.95 97.3C210.39 97.31 211.79 97.36 213.21 97.46C213.9 97.51 214.59 97.57 215.28 97.64C215.65 97.68 216.01 97.72 216.38 97.76C217.76 97.93 215.36 97.6 216.47 97.77C219.28 98.2 222.06 98.78 224.77 99.64C225.43 99.85 226.09 100.07 226.74 100.31C227.02 100.41 227.3 100.52 227.58 100.63C227.74 100.69 227.89 100.76 228.05 100.82C228.64 101.05 226.81 100.27 227.59 100.63C228.77 101.18 229.94 101.74 231.06 102.41C231.56 102.71 232.06 103.03 232.54 103.36C232.76 103.51 232.97 103.68 233.19 103.83C233.82 104.27 232.65 103.41 232.65 103.41C232.79 103.56 233.01 103.7 233.17 103.84C234.04 104.57 234.78 105.39 235.54 106.24C235.94 106.69 234.76 105.17 235.1 105.67C235.18 105.79 235.27 105.9 235.35 106.01C235.49 106.21 235.63 106.41 235.76 106.62C236.08 107.12 236.34 107.65 236.61 108.17C237.09 109.11 236.21 107.03 236.44 107.77C236.52 108.04 236.63 108.3 236.72 108.56C236.89 109.1 237.01 109.66 237.13 110.21C237.38 111.4 237.04 109.04 237.09 109.88C237.11 110.17 237.12 110.48 237.15 110.77C237.26 111.95 237.41 109.8 237.26 110.61C237.19 110.99 237.12 111.36 237.03 111.73C236.85 112.47 236.6 113.19 236.36 113.91C236.07 114.75 236.93 112.72 236.39 113.83C236.2 114.22 236.02 114.61 235.81 114.99C235.46 115.63 235.08 116.26 234.67 116.86C234.45 117.19 234.2 117.5 233.98 117.83C233.67 118.29 234.38 117.32 234.35 117.35C234.14 117.53 233.95 117.85 233.77 118.05C232.72 119.28 231.58 120.43 230.37 121.51C229.76 122.05 229.14 122.57 228.51 123.08C228.4 123.17 228.09 123.35 227.99 123.49C228.47 122.82 228.69 122.96 228.28 123.26C227.87 123.56 227.48 123.86 227.07 124.15C225.59 125.2 224.07 126.19 222.52 127.14C219.45 129.01 216.28 130.7 213.08 132.32C210.17 133.79 207.22 135.2 204.3 136.65C201.81 137.89 200.92 141.62 202.4 143.91C204.05 146.46 207 147.14 209.66 145.81H209.67Z" fill="#414C39"/>
        <path d="M119.25 124.44L110.19 138.21C108.17 141.27 110.37 145.35 114.04 145.35H131.76C135.39 145.35 137.59 141.36 135.66 138.29L127 124.52C125.21 121.68 121.09 121.64 119.25 124.44Z" fill="black"/>
    </g>
    <defs>
        <clipPath id="clip0_514_12014">
            <rect width="247.7" height="200" fill="white"/>
        </clipPath>
    </defs>
</svg>