<svg xmlns="http://www.w3.org/2000/svg" width="200" height="200" viewBox="0 0 200 200" fill="none">
    <g clip-path="url(#clip0_514_12015)">
        <path d="M100 200C155.228 200 200 155.228 200 100C200 44.7715 155.228 0 100 0C44.7715 0 0 44.7715 0 100C0 155.228 44.7715 200 100 200Z" fill="#FFE876"/>
        <path d="M36.57 101.45C35.75 116.05 38.79 130.86 45.55 143.84C48.62 149.74 52.46 155.58 57.72 159.75C63.5 164.34 70.73 167.02 78.12 165.15C89.97 162.16 100 149.16 98.72 136.79C98.05 130.31 94.68 122.8 87.6 121.33C83.95 120.57 80.18 121.68 77.75 124.57C74.98 127.86 74.04 132.23 73.88 136.45C73.74 140.21 74.39 144.02 75.13 147.7C75.71 150.61 76.54 153.45 77.68 156.19C80.3 162.49 84.37 168.32 90.48 171.67C102.16 178.07 119.46 176.08 126.42 163.71C129.82 157.67 130.49 150.13 128.62 143.49C127.53 139.64 125.53 136.36 122.29 133.98C118.73 131.37 114.02 130.98 110.13 133.09C103.46 136.7 103.63 145.7 104.94 152.12C106.16 158.11 109.38 163.67 114.42 167.2C119.75 170.93 127.08 171.34 133.12 169.27C139.69 167.01 144.71 162.39 148.8 156.9C152.94 151.35 155.92 144.81 158.35 138.37C160.98 131.39 162.6 124.04 163.09 116.59C163.33 113.04 163.24 109.48 162.85 105.94C162.54 103.18 160.62 100.48 157.53 100.62C154.91 100.74 151.88 102.98 152.21 105.94C152.57 109.18 152.67 112.45 152.5 115.71C152.42 117.19 152.28 118.66 152.11 120.13C151.99 121.16 152.11 120.23 152.12 120.04C152.09 120.48 151.99 120.92 151.92 121.36C151.78 122.24 151.62 123.11 151.44 123.98C150.82 127.04 149.99 130.06 148.99 133.02C148.49 134.5 147.94 135.97 147.35 137.43C147.25 137.69 146.85 138.63 147.28 137.61C147.13 137.95 146.98 138.3 146.83 138.64C146.47 139.46 146.09 140.28 145.7 141.08C144.48 143.62 143.17 146.14 141.66 148.53C141.01 149.56 140.31 150.56 139.6 151.54C138.89 152.52 140.35 150.65 139.54 151.62C139.38 151.81 139.23 152 139.08 152.19C138.61 152.75 138.13 153.3 137.63 153.83C136.8 154.71 135.93 155.54 135 156.31L134.72 156.54C134.27 156.9 134.35 156.84 134.95 156.37C134.84 156.56 134.41 156.76 134.22 156.89C133.68 157.26 133.13 157.61 132.57 157.94C132.01 158.27 131.41 158.54 130.83 158.83C130.14 159.18 132.08 158.38 130.95 158.78C130.61 158.9 130.28 159.03 129.94 159.14C129.37 159.33 128.79 159.48 128.2 159.61C127.96 159.66 127.72 159.7 127.48 159.75C126.89 159.85 127 159.84 127.8 159.73C127.55 159.76 127.3 159.79 127.06 159.81C126.46 159.86 125.86 159.89 125.26 159.88C124.74 159.88 124.05 159.68 123.56 159.77C124.54 159.58 124.48 159.94 123.84 159.78C123.58 159.72 123.32 159.67 123.06 159.6C122.46 159.45 121.88 159.15 121.28 159.01C122.49 159.28 122.02 159.35 121.58 159.1C121.36 158.98 121.13 158.87 120.92 158.74C120.53 158.52 120.09 158.07 119.66 157.92L120.26 158.39C120.1 158.27 119.95 158.14 119.8 158.01C119.65 157.88 119.5 157.75 119.36 157.61C118.92 157.2 118.53 156.75 118.12 156.3C117.37 155.49 118.83 157.34 118.2 156.42C118.09 156.25 117.96 156.09 117.85 155.92C117.53 155.45 117.24 154.97 116.97 154.47C116.73 154.03 116.54 153.29 116.21 152.93C116.27 153 116.69 154.16 116.38 153.32C116.25 152.97 116.12 152.62 116 152.27C115.64 151.19 115.35 150.08 115.14 148.96C115.1 148.74 115.07 148.53 115.02 148.31C114.79 147.13 115.14 149.61 115.02 148.41C114.96 147.74 114.9 147.08 114.86 146.41C114.83 145.87 114.81 145.33 114.82 144.78C114.82 144.5 114.86 144.22 114.87 143.94C114.89 143.18 114.58 145.31 114.83 144.17C114.95 143.62 115.08 143.08 115.24 142.54C115.57 141.45 114.61 143.55 115.22 142.61C115.29 142.47 115.37 142.33 115.46 142.2C115.68 141.86 115.55 142.01 115.08 142.64C115.14 142.62 115.71 142.05 115.73 141.99L115.44 142.23C115.04 142.53 115.05 142.55 115.49 142.27L115.83 142.1C115.12 142.39 115.03 142.45 115.57 142.28C116.47 141.86 115.27 142.52 115.17 142.32H115.51C116.1 142.35 115.96 142.32 115.1 142.23C115.13 142.29 115.8 142.42 115.91 142.45C116.57 142.6 114.81 141.78 115.74 142.39C115.89 142.49 117.01 143.31 116.37 142.75C115.7 142.16 116.58 142.97 116.64 143.04C116.86 143.25 117.05 143.49 117.26 143.7C117.78 144.22 116.61 142.62 117.2 143.64C117.38 143.95 117.56 144.27 117.76 144.57C118.13 145.15 117.96 144.5 117.67 144.27C117.84 144.4 117.97 145.07 118.04 145.28C118.27 145.97 118.47 146.67 118.63 147.38C118.73 147.81 118.89 149.72 118.82 148.14C118.85 148.75 118.95 149.37 118.98 149.99C119.01 150.61 119.01 151.23 118.98 151.85C118.97 152.22 118.94 152.59 118.91 152.96L118.87 153.33C118.8 153.93 118.82 153.82 118.92 153.02C119.08 153.34 118.65 154.45 118.56 154.84C118.41 155.44 118.24 156.03 118.04 156.61C117.91 157 117.35 157.83 118.04 156.71C117.92 156.91 117.84 157.16 117.73 157.38C117.41 158.04 117.05 158.68 116.66 159.29C116.49 159.55 116.28 159.99 116.03 160.19C116.92 159.46 116.34 159.78 116.05 160.1C115.66 160.54 115.24 160.96 114.79 161.36C114.68 161.46 114.26 161.94 114.12 161.93L114.64 161.53C114.45 161.67 114.26 161.8 114.07 161.94C113.49 162.33 112.89 162.69 112.28 163.01C112.07 163.12 111.86 163.22 111.66 163.32C110.57 163.87 112.8 162.91 111.65 163.34C111.1 163.54 110.55 163.74 109.99 163.91C109.43 164.08 108.86 164.22 108.28 164.34C107.99 164.4 107.7 164.45 107.41 164.5C106.03 164.73 108.35 164.45 107.24 164.52C106.05 164.6 104.88 164.67 103.69 164.61C103.11 164.58 102.5 164.45 101.92 164.47C102.38 164.54 103.32 164.43 101.92 164.47C101.57 164.41 101.22 164.34 100.88 164.27C99.68 164.02 98.5 163.67 97.36 163.24C97.1 163.14 96.77 163.06 96.53 162.92C97.61 163.58 96.96 163.09 96.63 162.92C95.98 162.6 95.35 162.25 94.74 161.86C94.49 161.7 94.24 161.54 94 161.37L93.71 161.16C93.25 160.82 93.33 160.88 93.94 161.34C93.64 161.36 92.83 160.38 92.62 160.17C92.2 159.76 91.79 159.34 91.4 158.9C91.24 158.72 91.09 158.55 90.94 158.37C90.79 158.19 90.64 158.01 90.49 157.82C90.96 158.43 91.02 158.51 90.68 158.05C90 157.07 89.35 156.08 88.78 155.03C88.49 154.5 88.22 153.97 87.96 153.43C87.85 153.19 87.51 152.7 87.51 152.44L87.76 153.04C87.67 152.82 87.58 152.59 87.49 152.37C86.54 149.95 85.86 147.44 85.35 144.89C85.2 144.12 85.05 143.35 84.92 142.58C84.86 142.23 84.81 141.87 84.75 141.51C84.51 140.07 84.85 142.66 84.71 141.21C84.56 139.63 84.43 138.06 84.49 136.47C84.5 136.19 84.52 135.9 84.54 135.62L84.57 135.19C84.64 134.58 84.63 134.62 84.54 135.34C84.4 134.85 84.86 133.72 84.98 133.27C85.08 132.93 85.18 132.59 85.3 132.26L85.37 132.06C85.59 131.48 85.57 131.53 85.32 132.2C85.27 132.09 85.71 131.56 85.78 131.45C86.01 131.11 85.9 131.26 85.44 131.88C85.57 131.73 85.71 131.58 85.86 131.44C86.53 130.68 85.01 132.03 85.56 131.67C86.11 131.31 86.17 131.65 85.11 131.8C85.27 131.78 85.69 131.68 85.84 131.6C85.89 131.57 84.33 131.89 85.17 131.72C85.78 131.59 86.09 132.19 84.75 131.62C84.89 131.68 85.1 131.69 85.25 131.74C85.95 131.94 85.75 132.25 84.96 131.58C85.14 131.73 85.47 131.85 85.68 131.98C86.32 132.38 86.02 132.6 85.52 131.81C85.6 131.93 85.84 132.09 85.95 132.2C86.17 132.41 86.36 132.63 86.57 132.84C87.29 133.58 86.09 131.99 86.39 132.6C86.64 133.1 86.99 133.58 87.26 134.08C87.58 134.67 87.01 134.15 87.1 133.68C87.05 133.92 87.43 134.56 87.51 134.8C87.7 135.39 87.86 135.98 87.99 136.59C88.02 136.73 88.05 137.17 88.11 137.25L88.01 136.49C88.04 136.71 88.06 136.93 88.08 137.15C88.13 137.7 88.15 138.25 88.14 138.8C88.14 139.41 87.93 140.19 88.01 140.78C87.88 139.87 88.16 139.83 88.06 140.35C87.99 140.68 87.94 141 87.87 141.33C87.75 141.87 87.6 142.41 87.44 142.94C87.28 143.47 87.02 143.99 86.88 144.52C87.22 143.18 87.07 144.09 86.88 144.49C86.74 144.8 86.59 145.1 86.43 145.4C85.91 146.41 85.31 147.37 84.65 148.3L84.45 148.58C84.11 149.03 84.18 148.95 84.66 148.32C84.68 148.34 84.17 148.91 84.12 148.98C83.71 149.46 83.29 149.92 82.85 150.36C82.41 150.8 81.95 151.23 81.48 151.64C81.27 151.83 81.05 152 80.83 152.18C79.92 152.95 81.82 151.51 80.83 152.17C79.84 152.83 78.79 153.52 77.68 154.07C77.48 154.17 77.28 154.26 77.08 154.36C76.02 154.88 78.25 153.95 77.13 154.33C76.61 154.51 76.1 154.7 75.58 154.85C75.28 154.93 74.99 155 74.69 155.06L74.5 155.1C73.9 155.2 73.99 155.19 74.77 155.08C74.33 155.35 73.04 155.18 72.53 155.16C72.22 155.15 71.92 155.11 71.61 155.1C70.82 155.07 72.95 155.38 71.76 155.12C71.17 154.99 70.58 154.87 69.99 154.7C69.5 154.56 68.67 154.43 68.27 154.1L68.87 154.35C68.65 154.25 68.43 154.14 68.21 154.04C67.88 153.88 67.55 153.7 67.23 153.52C66.69 153.22 66.16 152.89 65.65 152.55C65.34 152.34 65.04 152.12 64.73 151.9C63.72 151.18 65.36 152.45 64.77 151.92C63.68 150.95 62.59 150 61.6 148.93C61.17 148.47 60.75 147.99 60.35 147.51C60.19 147.32 60.03 147.12 59.87 146.92C59.05 145.91 60.54 147.85 59.78 146.81C58.98 145.7 58.23 144.56 57.5 143.4C55.9 140.83 54.45 138.17 53.18 135.42C53 135.03 52.83 134.63 52.65 134.24C52.24 133.33 52.6 134.15 52.68 134.32C52.39 133.66 52.14 132.99 51.88 132.32C51.29 130.77 50.75 129.21 50.26 127.63C49.35 124.67 48.62 121.66 48.08 118.61C47.95 117.9 47.84 117.19 47.73 116.48C47.73 116.45 47.53 115.04 47.64 115.9C47.75 116.76 47.58 115.35 47.57 115.32C47.39 113.74 47.25 112.16 47.16 110.58C46.99 107.56 47 104.53 47.17 101.5C47.33 98.72 44.61 96.06 41.85 96.18C38.83 96.32 36.7 98.52 36.53 101.5L36.57 101.45Z" fill="#F7931E"/>
        <path d="M86.63 93.42C93.0641 93.42 98.28 85.3029 98.28 75.29C98.28 65.2771 93.0641 57.16 86.63 57.16C80.1959 57.16 74.98 65.2771 74.98 75.29C74.98 85.3029 80.1959 93.42 86.63 93.42Z" fill="white"/>
        <path d="M85.04 77.81C88.2488 77.81 90.85 73.7626 90.85 68.77C90.85 63.7773 88.2488 59.73 85.04 59.73C81.8312 59.73 79.23 63.7773 79.23 68.77C79.23 73.7626 81.8312 77.81 85.04 77.81Z" fill="black"/>
        <path d="M126.18 91.16C132.614 91.16 137.83 83.0429 137.83 73.03C137.83 63.0171 132.614 54.9 126.18 54.9C119.746 54.9 114.53 63.0171 114.53 73.03C114.53 83.0429 119.746 91.16 126.18 91.16Z" fill="white"/>
        <path d="M123.18 77.68C126.389 77.68 128.99 73.6327 128.99 68.64C128.99 63.6474 126.389 59.6 123.18 59.6C119.971 59.6 117.37 63.6474 117.37 68.64C117.37 73.6327 119.971 77.68 123.18 77.68Z" fill="black"/>
    </g>
    <defs>
        <clipPath id="clip0_514_12015">
            <rect width="200" height="200" fill="white"/>
        </clipPath>
    </defs>
</svg>