<svg xmlns="http://www.w3.org/2000/svg" width="87" height="70" viewBox="0 0 87 70" fill="none">
    <g clip-path="url(#clip0_605_11951)">
        <path d="M41.3735 70C60.7035 70 76.3735 54.33 76.3735 35C76.3735 15.67 60.7035 0 41.3735 0C22.0436 0 6.37354 15.67 6.37354 35C6.37354 54.33 22.0436 70 41.3735 70Z" fill="#BFE0A6"/>
        <path d="M21.7699 55.8808C19.4249 55.8738 17.0729 55.9228 14.7349 55.7233C14.4199 55.6953 14.1049 55.6638 13.7934 55.6288C13.7164 55.6183 13.2439 55.5658 13.5729 55.6043C13.8704 55.6393 13.6044 55.6043 13.5309 55.5973C13.4364 55.5833 13.3384 55.5693 13.2439 55.5518C12.6629 55.4573 12.0854 55.3418 11.5149 55.1913C11.2489 55.1213 10.9829 55.0443 10.7204 54.9603C10.4579 54.8763 10.1814 54.7223 9.91186 54.6663C9.93636 54.6698 10.3389 54.8588 10.0624 54.7293C10.0134 54.7083 9.96786 54.6873 9.91886 54.6663C9.79286 54.6068 9.66686 54.5473 9.54436 54.4843C9.30286 54.3583 9.06836 54.2253 8.83736 54.0783C8.73936 54.0153 8.64136 53.9488 8.54686 53.8823C8.16186 53.6058 8.75336 54.0678 8.52936 53.8718C8.32986 53.6968 8.13386 53.5253 7.95536 53.3328C7.86436 53.2383 7.78036 53.1368 7.69636 53.0388C7.49686 52.8113 7.94486 53.4168 7.71736 53.0598C7.65786 52.9653 7.60536 52.8743 7.55636 52.7763C7.43036 52.5243 7.63686 52.9688 7.64036 52.9793C7.62986 52.9163 7.58786 52.8393 7.56336 52.7763C7.49336 52.5768 7.43736 52.3738 7.39536 52.1673C7.38486 52.1148 7.37786 52.0588 7.36386 52.0028C7.32536 51.8278 7.43736 51.8453 7.39536 52.2513C7.40586 52.1498 7.37436 52.0273 7.37086 51.9258C7.36036 51.7228 7.36736 51.5163 7.38136 51.3133C7.40936 50.9528 7.43036 51.2818 7.35686 51.4393C7.40236 51.3343 7.40236 51.1838 7.42686 51.0718C7.47236 50.8653 7.53186 50.6623 7.59836 50.4628C7.63686 50.3543 7.67886 50.2493 7.71736 50.1408C7.81536 49.8783 7.52136 50.5748 7.70336 50.1828C7.90986 49.7418 8.15836 49.3253 8.43486 48.9263C8.49786 48.8353 8.56436 48.7478 8.62736 48.6568C8.87586 48.3138 8.40336 48.9263 8.59936 48.6918C8.76736 48.4888 8.93536 48.2893 9.11036 48.0933C9.47786 47.6908 9.86636 47.3093 10.2759 46.9488C10.4579 46.7843 10.6469 46.6268 10.8359 46.4728C10.9444 46.3853 11.0634 46.3013 11.1684 46.2068C11.1474 46.2243 10.8009 46.4833 11.0459 46.3013C11.1194 46.2488 11.1894 46.1928 11.2594 46.1403C11.7074 45.8113 12.1729 45.4998 12.6454 45.2058C13.5869 44.6213 14.5704 44.1173 15.5819 43.6693C15.6939 43.6203 15.8969 43.5678 15.4244 43.7358C15.4874 43.7148 15.5539 43.6833 15.6169 43.6588C15.7289 43.6133 15.8409 43.5713 15.9494 43.5293C16.2014 43.4348 16.4534 43.3438 16.7054 43.2563C17.1744 43.0988 17.6504 42.9588 18.1334 42.8468C18.3539 42.7943 18.5744 42.7488 18.7949 42.7068C18.8964 42.6893 18.9944 42.6718 19.0959 42.6543C19.5544 42.5738 18.6794 42.6963 19.0644 42.6578C19.5509 42.6123 20.0339 42.5913 20.5239 42.6088C20.6954 42.6158 20.8669 42.6263 21.0384 42.6403C21.1154 42.6473 21.2064 42.6683 21.2834 42.6648C21.2904 42.6648 20.8809 42.5983 21.0839 42.6368C21.3849 42.6963 21.6859 42.7453 21.9799 42.8328C22.0884 42.8643 22.1969 42.9028 22.3054 42.9413C22.6974 43.0743 21.9904 42.7733 22.2389 42.9133C22.4174 43.0113 22.6169 43.1758 22.8024 43.2493C22.4314 43.1058 22.5119 43.0043 22.7079 43.1968C22.8829 43.3683 22.8619 43.5153 22.6449 43.0778C22.6764 43.1408 22.7324 43.2108 22.7709 43.2703C22.7919 43.3018 22.8024 43.3578 22.8304 43.3823C22.9004 43.4418 22.6904 42.9413 22.7289 43.1408C22.7429 43.2073 22.7639 43.2878 22.7849 43.3508C22.8164 43.4383 22.7604 42.7943 22.7534 43.1338C22.7534 43.1583 22.7604 43.3823 22.7464 43.3858C22.7079 43.3858 22.8619 42.8538 22.7849 43.0813C22.7674 43.1338 22.7604 43.1898 22.7464 43.2423C22.7254 43.3193 22.6869 43.3928 22.6694 43.4663C22.7814 42.9658 22.8129 43.1443 22.6974 43.3473C22.6519 43.4243 22.6029 43.4978 22.5539 43.5748C22.3684 43.8618 22.8724 43.2318 22.5644 43.5503C22.4069 43.7148 22.2319 43.8583 22.0709 44.0158C21.9379 44.1453 22.2704 43.8688 22.2564 43.8758C22.2004 43.9073 22.1444 43.9563 22.0919 43.9948C21.9624 44.0858 21.8259 44.1733 21.6894 44.2538C21.4409 44.4043 21.1819 44.5373 20.9194 44.6598C20.8459 44.6948 20.7584 44.7193 20.6919 44.7613C20.6954 44.7613 21.0349 44.6283 20.8389 44.6983C20.6639 44.7613 20.4924 44.8313 20.3174 44.8873C19.8764 45.0343 19.4284 45.1638 18.9769 45.2793C18.4974 45.4018 18.0109 45.5068 17.5244 45.5943C17.2794 45.6398 17.0344 45.6783 16.7894 45.7168C16.7229 45.7273 16.6564 45.7343 16.5899 45.7448C16.3869 45.7798 16.8664 45.7098 16.8349 45.7133C16.6844 45.7273 16.5339 45.7518 16.3834 45.7693C15.3124 45.8883 14.2309 45.9373 13.1529 45.8988C12.6419 45.8813 12.1344 45.8428 11.6269 45.7833C11.1194 45.7238 11.9349 45.8323 11.6234 45.7833C11.4904 45.7623 11.3609 45.7413 11.2279 45.7203C10.9689 45.6748 10.7099 45.6223 10.4544 45.5628C9.97136 45.4508 9.49536 45.3108 9.02986 45.1393C8.92836 45.1008 8.82686 45.0623 8.72536 45.0203C8.48036 44.9258 9.15936 45.2163 8.74286 45.0203C8.52236 44.9188 8.30536 44.8068 8.09186 44.6878C7.89586 44.5758 7.70686 44.4603 7.52136 44.3343C7.43736 44.2748 7.35686 44.2083 7.26936 44.1523C7.77336 44.4708 7.39536 44.2503 7.26936 44.1383C7.10136 43.9948 6.94386 43.8443 6.79336 43.6868C6.72336 43.6133 6.65336 43.5363 6.58686 43.4593C6.54836 43.4138 6.51336 43.3683 6.47486 43.3263C6.32786 43.1618 6.74786 43.7043 6.57636 43.4593C6.44686 43.2773 6.32436 43.0953 6.21236 42.9028C6.15986 42.8118 6.11086 42.7208 6.06186 42.6263C6.02336 42.5528 5.82386 42.1048 5.96386 42.4338C6.10386 42.7628 5.94986 42.3813 5.92186 42.3078C5.87986 42.1888 5.84136 42.0663 5.80636 41.9438C5.77836 41.8493 5.76786 41.6428 5.70836 41.5658C5.70486 41.5588 5.75386 41.9893 5.73986 41.7968C5.73286 41.7093 5.71886 41.6218 5.71186 41.5308C5.69086 41.2648 5.68386 40.9988 5.69086 40.7328C5.69436 40.6068 5.70136 40.4808 5.71186 40.3583C5.71886 40.2883 5.72586 40.2148 5.73286 40.1448C5.76086 39.7633 5.66986 40.4843 5.71536 40.2603C5.82386 39.6933 5.93936 39.1368 6.12836 38.5873C6.17736 38.4438 6.22986 38.3003 6.28586 38.1568C6.30686 38.1043 6.36986 37.9888 6.36986 37.9433C6.36986 37.9433 6.20886 38.3003 6.29636 38.1218C6.44336 37.8208 6.57636 37.5163 6.73386 37.2223C7.02086 36.6868 7.34286 36.1723 7.69286 35.6753C7.78736 35.5388 7.88536 35.4093 7.98336 35.2728C8.06736 35.1608 8.07786 35.0313 7.92036 35.3533C7.95186 35.2903 8.03586 35.2063 8.07786 35.1573C8.28786 34.8948 8.50836 34.6393 8.73236 34.3908C9.17336 33.9008 9.64236 33.4353 10.1324 32.9943C10.3704 32.7808 10.6119 32.5708 10.8604 32.3678C10.9164 32.3223 11.2909 32.0178 11.0739 32.1963C10.8674 32.3643 11.0879 32.1858 11.1404 32.1473C11.2244 32.0843 11.3119 32.0213 11.3959 31.9583C11.9244 31.5768 12.4704 31.2198 13.0374 30.8908C13.6044 30.5618 14.1574 30.2923 14.7349 30.0298C14.9939 29.9143 14.6509 30.1033 14.6229 30.0753C14.6264 30.0788 14.8609 29.9808 14.8434 29.9878C14.9729 29.9388 15.1024 29.8898 15.2319 29.8408C15.5224 29.7358 15.8199 29.6413 16.1174 29.5573C16.3904 29.4803 16.6669 29.4103 16.9434 29.3508C17.0694 29.3228 17.2724 29.3263 17.3879 29.2668C17.3914 29.2668 16.9749 29.3053 17.1744 29.2948C17.2689 29.2913 17.3599 29.2773 17.4544 29.2703C17.7309 29.2493 18.0074 29.2493 18.2839 29.2633C18.3994 29.2703 18.5464 29.3088 18.6619 29.2948C18.3154 29.3333 18.3084 29.2388 18.4869 29.2703C18.5744 29.2878 18.6619 29.3018 18.7459 29.3193C18.9979 29.3718 19.2429 29.4383 19.4844 29.5258C19.5439 29.5468 19.6104 29.5818 19.6699 29.5958C19.6454 29.5888 19.2429 29.3893 19.4914 29.5258C19.6034 29.5853 19.7154 29.6413 19.8239 29.7043C19.9849 29.8023 20.2089 30.0543 19.8239 29.6728C19.8974 29.7428 19.9814 29.8058 20.0549 29.8758C20.1109 29.9283 20.3874 30.2643 20.1634 29.9773C19.9534 29.7078 20.1704 30.0228 20.2229 30.1068C20.4189 30.4148 20.1179 29.6903 20.1984 30.0473C20.2194 30.1348 20.2299 30.2538 20.2684 30.3378C20.1074 29.9808 20.2334 29.9213 20.2299 30.1033C20.2299 30.1628 20.2334 30.2223 20.2299 30.2818C20.2299 30.3378 20.2089 30.4148 20.2194 30.4673C20.2124 30.4113 20.3104 30.0123 20.2404 30.2608C20.2019 30.3938 20.1669 30.5268 20.1284 30.6598C20.0444 30.9573 20.3034 30.3098 20.1144 30.6878C20.0374 30.8383 19.9569 30.9853 19.8659 31.1253C19.8309 31.1813 19.7924 31.2373 19.7539 31.2933C19.7154 31.3493 19.6804 31.4018 19.6384 31.4543C19.5579 31.5663 19.5929 31.5173 19.7469 31.3143C19.5264 31.4683 19.3444 31.7658 19.1449 31.9548C19.0154 32.0773 18.8789 32.1858 18.7459 32.3048C18.6794 32.3643 18.4834 32.5393 18.8019 32.2698C18.7144 32.3433 18.6129 32.4098 18.5184 32.4763C17.8919 32.9208 17.2234 33.2988 16.5339 33.6313C16.3694 33.7083 16.2049 33.7818 16.0404 33.8588C15.7884 33.9813 16.3134 33.7503 16.0509 33.8588C15.9529 33.8973 15.8584 33.9358 15.7604 33.9743C15.3719 34.1248 14.9834 34.2683 14.5879 34.3978C13.8179 34.6568 13.0339 34.8773 12.2394 35.0558C11.8579 35.1398 11.4764 35.2168 11.0914 35.2833C10.9129 35.3148 10.7344 35.3498 10.5559 35.3673C10.9619 35.3288 10.6784 35.3498 10.5944 35.3603C10.4684 35.3743 10.3424 35.3883 10.2164 35.3988C9.46386 35.4688 8.70436 35.4933 7.94836 35.4513C7.76636 35.4408 7.58086 35.4268 7.39886 35.4093C7.33236 35.4023 7.26586 35.3953 7.19936 35.3883C6.93686 35.3673 7.55986 35.4513 7.30436 35.4023C6.97886 35.3358 6.65336 35.2763 6.33486 35.1818C6.18436 35.1363 6.03386 35.0873 5.88686 35.0313C5.49136 34.8913 6.14236 35.1643 5.85186 35.0208C5.58936 34.8878 5.33036 34.7583 5.08186 34.5973C5.02236 34.5588 4.96636 34.5168 4.90686 34.4783C4.77736 34.3943 4.77036 34.2893 5.02936 34.5798C4.95236 34.4923 4.84036 34.4258 4.75286 34.3453C4.65136 34.2543 4.55686 34.1598 4.46236 34.0583C4.39586 33.9883 4.11936 33.6488 4.31536 33.9008C4.52186 34.1738 4.23836 33.7818 4.20336 33.7258C4.14036 33.6278 4.08086 33.5298 4.02836 33.4283C3.96886 33.3163 3.92336 33.1798 3.85336 33.0748C3.86736 33.0958 4.01786 33.5228 3.93036 33.2463C3.90936 33.1833 3.88486 33.1238 3.86736 33.0608C3.79036 32.8228 3.75536 32.5813 3.69236 32.3398C3.63636 32.1123 3.72736 32.7703 3.72036 32.5358C3.72036 32.4693 3.70986 32.4028 3.70286 32.3328C3.69236 32.1788 3.69236 32.0248 3.69586 31.8708C3.69586 31.7483 3.70986 31.6258 3.71686 31.5068C3.74836 31.0623 3.64336 31.8428 3.71686 31.5243C3.78336 31.2338 3.84286 30.9468 3.93736 30.6668C3.96186 30.5933 3.98986 30.5233 4.01436 30.4498C4.12286 30.1208 3.96536 30.5758 3.95836 30.5688C3.93386 30.5408 4.14386 30.1593 4.16836 30.1068C4.30486 29.8128 4.44136 29.5223 4.58136 29.2353C4.81936 28.7453 5.06786 28.2623 5.33386 27.7863C5.76786 27.0058 6.25086 26.2603 6.78286 25.5463C7.01736 25.2348 6.53086 25.8578 6.71286 25.6408C6.77936 25.5603 6.84586 25.4763 6.91236 25.3923C7.04886 25.2278 7.18536 25.0633 7.32536 24.9023C7.60886 24.5733 7.90286 24.2513 8.19686 23.9363C8.91436 23.1628 9.64936 22.4033 10.3704 21.6333C11.3784 20.5553 12.3619 19.4563 13.3244 18.3398C13.9579 17.6048 14.1014 16.4253 13.3244 15.7113C12.6279 15.0708 11.3749 14.9273 10.6959 15.7113C8.91786 17.7693 7.01386 19.7048 5.18686 21.7208C3.78336 23.2678 2.59336 24.9513 1.64486 26.8133C0.965862 28.1433 0.265862 29.5048 0.0628623 30.9993C-0.140138 32.4938 0.0873623 33.9393 0.794362 35.2658C2.31686 38.1323 5.60686 39.1788 8.66236 39.1928C10.5034 39.1998 12.3689 38.8953 14.1434 38.4193C15.9179 37.9433 17.7309 37.2783 19.3479 36.3543C22.0499 34.8143 25.2104 31.5768 23.4254 28.2378C22.7499 26.9778 21.3779 26.1693 20.0339 25.8158C18.5569 25.4238 17.0379 25.5043 15.5679 25.8683C12.6524 26.5893 9.98886 28.2028 7.74186 30.1628C5.49486 32.1228 3.58386 34.6498 2.57936 37.4988C1.68686 40.0363 1.70436 42.9763 3.29336 45.2373C6.19136 49.3638 11.8964 50.0288 16.5409 49.4758C19.0224 49.1818 21.7769 48.6988 23.8839 47.2673C24.9794 46.5253 25.9909 45.5208 26.3409 44.2013C26.6909 42.8818 26.3164 41.6043 25.4134 40.6488C24.5104 39.6933 23.2119 39.2208 21.9589 39.0423C20.5659 38.8428 19.2359 38.8708 17.8534 39.1158C15.4944 39.5393 13.1914 40.5578 11.1404 41.7758C8.90736 43.1023 6.85636 44.7858 5.33036 46.9033C3.97236 48.7863 3.22686 51.2328 3.89536 53.5218C4.68986 56.2448 7.37786 57.8303 9.93636 58.6143C12.4949 59.3983 15.4139 59.5593 18.1544 59.5978C19.3584 59.6153 20.5624 59.5978 21.7664 59.6048C22.7394 59.6048 23.6704 58.7473 23.6249 57.7463C23.5794 56.7453 22.8094 55.8913 21.7664 55.8878L21.7699 55.8808Z" fill="#414C39"/>
        <path d="M34.5974 39.0004C36.8454 39.0004 38.6679 36.1657 38.6679 32.6689C38.6679 29.1721 36.8454 26.3374 34.5974 26.3374C32.3493 26.3374 30.5269 29.1721 30.5269 32.6689C30.5269 36.1657 32.3493 39.0004 34.5974 39.0004Z" fill="white"/>
        <path d="M36.5188 36.771C37.6399 36.771 38.5488 35.3576 38.5488 33.614C38.5488 31.8705 37.6399 30.457 36.5188 30.457C35.3976 30.457 34.4888 31.8705 34.4888 33.614C34.4888 35.3576 35.3976 36.771 36.5188 36.771Z" fill="black"/>
        <path d="M49.4025 38.4579C51.6506 38.4579 53.473 35.6232 53.473 32.1264C53.473 28.6296 51.6506 25.7949 49.4025 25.7949C47.1545 25.7949 45.332 28.6296 45.332 32.1264C45.332 35.6232 47.1545 38.4579 49.4025 38.4579Z" fill="white"/>
        <path d="M47.362 36.2286C48.4832 36.2286 49.392 34.8151 49.392 33.0715C49.392 31.328 48.4832 29.9146 47.362 29.9146C46.2409 29.9146 45.332 31.328 45.332 33.0715C45.332 34.8151 46.2409 36.2286 47.362 36.2286Z" fill="black"/>
        <path d="M73.3847 51.0333C75.7647 49.8538 78.1867 48.7338 80.4232 47.2883C82.8487 45.7203 85.1272 43.7743 86.2367 41.0373C86.7337 39.8123 86.8352 38.5348 86.5062 37.2538C86.2262 36.1618 85.6382 35.1888 84.8962 34.3524C83.4507 32.7283 81.3087 31.7588 79.2577 31.1708C77.0282 30.5303 74.6412 30.2748 72.3242 30.3483C70.0072 30.4218 67.9072 30.7543 65.8877 31.6608C63.5952 32.6863 60.6167 35.0698 61.6037 37.9643C62.6712 41.1038 66.5562 41.2578 69.2897 40.8238C71.8132 40.4213 74.2947 39.5428 76.5522 38.3563C78.8097 37.1698 81.0742 35.4478 82.4042 33.1728C83.0867 32.0073 83.4752 30.7158 83.5627 29.3718C83.6572 27.9403 83.2897 26.5543 82.6212 25.2943C81.3892 22.9773 79.1807 21.2098 76.8742 20.0373C74.2912 18.7213 71.4527 17.9653 68.5617 17.7728C67.1757 17.6783 65.7932 17.7658 64.4247 17.9968C63.0562 18.2278 61.7017 18.6723 60.5747 19.4948C59.3742 20.3698 58.2437 21.5843 58.0022 23.1068C57.7047 24.9793 58.5587 26.5123 60.0497 27.6043C61.5407 28.6963 63.4657 29.0568 65.2682 29.1723C67.1617 29.2913 69.0937 29.0498 70.9487 28.6788C74.3087 28.0033 77.8962 26.6278 79.9927 23.7858C81.7392 21.4198 81.7672 18.0493 79.9927 15.6903C79.0582 14.4478 77.8227 13.5343 76.5802 12.6208C75.7682 12.0223 74.9212 11.4623 74.0287 10.9863C72.1527 9.98535 70.1122 9.31685 68.1242 8.57135C67.4872 8.33335 66.8537 8.08835 66.2202 7.83985C65.8667 7.69985 65.5132 7.55985 65.1632 7.41635C64.9497 7.32885 64.7362 7.24135 64.5262 7.15385C64.4282 7.11185 64.3302 7.07335 64.2322 7.03135C63.9382 6.90885 64.6382 7.20285 64.1447 6.99285C63.6512 6.78285 63.2382 6.66035 62.7132 6.80385C62.2827 6.92285 61.8137 7.25535 61.6037 7.65785C61.1837 8.45235 61.3132 9.79285 62.2687 10.1988C64.7222 11.2383 67.2142 12.1623 69.7027 13.1108C69.8987 13.1843 70.0947 13.2613 70.2872 13.3383C70.3887 13.3768 70.4867 13.4188 70.5882 13.4573C70.6687 13.4888 71.0782 13.6603 70.7317 13.5133C70.3852 13.3663 70.7142 13.5063 70.7982 13.5413C70.8927 13.5833 70.9872 13.6253 71.0817 13.6673C71.2672 13.7513 71.4527 13.8388 71.6382 13.9298C72.4292 14.3183 73.1852 14.7698 73.9132 15.2668C74.3542 15.5678 74.7672 15.9178 75.2117 16.2083C75.2222 16.2153 74.8967 15.9598 75.0542 16.0858C75.1137 16.1313 75.1732 16.1803 75.2327 16.2258C75.3552 16.3238 75.4777 16.4218 75.6002 16.5198C75.8522 16.7228 76.1077 16.9258 76.3457 17.1463C76.5557 17.3423 76.7447 17.5523 76.9337 17.7693C77.1402 18.0038 76.8532 17.6853 76.8462 17.6538C76.8532 17.6923 76.9442 17.7903 76.9722 17.8323C77.0632 17.9653 77.1472 18.1018 77.2242 18.2418C77.2837 18.3468 77.3362 18.4588 77.3922 18.5673C77.5287 18.8298 77.3327 18.4378 77.3292 18.4063C77.3397 18.4658 77.3817 18.5393 77.4027 18.5988C77.5007 18.8718 77.5427 19.1483 77.6162 19.4248C77.6652 19.6103 77.5847 19.1623 77.5847 19.1763C77.5847 19.2358 77.5987 19.3128 77.6022 19.3723C77.6127 19.5053 77.6162 19.6383 77.6162 19.7678C77.6162 19.8973 77.6022 20.0338 77.5952 20.1633C77.5952 20.2298 77.5637 20.4188 77.6057 20.1143C77.6512 19.7748 77.6057 20.0863 77.5917 20.1633C77.5392 20.4328 77.4552 20.6883 77.3712 20.9473C77.2732 21.2483 77.5567 20.5763 77.3747 20.9368C77.3012 21.0803 77.2312 21.2238 77.1507 21.3603C77.0772 21.4863 76.9967 21.6088 76.9162 21.7278C76.8882 21.7698 76.7937 21.8713 76.7867 21.9098C76.7867 21.9028 77.0352 21.6193 76.9022 21.7558C76.6712 21.9973 76.4612 22.2528 76.2127 22.4803C76.1077 22.5783 75.9922 22.6658 75.8837 22.7638C75.6947 22.9283 76.1672 22.5643 75.9572 22.7078C75.8872 22.7568 75.8172 22.8093 75.7472 22.8583C75.4322 23.0753 75.1032 23.2713 74.7672 23.4533C74.4627 23.6213 74.1477 23.7788 73.8327 23.9258C73.7697 23.9538 73.7032 23.9853 73.6367 24.0133C73.3147 24.1603 73.6437 24.0238 73.6822 23.9958C73.5317 24.1078 73.2447 24.1673 73.0697 24.2338C72.3207 24.5068 71.5542 24.7343 70.7772 24.9198C70.4062 25.0073 70.0352 25.0878 69.6607 25.1578C69.4612 25.1963 69.2617 25.2313 69.0587 25.2628C68.9572 25.2803 68.8592 25.2943 68.7577 25.3083C68.5442 25.3433 68.6492 25.3293 68.7997 25.3083C67.9807 25.4448 67.1232 25.4903 66.2972 25.4938C65.8737 25.4938 65.4537 25.4798 65.0302 25.4483C64.9532 25.4413 64.4247 25.3923 64.6697 25.4168C64.9147 25.4413 64.6102 25.4063 64.5472 25.3958C64.4282 25.3748 64.3057 25.3538 64.1867 25.3328C63.8437 25.2663 63.5042 25.1788 63.1717 25.0703C63.1087 25.0493 62.5767 24.8498 62.8392 24.9548C63.0772 25.0493 62.8742 24.9688 62.8287 24.9443C62.7132 24.8848 62.5942 24.8288 62.4822 24.7623C62.3457 24.6853 62.2092 24.6013 62.0797 24.5103C61.6982 24.2478 62.2827 24.7273 61.9782 24.4228C61.8872 24.3318 61.7997 24.2408 61.7087 24.1463C61.4987 23.9328 61.8032 24.2443 61.8102 24.2793C61.8032 24.2268 61.7087 24.1253 61.6807 24.0728C61.6492 24.0168 61.6247 23.9608 61.5932 23.9048C61.4812 23.7123 61.7227 24.3108 61.6807 24.0938C61.6632 24.0028 61.6387 23.8803 61.6037 23.7963C61.7857 24.2653 61.6282 24.1883 61.6387 24.0343C61.6422 23.9818 61.6387 23.9153 61.6352 23.8628C61.6352 23.8243 61.6562 23.7333 61.6457 23.6913C61.6667 23.7683 61.5442 24.1918 61.6282 23.8838C61.6597 23.7718 61.7017 23.6563 61.7262 23.5443C61.7647 23.3763 61.6177 23.7858 61.6247 23.7788C61.6562 23.7333 61.6807 23.6633 61.7052 23.6143C61.7647 23.5023 61.8277 23.3938 61.8977 23.2888C61.9292 23.2398 61.9887 23.1803 62.0097 23.1278C61.9642 23.2363 61.7297 23.4533 61.9362 23.2328C62.1147 23.0438 62.2897 22.8548 62.4892 22.6868C62.5382 22.6448 62.6152 22.5993 62.6537 22.5503C62.6292 22.5783 62.2862 22.8093 62.5382 22.6448C62.6642 22.5643 62.7832 22.4768 62.9092 22.4033C63.0352 22.3298 63.1682 22.2528 63.3047 22.1828C63.4132 22.1268 63.6372 22.0708 63.7177 21.9868C63.6897 22.0148 63.2942 22.1443 63.5952 22.0428C63.6512 22.0253 63.7037 22.0043 63.7597 21.9833C63.9242 21.9273 64.0922 21.8748 64.2602 21.8293C64.5227 21.7628 64.7887 21.7033 65.0547 21.6508C65.1912 21.6228 65.3277 21.5983 65.4642 21.5773C65.5342 21.5668 65.6042 21.5563 65.6707 21.5458C65.8912 21.5038 65.1632 21.6018 65.5447 21.5633C66.6997 21.4408 67.8547 21.4268 69.0132 21.5318C69.1637 21.5458 69.3142 21.5633 69.4682 21.5808C69.8952 21.6263 69.1497 21.5283 69.4857 21.5808C69.8217 21.6333 70.1297 21.6823 70.4517 21.7453C71.0397 21.8608 71.6207 22.0008 72.1947 22.1688C72.7687 22.3368 73.3672 22.5398 73.9412 22.7673C73.9937 22.7883 74.0917 22.8443 74.1547 22.8548C73.8257 22.8023 73.8747 22.7323 74.0252 22.8023C74.1652 22.8653 74.3017 22.9248 74.4417 22.9878C74.7147 23.1138 74.9842 23.2468 75.2502 23.3903C75.7682 23.6668 76.2757 23.9678 76.7587 24.3038C76.8637 24.3738 76.9652 24.4473 77.0667 24.5208C77.1227 24.5628 77.1822 24.6083 77.2382 24.6503C77.4307 24.7868 76.9372 24.4053 77.1157 24.5558C77.3432 24.7483 77.5742 24.9338 77.7947 25.1368C78.1832 25.4973 78.5297 25.8858 78.8692 26.2918C79.0162 26.4668 78.6312 25.9628 78.7607 26.1518C78.7992 26.2078 78.8377 26.2568 78.8762 26.3128C78.9427 26.4073 79.0057 26.5018 79.0687 26.5998C79.2192 26.8308 79.3557 27.0723 79.4817 27.3173C79.5342 27.4188 79.5797 27.5203 79.6287 27.6218C79.7547 27.8843 79.5587 27.4608 79.5552 27.4433C79.5692 27.5028 79.6042 27.5658 79.6252 27.6218C79.7197 27.8773 79.7757 28.1293 79.8352 28.3953C79.8982 28.6928 79.8142 28.2308 79.8142 28.2063C79.8142 28.2728 79.8317 28.3428 79.8352 28.4058C79.8492 28.5388 79.8562 28.6718 79.8597 28.8013C79.8667 29.0603 79.8492 29.3158 79.8352 29.5748C79.8212 29.8338 79.9192 29.0884 79.8352 29.5539C79.8142 29.6763 79.7862 29.8023 79.7582 29.9248C79.6987 30.1698 79.6252 30.4078 79.5377 30.6458C79.5167 30.7018 79.4852 30.7648 79.4712 30.8208C79.4747 30.8068 79.6742 30.3763 79.5482 30.6388C79.4992 30.7368 79.4537 30.8383 79.4047 30.9363C79.2822 31.1778 79.1457 31.4123 78.9952 31.6398C78.9322 31.7344 78.8692 31.8288 78.8027 31.9198C78.7642 31.9723 78.7257 32.0248 78.6872 32.0773C78.5577 32.2628 78.9497 31.7623 78.7992 31.9338C78.6242 32.1333 78.4597 32.3433 78.2777 32.5358C77.9032 32.9383 77.4937 33.3094 77.0667 33.6558C77.0107 33.7013 76.9547 33.7433 76.9022 33.7888C76.7482 33.9148 77.0842 33.6523 77.0667 33.6593C76.9477 33.7223 76.8357 33.8308 76.7237 33.9113C76.4752 34.0898 76.2197 34.2578 75.9607 34.4223C75.4812 34.7268 74.9877 35.0033 74.4837 35.2623C74.2212 35.3953 73.9552 35.5248 73.6892 35.6473C73.5737 35.6998 73.4547 35.7558 73.3357 35.8048C73.2692 35.8328 73.1992 35.8643 73.1327 35.8923C72.9192 35.9869 73.5282 35.7313 73.2202 35.8538C72.6777 36.0674 72.1352 36.2738 71.5787 36.4523C70.5532 36.7848 69.5067 37.0508 68.4462 37.2258C68.3202 37.2468 68.1977 37.2643 68.0717 37.2853C67.6937 37.3413 68.4427 37.2503 68.0542 37.2853C67.6657 37.3203 67.3122 37.3379 66.9377 37.3309C66.7977 37.3309 66.6577 37.3238 66.5177 37.3133C66.4407 37.3063 66.3637 37.2994 66.2867 37.2924C65.9682 37.2678 66.4232 37.3028 66.4512 37.3169C66.2167 37.2188 65.9087 37.2153 65.6602 37.1348C65.6007 37.1173 65.5412 37.0928 65.4817 37.0753C65.2122 36.9948 65.6602 37.1523 65.6742 37.1628C65.5902 37.0998 65.4642 37.0648 65.3697 37.0123C65.2997 36.9738 65.1772 36.8548 65.1002 36.8408C65.0967 36.8408 65.4257 37.1243 65.3277 37.0159C65.2857 36.9704 65.2332 36.9354 65.1912 36.8934C65.0127 36.7218 65.0547 36.5889 65.2507 37.0054C65.2157 36.9284 65.1527 36.8513 65.1072 36.7778C64.9287 36.4943 65.1842 37.0124 65.1772 36.9529C65.1772 36.9178 65.0792 36.6938 65.1072 36.6693C65.1527 36.6308 65.1177 37.2293 65.1527 36.9669C65.1562 36.9284 65.1527 36.8688 65.1527 36.8338C65.1387 36.4943 65.1037 37.0683 65.1212 37.0193C65.1527 36.9353 65.1702 36.8268 65.1947 36.7393C65.2857 36.4033 64.9602 37.1663 65.1737 36.7918C65.2227 36.7078 65.2682 36.6203 65.3207 36.5399C65.3522 36.4908 65.3872 36.4453 65.4187 36.3963C65.5342 36.2108 65.1422 36.7183 65.2962 36.5539C65.4957 36.3438 65.6812 36.1304 65.9017 35.9413C65.9437 35.9063 65.9927 35.8713 66.0312 35.8328C66.1992 35.6648 65.7302 36.0498 65.9297 35.9098C66.0487 35.8293 66.1607 35.7453 66.2797 35.6649C66.6017 35.4548 66.9377 35.2658 67.2807 35.0943C67.3962 35.0348 67.5152 34.9823 67.6342 34.9228C67.6657 34.9088 67.6972 34.8948 67.7287 34.8808C67.9632 34.7654 67.4592 34.9928 67.4802 34.9858C67.6762 34.9158 67.8687 34.8319 68.0647 34.7654C68.8837 34.4888 69.7307 34.3138 70.5847 34.1843C70.8437 34.1458 70.0737 34.2473 70.5322 34.1948C70.6512 34.1808 70.7702 34.1668 70.8927 34.1563C71.1377 34.1318 71.3792 34.1108 71.6242 34.0968C72.1247 34.0653 72.6287 34.0513 73.1327 34.0548C73.6367 34.0583 74.1267 34.0758 74.6237 34.1108C74.8652 34.1283 75.1067 34.1493 75.3482 34.1738C75.4777 34.1878 75.6037 34.2018 75.7332 34.2158C76.2162 34.2753 75.3762 34.1598 75.7647 34.2193C76.7482 34.3698 77.7212 34.5728 78.6697 34.8738C78.9007 34.9473 79.1317 35.0243 79.3592 35.1083C79.4572 35.1433 79.5552 35.1818 79.6532 35.2203C79.7092 35.2413 79.7617 35.2658 79.8177 35.2868C80.0242 35.3673 79.3837 35.0943 79.6567 35.2203C80.0697 35.4128 80.4792 35.6089 80.8712 35.8433C81.0462 35.9484 81.2212 36.0603 81.3892 36.1758C81.4662 36.2283 81.5397 36.2878 81.6167 36.3403C81.8372 36.4943 81.4277 36.1933 81.4277 36.1933C81.4767 36.2458 81.5537 36.2948 81.6097 36.3438C81.9142 36.5993 82.1732 36.8863 82.4392 37.1838C82.5792 37.3413 82.1662 36.8093 82.2852 36.9843C82.3132 37.0263 82.3447 37.0648 82.3727 37.1033C82.4217 37.1733 82.4707 37.2433 82.5162 37.3169C82.6282 37.4918 82.7192 37.6773 82.8137 37.8593C82.9817 38.1883 82.6737 37.4603 82.7542 37.7193C82.7822 37.8138 82.8207 37.9048 82.8522 37.9958C82.9117 38.1848 82.9537 38.3808 82.9957 38.5733C83.0832 38.9898 82.9642 38.1638 82.9817 38.4578C82.9887 38.5593 82.9922 38.6678 83.0027 38.7693C83.0412 39.1823 83.0937 38.4298 83.0412 38.7133C83.0167 38.8463 82.9922 38.9758 82.9607 39.1054C82.8977 39.3643 82.8102 39.6163 82.7262 39.8684C82.6247 40.1623 82.9257 39.4519 82.7367 39.8404C82.6702 39.9768 82.6072 40.1133 82.5337 40.2463C82.4112 40.4703 82.2782 40.6908 82.1347 40.9008C82.0577 41.0163 81.9702 41.1249 81.8932 41.2403C81.7847 41.4013 82.0332 41.0618 82.0227 41.0723C81.9492 41.1353 81.8827 41.2473 81.8197 41.3173C81.4522 41.7478 81.0532 42.1503 80.6297 42.5284C80.4162 42.7174 80.1992 42.8993 79.9787 43.0779C79.9402 43.1093 79.8317 43.1723 79.7967 43.2213C79.9647 42.9868 80.0417 43.0359 79.8982 43.1409C79.7547 43.2458 79.6182 43.3508 79.4747 43.4524C78.9567 43.8199 78.4247 44.1663 77.8822 44.4988C76.8077 45.1533 75.6982 45.7449 74.5782 46.3119C73.5597 46.8264 72.5272 47.3198 71.5052 47.8273C70.6337 48.2613 70.3222 49.5668 70.8402 50.3684C71.4177 51.2608 72.4502 51.4988 73.3812 51.0333H73.3847Z" fill="#414C39"/>
        <path d="M41.7377 43.554L38.5667 48.3735C37.8597 49.4445 38.6297 50.8725 39.9142 50.8725H46.1162C47.3867 50.8725 48.1567 49.476 47.4812 48.4015L44.4502 43.582C43.8237 42.588 42.3817 42.574 41.7377 43.554Z" fill="black"/>
    </g>
    <defs>
        <clipPath id="clip0_605_11951">
            <rect width="86.695" height="70" fill="white"/>
        </clipPath>
    </defs>
</svg>