<svg xmlns="http://www.w3.org/2000/svg" width="70" height="84" viewBox="0 0 70 84" fill="none">
    <path d="M35 83.8726C54.33 83.8726 70 68.2025 70 48.8726C70 29.5426 54.33 13.8726 35 13.8726C15.67 13.8726 0 29.5426 0 48.8726C0 68.2025 15.67 83.8726 35 83.8726Z" fill="#B0D4FF"/>
    <path d="M17.6155 30.6653C19.943 32.3523 22.2285 34.1233 24.7765 35.4778C27.3245 36.8323 30.485 37.9628 33.488 37.2068C35.854 36.6118 37.5165 34.4173 38.017 32.1073C38.5175 29.7938 38.2095 27.3648 37.5585 25.1143C36.897 22.8288 35.875 20.5958 34.5485 18.6183C33.222 16.6408 31.542 14.7718 29.351 13.7463C28.077 13.1513 26.6035 12.7383 25.2105 13.1863C23.919 13.5993 22.925 14.6843 22.68 16.0283C22.1305 19.0208 24.157 21.7578 26.054 23.8473C27.951 25.9368 30.2015 27.7638 32.718 28.9678C35.2345 30.1718 38.1885 30.8858 40.8625 29.8638C41.552 29.6013 42.2065 29.2898 42.8015 28.8523C43.5015 28.3378 44.0125 27.7988 44.5305 27.1093C45.276 26.1118 45.7975 24.9288 46.1405 23.7318C46.9105 21.0683 46.823 18.2053 46.312 15.5033C45.815 12.8853 44.814 10.2498 43.2775 8.06233C41.741 5.87483 39.7425 4.11433 37.0055 3.81683C35.763 3.68033 34.4715 4.08283 33.5545 4.94033C32.508 5.91683 32.1125 7.40783 32.102 8.79733C32.088 10.5718 32.7215 12.3113 33.4985 13.8793C34.2755 15.4473 35.3955 17.0083 36.5575 18.4013C38.7275 20.9983 41.601 23.4203 45.0625 23.8543C48.118 24.2358 51.023 22.4613 52.2095 19.6508C52.738 18.4013 52.948 17.0503 53.1405 15.7133C53.298 14.6108 53.424 13.5048 53.4275 12.3883C53.431 10.3898 53.0845 8.40533 52.843 6.42783C52.6575 4.90883 52.5035 3.38983 52.3775 1.86383C52.297 0.894333 51.5795 -0.0471671 50.5155 0.00183286C49.574 0.0438329 48.5695 0.824333 48.6535 1.86383C48.8565 4.36633 49.189 6.85133 49.49 9.34333C49.6895 11.0128 49.7735 12.6718 49.595 14.3483C49.5845 14.4568 49.5705 14.5688 49.5565 14.6773C49.497 15.1533 49.602 14.3903 49.5565 14.6703C49.511 14.9503 49.4725 15.2268 49.427 15.5068C49.3255 16.1018 49.2205 16.6968 49.084 17.2848C49.021 17.5648 48.9405 17.8378 48.8425 18.1073C48.8355 18.1213 48.7515 18.2963 48.7585 18.3278C48.7515 18.2893 48.9545 17.9218 48.804 18.2018C48.7305 18.3348 48.6675 18.4713 48.5905 18.6043C48.5135 18.7373 48.4295 18.8528 48.3525 18.9788C48.1845 19.2448 48.636 18.6673 48.3455 18.9893C48.167 19.1888 47.978 19.3708 47.782 19.5563C47.5685 19.7593 47.88 19.4758 47.9115 19.4618C47.8555 19.4863 47.789 19.5528 47.74 19.5843C47.6385 19.6543 47.537 19.7173 47.4285 19.7803C47.32 19.8433 47.2115 19.8923 47.1065 19.9518C46.844 20.0918 47.229 19.8958 47.264 19.8923C47.1835 19.9063 47.096 19.9553 47.0155 19.9833C46.76 20.0708 46.5045 20.1268 46.242 20.1793C45.927 20.2423 46.704 20.1583 46.249 20.1723C46.102 20.1758 45.9515 20.1898 45.8045 20.1863C45.6715 20.1863 45.5385 20.1793 45.4055 20.1688C45.3705 20.1688 45.22 20.1338 45.1745 20.1478C45.213 20.1373 45.64 20.2318 45.3215 20.1618C45.003 20.0918 44.6845 20.0253 44.373 19.9203C44.2295 19.8748 44.093 19.8188 43.9495 19.7663C43.7535 19.6928 44.0895 19.8188 44.0895 19.8258C44.079 19.8013 43.8865 19.7313 43.8445 19.7103C43.5085 19.5458 43.1865 19.3568 42.8715 19.1573C42.595 18.9823 42.3255 18.7933 42.056 18.6008C41.7865 18.4083 42.0385 18.5938 42.0875 18.6288C42.0105 18.5728 41.9335 18.5063 41.86 18.4468C41.706 18.3243 41.559 18.1948 41.4085 18.0653C40.817 17.5508 40.264 16.9943 39.739 16.4098C39.4975 16.1403 39.263 15.8673 39.032 15.5873C38.9165 15.4473 38.8045 15.3038 38.6925 15.1638C38.9165 15.4473 38.745 15.2303 38.6995 15.1708C38.6225 15.0658 38.5455 14.9643 38.4685 14.8593C38.01 14.2293 37.576 13.5818 37.1875 12.9063C36.9915 12.5633 36.806 12.2168 36.6345 11.8598C36.5575 11.6988 36.484 11.5343 36.4105 11.3698C36.295 11.1178 36.5155 11.6533 36.4245 11.3978C36.3825 11.2823 36.3335 11.1668 36.2915 11.0513C36.1795 10.7363 36.078 10.4178 35.994 10.0958C35.9485 9.92083 35.9065 9.74233 35.875 9.56383C35.861 9.49733 35.854 9.43433 35.84 9.36783C35.791 9.12983 35.868 9.76683 35.847 9.41333C35.826 9.10883 35.8085 8.80783 35.8295 8.49983C35.8295 8.44383 35.84 8.38783 35.8435 8.32833C35.8575 8.01333 35.8295 8.46833 35.8155 8.49983C35.861 8.38083 35.8645 8.23033 35.896 8.10433C35.924 7.99583 35.9975 7.85933 36.008 7.74733C36.008 7.73683 35.8155 8.13233 35.903 7.98883C35.931 7.94333 35.952 7.88733 35.9765 7.83833C36.022 7.75433 36.0815 7.67733 36.1235 7.59683C36.239 7.37633 35.9905 7.77533 35.973 7.78933C36.022 7.75783 36.0605 7.69133 36.099 7.64933C36.1235 7.62483 36.1585 7.60033 36.1795 7.57233C36.3265 7.39033 35.994 7.71233 35.973 7.72283C36.0465 7.68783 36.113 7.62483 36.1865 7.58283C36.2285 7.55833 36.274 7.54083 36.3125 7.51633C36.4875 7.40433 35.8645 7.67383 36.0675 7.61783C36.162 7.58983 36.253 7.55483 36.3475 7.53033C36.428 7.50933 36.5225 7.50583 36.603 7.47783C36.1165 7.64583 36.2425 7.51983 36.4875 7.51283C36.5785 7.51283 36.6695 7.51283 36.7605 7.51633C36.813 7.51633 36.869 7.53033 36.9215 7.52683C37.1 7.51983 36.407 7.42533 36.708 7.49883C36.9005 7.54433 37.093 7.57933 37.2855 7.63533C37.3835 7.66333 37.478 7.70183 37.576 7.73333C37.926 7.84883 37.17 7.54083 37.5865 7.73333C37.7825 7.82433 37.9715 7.92583 38.157 8.03783C38.2655 8.10433 38.3705 8.17083 38.4755 8.24083C38.514 8.26883 38.5525 8.29683 38.5945 8.32133C38.843 8.48933 38.5665 8.31083 38.486 8.23033C38.836 8.57683 39.207 8.87433 39.529 9.25233C39.62 9.36083 39.711 9.46583 39.802 9.57433C39.844 9.62683 39.886 9.69333 39.935 9.74233C39.9455 9.75283 39.6935 9.41333 39.8055 9.57783C39.97 9.81583 40.145 10.0468 40.306 10.2918C40.614 10.7608 40.894 11.2508 41.153 11.7513C41.286 12.0068 41.4085 12.2658 41.5275 12.5283C41.5625 12.6053 41.734 13.0043 41.6185 12.7313C41.503 12.4583 41.608 12.7138 41.636 12.7803C41.671 12.8713 41.7095 12.9623 41.7445 13.0533C42.1715 14.1628 42.497 15.3108 42.7175 16.4798C42.7735 16.7738 42.819 17.0643 42.8645 17.3583C42.896 17.5683 42.8365 17.1448 42.8365 17.1588C42.8435 17.2358 42.8575 17.3163 42.8645 17.3933C42.8855 17.5683 42.903 17.7468 42.917 17.9218C42.966 18.5028 42.9905 19.0838 42.98 19.6648C42.9765 19.9518 42.9625 20.2353 42.945 20.5188C42.9345 20.6518 42.924 20.7813 42.9135 20.9108C42.896 21.0823 42.777 21.5933 42.9065 21.0263C42.784 21.5583 42.7245 22.0973 42.5775 22.6223C42.511 22.8603 42.4375 23.0948 42.3535 23.3293C42.308 23.4588 42.2555 23.5883 42.2065 23.7178C42.1855 23.7738 42.112 23.9558 42.2205 23.6863C42.343 23.3888 42.2205 23.6793 42.189 23.7458C41.9755 24.2008 41.7235 24.6418 41.4295 25.0513C41.391 25.1038 41.3455 25.1563 41.3105 25.2123C41.321 25.1948 41.6115 24.8483 41.419 25.0688C41.342 25.1563 41.2685 25.2438 41.1915 25.3313C41.1145 25.4188 41.0375 25.5028 40.9535 25.5833C40.9675 25.5728 40.7715 25.7303 40.7715 25.7338C40.761 25.6953 41.146 25.4678 40.8275 25.6883C40.6105 25.8353 40.3935 25.9788 40.1625 26.1048C40.0365 26.1748 39.9 26.2273 39.774 26.2973C39.606 26.3918 39.977 26.2133 39.97 26.2168C39.893 26.2273 39.795 26.2833 39.7215 26.3113C39.473 26.3988 39.2175 26.4723 38.9585 26.5248C38.8395 26.5493 38.717 26.5668 38.5945 26.5913C38.36 26.6368 39.0145 26.5633 38.7765 26.5668C38.689 26.5668 38.6015 26.5843 38.514 26.5878C38.2655 26.6053 38.017 26.6053 37.7685 26.5983C37.6425 26.5948 37.5165 26.5843 37.394 26.5738C37.3205 26.5668 37.2505 26.5563 37.177 26.5528C36.9425 26.5388 37.625 26.6263 37.2925 26.5668C36.7395 26.4688 36.197 26.3428 35.6615 26.1643C35.5145 26.1153 35.371 26.0628 35.2275 26.0103C35.1575 25.9858 34.7305 25.8073 35.0175 25.9298C35.287 26.0488 34.8845 25.8703 34.8075 25.8353C34.664 25.7688 34.5205 25.6988 34.377 25.6288C33.8135 25.3488 33.271 25.0338 32.7425 24.6943C32.4835 24.5263 32.228 24.3548 31.976 24.1763C31.857 24.0923 31.7415 24.0083 31.626 23.9208C31.577 23.8823 31.528 23.8473 31.479 23.8088C31.143 23.5603 31.703 23.9908 31.514 23.8333C30.555 23.0528 29.638 22.2303 28.8015 21.3203C28.4235 20.9073 28.098 20.4138 27.699 20.0253C28.0735 20.3893 27.7585 20.1023 27.664 19.9728C27.5905 19.8748 27.5205 19.7768 27.447 19.6753C27.2335 19.3708 27.0375 19.0593 26.859 18.7338C26.7855 18.6008 26.7155 18.4678 26.649 18.3313C26.6175 18.2648 26.586 18.1633 26.544 18.1073C26.544 18.1073 26.677 18.4643 26.614 18.2753C26.5195 17.9953 26.4145 17.7258 26.348 17.4353C26.3235 17.3233 26.313 17.2008 26.278 17.0923C26.4355 17.5998 26.306 17.3373 26.2955 17.1238C26.292 17.0223 26.292 16.9208 26.2955 16.8193C26.2955 16.7773 26.3025 16.7353 26.3025 16.6933C26.3025 16.3958 26.1835 17.1413 26.2815 16.8718C26.3095 16.7913 26.327 16.7003 26.3515 16.6163C26.439 16.2873 26.1345 16.9873 26.2885 16.7633C26.3305 16.7003 26.3795 16.6233 26.4145 16.5568C26.502 16.3783 26.0925 16.8963 26.25 16.7738C26.2885 16.7458 26.3375 16.6863 26.369 16.6513C26.5335 16.4518 25.9455 16.9033 26.2325 16.7563C26.292 16.7248 26.3935 16.6828 26.4425 16.6408C26.1275 16.9138 26.026 16.7913 26.194 16.7493C26.2395 16.7388 26.2885 16.7213 26.334 16.7073C26.369 16.6968 26.4075 16.6933 26.4425 16.6828C26.733 16.6023 26.2745 16.7178 26.215 16.7073C26.313 16.7248 26.4425 16.6933 26.544 16.6968C26.6315 16.6968 27.0095 16.7458 26.649 16.6933C26.2885 16.6408 26.684 16.7038 26.775 16.7248C26.908 16.7563 27.041 16.7913 27.1705 16.8333C27.272 16.8648 27.4855 16.9873 27.587 16.9838C27.5485 16.9838 27.174 16.7913 27.4645 16.9383C27.5205 16.9663 27.5765 16.9908 27.629 17.0188C27.9475 17.1763 28.2555 17.3583 28.553 17.5543C28.6965 17.6488 28.8365 17.7468 28.9765 17.8483C29.1445 17.9708 29.3825 18.2578 28.959 17.8308C29.092 17.9673 29.26 18.0793 29.4035 18.2088C29.7255 18.5028 30.03 18.8178 30.317 19.1433C30.457 19.3008 30.59 19.4618 30.723 19.6263C30.7615 19.6753 30.7965 19.7243 30.8385 19.7698C30.8315 19.7628 30.5445 19.3813 30.7195 19.6123C30.793 19.7138 30.87 19.8153 30.9435 19.9168C31.2305 20.3123 31.5 20.7218 31.759 21.1383C32.3085 22.0308 32.7845 22.9653 33.2115 23.9243C33.3935 24.3303 33.089 23.6163 33.208 23.9138C33.2605 24.0433 33.313 24.1728 33.3655 24.3023C33.46 24.5473 33.551 24.7923 33.6385 25.0373C33.8135 25.5413 33.971 26.0558 34.1075 26.5738C34.2335 27.0603 34.342 27.5538 34.426 28.0508C34.4435 28.1628 34.461 28.2783 34.4785 28.3903C34.5205 28.6213 34.426 27.9528 34.4505 28.1873C34.4575 28.2503 34.4645 28.3168 34.4715 28.3798C34.496 28.6178 34.517 28.8558 34.531 29.0938C34.5555 29.5663 34.5555 30.0423 34.517 30.5113C34.51 30.6128 34.496 30.7178 34.4855 30.8193C34.454 31.1308 34.5695 30.3363 34.4995 30.7108C34.4575 30.9348 34.4155 31.1553 34.3595 31.3758C34.307 31.5753 34.244 31.7713 34.174 31.9673C34.16 32.0058 34.1425 32.0443 34.132 32.0828C34.0655 32.2893 34.321 31.6663 34.2265 31.8623C34.174 31.9708 34.125 32.0793 34.069 32.1878C33.985 32.3523 33.8905 32.5133 33.7855 32.6638C33.7365 32.7373 33.53 33.0103 33.747 32.7303C33.971 32.4398 33.698 32.7793 33.6385 32.8458C33.5125 32.9858 33.376 33.1083 33.236 33.2343C33.1975 33.2693 33.145 33.3008 33.11 33.3393C33.1135 33.3358 33.5195 33.0558 33.292 33.1958C33.1975 33.2553 33.11 33.3218 33.0155 33.3813C32.963 33.4163 32.7495 33.5003 32.7215 33.5528C32.732 33.5318 33.1135 33.4303 32.928 33.4618C32.8545 33.4758 32.7845 33.5073 32.7145 33.5283C32.4485 33.6053 32.1545 33.6228 31.8955 33.7068C32.2805 33.5808 32.2175 33.6718 32.0565 33.6788C31.983 33.6823 31.906 33.6928 31.8325 33.6963C31.6995 33.7033 31.57 33.7068 31.437 33.7068C31.129 33.7068 30.828 33.6718 30.5235 33.6543C30.317 33.6403 30.7405 33.6858 30.73 33.6823C30.6565 33.6613 30.5725 33.6578 30.499 33.6438C30.3415 33.6158 30.1875 33.5843 30.0335 33.5493C29.736 33.4828 29.4455 33.4023 29.155 33.3113C28.8645 33.2203 28.5635 33.1153 28.273 32.9998C28.1925 32.9683 28.1155 32.9368 28.0385 32.9053C27.993 32.8878 27.7865 32.8038 28.0245 32.9018C28.2765 33.0033 28.014 32.8948 27.951 32.8668C27.853 32.8213 27.755 32.7793 27.657 32.7338C27.0585 32.4538 26.474 32.1423 25.9 31.8133C24.717 31.1308 23.5795 30.3678 22.4665 29.5803C21.469 28.8733 20.489 28.1418 19.4985 27.4208C18.7075 26.8468 17.388 27.2598 16.9505 28.0893C16.4395 29.0553 16.7755 30.0248 17.619 30.6373L17.6155 30.6653Z" fill="#4E76E5"/>
    <path d="M28.2977 52.8834C30.5497 52.8834 32.3752 50.0424 32.3752 46.5379C32.3752 43.0334 30.5497 40.1924 28.2977 40.1924C26.0458 40.1924 24.2202 43.0334 24.2202 46.5379C24.2202 50.0424 26.0458 52.8834 28.2977 52.8834Z" fill="white"/>
    <path d="M26.2537 49.6527C27.3768 49.6527 28.2872 48.2361 28.2872 46.4887C28.2872 44.7413 27.3768 43.3247 26.2537 43.3247C25.1306 43.3247 24.2202 44.7413 24.2202 46.4887C24.2202 48.2361 25.1306 49.6527 26.2537 49.6527Z" fill="black"/>
    <path d="M43.1341 52.3375C45.3861 52.3375 47.2116 49.4965 47.2116 45.992C47.2116 42.4875 45.3861 39.6465 43.1341 39.6465C40.8822 39.6465 39.0566 42.4875 39.0566 45.992C39.0566 49.4965 40.8822 52.3375 43.1341 52.3375Z" fill="white"/>
    <path d="M41.0901 49.1102C42.2132 49.1102 43.1236 47.6937 43.1236 45.9462C43.1236 44.1988 42.2132 42.7822 41.0901 42.7822C39.9671 42.7822 39.0566 44.1988 39.0566 45.9462C39.0566 47.6937 39.9671 49.1102 41.0901 49.1102Z" fill="black"/>
    <path d="M50.4908 54.8015C50.6378 55.897 48.9578 56.8595 48.2018 57.2935C46.8823 58.053 45.4263 58.557 43.9528 58.9175C42.3778 59.3025 36.5118 60.51 35.7173 58.123C35.4163 57.2165 33.9778 57.605 34.2823 58.5185C35.4653 62.078 41.7408 60.993 44.3483 60.3525C46.9278 59.719 52.4053 57.962 51.9258 54.4025C51.7998 53.4575 50.3648 53.86 50.4908 54.798V54.8015Z" fill="black"/>
</svg>