<svg xmlns="http://www.w3.org/2000/svg" width="70" height="70" viewBox="0 0 70 70" fill="none">
    <g clip-path="url(#clip0_605_11668)">
        <path d="M35 70C54.33 70 70 54.33 70 35C70 15.67 54.33 0 35 0C15.67 0 0 15.67 0 35C0 54.33 15.67 70 35 70Z" fill="#D4CFE7"/>
        <path d="M46.7367 13.033C45.7218 10.3464 44.6963 7.22428 41.806 6.03724C38.9156 4.85021 36.2115 6.82041 34.768 9.15233C33.5002 11.2033 32.696 14.0796 33.8304 16.3518C34.4801 17.6547 35.9691 18.5678 37.4196 18.0165C38.87 17.4651 39.5302 15.8566 39.5654 14.35C39.6215 11.7933 38.5364 8.96971 36.3063 7.56494C33.3843 5.72819 29.7881 7.15755 27.5159 9.35251C26.371 10.4588 25.4614 11.8144 24.903 13.307C24.3938 14.6626 24.169 16.394 24.9803 17.6793C25.4438 18.4133 26.1813 18.9963 27.0418 19.1684C28.0918 19.3791 29.0892 19.0139 29.9005 18.3466C31.4633 17.0612 31.9515 14.7995 31.8812 12.868C31.811 10.9364 31.2034 9.1137 29.5985 8.06363C28.2464 7.18214 26.4307 7.15053 24.9627 7.74054C23.5825 8.29893 22.269 9.32793 21.1944 10.3499C20.3656 11.1366 19.6878 12.0672 18.9748 12.9558C18.42 13.6476 17.8545 14.3254 17.2716 14.9927C16.8993 15.4211 16.8501 16.0603 17.2716 16.4818C17.6544 16.8646 18.3848 16.9137 18.7606 16.4818C19.6597 15.4528 20.5025 14.3851 21.3595 13.3175C21.9389 12.594 22.557 11.9127 23.2735 11.3157C23.5439 11.0909 23.5193 11.112 23.7792 10.9188C24.0566 10.7151 24.3376 10.515 24.622 10.3218C25.205 9.92145 25.6651 9.66157 26.3253 9.51406C27.3192 9.2893 28.3798 9.52109 29.0471 10.3534C29.0576 10.364 29.1244 10.4658 29.1981 10.5957C29.2719 10.7257 29.3386 10.8486 29.3948 10.9785C29.5458 11.3297 29.6441 11.7196 29.7073 12.0953C29.8338 12.8434 29.8197 13.6582 29.6898 14.4062C29.5704 15.0875 29.3456 15.804 28.9207 16.3518C28.731 16.5976 28.4782 16.8189 28.1972 16.9734C27.9162 17.128 27.7968 17.156 27.4878 17.1139C27.6915 17.142 27.1998 17.0156 27.3859 17.0893C27.3543 17.0753 27.0277 16.8856 27.1401 16.9664C26.8627 16.7627 26.7714 16.6328 26.6414 16.3132C26.6906 16.4361 26.5817 16.0673 26.5747 16.0357C26.6028 16.1832 26.5641 15.818 26.5606 15.7759C26.5606 15.6529 26.5606 15.5265 26.5641 15.4036C26.5641 15.3404 26.5747 15.2772 26.5782 15.2139C26.5887 15.0103 26.5642 15.2807 26.5817 15.1542C26.7889 13.9251 27.242 13.0155 27.9935 11.9794C28.6713 11.0418 29.6617 10.1497 30.7223 9.55972C31.2947 9.24013 31.7829 9.04698 32.4642 8.89596C32.7838 8.82572 32.8856 8.8187 33.2439 8.8187C33.3949 8.8187 33.5424 8.83275 33.6934 8.83977C33.718 8.83977 33.9041 8.86436 33.7355 8.83977C33.8233 8.85031 33.9076 8.86787 33.9954 8.88543C34.1289 8.91352 34.2623 8.94513 34.3923 8.98727C34.4555 9.00483 34.7399 9.10668 34.6873 9.08561C34.768 9.11722 35.1438 9.3174 35.3264 9.4368C35.3826 9.47192 35.639 9.6721 35.4915 9.54918C35.5863 9.62996 35.6811 9.71073 35.7725 9.79502C35.8638 9.87931 35.9481 9.97062 36.0323 10.0619C36.0745 10.1076 36.1166 10.1532 36.1553 10.2024C36.1693 10.22 36.3273 10.4166 36.2466 10.3148C36.1658 10.2129 36.2887 10.3745 36.3028 10.3956C36.3379 10.4482 36.373 10.4974 36.4081 10.5501C36.4784 10.6554 36.5416 10.7608 36.6048 10.8697C36.668 10.9785 36.7277 11.0874 36.7839 11.1998C36.8085 11.2455 36.9735 11.6142 36.8928 11.4175C37.0965 11.9022 37.244 12.4149 37.3458 12.9312C37.3704 13.0506 37.3879 13.17 37.409 13.2894C37.416 13.3351 37.4301 13.4966 37.409 13.2754C37.416 13.3351 37.4231 13.3912 37.4266 13.4509C37.4512 13.6933 37.4617 13.9356 37.4617 14.1814C37.4617 14.3641 37.4547 14.6485 37.4406 14.7714C37.4336 14.8241 37.388 15.0383 37.3563 15.1472C37.3353 15.2175 37.3142 15.2877 37.2896 15.3544C37.2545 15.4633 37.3388 15.2736 37.258 15.4352C37.2018 15.5511 37.1351 15.66 37.0613 15.7653C37.1737 15.5967 36.9771 15.8391 36.9384 15.8917C36.8331 16.0217 36.9103 15.9234 36.9595 15.8917C36.9138 15.9234 36.8682 15.9515 36.8225 15.9831C36.7769 16.0147 36.7277 16.0322 36.682 16.0603C36.8928 15.9444 36.7137 16.0463 36.6434 16.0603C36.5942 16.0709 36.5451 16.0814 36.4924 16.0919C36.6013 16.0709 36.6434 16.1235 36.5451 16.0744C36.524 16.0638 36.4081 16.0709 36.3906 16.0673C36.4468 16.0673 36.5978 16.1341 36.4397 16.0673C36.3976 16.0498 36.3309 16.0357 36.2887 16.0252C36.3309 16.0357 36.4748 16.1341 36.3168 16.0357C36.2747 16.0076 36.215 15.9725 36.1693 15.9515C36.0042 15.8777 36.215 16.0076 36.1342 15.9304C35.8357 15.6529 35.625 15.3263 35.4915 14.8382C35.4669 14.7504 35.4494 14.6626 35.4318 14.5713C35.3721 14.2868 35.4213 14.6731 35.4213 14.494C35.4213 14.2622 35.3967 14.0304 35.4072 13.7986C35.4107 13.6898 35.4213 13.5809 35.4283 13.472C35.4318 13.4158 35.4388 13.3596 35.4458 13.3034C35.4423 13.3421 35.4072 13.5282 35.4458 13.328C35.488 13.0787 35.5336 12.8328 35.5969 12.587C35.6601 12.3412 35.7268 12.1094 35.8076 11.8741C35.8497 11.7547 35.8919 11.6353 35.9375 11.5159C35.9586 11.4562 35.9832 11.3965 36.0078 11.3368C36.0534 11.2279 35.9516 11.4562 36.0323 11.2806C36.2676 10.7819 36.524 10.2972 36.8366 9.84419C36.8717 9.79151 37.0684 9.5246 36.9595 9.66859C37.0368 9.56674 37.121 9.46841 37.2053 9.37359C37.3809 9.16989 37.5706 8.97674 37.7708 8.79763C37.8164 8.75549 37.8656 8.71334 37.9112 8.67471C37.9323 8.65715 38.0833 8.53072 37.985 8.60798C37.8866 8.68525 38.0412 8.56584 38.0658 8.54828C38.1149 8.51316 38.1676 8.47804 38.2168 8.44292C38.4345 8.29542 38.6628 8.17602 38.8981 8.06012C38.9402 8.04256 39.0772 7.97232 38.8981 8.06012C38.9543 8.03905 39.014 8.01798 39.0702 7.99691C39.1861 7.95828 39.3055 7.92316 39.4249 7.89155C39.5443 7.85994 39.6672 7.83887 39.7901 7.8178C39.5724 7.85643 39.9973 7.80375 40.0781 7.80375C40.5698 7.7897 40.9982 7.93018 41.4337 8.17953C41.9254 8.45697 42.1993 8.71685 42.6172 9.20853C42.7507 9.36656 42.6804 9.28228 42.6523 9.24365C42.6945 9.29984 42.7366 9.35954 42.7788 9.41573C42.8631 9.53162 42.9438 9.65103 43.0176 9.77044C43.1932 10.0444 43.3512 10.3288 43.4987 10.6168C43.6287 10.8732 43.7516 11.1331 43.8675 11.4C43.8956 11.4667 43.9237 11.5299 43.9518 11.5966C43.9342 11.5545 43.8886 11.4421 43.9693 11.6388C44.029 11.7863 44.0852 11.9303 44.1449 12.0778C44.3416 12.58 44.5207 13.0892 44.7139 13.5914C44.914 14.1217 45.4268 14.487 46.0098 14.3289C46.519 14.1885 46.9475 13.5668 46.7473 13.033H46.7367Z" fill="#656EB3"/>
        <path d="M25.5281 59.9066C26.3956 62.4949 27.2841 65.6697 29.9707 66.9516C32.84 68.3177 35.7338 66.5758 37.3528 64.1701C38.7014 62.1648 39.6215 59.2569 38.5012 56.9566C37.8761 55.6712 36.4257 54.7335 34.9858 55.2568C33.4651 55.8047 32.833 57.3569 32.7417 58.8636C32.5871 61.4167 33.5845 64.2052 35.7198 65.7118C38.5258 67.6891 42.1607 66.3897 44.5137 64.3457C45.6761 63.3378 46.6524 62.0524 47.2635 60.6371C47.8746 59.2218 48.2609 57.4202 47.411 55.9978C46.972 55.2638 46.2345 54.6598 45.3917 54.4771C44.3521 54.2524 43.3512 54.5825 42.5329 55.2287C40.935 56.493 40.3731 58.688 40.3696 60.6441C40.3696 62.4844 40.9315 64.4195 42.5048 65.5117C43.8253 66.4283 45.6445 66.5301 47.1266 65.9788C48.5243 65.459 49.8553 64.4862 50.9721 63.5063C51.829 62.7548 52.5385 61.8557 53.283 60.9953C53.866 60.3175 54.4665 59.6573 55.0776 59.004C56.0047 58.0172 54.5192 56.5246 53.5885 57.515C52.6544 58.5089 51.7693 59.5414 50.8808 60.5704C50.5753 60.9251 50.2627 61.2728 49.9291 61.5994C49.7746 61.7504 49.613 61.9014 49.4515 62.0419C49.3637 62.1156 49.2759 62.1929 49.1881 62.2631C49.1424 62.3018 48.8825 62.5019 49.0406 62.3825C48.0221 63.1587 46.9334 63.9734 45.7042 64.1806C45.6832 64.1806 45.5673 64.1982 45.4092 64.2052C45.2758 64.2123 45.1458 64.2123 45.0124 64.2052C44.7806 64.1947 44.5593 64.1596 44.2152 64.0437C44.0115 63.9734 43.8745 63.9067 43.6076 63.7241C43.59 63.7136 43.4531 63.6047 43.5655 63.696C43.5093 63.6503 43.4566 63.6012 43.4074 63.552C43.3021 63.4502 43.1862 63.3167 43.1827 63.3167C42.3433 62.1859 42.3433 60.4966 42.6172 59.1796C42.7542 58.5194 42.9895 57.8311 43.4039 57.3043C43.6146 57.0338 43.885 56.788 44.1941 56.6405C44.4469 56.5176 44.6647 56.479 44.8578 56.5106C44.9632 56.5281 45.2126 56.644 45.2933 56.7143C45.4057 56.8091 45.4865 56.9004 45.497 56.918C45.5392 56.9741 45.7077 57.2902 45.6796 57.2165C45.8131 57.5466 45.7955 57.6203 45.792 57.9329C45.792 58.0593 45.7815 58.1858 45.771 58.3122C45.7569 58.5194 45.7639 58.3684 45.771 58.3227C45.7569 58.4211 45.7393 58.5194 45.7183 58.6177C45.4865 59.7275 44.9246 60.7635 44.2152 61.6275C43.3582 62.6705 42.396 63.4677 41.1879 64.0507C40.7102 64.279 40.036 64.5037 39.4214 64.5845C38.9648 64.6442 38.3924 64.581 37.9253 64.4511C37.7953 64.4159 37.6689 64.3703 37.5425 64.3281C37.5109 64.3176 37.3563 64.2474 37.5214 64.3211C37.4617 64.293 37.4055 64.2684 37.3458 64.2368C37.2334 64.1806 37.121 64.1174 37.0122 64.0507C36.9595 64.0191 36.9068 63.984 36.8541 63.9489C36.8331 63.9348 36.6294 63.7873 36.7347 63.8646C36.8401 63.9418 36.682 63.8189 36.661 63.8014C36.6153 63.7592 36.5662 63.7206 36.5205 63.6784C36.4292 63.5941 36.3414 63.5063 36.2571 63.4186C36.1728 63.3308 36.092 63.2359 36.0148 63.1411C35.9375 63.0463 36.0288 63.1587 36.0359 63.1727C35.9797 63.099 35.927 63.0217 35.8743 62.9444C35.7373 62.7372 35.6109 62.523 35.4985 62.3018C35.4423 62.1894 35.3897 62.077 35.3405 61.9646C35.4283 62.1613 35.2738 61.789 35.2562 61.7398C35.0841 61.2622 34.9717 60.7705 34.8839 60.2683C34.8488 60.0646 34.8804 60.2402 34.8839 60.2824C34.8769 60.2227 34.8699 60.163 34.8629 60.1068C34.8523 59.9909 34.8418 59.8715 34.8348 59.7556C34.8207 59.5133 34.8172 59.2745 34.8277 59.0321C34.8453 58.5229 34.8945 58.1752 35.0982 57.7994C35.1227 57.7573 35.33 57.4518 35.1965 57.6168C35.2703 57.5255 35.358 57.4447 35.4423 57.3605C35.5758 57.2235 35.4669 57.3499 35.4283 57.371C35.4669 57.3464 35.5301 57.3148 35.5688 57.2867C35.6952 57.1849 35.5933 57.2727 35.5336 57.2937C35.5933 57.2727 35.6566 57.2551 35.7198 57.234C35.9621 57.1568 35.5688 57.227 35.8181 57.2235C36.0675 57.22 35.6776 57.1568 35.92 57.234C35.9691 57.2481 36.0218 57.2656 36.071 57.2797C36.2079 57.3218 35.92 57.1884 36.0429 57.2727C36.0885 57.3043 36.1377 57.3324 36.1869 57.3569C36.2817 57.4096 36.0815 57.241 36.2185 57.378C36.2466 57.4061 36.4924 57.666 36.373 57.5185C36.4608 57.6274 36.531 57.7538 36.5978 57.8732C36.7066 58.0769 36.7698 58.256 36.8366 58.537C36.8541 58.6177 36.8893 58.9057 36.8576 58.6002C36.8647 58.6845 36.8752 58.7687 36.8822 58.8565C36.8963 59.0778 36.8928 59.299 36.8752 59.5203C36.8682 59.6292 36.8541 59.7415 36.8436 59.8504C36.8752 59.5905 36.8296 59.9242 36.8155 59.9944C36.7663 60.2613 36.7031 60.5247 36.6259 60.7846C36.5556 61.0269 36.4748 61.2657 36.3835 61.4975C36.359 61.5572 36.3379 61.6169 36.3133 61.6766C36.3309 61.6345 36.3906 61.5045 36.3063 61.6907C36.2466 61.8241 36.1834 61.9576 36.1201 62.0875C35.8778 62.5722 35.5969 63.0357 35.2703 63.4712C35.3861 63.3167 35.1544 63.6117 35.1298 63.6398C35.0455 63.7381 34.9577 63.8365 34.8699 63.9313C34.6802 64.1315 34.4836 64.3176 34.2729 64.4932C34.2518 64.5108 34.0938 64.6337 34.1921 64.5599C34.2904 64.4862 34.1289 64.6021 34.1078 64.6196C34.0024 64.6899 33.9006 64.7601 33.7917 64.8268C33.6969 64.883 33.6021 64.9357 33.5073 64.9884C33.4511 65.0165 33.3949 65.0411 33.3387 65.0727C33.0823 65.2061 33.5213 65.0165 33.2474 65.1113C33.0121 65.1921 32.7733 65.2693 32.5274 65.3185C32.4642 65.329 32.4045 65.3431 32.3413 65.3501C32.3905 65.3431 32.5415 65.3396 32.3378 65.3466C32.1903 65.3501 32.0463 65.3642 31.9023 65.3607C31.4106 65.3501 31.0629 65.2061 30.5642 64.8865C30.2938 64.7145 30.2938 64.7145 30.0339 64.4651C29.9321 64.3668 29.8373 64.2649 29.7425 64.1631C29.6968 64.1104 29.6511 64.0577 29.6055 64.0015C29.4966 63.8716 29.602 64.0015 29.5423 63.9208C29.1911 63.4431 28.9031 62.9234 28.6502 62.386C28.4957 62.0559 28.4957 62.0454 28.3763 61.7434C28.2674 61.4624 28.1656 61.1814 28.0673 60.897C27.8917 60.3877 27.7301 59.8715 27.558 59.3623C27.3789 58.8214 26.8311 58.4702 26.2621 58.6247C25.7353 58.7687 25.3455 59.3798 25.5246 59.9207L25.5281 59.9066Z" fill="#636EB3"/>
        <path d="M29.7866 37.9296C32.248 37.5903 33.8163 34.2186 33.2897 30.3988C32.7631 26.5791 30.3408 23.7576 27.8795 24.097C25.4182 24.4363 23.8498 27.808 24.3764 31.6277C24.9031 35.4475 27.3253 38.269 29.7866 37.9296Z" fill="#FFFFFB"/>
        <path d="M30.1642 36.4059C31.3574 36.2414 32.0968 34.4554 31.8157 32.4168C31.5346 30.3782 30.3395 28.8589 29.1463 29.0234C27.9531 29.1879 27.2137 30.9739 27.4948 33.0125C27.7758 35.0512 28.971 36.5704 30.1642 36.4059Z" fill="black"/>
        <path d="M46.4665 30.5557C46.9931 26.736 45.4247 23.3643 42.9634 23.025C40.502 22.6856 38.0798 25.5071 37.5532 29.3269C37.0265 33.1466 38.5949 36.5183 41.0562 36.8576C43.5176 37.197 45.9398 34.3755 46.4665 30.5557Z" fill="#FFFFFB"/>
        <path d="M43.347 31.9426C43.628 29.904 42.8886 28.118 41.6954 27.9535C40.5022 27.7889 39.3071 29.3082 39.026 31.3468C38.7449 33.3855 39.4844 35.1714 40.6776 35.336C41.8708 35.5005 43.0659 33.9812 43.347 31.9426Z" fill="black"/>
        <path d="M44.4469 42.1255C45.9535 44.7349 45.8482 47.6182 44.2081 48.5664C42.568 49.5146 40.0183 48.1625 38.5117 45.5531" fill="#F28198"/>
        <path d="M29.6094 43.5444C30.5787 44.8649 31.8992 45.6375 33.4304 46.1608C34.9616 46.6841 36.6227 47.0774 38.2206 46.9686C41.1391 46.7684 43.8854 45.0651 45.2551 42.4557C45.6168 41.7674 45.4552 40.8051 44.7212 40.4188C44.0329 40.0571 43.0706 40.2151 42.6843 40.9526C42.5438 41.223 42.3788 41.4724 42.2172 41.7287C42.0557 41.9851 42.3577 41.5777 42.1365 41.8376C42.0522 41.9359 41.9714 42.0343 41.8836 42.1291C41.694 42.3363 41.4903 42.5295 41.2795 42.7121C41.2304 42.7542 41.1812 42.7964 41.132 42.835C41.2655 42.7367 41.262 42.7367 41.125 42.8385C41.0197 42.9123 40.9143 42.9895 40.8054 43.0598C40.5877 43.2002 40.3629 43.3302 40.1311 43.4461C40.089 43.4672 39.6816 43.6533 39.8397 43.5866C39.9977 43.5198 39.5763 43.6814 39.5341 43.6954C39.2883 43.7762 39.0389 43.8464 38.7861 43.9026C38.6596 43.9307 38.5332 43.9518 38.4033 43.9729C38.7545 43.9132 38.2944 43.9799 38.2206 43.9834C36.9247 44.0712 35.7904 43.7832 34.4769 43.3653C34.2205 43.2845 33.9677 43.1932 33.7148 43.0949C34.0063 43.2073 33.5744 43.0282 33.5182 43.0036C33.3777 42.9368 33.2407 42.8631 33.1073 42.7858C32.9949 42.7191 32.8825 42.6524 32.7701 42.5786C32.728 42.5505 32.4365 42.2942 32.6542 42.4979C32.5594 42.4101 32.4576 42.3258 32.3662 42.2345C32.3241 42.1923 31.9905 41.7849 32.1766 42.0343C31.7165 41.4092 30.8631 41.0334 30.1397 41.5005C29.5216 41.9008 29.1107 42.8666 29.6059 43.5374L29.6094 43.5444Z" fill="#231F20"/>
    </g>
    <defs>
        <clipPath id="clip0_605_11668">
            <rect width="70" height="70" fill="white"/>
        </clipPath>
    </defs>
</svg>