<svg xmlns="http://www.w3.org/2000/svg" width="70" height="70" viewBox="0 0 70 70" fill="none">
    <g clip-path="url(#clip0_605_11635)">
        <path d="M35 70C54.33 70 70 54.33 70 35C70 15.67 54.33 0 35 0C15.67 0 0 15.67 0 35C0 54.33 15.67 70 35 70Z" fill="#FFE876"/>
        <path d="M12.7997 35.5075C12.5127 40.6175 13.5767 45.801 15.9427 50.344C17.0172 52.409 18.3612 54.453 20.2022 55.9125C22.2252 57.519 24.7557 58.457 27.3422 57.8025C31.4897 56.756 35.0002 52.206 34.5522 47.8765C34.3177 45.6085 33.1382 42.98 30.6602 42.4655C29.3827 42.1995 28.0632 42.588 27.2127 43.5995C26.2432 44.751 25.9142 46.2805 25.8582 47.7575C25.8092 49.0735 26.0367 50.407 26.2957 51.695C26.4987 52.7135 26.7892 53.7075 27.1882 54.6665C28.1052 56.8715 29.5297 58.912 31.6682 60.0845C35.7562 62.3245 41.8112 61.628 44.2472 57.2985C45.4372 55.1845 45.6717 52.5455 45.0172 50.2215C44.6357 48.874 43.9357 47.726 42.8017 46.893C41.5557 45.9795 39.9072 45.843 38.5457 46.5815C36.2112 47.845 36.2707 50.995 36.7292 53.242C37.1562 55.3385 38.2832 57.2845 40.0472 58.52C41.9127 59.8255 44.4782 59.969 46.5922 59.2445C48.8917 58.4535 50.6487 56.8365 52.0802 54.915C53.5292 52.9725 54.5722 50.6835 55.4227 48.4295C56.3432 45.9865 56.9102 43.414 57.0817 40.8065C57.1657 39.564 57.1342 38.318 56.9977 37.079C56.8892 36.113 56.2172 35.168 55.1357 35.217C54.2187 35.259 53.1582 36.043 53.2737 37.079C53.3997 38.213 53.4347 39.3575 53.3752 40.4985C53.3472 41.0165 53.2982 41.531 53.2387 42.0455C53.1967 42.406 53.2387 42.0805 53.2422 42.014C53.2317 42.168 53.1967 42.322 53.1722 42.476C53.1232 42.784 53.0672 43.0885 53.0042 43.393C52.7872 44.464 52.4967 45.521 52.1467 46.557C51.9717 47.075 51.7792 47.5895 51.5727 48.1005C51.5377 48.1915 51.3977 48.5205 51.5482 48.1635C51.4957 48.2825 51.4432 48.405 51.3907 48.524C51.2647 48.811 51.1317 49.098 50.9952 49.378C50.5682 50.267 50.1097 51.149 49.5812 51.9855C49.3537 52.346 49.1087 52.696 48.8602 53.039C48.6117 53.382 49.1227 52.7275 48.8392 53.067C48.7832 53.1335 48.7307 53.2 48.6782 53.2665C48.5137 53.4625 48.3457 53.655 48.1707 53.8405C47.8802 54.1485 47.5757 54.439 47.2502 54.7085L47.1522 54.789C46.9947 54.915 47.0227 54.894 47.2327 54.7295C47.1942 54.796 47.0437 54.866 46.9772 54.9115C46.7882 55.041 46.5957 55.1635 46.3997 55.279C46.2037 55.3945 45.9937 55.489 45.7907 55.5905C45.5492 55.713 46.2282 55.433 45.8327 55.573C45.7137 55.615 45.5982 55.6605 45.4792 55.699C45.2797 55.7655 45.0767 55.818 44.8702 55.8635C44.7862 55.881 44.7022 55.895 44.6182 55.9125C44.4117 55.9475 44.4502 55.944 44.7302 55.9055C44.6427 55.916 44.5552 55.9265 44.4712 55.9335C44.2612 55.951 44.0512 55.9615 43.8412 55.958C43.6592 55.958 43.4177 55.888 43.2462 55.9195C43.5892 55.853 43.5682 55.979 43.3442 55.923C43.2532 55.902 43.1622 55.8845 43.0712 55.86C42.8612 55.8075 42.6582 55.7025 42.4482 55.6535C42.8717 55.748 42.7072 55.7725 42.5532 55.685C42.4762 55.643 42.3957 55.6045 42.3222 55.559C42.1857 55.482 42.0317 55.3245 41.8812 55.272L42.0912 55.4365C42.0352 55.3945 41.9827 55.349 41.9302 55.3035C41.8777 55.258 41.8252 55.2125 41.7762 55.1635C41.6222 55.02 41.4857 54.8625 41.3422 54.705C41.0797 54.4215 41.5907 55.069 41.3702 54.747C41.3317 54.6875 41.2862 54.6315 41.2477 54.572C41.1357 54.4075 41.0342 54.2395 40.9397 54.0645C40.8557 53.9105 40.7892 53.6515 40.6737 53.5255C40.6947 53.55 40.8417 53.956 40.7332 53.662C40.6877 53.5395 40.6422 53.417 40.6002 53.2945C40.4742 52.9165 40.3727 52.528 40.2992 52.136C40.2852 52.059 40.2747 51.9855 40.2572 51.9085C40.1767 51.4955 40.2992 52.3635 40.2572 51.9435C40.2362 51.709 40.2152 51.478 40.2012 51.2435C40.1907 51.0545 40.1837 50.8655 40.1872 50.673C40.1872 50.575 40.2012 50.477 40.2047 50.379C40.2117 50.113 40.1032 50.8585 40.1907 50.4595C40.2327 50.267 40.2782 50.078 40.3342 49.889C40.4497 49.5075 40.1137 50.2425 40.3272 49.9135C40.3517 49.8645 40.3797 49.8155 40.4112 49.77C40.4882 49.651 40.4427 49.7035 40.2782 49.924C40.2992 49.917 40.4987 49.7175 40.5057 49.6965L40.4042 49.7805C40.2642 49.8855 40.2677 49.8925 40.4217 49.7945L40.5407 49.735C40.2922 49.8365 40.2607 49.8575 40.4497 49.798C40.7647 49.651 40.3447 49.882 40.3097 49.812H40.4287C40.6352 49.8225 40.5862 49.812 40.2852 49.7805C40.2957 49.8015 40.5302 49.847 40.5687 49.8575C40.7997 49.91 40.1837 49.623 40.5092 49.8365C40.5617 49.8715 40.9537 50.1585 40.7297 49.9625C40.4952 49.756 40.8032 50.0395 40.8242 50.064C40.9012 50.1375 40.9677 50.2215 41.0412 50.295C41.2232 50.477 40.8137 49.917 41.0202 50.274C41.0832 50.3825 41.1462 50.4945 41.2162 50.5995C41.3457 50.8025 41.2862 50.575 41.1847 50.4945C41.2442 50.54 41.2897 50.7745 41.3142 50.848C41.3947 51.0895 41.4647 51.3345 41.5207 51.583C41.5557 51.7335 41.6117 52.402 41.5872 51.849C41.5977 52.0625 41.6327 52.2795 41.6432 52.4965C41.6537 52.7135 41.6537 52.9305 41.6432 53.1475C41.6397 53.277 41.6292 53.4065 41.6187 53.536L41.6047 53.6655C41.5802 53.8755 41.5872 53.837 41.6222 53.557C41.6782 53.669 41.5277 54.0575 41.4962 54.194C41.4437 54.404 41.3842 54.6105 41.3142 54.8135C41.2687 54.95 41.0727 55.2405 41.3142 54.8485C41.2722 54.9185 41.2442 55.006 41.2057 55.083C41.0937 55.314 40.9677 55.538 40.8312 55.7515C40.7717 55.8425 40.6982 55.9965 40.6107 56.0665C40.9222 55.811 40.7192 55.923 40.6177 56.035C40.4812 56.189 40.3342 56.336 40.1767 56.476C40.1382 56.511 39.9912 56.679 39.9422 56.6755L40.1242 56.5355C40.0577 56.5845 39.9912 56.63 39.9247 56.679C39.7217 56.8155 39.5117 56.9415 39.2982 57.0535C39.2247 57.092 39.1512 57.127 39.0812 57.162C38.6997 57.3545 39.4802 57.0185 39.0777 57.169C38.8852 57.239 38.6927 57.309 38.4967 57.3685C38.3007 57.428 38.1012 57.477 37.8982 57.519C37.7967 57.54 37.6952 57.5575 37.5937 57.575C37.1107 57.6555 37.9227 57.5575 37.5342 57.582C37.1177 57.61 36.7082 57.6345 36.2917 57.6135C36.0887 57.603 35.8752 57.5575 35.6722 57.5645C35.8332 57.589 36.1622 57.5505 35.6722 57.5645C35.5497 57.5435 35.4272 57.519 35.3082 57.4945C34.8882 57.407 34.4752 57.2845 34.0762 57.134C33.9852 57.099 33.8697 57.071 33.7857 57.022C34.1637 57.253 33.9362 57.0815 33.8207 57.022C33.5932 56.91 33.3727 56.7875 33.1592 56.651C33.0717 56.595 32.9842 56.539 32.9002 56.4795L32.7987 56.406C32.6377 56.287 32.6657 56.308 32.8792 56.469C32.7742 56.476 32.4907 56.133 32.4172 56.0595C32.2702 55.916 32.1267 55.769 31.9902 55.615C31.9342 55.552 31.8817 55.4925 31.8292 55.4295C31.7767 55.3665 31.7242 55.3035 31.6717 55.237C31.8362 55.4505 31.8572 55.4785 31.7382 55.3175C31.5002 54.9745 31.2727 54.628 31.0732 54.2605C30.9717 54.075 30.8772 53.8895 30.7862 53.7005C30.7477 53.6165 30.6287 53.445 30.6287 53.354L30.7162 53.564C30.6847 53.487 30.6532 53.4065 30.6217 53.3295C30.2892 52.4825 30.0512 51.604 29.8727 50.7115C29.8202 50.442 29.7677 50.1725 29.7222 49.903C29.7012 49.7805 29.6837 49.6545 29.6627 49.5285C29.5787 49.0245 29.6977 49.931 29.6487 49.4235C29.5962 48.8705 29.5507 48.321 29.5717 47.7645C29.5752 47.6665 29.5822 47.565 29.5892 47.467L29.5997 47.3165C29.6242 47.103 29.6207 47.117 29.5892 47.369C29.5402 47.1975 29.7012 46.802 29.7432 46.6445C29.7782 46.5255 29.8132 46.4065 29.8552 46.291L29.8797 46.221C29.9567 46.018 29.9497 46.0355 29.8622 46.27C29.8447 46.2315 29.9987 46.046 30.0232 46.0075C30.1037 45.8885 30.0652 45.941 29.9042 46.158C29.9497 46.1055 29.9987 46.053 30.0512 46.004C30.2857 45.738 29.7537 46.2105 29.9462 46.0845C30.1387 45.9585 30.1597 46.0775 29.7887 46.13C29.8447 46.123 29.9917 46.088 30.0442 46.06C30.0617 46.0495 29.5157 46.1615 29.8097 46.102C30.0232 46.0565 30.1317 46.2665 29.6627 46.067C29.7117 46.088 29.7852 46.0915 29.8377 46.109C30.0827 46.179 30.0127 46.2875 29.7362 46.053C29.7992 46.1055 29.9147 46.1475 29.9882 46.193C30.2122 46.333 30.1072 46.41 29.9322 46.1335C29.9602 46.1755 30.0442 46.2315 30.0827 46.27C30.1597 46.3435 30.2262 46.4205 30.2997 46.494C30.5517 46.753 30.1317 46.1965 30.2367 46.41C30.3242 46.585 30.4467 46.753 30.5412 46.928C30.6532 47.1345 30.4537 46.9525 30.4852 46.788C30.4677 46.872 30.6007 47.096 30.6287 47.18C30.6952 47.3865 30.7512 47.593 30.7967 47.8065C30.8072 47.8555 30.8177 48.0095 30.8387 48.0375L30.8037 47.7715C30.8142 47.8485 30.8212 47.9255 30.8282 48.0025C30.8457 48.195 30.8527 48.3875 30.8492 48.58C30.8492 48.7935 30.7757 49.0665 30.8037 49.273C30.7582 48.9545 30.8562 48.9405 30.8212 49.1225C30.7967 49.238 30.7792 49.35 30.7547 49.4655C30.7127 49.6545 30.6602 49.8435 30.6042 50.029C30.5482 50.2145 30.4572 50.3965 30.4082 50.582C30.5272 50.113 30.4747 50.4315 30.4082 50.5715C30.3592 50.68 30.3067 50.785 30.2507 50.89C30.0687 51.2435 29.8587 51.5795 29.6277 51.905L29.5577 52.003C29.4387 52.1605 29.4632 52.1325 29.6312 51.912C29.6382 51.919 29.4597 52.1185 29.4422 52.143C29.2987 52.311 29.1517 52.472 28.9977 52.626C28.8437 52.78 28.6827 52.9305 28.5182 53.074C28.4447 53.1405 28.3677 53.2 28.2907 53.263C27.9722 53.5325 28.6372 53.0285 28.2907 53.2595C27.9442 53.4905 27.5767 53.732 27.1882 53.9245C27.1182 53.9595 27.0482 53.991 26.9782 54.026C26.6072 54.208 27.3877 53.8825 26.9957 54.0155C26.8137 54.0785 26.6352 54.145 26.4532 54.1975C26.3482 54.2255 26.2467 54.25 26.1417 54.271L26.0752 54.285C25.8652 54.32 25.8967 54.3165 26.1697 54.278C26.0157 54.3725 25.5642 54.313 25.3857 54.306C25.2772 54.3025 25.1722 54.2885 25.0637 54.285C24.7872 54.2745 25.5327 54.383 25.1162 54.292C24.9097 54.2465 24.7032 54.2045 24.4967 54.145C24.3252 54.096 24.0347 54.0505 23.8947 53.935L24.1047 54.0225C24.0277 53.9875 23.9507 53.949 23.8737 53.914C23.7582 53.858 23.6427 53.795 23.5307 53.732C23.3417 53.627 23.1562 53.5115 22.9777 53.3925C22.8692 53.319 22.7642 53.242 22.6557 53.165C22.3022 52.913 22.8762 53.3575 22.6697 53.172C22.2882 52.8325 21.9067 52.5 21.5602 52.1255C21.4097 51.9645 21.2627 51.7965 21.1227 51.6285C21.0667 51.562 21.0107 51.492 20.9547 51.422C20.6677 51.0685 21.1892 51.7475 20.9232 51.3835C20.6432 50.995 20.3807 50.596 20.1252 50.19C19.5652 49.2905 19.0577 48.3595 18.6132 47.397C18.5502 47.2605 18.4907 47.1205 18.4277 46.984C18.2842 46.6655 18.4102 46.9525 18.4382 47.012C18.3367 46.781 18.2492 46.5465 18.1582 46.312C17.9517 45.7695 17.7627 45.2235 17.5912 44.6705C17.2727 43.6345 17.0172 42.581 16.8282 41.5135C16.7827 41.265 16.7442 41.0165 16.7057 40.768C16.7057 40.7575 16.6357 40.264 16.6742 40.565C16.7127 40.866 16.6532 40.3725 16.6497 40.362C16.5867 39.809 16.5377 39.256 16.5062 38.703C16.4467 37.646 16.4502 36.5855 16.5097 35.525C16.5657 34.552 15.6137 33.621 14.6477 33.663C13.5907 33.712 12.8452 34.482 12.7857 35.525L12.7997 35.5075Z" fill="#F7931E"/>
        <path d="M30.3207 32.6969C32.5726 32.6969 34.3982 29.8559 34.3982 26.3514C34.3982 22.8468 32.5726 20.0059 30.3207 20.0059C28.0687 20.0059 26.2432 22.8468 26.2432 26.3514C26.2432 29.8559 28.0687 32.6969 30.3207 32.6969Z" fill="white"/>
        <path d="M29.764 27.2333C30.887 27.2333 31.7975 25.8167 31.7975 24.0693C31.7975 22.3218 30.887 20.9053 29.764 20.9053C28.6409 20.9053 27.7305 22.3218 27.7305 24.0693C27.7305 25.8167 28.6409 27.2333 29.764 27.2333Z" fill="black"/>
        <path d="M44.1629 31.9058C46.4149 31.9058 48.2404 29.0649 48.2404 25.5603C48.2404 22.0558 46.4149 19.2148 44.1629 19.2148C41.911 19.2148 40.0854 22.0558 40.0854 25.5603C40.0854 29.0649 41.911 31.9058 44.1629 31.9058Z" fill="white"/>
        <path d="M43.1131 27.1879C44.2362 27.1879 45.1466 25.7713 45.1466 24.0239C45.1466 22.2764 44.2362 20.8599 43.1131 20.8599C41.99 20.8599 41.0796 22.2764 41.0796 24.0239C41.0796 25.7713 41.99 27.1879 43.1131 27.1879Z" fill="black"/>
    </g>
    <defs>
        <clipPath id="clip0_605_11635">
            <rect width="70" height="70" fill="white"/>
        </clipPath>
    </defs>
</svg>