<svg xmlns="http://www.w3.org/2000/svg" width="200" height="200" viewBox="0 0 200 200" fill="none">
  <g clip-path="url(#clip0_514_12016)">
    <path d="M100 200C155.228 200 200 155.228 200 100C200 44.7715 155.228 0 100 0C44.7715 0 0 44.7715 0 100C0 155.228 44.7715 200 100 200Z" fill="#FF9A3E"/>
    <path d="M37.7589 132.369C39.234 137.816 40.5745 144.348 45.5177 147.78C48.0071 149.511 51.1773 149.496 53.7801 148.028C55.9504 146.801 57.5957 144.66 58.695 142.468C59.7943 140.277 60.6596 137.688 61.0355 135.149C61.4113 132.61 61.539 130.057 60.8085 127.574C59.8865 124.433 57.2553 120.865 53.4894 121.865C50 122.794 48.7872 126.624 48.6383 129.837C48.4043 135 49.766 141.035 53.3972 144.887C55.4113 147.021 58.4255 148.319 61.3688 147.922C64.3121 147.525 67.1631 145.745 69.2057 143.461C71.3759 141.028 72.9787 138.121 73.9362 135.007C74.8936 131.894 75.2482 128.092 73.844 124.922C73.0567 123.149 71.6241 121.66 69.7589 121.035C67.6667 120.326 65.5035 121.142 63.9362 122.574C61.0142 125.248 60.3546 129.858 60.305 133.603C60.2553 137.348 60.9433 141.723 63.5461 144.723C65.6525 147.149 69.2128 148.241 72.2837 147.177C74.9645 146.248 77.3262 144.043 79.1489 141.908C80.6596 140.135 81.8298 138.149 83.0567 136.177C83.9291 134.773 84.8298 133.383 85.7589 132.014C86.6879 130.645 86.0709 128.418 84.617 127.645C83 126.794 81.2553 127.312 80.2482 128.787C78.844 130.851 77.5461 132.979 76.2269 135.092C75.7872 135.794 75.3262 136.475 74.844 137.149C74.5886 137.504 75.3546 136.539 74.844 137.135C74.7163 137.284 74.5957 137.433 74.4681 137.574C74.1773 137.908 73.8723 138.227 73.5603 138.539C72.773 139.319 71.9291 140.043 71.078 140.752C71.695 140.234 70.9574 140.801 70.7872 140.901C70.7021 140.95 70.5674 140.993 70.4965 141.057C70.2057 141.312 71.0496 140.922 70.6738 140.986C70.4539 141.021 70.2057 141.121 69.9858 141.191C69.6028 141.312 69.9078 141.014 70.2411 141.177C70.1702 141.142 69.9362 141.199 69.8511 141.199C69.7234 141.199 69.5886 141.191 69.461 141.199C69.0426 141.206 69.4965 141.014 69.7305 141.241C69.6454 141.156 69.1844 141.106 69.0709 141.071C68.4043 140.887 69.461 141.34 69.0213 141.043C68.9149 140.972 68.7872 140.894 68.6738 140.837C68.2269 140.596 68.8298 140.972 68.8227 140.972C68.7447 141 68.2553 140.433 68.2057 140.383C68.156 140.333 67.8723 140.064 68.1702 140.362C68.4681 140.66 68.1489 140.333 68.0851 140.22C67.9362 139.979 67.8085 139.731 67.6596 139.496C67.5816 139.376 67.4255 138.943 67.6667 139.567C67.6028 139.404 67.539 139.234 67.4823 139.071C67.2411 138.383 67.0567 137.674 66.9149 136.957C66.8865 136.794 66.7589 135.858 66.8227 136.44C66.7801 136.021 66.7447 135.61 66.7163 135.191C66.6738 134.397 66.6738 133.603 66.7092 132.816C66.7234 132.447 66.7518 132.078 66.7801 131.716C66.8014 131.511 66.8227 131.305 66.844 131.092C66.8085 131.433 66.8156 131.262 66.8582 131.021C66.9929 130.291 67.1489 129.574 67.383 128.865C67.4539 128.652 67.7943 127.915 67.5106 128.475C67.6596 128.17 67.8298 127.872 68 127.582C68.2766 127.099 68 127.546 67.9149 127.645C68.0496 127.489 68.1915 127.34 68.3333 127.184C68.3759 127.135 68.7376 126.872 68.4326 127.085C68.0142 127.369 68.8298 126.752 68.3546 127.121C68.0993 127.319 68.2128 127.149 68.383 127.121C67.5035 127.241 67.9504 127.142 68.1347 127.163C68.0851 127.163 67.3191 127.043 67.8652 127.135C68.2624 127.206 67.8014 127.113 67.6454 127.043C68.2128 127.305 67.4397 126.922 67.5035 126.901C67.5319 126.894 67.8298 127.22 67.8156 127.199C67.8865 127.262 68.0709 127.553 67.8511 127.227C67.6028 126.851 67.8723 127.291 67.9291 127.383C68.0709 127.617 68.2695 128.206 68.078 127.624C68.1844 127.95 68.2766 128.277 68.3617 128.617C68.5035 129.199 68.3617 128.674 68.3617 128.546C68.3688 128.723 68.383 128.901 68.383 129.071C68.3901 129.326 68.3901 129.582 68.383 129.837C68.3759 130.092 68.3617 130.355 68.3404 130.617C68.3333 130.709 68.3404 131.014 68.2979 131.071C68.3759 130.965 68.4043 130.433 68.3191 130.908C68.1135 132.085 67.8227 133.234 67.4043 134.362C67.3404 134.525 66.9149 135.454 67.2695 134.73C67.1418 134.986 67.0355 135.248 66.9078 135.511C66.6383 136.057 66.3404 136.596 66.0213 137.113C65.8511 137.39 65.6738 137.66 65.4894 137.929C65.4184 138.035 64.9078 138.723 65.1702 138.383C65.4113 138.071 64.922 138.681 64.8227 138.794C64.617 139.028 64.4113 139.255 64.1915 139.482C63.9716 139.709 63.7589 139.908 63.5319 140.113C63.4397 140.199 62.7872 140.723 63.1631 140.433C63.5106 140.163 62.9007 140.61 62.773 140.695C62.5319 140.851 62.2908 141 62.0355 141.135C61.9149 141.199 61.7801 141.262 61.6596 141.326C61.2199 141.567 61.8298 141.184 61.8511 141.255C61.8511 141.277 61.1915 141.482 61.1702 141.489C60.9433 141.56 60.7092 141.603 60.4752 141.66C60.0142 141.78 60.617 141.496 60.7234 141.638C60.7021 141.61 60.3688 141.638 60.3262 141.638C60.1986 141.638 60.0638 141.624 59.9362 141.617C59.5674 141.61 59.8369 141.433 60.2199 141.66C60.0709 141.567 59.7518 141.56 59.5886 141.518C59.3972 141.461 59.1773 141.333 58.9858 141.312C59.0567 141.312 59.6879 141.667 59.2553 141.411C59.1489 141.355 59.0425 141.298 58.9362 141.241C58.7801 141.149 58.5035 140.887 58.3333 140.851C58.3333 140.851 58.8511 141.291 58.6241 141.071C58.539 140.986 58.4397 140.915 58.3475 140.83C58.0355 140.546 57.7447 140.035 57.3972 139.809C57.7801 140.057 57.7305 140.277 57.5532 140C57.4823 139.894 57.4042 139.787 57.3333 139.681C57.2057 139.489 57.0851 139.298 56.9716 139.099C56.7163 138.667 56.5035 138.213 56.2837 137.759C56.0284 137.213 56.3759 137.943 56.3617 137.957C56.3617 137.957 56.1986 137.539 56.2128 137.574C56.1277 137.348 56.0496 137.121 55.9716 136.887C55.8085 136.39 55.6596 135.879 55.539 135.369C55.4184 134.858 55.305 134.34 55.2128 133.823C55.1773 133.624 55.1986 133.27 55.0993 133.099C55.1277 133.149 55.1915 133.901 55.1347 133.333C55.1206 133.199 55.1064 133.064 55.0922 132.929C54.9929 131.965 54.9574 130.993 54.9929 130.028C55 129.759 55.0355 129.482 55.0425 129.213C55.0284 129.816 55.0425 129.206 55.1064 128.915C55.1631 128.652 55.2553 128.397 55.3191 128.142C55.4326 127.702 55.4539 128.248 55.2269 128.326C55.2766 128.312 55.3688 128.035 55.3972 127.986C55.4043 127.972 55.5816 127.723 55.5816 127.681C55.5816 127.702 55.0638 128.312 55.3901 127.936C55.4397 127.879 55.5177 127.83 55.5532 127.773C55.7447 127.468 54.9433 128.184 55.2482 128C55.773 127.681 54.5603 128.191 55.0284 128.071C55.4964 127.95 54.1206 128.099 54.8156 128.128C53.9362 128.092 54.0922 128.007 54.3546 128.092C54.3688 128.092 53.5248 127.766 53.9787 127.936C54.0496 127.965 54.0993 128.028 54.1702 128.05C54.4894 128.177 53.7163 127.539 53.8936 127.851C53.922 127.901 54.0284 127.993 54.078 128.035C54.4823 128.348 53.8865 127.922 53.9291 127.823C53.9078 127.887 54.2979 128.433 54.3617 128.539C54.6312 129.007 54.3759 128.525 54.3333 128.426C54.3972 128.589 54.4539 128.745 54.5106 128.908C54.6099 129.191 54.6879 129.489 54.766 129.78C54.8085 129.943 54.844 130.113 54.8794 130.284C55.0425 131.035 54.844 129.759 54.8794 130.206C54.9433 131.078 54.9716 131.936 54.9149 132.816C54.9007 133.064 54.8794 133.319 54.8511 133.567C54.844 133.66 54.8227 133.759 54.8156 133.851C54.7872 134.27 54.9362 133.163 54.8511 133.582C54.7518 134.064 54.6879 134.56 54.5816 135.043C54.3688 136.028 54.0922 137 53.7447 137.95C53.6879 138.099 53.4326 138.546 53.4539 138.702C53.4539 138.702 53.7305 138.092 53.5816 138.397C53.5248 138.518 53.4752 138.638 53.4184 138.759C53.2128 139.199 52.9929 139.631 52.7518 140.05C52.5106 140.468 52.2624 140.844 52 141.227C51.6099 141.794 52.3688 140.823 52.0071 141.227C51.8511 141.397 51.7021 141.582 51.5461 141.745C51.3901 141.908 51.2269 142.057 51.0638 142.213C51.0071 142.27 50.9291 142.312 50.8794 142.376C50.617 142.652 51.4681 141.986 51.1418 142.177C51 142.262 50.1702 142.66 50.1277 142.78C50.2199 142.511 50.8582 142.525 50.461 142.631C50.3617 142.66 50.2695 142.695 50.1702 142.723C50 142.773 49.8227 142.794 49.6525 142.844C49.3688 142.922 50.1277 142.78 50.1206 142.78C50.0567 142.759 49.8865 142.801 49.8085 142.794C49.7163 142.794 49.234 142.716 49.1773 142.766C49.3688 142.603 49.9574 142.915 49.539 142.801C49.1206 142.688 49.6525 142.674 49.7447 142.901C49.7092 142.816 49.2128 142.624 49.1347 142.582C49.0496 142.532 48.9716 142.475 48.8865 142.426C48.4113 142.149 49.0496 142.496 49.0496 142.574C49.0496 142.468 48.5532 142.142 48.4468 142.043C48.2482 141.851 48.0709 141.638 47.8865 141.44C47.5177 141.035 48.2411 141.979 47.8085 141.326C47.5035 140.865 47.2057 140.404 46.9433 139.922C46.8014 139.652 46.6596 139.383 46.5319 139.106C46.4752 138.993 46.1135 138.227 46.3121 138.638C46.4894 139.021 46.1773 138.298 46.1206 138.149C46.0071 137.851 45.9007 137.553 45.7943 137.255C45.4043 136.142 45.0638 135.007 44.7518 133.872C44.461 132.823 44.1915 131.766 43.9078 130.716C43.4752 129.106 41.617 127.957 39.9787 128.489C38.3404 129.021 37.2837 130.688 37.7518 132.418L37.7589 132.369Z" fill="#FF7029"/>
    <path d="M122.879 131.149C124.355 136.596 125.695 143.128 130.638 146.56C133.128 148.291 136.298 148.277 138.901 146.809C141.071 145.582 142.716 143.44 143.816 141.248C144.915 139.057 145.78 136.468 146.156 133.929C146.532 131.39 146.66 128.837 145.929 126.355C145.007 123.213 142.376 119.645 138.61 120.645C135.121 121.574 133.908 125.404 133.759 128.617C133.525 133.78 134.887 139.816 138.518 143.667C140.532 145.801 143.546 147.099 146.489 146.702C149.433 146.305 152.284 144.525 154.326 142.241C156.496 139.809 158.099 136.901 159.057 133.787C160.014 130.674 160.369 126.872 158.965 123.702C158.177 121.929 156.745 120.44 154.879 119.816C152.787 119.106 150.624 119.922 149.057 121.355C146.135 124.028 145.475 128.638 145.426 132.383C145.376 136.128 146.064 140.504 148.667 143.504C150.773 145.929 154.333 147.021 157.404 145.957C160.085 145.028 162.447 142.823 164.27 140.688C165.78 138.915 166.95 136.929 168.177 134.957C169.05 133.553 169.95 132.163 170.879 130.794C171.809 129.426 171.192 127.199 169.738 126.426C168.121 125.574 166.376 126.092 165.369 127.567C163.965 129.631 162.667 131.759 161.348 133.872C160.908 134.574 160.447 135.255 159.965 135.929C159.709 136.284 160.475 135.319 159.965 135.915C159.837 136.064 159.716 136.213 159.589 136.355C159.298 136.688 158.993 137.007 158.681 137.319C157.894 138.099 157.05 138.823 156.199 139.532C156.816 139.014 156.078 139.582 155.908 139.681C155.823 139.73 155.688 139.773 155.617 139.837C155.326 140.092 156.17 139.702 155.794 139.766C155.575 139.801 155.326 139.901 155.106 139.972C154.723 140.092 155.028 139.794 155.362 139.957C155.291 139.922 155.057 139.979 154.972 139.979C154.844 139.979 154.709 139.972 154.582 139.979C154.163 139.986 154.617 139.794 154.851 140.021C154.766 139.936 154.305 139.887 154.192 139.851C153.525 139.667 154.582 140.121 154.142 139.823C154.035 139.752 153.908 139.674 153.794 139.617C153.348 139.376 153.95 139.752 153.943 139.752C153.865 139.78 153.376 139.213 153.326 139.163C153.277 139.113 152.993 138.844 153.291 139.142C153.589 139.44 153.27 139.113 153.206 139C153.057 138.759 152.929 138.511 152.78 138.277C152.702 138.156 152.546 137.723 152.787 138.348C152.723 138.184 152.66 138.014 152.603 137.851C152.362 137.163 152.177 136.454 152.035 135.738C152.007 135.574 151.879 134.638 151.943 135.22C151.901 134.801 151.865 134.39 151.837 133.972C151.794 133.177 151.794 132.383 151.83 131.596C151.844 131.227 151.872 130.858 151.901 130.496C151.922 130.291 151.943 130.085 151.965 129.872C151.929 130.213 151.936 130.043 151.979 129.801C152.114 129.071 152.27 128.355 152.504 127.645C152.575 127.433 152.915 126.695 152.631 127.255C152.78 126.95 152.95 126.652 153.121 126.362C153.397 125.879 153.121 126.326 153.035 126.426C153.17 126.27 153.312 126.121 153.454 125.965C153.496 125.915 153.858 125.652 153.553 125.865C153.135 126.149 153.95 125.532 153.475 125.901C153.22 126.099 153.333 125.929 153.504 125.901C152.624 126.021 153.071 125.922 153.255 125.943C153.206 125.943 152.44 125.823 152.986 125.915C153.383 125.986 152.922 125.894 152.766 125.823C153.333 126.085 152.56 125.702 152.624 125.681C152.653 125.674 152.95 126 152.936 125.979C153.007 126.043 153.192 126.333 152.972 126.007C152.723 125.631 152.993 126.071 153.05 126.163C153.192 126.397 153.39 126.986 153.199 126.404C153.305 126.73 153.397 127.057 153.482 127.397C153.624 127.979 153.482 127.454 153.482 127.326C153.489 127.504 153.504 127.681 153.504 127.851C153.511 128.106 153.511 128.362 153.504 128.617C153.496 128.872 153.482 129.135 153.461 129.397C153.454 129.489 153.461 129.794 153.418 129.851C153.496 129.745 153.525 129.213 153.44 129.688C153.234 130.865 152.943 132.014 152.525 133.142C152.461 133.305 152.035 134.234 152.39 133.511C152.262 133.766 152.156 134.028 152.028 134.291C151.759 134.837 151.461 135.376 151.142 135.894C150.972 136.17 150.794 136.44 150.61 136.709C150.539 136.816 150.028 137.504 150.291 137.163C150.532 136.851 150.043 137.461 149.943 137.574C149.738 137.809 149.532 138.035 149.312 138.262C149.092 138.489 148.879 138.688 148.653 138.894C148.56 138.979 147.908 139.504 148.284 139.213C148.631 138.943 148.021 139.39 147.894 139.475C147.653 139.631 147.411 139.78 147.156 139.915C147.035 139.979 146.901 140.043 146.78 140.106C146.34 140.348 146.95 139.965 146.972 140.035C146.972 140.057 146.312 140.262 146.291 140.27C146.064 140.34 145.83 140.383 145.596 140.44C145.135 140.56 145.738 140.277 145.844 140.418C145.823 140.39 145.489 140.418 145.447 140.418C145.319 140.418 145.184 140.404 145.057 140.397C144.688 140.39 144.957 140.213 145.34 140.44C145.192 140.348 144.872 140.34 144.709 140.298C144.518 140.241 144.298 140.113 144.106 140.092C144.177 140.092 144.809 140.447 144.376 140.191C144.27 140.135 144.163 140.078 144.057 140.021C143.901 139.929 143.624 139.667 143.454 139.631C143.454 139.631 143.972 140.071 143.745 139.851C143.66 139.766 143.56 139.695 143.468 139.61C143.156 139.326 142.865 138.816 142.518 138.589C142.901 138.837 142.851 139.057 142.674 138.78C142.603 138.674 142.525 138.567 142.454 138.461C142.326 138.27 142.206 138.078 142.092 137.879C141.837 137.447 141.624 136.993 141.404 136.539C141.149 135.993 141.496 136.723 141.482 136.738C141.482 136.738 141.319 136.319 141.333 136.355C141.248 136.128 141.17 135.901 141.092 135.667C140.929 135.17 140.78 134.66 140.66 134.149C140.539 133.638 140.426 133.121 140.333 132.603C140.298 132.404 140.319 132.05 140.22 131.879C140.248 131.929 140.312 132.681 140.255 132.113C140.241 131.979 140.227 131.844 140.213 131.709C140.114 130.745 140.078 129.773 140.114 128.809C140.121 128.539 140.156 128.262 140.163 127.993C140.149 128.596 140.163 127.986 140.227 127.695C140.284 127.433 140.376 127.177 140.44 126.922C140.553 126.482 140.575 127.028 140.348 127.106C140.397 127.092 140.489 126.816 140.518 126.766C140.525 126.752 140.702 126.504 140.702 126.461C140.702 126.482 140.184 127.092 140.511 126.716C140.56 126.66 140.638 126.61 140.674 126.553C140.865 126.248 140.064 126.965 140.369 126.78C140.894 126.461 139.681 126.972 140.149 126.851C140.617 126.731 139.241 126.879 139.936 126.908C139.057 126.872 139.213 126.787 139.475 126.872C139.489 126.872 138.645 126.546 139.099 126.716C139.17 126.745 139.22 126.809 139.291 126.83C139.61 126.957 138.837 126.319 139.014 126.631C139.043 126.681 139.149 126.773 139.199 126.816C139.603 127.128 139.007 126.702 139.05 126.603C139.028 126.667 139.418 127.213 139.482 127.319C139.752 127.787 139.496 127.305 139.454 127.206C139.518 127.369 139.575 127.525 139.631 127.688C139.731 127.972 139.809 128.27 139.887 128.56C139.929 128.723 139.965 128.894 140 129.064C140.163 129.816 139.965 128.539 140 128.986C140.064 129.858 140.092 130.716 140.035 131.596C140.021 131.844 140 132.099 139.972 132.348C139.965 132.44 139.943 132.539 139.936 132.631C139.908 133.05 140.057 131.943 139.972 132.362C139.872 132.844 139.809 133.34 139.702 133.823C139.489 134.809 139.213 135.78 138.865 136.73C138.809 136.879 138.553 137.326 138.575 137.482C138.575 137.482 138.851 136.872 138.702 137.177C138.645 137.298 138.596 137.418 138.539 137.539C138.333 137.979 138.114 138.411 137.872 138.83C137.631 139.248 137.383 139.624 137.121 140.007C136.731 140.574 137.489 139.603 137.128 140.007C136.972 140.177 136.823 140.362 136.667 140.525C136.511 140.688 136.348 140.837 136.184 140.993C136.128 141.05 136.05 141.092 136 141.156C135.738 141.433 136.589 140.766 136.262 140.957C136.121 141.043 135.291 141.44 135.248 141.56C135.34 141.291 135.979 141.305 135.582 141.411C135.482 141.44 135.39 141.475 135.291 141.504C135.121 141.553 134.943 141.574 134.773 141.624C134.489 141.702 135.248 141.56 135.241 141.56C135.177 141.539 135.007 141.582 134.929 141.574C134.837 141.574 134.355 141.496 134.298 141.546C134.489 141.383 135.078 141.695 134.66 141.582C134.241 141.468 134.773 141.454 134.865 141.681C134.83 141.596 134.333 141.404 134.255 141.362C134.17 141.312 134.092 141.255 134.007 141.206C133.532 140.929 134.17 141.277 134.17 141.355C134.17 141.248 133.674 140.922 133.567 140.823C133.369 140.631 133.192 140.418 133.007 140.22C132.638 139.816 133.362 140.759 132.929 140.106C132.624 139.645 132.326 139.184 132.064 138.702C131.922 138.433 131.78 138.163 131.653 137.887C131.596 137.773 131.234 137.007 131.433 137.418C131.61 137.801 131.298 137.078 131.241 136.929C131.128 136.631 131.021 136.333 130.915 136.035C130.525 134.922 130.184 133.787 129.872 132.652C129.582 131.603 129.312 130.546 129.028 129.496C128.596 127.887 126.738 126.738 125.099 127.27C123.461 127.801 122.404 129.468 122.872 131.199L122.879 131.149Z" fill="#FF7029"/>
    <path d="M91.7051 124.099C97.8294 122.122 100.301 112.795 97.2255 103.268C94.15 93.7404 86.6921 87.6194 80.5678 89.5963C74.4434 91.5732 71.9719 100.899 75.0473 110.427C78.1228 119.955 85.5807 126.076 91.7051 124.099Z" fill="white"/>
    <path d="M125.315 111.301C128.663 101.866 126.461 92.4728 120.397 90.3204C114.332 88.1679 106.701 94.0716 103.352 103.507C100.004 112.942 102.206 122.335 108.27 124.488C114.335 126.64 121.966 120.736 125.315 111.301Z" fill="white"/>
    <path d="M90.1655 123.929C93.3376 123.425 95.2744 119.018 94.4915 114.086C93.7085 109.154 90.5023 105.564 87.3301 106.067C84.158 106.571 82.2211 110.977 83.0041 115.91C83.7871 120.842 86.9933 124.432 90.1655 123.929Z" fill="black"/>
    <path d="M111.028 123.894C114.24 123.894 116.844 119.845 116.844 114.851C116.844 109.857 114.24 105.809 111.028 105.809C107.817 105.809 105.213 109.857 105.213 114.851C105.213 119.845 107.817 123.894 111.028 123.894Z" fill="black"/>
    <path d="M82.9929 156.759H123.567C126.305 156.759 126.312 152.504 123.567 152.504H82.9929C80.2553 152.504 80.2482 156.759 82.9929 156.759Z" fill="black"/>
  </g>
  <defs>
    <clipPath id="clip0_514_12016">
      <rect width="200" height="200" fill="white"/>
    </clipPath>
  </defs>
</svg>
