<svg xmlns="http://www.w3.org/2000/svg" width="70" height="70" viewBox="0 0 70 70" fill="none">
    <g clip-path="url(#clip0_605_11642)">
        <path d="M35 70C54.33 70 70 54.33 70 35C70 15.67 54.33 0 35 0C15.67 0 0 15.67 0 35C0 54.33 15.67 70 35 70Z" fill="#FF9A3E"/>
        <path d="M13.2158 46.3292C13.7321 48.2356 14.2013 50.5218 15.9314 51.7232C16.8027 52.3289 17.9123 52.3239 18.8233 51.8101C19.5828 51.3806 20.1587 50.631 20.5435 49.864C20.9282 49.097 21.2311 48.1909 21.3626 47.3023C21.4942 46.4136 21.5389 45.52 21.2832 44.6512C20.9605 43.5516 20.0396 42.303 18.7215 42.653C17.5002 42.9782 17.0757 44.3186 17.0236 45.4431C16.9417 47.2501 17.4183 49.3626 18.6892 50.7104C19.3942 51.4576 20.4491 51.9118 21.4793 51.7728C22.5094 51.6338 23.5073 51.0108 24.2222 50.2115C24.9818 49.3601 25.5428 48.3423 25.8779 47.2526C26.213 46.1629 26.3371 44.8324 25.8456 43.7228C25.5701 43.1023 25.0686 42.581 24.4158 42.3626C23.6835 42.1143 22.9264 42.3998 22.3779 42.9012C21.3552 43.837 21.1243 45.4505 21.1069 46.7611C21.0896 48.0718 21.3303 49.6033 22.2413 50.6533C22.9786 51.5023 24.2247 51.8845 25.2995 51.5122C26.2378 51.187 27.0644 50.415 27.7023 49.6679C28.2311 49.0473 28.6406 48.3523 29.0701 47.6622C29.3754 47.1707 29.6906 46.6842 30.0158 46.2051C30.341 45.726 30.125 44.9466 29.6162 44.676C29.0502 44.3782 28.4396 44.5594 28.0871 45.0757C27.5956 45.798 27.1413 46.5427 26.6796 47.2824C26.5257 47.5282 26.3644 47.7665 26.1956 48.0023C26.1062 48.1264 26.3743 47.7888 26.1956 47.9973C26.1509 48.0494 26.1087 48.1016 26.064 48.1512C25.9623 48.2679 25.8555 48.3796 25.7463 48.4888C25.4708 48.7618 25.1754 49.015 24.8775 49.2633C25.0935 49.0821 24.8353 49.2806 24.7757 49.3154C24.7459 49.3328 24.6988 49.3477 24.674 49.37C24.5722 49.4594 24.8676 49.3228 24.736 49.3452C24.6591 49.3576 24.5722 49.3923 24.4952 49.4172C24.3612 49.4594 24.4679 49.3551 24.5846 49.4122C24.5598 49.3998 24.4779 49.4196 24.4481 49.4196C24.4034 49.4196 24.3562 49.4172 24.3116 49.4196C24.1651 49.4221 24.324 49.3551 24.4059 49.4345C24.3761 49.4048 24.2147 49.3874 24.175 49.375C23.9417 49.3104 24.3116 49.4693 24.1576 49.365C24.1204 49.3402 24.0757 49.3129 24.036 49.2931C23.8796 49.2087 24.0906 49.3402 24.0881 49.3402C24.0608 49.3501 23.8896 49.1516 23.8722 49.1342C23.8548 49.1168 23.7555 49.0225 23.8598 49.1267C23.964 49.231 23.8523 49.1168 23.83 49.0771C23.7779 48.9927 23.7332 48.9058 23.6811 48.8239C23.6537 48.7817 23.5991 48.6303 23.6835 48.8487C23.6612 48.7916 23.6389 48.7321 23.619 48.675C23.5346 48.4342 23.4701 48.186 23.4204 47.9353C23.4105 47.8782 23.3658 47.5505 23.3881 47.754C23.3733 47.6076 23.3608 47.4636 23.3509 47.3172C23.336 47.0391 23.336 46.7611 23.3484 46.4856C23.3534 46.3565 23.3633 46.2274 23.3733 46.1009C23.3807 46.0289 23.3881 45.9569 23.3956 45.8824C23.3832 46.0016 23.3857 45.942 23.4006 45.8576C23.4477 45.6019 23.5023 45.3512 23.5842 45.103C23.6091 45.0285 23.7282 44.7704 23.6289 44.9665C23.6811 44.8597 23.7406 44.7555 23.8002 44.6537C23.897 44.4849 23.8002 44.6413 23.7704 44.676C23.8176 44.6214 23.8672 44.5693 23.9169 44.5147C23.9318 44.4973 24.0584 44.4055 23.9516 44.4799C23.8052 44.5792 24.0906 44.3633 23.9243 44.4923C23.835 44.5618 23.8747 44.5023 23.9342 44.4923C23.6264 44.5345 23.7828 44.4998 23.8474 44.5072C23.83 44.5072 23.5619 44.465 23.753 44.4973C23.892 44.5221 23.7307 44.4899 23.6761 44.465C23.8747 44.5569 23.6041 44.4228 23.6264 44.4154C23.6364 44.4129 23.7406 44.5271 23.7357 44.5196C23.7605 44.542 23.825 44.6438 23.7481 44.5296C23.6612 44.398 23.7555 44.5519 23.7754 44.5842C23.825 44.6661 23.8945 44.8721 23.8275 44.6686C23.8647 44.7828 23.897 44.897 23.9268 45.0161C23.9764 45.2196 23.9268 45.036 23.9268 44.9913C23.9293 45.0533 23.9342 45.1154 23.9342 45.175C23.9367 45.2643 23.9367 45.3537 23.9342 45.4431C23.9318 45.5324 23.9268 45.6243 23.9194 45.7161C23.9169 45.7484 23.9194 45.8551 23.9045 45.875C23.9318 45.8377 23.9417 45.6516 23.9119 45.8179C23.8399 46.2299 23.7381 46.6321 23.5917 47.0267C23.5694 47.0838 23.4204 47.409 23.5445 47.1558C23.4998 47.2452 23.4626 47.337 23.4179 47.4289C23.3236 47.62 23.2194 47.8087 23.1076 47.9899C23.0481 48.0867 22.986 48.181 22.9215 48.2753C22.8967 48.3126 22.7179 48.5533 22.8098 48.4342C22.8942 48.325 22.7229 48.5384 22.6881 48.5782C22.6162 48.6601 22.5442 48.7395 22.4672 48.8189C22.3903 48.8984 22.3158 48.9679 22.2364 49.0399C22.2041 49.0696 21.9757 49.2533 22.1073 49.1516C22.2289 49.0572 22.0155 49.2136 21.9708 49.2434C21.8864 49.298 21.802 49.3501 21.7126 49.3973C21.6704 49.4196 21.6233 49.442 21.5811 49.4643C21.4272 49.5487 21.6406 49.4147 21.6481 49.4395C21.6481 49.447 21.4172 49.5189 21.4098 49.5214C21.3303 49.5462 21.2484 49.5611 21.1665 49.581C21.0052 49.6232 21.2162 49.5239 21.2534 49.5735C21.2459 49.5636 21.1293 49.5735 21.1144 49.5735C21.0697 49.5735 21.0225 49.5686 20.9779 49.5661C20.8488 49.5636 20.9431 49.5016 21.0772 49.581C21.025 49.5487 20.9133 49.5462 20.8562 49.5313C20.7892 49.5115 20.7123 49.4668 20.6452 49.4594C20.6701 49.4594 20.891 49.5835 20.7396 49.4941C20.7023 49.4743 20.6651 49.4544 20.6279 49.4345C20.5733 49.4023 20.4764 49.3104 20.4169 49.298C20.4169 49.298 20.5981 49.4519 20.5186 49.375C20.4889 49.3452 20.4541 49.3204 20.4218 49.2906C20.3126 49.1913 20.2108 49.0126 20.0892 48.9331C20.2233 49.02 20.2059 49.097 20.1438 49.0001C20.119 48.9629 20.0917 48.9257 20.0669 48.8884C20.0222 48.8214 19.98 48.7544 19.9403 48.6849C19.8509 48.5335 19.7764 48.3746 19.6995 48.2157C19.6101 48.0246 19.7318 48.2803 19.7268 48.2853C19.7268 48.2853 19.6697 48.1388 19.6747 48.1512C19.6449 48.0718 19.6176 47.9923 19.5903 47.9104C19.5332 47.7367 19.4811 47.5579 19.4389 47.3792C19.3967 47.2005 19.3569 47.0193 19.3247 46.8381C19.3123 46.7686 19.3197 46.6445 19.285 46.5849C19.2949 46.6023 19.3172 46.8654 19.2974 46.6668C19.2924 46.6196 19.2874 46.5725 19.2825 46.5253C19.2477 46.1877 19.2353 45.8477 19.2477 45.5101C19.2502 45.4157 19.2626 45.3189 19.2651 45.2246C19.2601 45.4356 19.2651 45.2221 19.2874 45.1204C19.3073 45.0285 19.3396 44.9391 19.3619 44.8498C19.4016 44.6959 19.4091 44.887 19.3296 44.9143C19.347 44.9094 19.3793 44.8126 19.3892 44.7952C19.3917 44.7902 19.4538 44.7033 19.4538 44.6884C19.4538 44.6959 19.2725 44.9094 19.3867 44.7778C19.4041 44.7579 19.4314 44.7406 19.4438 44.7207C19.5108 44.614 19.2303 44.8647 19.3371 44.8001C19.5208 44.6884 19.0963 44.8672 19.2601 44.825C19.424 44.7828 18.9424 44.8349 19.1857 44.8448C18.8779 44.8324 18.9325 44.8026 19.0243 44.8324C19.0293 44.8324 18.7339 44.7182 18.8928 44.7778C18.9176 44.7877 18.935 44.8101 18.9598 44.8175C19.0715 44.8622 18.8009 44.6388 18.863 44.748C18.8729 44.7654 18.9101 44.7977 18.9275 44.8126C19.069 44.9218 18.8605 44.7728 18.8754 44.7381C18.8679 44.7604 19.0045 44.9516 19.0268 44.9888C19.1211 45.1526 19.0318 44.9838 19.0169 44.9491C19.0392 45.0062 19.0591 45.0608 19.0789 45.1179C19.1137 45.2172 19.141 45.3214 19.1683 45.4232C19.1832 45.4803 19.1956 45.5399 19.208 45.5994C19.2651 45.8626 19.1956 45.4157 19.208 45.5721C19.2303 45.8774 19.2403 46.1778 19.2204 46.4856C19.2155 46.5725 19.208 46.6618 19.1981 46.7487C19.1956 46.781 19.1881 46.8157 19.1857 46.848C19.1757 46.9945 19.2279 46.6072 19.1981 46.7537C19.1633 46.9225 19.141 47.0962 19.1037 47.265C19.0293 47.6101 18.9325 47.9501 18.8108 48.2828C18.791 48.3349 18.7016 48.4913 18.7091 48.5459C18.7091 48.5459 18.8059 48.3324 18.7537 48.4392C18.7339 48.4813 18.7165 48.5235 18.6967 48.5657C18.6247 48.7196 18.5477 48.8711 18.4633 49.0175C18.3789 49.164 18.292 49.2955 18.2002 49.4296C18.0637 49.6282 18.3293 49.2881 18.2027 49.4296C18.1481 49.4892 18.0959 49.5537 18.0413 49.6108C17.9867 49.6679 17.9296 49.72 17.8725 49.7746C17.8527 49.7945 17.8254 49.8094 17.808 49.8317C17.7162 49.9285 18.014 49.6952 17.8998 49.7622C17.8502 49.792 17.5598 49.931 17.5449 49.9732C17.5772 49.8789 17.8006 49.8838 17.6616 49.9211C17.6268 49.931 17.5945 49.9434 17.5598 49.9533C17.5002 49.9707 17.4381 49.9782 17.3786 49.9955C17.2793 50.0228 17.5449 49.9732 17.5424 49.9732C17.5201 49.9657 17.4605 49.9806 17.4332 49.9782C17.4009 49.9782 17.2321 49.9509 17.2123 49.9682C17.2793 49.9111 17.4853 50.0204 17.3389 49.9806C17.1924 49.9409 17.3786 49.936 17.4108 50.0154C17.3984 49.9856 17.2247 49.9186 17.1974 49.9037C17.1676 49.8863 17.1403 49.8665 17.1105 49.8491C16.9442 49.7523 17.1676 49.8739 17.1676 49.9012C17.1676 49.864 16.9938 49.7498 16.9566 49.715C16.8871 49.648 16.825 49.5735 16.7605 49.504C16.6314 49.3626 16.8846 49.6927 16.7332 49.4643C16.6264 49.303 16.5222 49.1416 16.4303 48.9728C16.3807 48.8785 16.3311 48.7842 16.2864 48.6874C16.2665 48.6477 16.1399 48.3796 16.2094 48.5235C16.2715 48.6576 16.1623 48.4044 16.1424 48.3523C16.1027 48.248 16.0655 48.1438 16.0282 48.0395C15.8917 47.6498 15.7725 47.2526 15.6633 46.8555C15.5615 46.4881 15.4672 46.1182 15.3679 45.7509C15.2165 45.1874 14.5662 44.7852 13.9928 44.9714C13.4194 45.1576 13.0495 45.7409 13.2133 46.3466L13.2158 46.3292Z" fill="#FF7029"/>
        <path d="M43.0078 45.902C43.5241 47.8084 43.9933 50.0945 45.7234 51.2959C46.5947 51.9016 47.7043 51.8967 48.6152 51.3828C49.3748 50.9534 49.9507 50.2037 50.3355 49.4367C50.7202 48.6697 51.023 47.7637 51.1546 46.875C51.2862 45.9864 51.3308 45.0928 51.0752 44.224C50.7525 43.1243 49.8316 41.8757 48.5135 42.2257C47.2922 42.5509 46.8677 43.8913 46.8156 45.0158C46.7337 46.8229 47.2103 48.9353 48.4812 50.2832C49.1862 51.0303 50.2411 51.4846 51.2713 51.3456C52.3014 51.2066 53.2993 50.5835 54.0142 49.7842C54.7738 48.9328 55.3347 47.9151 55.6699 46.8254C56.005 45.7357 56.1291 44.4052 55.6376 43.2956C55.3621 42.675 54.8606 42.1537 54.2078 41.9353C53.4755 41.6871 52.7184 41.9725 52.1699 42.474C51.1472 43.4098 50.9163 45.0233 50.8989 46.3339C50.8816 47.6445 51.1223 49.1761 52.0333 50.2261C52.7706 51.075 54.0167 51.4573 55.0915 51.085C56.0298 50.7598 56.8564 49.9878 57.4943 49.2406C58.023 48.6201 58.4326 47.925 58.8621 47.235C59.1674 46.7435 59.4826 46.2569 59.8078 45.7779C60.133 45.2988 59.917 44.5193 59.4082 44.2488C58.8422 43.9509 58.2316 44.1321 57.8791 44.6484C57.3876 45.3708 56.9333 46.1154 56.4716 46.8552C56.3177 47.1009 56.1564 47.3392 55.9876 47.575C55.8982 47.6991 56.1663 47.3616 55.9876 47.5701C55.9429 47.6222 55.9007 47.6743 55.856 47.724C55.7543 47.8406 55.6475 47.9523 55.5383 48.0615C55.2628 48.3346 54.9674 48.5878 54.6695 48.836C54.8855 48.6548 54.6273 48.8534 54.5677 48.8881C54.5379 48.9055 54.4908 48.9204 54.466 48.9428C54.3642 49.0321 54.6596 48.8956 54.528 48.9179C54.4511 48.9303 54.3642 48.9651 54.2872 48.9899C54.1532 49.0321 54.2599 48.9279 54.3766 48.985C54.3518 48.9725 54.2699 48.9924 54.2401 48.9924C54.1954 48.9924 54.1482 48.9899 54.1035 48.9924C53.9571 48.9949 54.116 48.9279 54.1979 49.0073C54.1681 48.9775 54.0067 48.9601 53.967 48.9477C53.7337 48.8832 54.1035 49.042 53.9496 48.9378C53.9124 48.913 53.8677 48.8857 53.828 48.8658C53.6716 48.7814 53.8826 48.913 53.8801 48.913C53.8528 48.9229 53.6816 48.7243 53.6642 48.7069C53.6468 48.6896 53.5475 48.5952 53.6518 48.6995C53.756 48.8037 53.6443 48.6896 53.622 48.6498C53.5699 48.5655 53.5252 48.4786 53.473 48.3967C53.4457 48.3545 53.3911 48.203 53.4755 48.4215C53.4532 48.3644 53.4308 48.3048 53.411 48.2477C53.3266 48.0069 53.2621 47.7587 53.2124 47.508C53.2025 47.4509 53.1578 47.1233 53.1801 47.3268C53.1652 47.1803 53.1528 47.0364 53.1429 46.8899C53.128 46.6119 53.128 46.3339 53.1404 46.0584C53.1454 45.9293 53.1553 45.8002 53.1652 45.6736C53.1727 45.6016 53.1801 45.5296 53.1876 45.4552C53.1752 45.5743 53.1777 45.5147 53.1925 45.4303C53.2397 45.1747 53.2943 44.924 53.3762 44.6757C53.4011 44.6013 53.5202 44.3431 53.4209 44.5392C53.473 44.4325 53.5326 44.3282 53.5922 44.2264C53.689 44.0576 53.5922 44.214 53.5624 44.2488C53.6096 44.1942 53.6592 44.142 53.7089 44.0874C53.7238 44.0701 53.8504 43.9782 53.7436 44.0527C53.5972 44.152 53.8826 43.936 53.7163 44.0651C53.6269 44.1346 53.6667 44.075 53.7262 44.0651C53.4184 44.1073 53.5748 44.0725 53.6394 44.08C53.622 44.08 53.3539 44.0378 53.545 44.0701C53.684 44.0949 53.5227 44.0626 53.4681 44.0378C53.6667 44.1296 53.3961 43.9956 53.4184 43.9881C53.4284 43.9857 53.5326 44.0998 53.5277 44.0924C53.5525 44.1147 53.617 44.2165 53.5401 44.1023C53.4532 43.9708 53.5475 44.1247 53.5674 44.1569C53.617 44.2389 53.6865 44.4449 53.6195 44.2413C53.6567 44.3555 53.689 44.4697 53.7188 44.5889C53.7684 44.7924 53.7188 44.6087 53.7188 44.564C53.7213 44.6261 53.7262 44.6881 53.7262 44.7477C53.7287 44.8371 53.7287 44.9264 53.7262 45.0158C53.7238 45.1052 53.7188 45.197 53.7113 45.2889C53.7089 45.3211 53.7113 45.4279 53.6965 45.4477C53.7238 45.4105 53.7337 45.2243 53.7039 45.3906C53.6319 45.8027 53.5301 46.2048 53.3837 46.5995C53.3613 46.6566 53.2124 46.9818 53.3365 46.7286C53.2918 46.8179 53.2546 46.9098 53.2099 47.0016C53.1156 47.1928 53.0113 47.3814 52.8996 47.5626C52.8401 47.6594 52.778 47.7537 52.7135 47.8481C52.6886 47.8853 52.5099 48.1261 52.6018 48.0069C52.6862 47.8977 52.5149 48.1112 52.4801 48.1509C52.4082 48.2328 52.3362 48.3123 52.2592 48.3917C52.1823 48.4711 52.1078 48.5406 52.0284 48.6126C51.9961 48.6424 51.7677 48.8261 51.8993 48.7243C52.0209 48.63 51.8074 48.7864 51.7628 48.8162C51.6784 48.8708 51.594 48.9229 51.5046 48.9701C51.4624 48.9924 51.4152 49.0147 51.373 49.0371C51.2191 49.1215 51.4326 48.9874 51.4401 49.0123C51.4401 49.0197 51.2092 49.0917 51.2018 49.0942C51.1223 49.119 51.0404 49.1339 50.9585 49.1537C50.7972 49.1959 51.0082 49.0967 51.0454 49.1463C51.0379 49.1364 50.9213 49.1463 50.9064 49.1463C50.8617 49.1463 50.8145 49.1413 50.7699 49.1389C50.6408 49.1364 50.7351 49.0743 50.8691 49.1537C50.817 49.1215 50.7053 49.119 50.6482 49.1041C50.5812 49.0842 50.5043 49.0396 50.4372 49.0321C50.4621 49.0321 50.683 49.1562 50.5316 49.0669C50.4943 49.047 50.4571 49.0272 50.4199 49.0073C50.3652 48.975 50.2684 48.8832 50.2089 48.8708C50.2089 48.8708 50.3901 49.0247 50.3106 48.9477C50.2808 48.9179 50.2461 48.8931 50.2138 48.8633C50.1046 48.764 50.0028 48.5853 49.8812 48.5059C50.0152 48.5928 49.9979 48.6697 49.9358 48.5729C49.911 48.5357 49.8837 48.4984 49.8589 48.4612C49.8142 48.3942 49.772 48.3272 49.7323 48.2577C49.6429 48.1062 49.5684 47.9474 49.4915 47.7885C49.4021 47.5974 49.5238 47.853 49.5188 47.858C49.5188 47.858 49.4617 47.7115 49.4667 47.724C49.4369 47.6445 49.4096 47.5651 49.3823 47.4832C49.3252 47.3094 49.273 47.1307 49.2308 46.952C49.1886 46.7733 49.1489 46.592 49.1167 46.4108C49.1043 46.3413 49.1117 46.2172 49.0769 46.1576C49.0869 46.175 49.1092 46.4381 49.0894 46.2396C49.0844 46.1924 49.0794 46.1452 49.0745 46.0981C49.0397 45.7605 49.0273 45.4204 49.0397 45.0828C49.0422 44.9885 49.0546 44.8917 49.0571 44.7974C49.0521 45.0084 49.0571 44.7949 49.0794 44.6931C49.0993 44.6013 49.1316 44.5119 49.1539 44.4225C49.1936 44.2686 49.2011 44.4598 49.1216 44.4871C49.139 44.4821 49.1713 44.3853 49.1812 44.3679C49.1837 44.363 49.2457 44.2761 49.2457 44.2612C49.2457 44.2686 49.0645 44.4821 49.1787 44.3506C49.1961 44.3307 49.2234 44.3133 49.2358 44.2935C49.3028 44.1867 49.0223 44.4374 49.1291 44.3729C49.3128 44.2612 48.8883 44.4399 49.0521 44.3977C49.216 44.3555 48.7344 44.4076 48.9777 44.4176C48.6699 44.4052 48.7245 44.3754 48.8163 44.4052C48.8213 44.4052 48.5259 44.291 48.6847 44.3506C48.7096 44.3605 48.7269 44.3828 48.7518 44.3903C48.8635 44.435 48.5929 44.2116 48.655 44.3208C48.6649 44.3381 48.7021 44.3704 48.7195 44.3853C48.861 44.4945 48.6525 44.3456 48.6674 44.3108C48.6599 44.3332 48.7965 44.5243 48.8188 44.5616C48.9131 44.7254 48.8238 44.5566 48.8089 44.5218C48.8312 44.5789 48.8511 44.6335 48.8709 44.6906C48.9057 44.7899 48.933 44.8942 48.9603 44.9959C48.9752 45.053 48.9876 45.1126 49 45.1722C49.0571 45.4353 48.9876 44.9885 49 45.1449C49.0223 45.4502 49.0323 45.7506 49.0124 46.0584C49.0074 46.1452 49 46.2346 48.9901 46.3215C48.9876 46.3537 48.9801 46.3885 48.9777 46.4208C48.9677 46.5672 49.0199 46.18 48.9901 46.3264C48.9553 46.4952 48.933 46.669 48.8957 46.8378C48.8213 47.1828 48.7245 47.5229 48.6028 47.8555C48.583 47.9076 48.4936 48.064 48.5011 48.1186C48.5011 48.1186 48.5979 47.9052 48.5457 48.0119C48.5259 48.0541 48.5085 48.0963 48.4886 48.1385C48.4167 48.2924 48.3397 48.4438 48.2553 48.5903C48.1709 48.7367 48.084 48.8683 47.9922 49.0023C47.8557 49.2009 48.1213 48.8608 47.9947 49.0023C47.9401 49.0619 47.8879 49.1264 47.8333 49.1835C47.7787 49.2406 47.7216 49.2928 47.6645 49.3474C47.6447 49.3672 47.6174 49.3821 47.6 49.4045C47.5082 49.5013 47.806 49.2679 47.6918 49.335C47.6422 49.3647 47.3518 49.5038 47.3369 49.5459C47.3691 49.4516 47.5925 49.4566 47.4535 49.4938C47.4188 49.5037 47.3865 49.5162 47.3518 49.5261C47.2922 49.5435 47.2301 49.5509 47.1706 49.5683C47.0713 49.5956 47.3369 49.5459 47.3344 49.5459C47.3121 49.5385 47.2525 49.5534 47.2252 49.5509C47.1929 49.5509 47.0241 49.5236 47.0043 49.541C47.0713 49.4839 47.2773 49.5931 47.1308 49.5534C46.9844 49.5137 47.1706 49.5087 47.2028 49.5881C47.1904 49.5584 47.0167 49.4913 46.9894 49.4764C46.9596 49.4591 46.9323 49.4392 46.9025 49.4218C46.7362 49.325 46.9596 49.4467 46.9596 49.474C46.9596 49.4367 46.7858 49.3225 46.7486 49.2878C46.6791 49.2208 46.617 49.1463 46.5525 49.0768C46.4234 48.9353 46.6766 49.2655 46.5252 49.0371C46.4184 48.8757 46.3142 48.7144 46.2223 48.5456C46.1727 48.4513 46.123 48.3569 46.0784 48.2601C46.0585 48.2204 45.9319 47.9523 46.0014 48.0963C46.0635 48.2303 45.9543 47.9772 45.9344 47.925C45.8947 47.8208 45.8574 47.7165 45.8202 47.6123C45.6837 47.2225 45.5645 46.8254 45.4553 46.4282C45.3535 46.0608 45.2592 45.691 45.1599 45.3236C45.0085 44.7601 44.3582 44.358 43.7847 44.5442C43.2113 44.7303 42.8415 45.3137 43.0053 45.9194L43.0078 45.902Z" fill="#FF7029"/>
        <path d="M32.0966 43.4343C34.2401 42.7424 35.1052 39.4782 34.0288 36.1436C32.9523 32.8089 30.3421 30.6666 28.1986 31.3585C26.055 32.0504 25.19 35.3146 26.2664 38.6492C27.3428 41.9839 29.9531 44.1262 32.0966 43.4343Z" fill="white"/>
        <path d="M43.8603 38.9554C45.0323 35.6531 44.2616 32.3654 42.1389 31.6121C40.0162 30.8587 37.3453 32.925 36.1733 36.2273C35.0014 39.5295 35.7721 42.8173 37.8948 43.5706C40.0175 44.324 42.6883 42.2577 43.8603 38.9554Z" fill="white"/>
        <path d="M31.5578 43.3748C32.6681 43.1985 33.346 41.6562 33.0719 39.9299C32.7979 38.2036 31.6757 36.947 30.5655 37.1233C29.4552 37.2995 28.7773 38.8418 29.0514 40.5681C29.3254 42.2944 30.4476 43.551 31.5578 43.3748Z" fill="black"/>
        <path d="M38.8602 43.363C39.9843 43.363 40.8956 41.946 40.8956 40.1981C40.8956 38.4502 39.9843 37.0332 38.8602 37.0332C37.736 37.0332 36.8247 38.4502 36.8247 40.1981C36.8247 41.946 37.736 43.363 38.8602 43.363Z" fill="black"/>
        <path d="M29.0477 54.8658H43.2487C44.2069 54.8658 44.2094 53.3765 43.2487 53.3765H29.0477C28.0895 53.3765 28.087 54.8658 29.0477 54.8658Z" fill="black"/>
    </g>
    <defs>
        <clipPath id="clip0_605_11642">
            <rect width="70" height="70" fill="white"/>
        </clipPath>
    </defs>
</svg>