<svg xmlns="http://www.w3.org/2000/svg" width="70" height="70" viewBox="0 0 70 70" fill="none">
    <g clip-path="url(#clip0_605_11678)">
        <path d="M35 70C54.33 70 70 54.33 70 35C70 15.67 54.33 0 35 0C15.67 0 0 15.67 0 35C0 54.33 15.67 70 35 70Z" fill="#E5C1DB"/>
        <path d="M47.6246 26.0202C48.1999 22.207 46.6737 18.8152 44.2157 18.4443C41.7577 18.0735 39.2987 20.864 38.7234 24.6772C38.148 28.4904 39.6743 31.8822 42.1323 32.253C44.5903 32.6239 47.0493 29.8334 47.6246 26.0202Z" fill="#FFFFFB"/>
        <path d="M30.1084 31.6208C32.5709 31.2812 34.1402 27.9091 33.6135 24.0889C33.0868 20.2687 30.6635 17.4471 28.201 17.7866C25.7385 18.1261 24.1692 21.4982 24.6959 25.3184C25.2226 29.1386 27.6458 31.9603 30.1084 31.6208Z" fill="#FFFFFB"/>
        <path d="M30.4835 30.0985C31.6764 29.934 32.4158 28.149 32.1349 26.1115C31.854 24.0741 30.6592 22.5558 29.4662 22.7203C28.2732 22.8847 27.5339 24.6697 27.8148 26.7072C28.0957 28.7446 29.2905 30.2629 30.4835 30.0985Z" fill="black"/>
        <path d="M46.6655 26.5158C45.6645 24.2548 43.2145 22.5258 40.684 23.1838C40.285 23.2888 40.0435 23.7298 40.152 24.1218C40.2605 24.5138 40.691 24.7588 41.09 24.6538C41.489 24.5488 41.9825 24.5383 42.364 24.6188C42.8715 24.7273 43.26 24.8988 43.694 25.1928C43.8865 25.3223 43.932 25.3608 44.128 25.5393C44.3065 25.7038 44.4745 25.8823 44.6285 26.0678C44.723 26.1798 44.8665 26.3863 44.9855 26.5823C45.122 26.8063 45.2445 27.0408 45.3495 27.2823C45.5175 27.6603 46.067 27.7478 46.3925 27.5553C46.781 27.3278 46.8335 26.8903 46.6655 26.5123V26.5158Z" fill="#231F20"/>
        <path d="M29.7429 49.9417C32.4029 49.7877 34.8319 48.7657 36.6834 46.8337L35.8364 46.7252C36.4419 47.7367 37.5864 48.3072 38.6609 48.6852C40.0959 49.1892 41.6604 49.3677 43.1759 49.2907C43.8654 49.2557 43.8724 48.1777 43.1759 48.2127C41.8319 48.2827 40.4844 48.1392 39.1999 47.7297C38.3214 47.4497 37.2644 47.0122 36.7674 46.1827C36.5924 45.8887 36.1619 45.8187 35.9204 46.0742C34.2719 47.7997 32.1229 48.7307 29.7429 48.8672C29.0534 48.9057 29.0464 49.9872 29.7429 49.9452V49.9417Z" fill="#231F20"/>
        <path d="M21.3711 38.5352C21.7106 38.4617 21.9031 38.4267 22.2041 38.4127C22.3581 38.4057 22.5121 38.4022 22.6661 38.4127C22.7221 38.4127 22.7816 38.4197 22.8376 38.4267C23.1036 38.4512 22.6661 38.3847 22.9146 38.4407C23.0266 38.4652 23.1386 38.4897 23.2471 38.5247C23.3066 38.5422 23.3626 38.5632 23.4186 38.5842C23.3906 38.5737 23.2471 38.5002 23.3906 38.5772C23.4816 38.6227 23.5691 38.6752 23.6601 38.7277C23.7091 38.7557 23.7511 38.7907 23.8001 38.8222C23.6811 38.7382 23.7406 38.7697 23.8211 38.8432C23.9681 38.9762 24.1011 39.1197 24.2306 39.2702C24.3146 39.3717 24.1606 39.1617 24.2866 39.3507C24.3496 39.4452 24.4126 39.5362 24.4721 39.6307C24.7066 39.9982 24.9061 40.3867 25.1196 40.7647C25.5921 41.6012 26.1521 42.4062 26.9886 42.9137C27.9966 43.5227 29.2251 43.5997 30.3241 43.2077C31.6261 42.7422 32.8126 41.8987 33.7436 40.8837C34.6746 39.8687 35.5006 38.5492 35.5076 37.1177C35.5146 35.8262 34.8706 34.1287 33.4741 33.8102C31.9516 33.4637 30.9086 34.9512 30.5936 36.2427C30.0056 38.6472 30.3906 41.7307 32.0321 43.6557C32.8966 44.6742 34.2721 45.2937 35.6126 45.1572C37.2016 44.9962 38.6226 44.1597 39.7496 43.0572C40.8766 41.9547 41.8216 40.4742 42.2766 38.9167C42.7001 37.4677 42.7211 35.6267 41.4611 34.5662C39.8686 33.2257 37.9681 34.5452 37.1701 36.0922C36.2636 37.8422 35.9871 40.0542 36.3441 41.9827C36.6241 43.5087 37.5761 44.8632 39.1756 45.1642C40.5651 45.4267 42.1121 45.0942 43.2916 44.3137C44.3171 43.6347 45.1536 42.7247 46.0286 41.8707C46.4381 41.4717 46.9596 40.9957 47.3201 40.7402C47.8276 40.3797 48.2196 40.1627 48.7341 40.0227C49.2241 39.8897 49.7631 39.8792 50.2916 39.9947C50.7781 40.0997 51.2891 39.8512 51.4256 39.3507C51.5516 38.8922 51.2716 38.3252 50.7816 38.2167C49.5391 37.9472 48.3316 38.0907 47.1976 38.6612C46.2071 39.1582 45.3671 39.9387 44.5831 40.7122C44.1981 41.0902 43.8201 41.4787 43.4281 41.8462C43.2426 42.0177 43.0571 42.1892 42.8646 42.3502C42.6826 42.5042 42.6301 42.5497 42.3606 42.7282C41.5941 43.2322 40.4776 43.5717 39.5676 43.3722C39.1196 43.2707 38.7906 43.0922 38.5526 42.7317C38.1956 42.1927 38.0836 41.4927 38.0521 40.8452C37.9786 39.3997 38.2061 37.5307 39.1721 36.3792C39.3471 36.1727 39.5711 35.9662 39.8231 35.8717C40.0051 35.8017 40.0926 35.8402 40.1871 35.9032C40.2676 35.9557 40.2921 35.9732 40.3831 36.0852C40.3831 36.0852 40.5021 36.2672 40.5371 36.3442C40.6351 36.5472 40.7016 36.8167 40.7121 37.0547C40.7541 38.2062 40.2046 39.4452 39.5396 40.4497C38.8396 41.5102 37.8806 42.4342 36.7256 42.9837C36.2426 43.2147 35.6861 43.3617 35.1716 43.3477C34.7551 43.3337 34.3526 43.1902 33.9606 42.9347C33.6561 42.7387 33.3446 42.4062 33.1276 42.0632C32.9911 41.8497 32.8721 41.6257 32.7706 41.3982C32.7636 41.3842 32.7041 41.2372 32.7496 41.3527C32.7251 41.2932 32.7041 41.2302 32.6796 41.1707C32.6306 41.0342 32.5816 40.8942 32.5431 40.7507C32.2386 39.7287 32.1616 38.8432 32.2351 37.7372C32.2421 37.6147 32.2526 37.4922 32.2666 37.3732C32.2736 37.3137 32.2806 37.2542 32.2876 37.1947C32.2666 37.3592 32.2876 37.2087 32.2911 37.1807C32.3436 36.8587 32.4066 36.5262 32.5396 36.2252C32.5396 36.2322 32.6446 36.0222 32.6761 35.9732C32.7426 35.8647 32.7706 35.8332 32.7741 35.8262C32.8126 35.7842 32.8511 35.7457 32.8896 35.7072C32.9876 35.6057 32.7776 35.7772 32.8896 35.7037C32.9316 35.6757 32.9736 35.6512 33.0156 35.6267C33.0681 35.5952 32.8931 35.6092 33.0226 35.6267C33.2116 35.6512 32.9736 35.5777 32.9736 35.6232C32.9736 35.6162 33.0891 35.6232 33.1066 35.6232C32.8511 35.6232 33.2186 35.6862 33.0296 35.5952C33.0891 35.6232 33.2781 35.7772 33.1486 35.6582C33.1871 35.6932 33.2291 35.7317 33.2641 35.7737C33.4286 35.9767 33.1871 35.6267 33.3306 35.8717C33.5896 36.3092 33.6911 36.8062 33.6771 37.2332C33.6771 37.2927 33.6701 37.3557 33.6631 37.4152C33.6806 37.2647 33.6631 37.4152 33.6561 37.4432C33.6316 37.5657 33.6001 37.6882 33.5651 37.8107C33.4846 38.0732 33.4426 38.1712 33.2851 38.4547C33.0016 38.9727 32.7076 39.3507 32.3016 39.7672C31.8956 40.1837 31.4896 40.5337 31.0101 40.8452C30.7791 40.9957 30.5376 41.1357 30.2926 41.2617C30.0161 41.4017 29.9776 41.4192 29.6731 41.5172C29.5611 41.5522 29.4491 41.5802 29.3336 41.6082C29.2811 41.6222 29.2216 41.6327 29.1691 41.6397C29.2041 41.6327 29.3511 41.6257 29.1726 41.6397C29.0711 41.6467 28.9696 41.6502 28.8681 41.6467C28.8191 41.6467 28.7701 41.6397 28.7211 41.6362C28.8541 41.6502 28.7491 41.6432 28.6756 41.6257C28.5741 41.6012 28.4691 41.5802 28.3711 41.5487C28.3326 41.5382 28.0666 41.4367 28.1681 41.4822C28.2766 41.5312 28.0561 41.4227 28.0211 41.4052C27.9196 41.3492 27.8251 41.2862 27.7306 41.2197C27.8951 41.3352 27.7131 41.2022 27.6571 41.1497C27.5906 41.0902 27.5276 41.0272 27.4646 40.9607C27.4016 40.8942 27.3456 40.8277 27.2861 40.7577C27.2546 40.7227 27.1811 40.6212 27.3071 40.7857C27.2721 40.7402 27.2406 40.6947 27.2091 40.6492C26.9991 40.3342 26.8066 40.0122 26.6211 39.6832C26.2361 38.9867 25.8476 38.2692 25.2771 37.7057C24.5701 37.0092 23.6601 36.6557 22.6766 36.6067C22.0781 36.5752 21.4726 36.6697 20.8916 36.7992C19.7331 37.0512 20.2231 38.8257 21.3816 38.5737L21.3711 38.5352Z" fill="#9B5EA5"/>
    </g>
    <defs>
        <clipPath id="clip0_605_11678">
            <rect width="70" height="70" fill="white"/>
        </clipPath>
    </defs>
</svg>