<svg xmlns="http://www.w3.org/2000/svg" width="70" height="70" viewBox="0 0 70 70" fill="none">
    <g clip-path="url(#clip0_605_11651)">
        <path d="M35 70C54.33 70 70 54.33 70 35C70 15.67 54.33 0 35 0C15.67 0 0 15.67 0 35C0 54.33 15.67 70 35 70Z" fill="#FFCAE0"/>
        <path d="M31.6453 28.3038C32.9992 23.7797 32.7651 19.7138 31.1225 19.2222C29.4799 18.7307 27.0508 21.9997 25.697 26.5238C24.3431 31.0478 24.5772 35.1138 26.2198 35.6054C27.8624 36.0969 30.2915 32.8279 31.6453 28.3038Z" fill="white"/>
        <path d="M41.2718 35.9661C43.5238 35.9661 45.3493 32.6942 45.3493 28.6581C45.3493 24.622 43.5238 21.3501 41.2718 21.3501C39.0199 21.3501 37.1943 24.622 37.1943 28.6581C37.1943 32.6942 39.0199 35.9661 41.2718 35.9661Z" fill="white"/>
        <path d="M56.7769 30.4082C56.3779 27.9022 56.0454 25.3822 55.3979 22.9252C54.7504 20.4682 53.7004 17.7032 51.7789 15.8167C50.8549 14.9102 49.6999 14.1297 48.4014 13.9267C47.2289 13.7447 46.0424 13.8007 44.9259 14.2277C42.6194 15.1132 40.9009 16.9122 39.5569 18.9352C38.2129 20.9582 37.2154 23.3277 36.5924 25.6937C35.9974 27.9582 35.7384 30.2822 36.1409 32.5992C36.5994 35.2347 38.3949 38.3672 41.5204 37.7652C44.2224 37.2472 45.4194 34.0727 45.7589 31.6857C46.1159 29.1762 46.0844 26.6912 45.6994 24.1887C45.3459 21.8927 44.6179 19.5022 43.2529 17.5982C41.7059 15.4387 39.5324 14.0247 36.8479 13.8007C35.4024 13.6817 33.8974 14.1612 32.5954 14.7352C31.2934 15.3092 30.1069 16.1527 29.0324 17.0942C26.8274 19.0262 25.0704 21.5672 23.9224 24.2587C23.3379 25.6307 22.8514 27.0307 22.6239 28.5077C22.3754 30.1107 22.2844 31.7312 22.7919 33.2992C23.2609 34.7482 24.1744 36.2742 25.6199 36.9287C26.5019 37.3277 27.3944 37.4502 28.3534 37.2577C29.3124 37.0652 30.0509 36.5507 30.7509 35.9627C32.0879 34.8392 32.9069 33.1872 33.5124 31.5877C34.1704 29.8447 34.4854 27.9827 34.6849 26.1382C34.8844 24.2937 34.8424 22.4387 34.5484 20.5977C34.3069 19.0857 33.8204 17.5457 32.9104 16.2997C32.0004 15.0537 30.7999 14.0807 29.3089 13.5627C28.0034 13.1077 26.4844 13.1322 25.1684 13.5382C23.7859 13.9652 22.6029 14.7982 21.4444 15.6417C20.4959 16.3277 19.5684 17.0557 18.7249 17.8677C18.0669 18.5047 17.4649 19.2012 16.8909 19.9152C16.4884 20.4157 16.0999 20.9232 15.7079 21.4307C15.5434 21.6442 15.3824 21.8542 15.2179 22.0677C15.1759 22.1237 15.1304 22.1797 15.0884 22.2357C15.3929 21.8402 15.2494 22.0292 15.1794 22.1167C15.0639 22.2672 14.9484 22.4142 14.8294 22.5647C13.8599 23.8072 12.8659 25.0322 11.8439 26.2327C11.2139 26.9747 11.0634 28.1472 11.8439 28.8647C12.5369 29.5017 13.8039 29.6592 14.4759 28.8647C15.4594 27.7062 16.4184 26.5302 17.3529 25.3367C17.7764 24.7942 18.1964 24.2482 18.6199 23.7022C18.7004 23.5972 18.7809 23.4922 18.8614 23.3872C19.0539 23.1387 18.5744 23.7582 18.8334 23.4257C18.9909 23.2227 19.1484 23.0232 19.3059 22.8202C20.4014 21.4377 21.5949 20.2372 22.9599 19.1207C22.5049 19.4917 22.8654 19.1942 22.9809 19.1067C23.0964 19.0192 23.2049 18.9387 23.3204 18.8582C23.5619 18.6832 23.8104 18.5082 24.0554 18.3402C24.5664 17.9867 25.0809 17.6192 25.6374 17.3357C25.7494 17.2797 25.8859 17.2377 25.9909 17.1677C25.5884 17.4337 25.8579 17.2272 26.0539 17.1642C26.3199 17.0767 26.5894 17.0172 26.8659 16.9612C27.1634 16.9017 26.6979 16.9892 26.6734 16.9857C26.7294 16.9927 26.8134 16.9717 26.8729 16.9682C27.0059 16.9577 27.1389 16.9542 27.2719 16.9577C27.3874 16.9577 27.5029 16.9682 27.6184 16.9752C28.0209 16.9962 27.1704 16.8877 27.6569 16.9822C27.8984 17.0277 28.1294 17.1012 28.3604 17.1747C28.7349 17.2972 28.0419 17.0137 28.3219 17.1537C28.4549 17.2202 28.5879 17.2832 28.7174 17.3602C28.8189 17.4197 28.9169 17.4792 29.0149 17.5457C29.0639 17.5772 29.1269 17.6367 29.1794 17.6612C28.8504 17.5037 28.9204 17.4477 29.0429 17.5597C29.2529 17.7452 29.4559 17.9307 29.6414 18.1407C29.6904 18.1932 29.7324 18.2492 29.7814 18.3052C29.9179 18.4592 29.7534 18.4102 29.6904 18.1862C29.7184 18.2912 29.8514 18.4102 29.9109 18.5082C30.0894 18.7847 30.2434 19.0752 30.3869 19.3727C30.5304 19.6702 30.2469 18.9982 30.4114 19.4357C30.4639 19.5722 30.5129 19.7122 30.5549 19.8522C30.6704 20.2162 30.7579 20.5872 30.8349 20.9582C30.8699 21.1227 30.9014 21.2872 30.9294 21.4517C30.9469 21.5637 31.0939 22.1412 30.9679 21.6792C31.0659 22.0467 31.0484 22.4982 31.0659 22.8762C31.1044 23.6777 31.0904 24.4827 31.0344 25.2807C31.0064 25.6762 30.9644 26.0682 30.9224 26.4602C30.8804 26.8207 30.9224 26.5022 30.9259 26.4357C30.9189 26.5372 30.8944 26.6457 30.8804 26.7472C30.8454 26.9817 30.8069 27.2127 30.7649 27.4437C30.6214 28.2277 30.4464 29.0047 30.2084 29.7642C30.0999 30.1177 29.9774 30.4677 29.8409 30.8107C29.6659 31.2517 29.9179 30.6602 29.7779 30.9612C29.6904 31.1502 29.5994 31.3392 29.5049 31.5247C29.3509 31.8187 29.1864 32.1057 29.0009 32.3822C28.9554 32.4522 28.9029 32.5222 28.8574 32.5922C28.7139 32.8127 28.9239 32.5852 28.9239 32.5117C28.9239 32.5992 28.6789 32.8022 28.6124 32.8757C28.4899 33.0052 28.3639 33.1312 28.2274 33.2502C28.1819 33.2887 28.0524 33.4287 28.0069 33.4357C28.0139 33.4357 28.3674 33.1942 28.0594 33.3832C27.9369 33.4567 27.8144 33.5337 27.6884 33.6002C27.6254 33.6352 27.3839 33.7542 27.6499 33.6247C27.9159 33.4952 27.6219 33.6212 27.5659 33.6352C27.5169 33.6492 27.3979 33.6597 27.3664 33.6807C27.3734 33.6772 27.7864 33.6597 27.6149 33.6457C27.5344 33.6387 27.0724 33.6072 27.4364 33.6702C27.8004 33.7332 27.4084 33.6562 27.3209 33.6317C27.2754 33.6177 27.1984 33.5792 27.1459 33.5722C27.2509 33.5827 27.5554 33.7857 27.2964 33.6247C27.2124 33.5722 27.1109 33.4882 27.0164 33.4497C27.3419 33.5862 27.2894 33.6807 27.1669 33.5582C27.1214 33.5127 27.0689 33.4707 27.0234 33.4217C26.9324 33.3307 26.8519 33.1942 26.7539 33.1172C26.7574 33.1172 26.9709 33.4462 26.8869 33.2852C26.8449 33.2082 26.7854 33.1382 26.7399 33.0612C26.6629 32.9352 26.5929 32.8057 26.5264 32.6762C26.5054 32.6342 26.4564 32.4907 26.4284 32.4732C26.4354 32.4767 26.5614 32.8372 26.5054 32.6517C26.4074 32.3297 26.2884 32.0182 26.2184 31.6857C26.2009 31.5982 26.1344 31.1572 26.1694 31.4512C26.2044 31.7732 26.1519 31.2097 26.1484 31.1467C26.1274 30.8142 26.1379 30.4817 26.1659 30.1457C26.1764 30.0127 26.1869 29.8797 26.2009 29.7467C26.2079 29.6732 26.2184 29.5962 26.2254 29.5227C26.2569 29.2042 26.2114 29.6487 26.2044 29.6802C26.2919 29.3932 26.3024 29.0607 26.3654 28.7667C26.4984 28.1402 26.6699 27.5242 26.8764 26.9187C26.9674 26.6457 27.0689 26.3762 27.1739 26.1102C27.1879 26.0787 27.2334 25.9142 27.2684 25.8792C27.1214 26.0227 27.1389 26.1732 27.2264 25.9807C27.3034 25.8092 27.3804 25.6377 27.4574 25.4662C28.0139 24.2832 28.6894 23.1562 29.4664 22.1027C29.5154 22.0362 29.5679 21.9697 29.6169 21.8997C29.7674 21.6967 29.3964 22.1727 29.5574 21.9767C29.6519 21.8647 29.7394 21.7492 29.8339 21.6372C30.0474 21.3817 30.2644 21.1332 30.4919 20.8882C30.9364 20.4122 31.4054 19.9607 31.9024 19.5407C32.0214 19.4392 32.1579 19.3482 32.2734 19.2397C32.2769 19.2362 31.9654 19.4707 32.1299 19.3517C32.1929 19.3062 32.2559 19.2572 32.3189 19.2117C32.5709 19.0297 32.8264 18.8582 33.0889 18.6937C33.3304 18.5432 33.5789 18.4032 33.8309 18.2737C33.9639 18.2037 34.0969 18.1407 34.2334 18.0777C34.2894 18.0497 34.3909 18.0217 34.4364 17.9867C34.3839 18.0287 34.0584 18.1372 34.2964 18.0462C34.8354 17.8432 35.3814 17.6717 35.9484 17.5702C36.0149 17.5597 36.0954 17.5562 36.1584 17.5352C36.1759 17.5317 35.7244 17.5772 35.9239 17.5667C36.0639 17.5597 36.2039 17.5387 36.3439 17.5317C36.4664 17.5247 36.5889 17.5177 36.7114 17.5212C36.7779 17.5212 36.8409 17.5317 36.9074 17.5387C37.2259 17.5597 36.5224 17.4722 36.7499 17.5142C37.2259 17.6017 37.6774 17.7172 38.1324 17.8817C38.3739 17.9692 37.6914 17.6787 38.0974 17.8747C38.1919 17.9202 38.2829 17.9657 38.3739 18.0182C38.5909 18.1372 38.8044 18.2702 39.0074 18.4137C39.0424 18.4382 39.0774 18.4662 39.1124 18.4907C39.2944 18.6132 38.7764 18.2177 38.9444 18.3612C39.0214 18.4277 39.1019 18.4907 39.1789 18.5607C39.3679 18.7287 39.5464 18.9037 39.7144 19.0892C39.7844 19.1662 39.8544 19.2432 39.9209 19.3237C39.9594 19.3692 39.9979 19.4182 40.0364 19.4637C40.2219 19.6807 39.9174 19.3097 39.9139 19.3027C40.0469 19.5092 40.2009 19.6982 40.3339 19.9082C40.6069 20.3352 40.8449 20.7797 41.0549 21.2417C41.0864 21.3117 41.2509 21.6932 41.1179 21.3747C40.9849 21.0562 41.1424 21.4412 41.1704 21.5147C41.2719 21.7772 41.3664 22.0432 41.4539 22.3092C41.7829 23.3207 41.9754 24.3497 42.1539 25.3927C42.1959 25.6307 42.1014 24.9657 42.1294 25.2037C42.1364 25.2737 42.1469 25.3402 42.1539 25.4102C42.1679 25.5292 42.1819 25.6482 42.1924 25.7707C42.2204 26.0437 42.2449 26.3167 42.2624 26.5897C42.2974 27.1287 42.3149 27.6712 42.3149 28.2102C42.3149 28.7177 42.2974 29.2217 42.2624 29.7292C42.2449 29.9637 42.2274 30.1982 42.2029 30.4327C42.1889 30.5552 42.1784 30.6777 42.1644 30.8002C42.1119 31.2517 42.2099 30.5027 42.1714 30.7512C42.0804 31.3497 41.9649 31.9447 41.7794 32.5222C41.7374 32.6517 41.6884 32.7812 41.6464 32.9107C41.4994 33.3412 41.8144 32.5817 41.6219 32.9737C41.5029 33.2117 41.3839 33.4497 41.2369 33.6737C41.1774 33.7612 41.1109 33.8452 41.0549 33.9362C41.3524 33.4637 41.1949 33.7542 41.0724 33.8872C40.9989 33.9642 40.9149 34.0307 40.8449 34.1077C40.8029 34.1532 40.6489 34.2617 40.9149 34.0587C41.1809 33.8557 40.9954 34.0027 40.9254 34.0447C40.8449 34.0937 40.7609 34.1357 40.6839 34.1847C40.4599 34.3282 41.1669 34.0447 40.8519 34.1112C40.7924 34.1252 40.6524 34.1462 40.6034 34.1742C40.4879 34.2442 40.9394 34.0832 40.9429 34.1287C40.9429 34.1357 40.7644 34.1357 40.7574 34.1357C40.4179 34.1567 41.0619 34.2022 40.9744 34.1742C40.9079 34.1532 40.8274 34.1392 40.7574 34.1217C40.3899 34.0342 41.1144 34.3282 40.9009 34.1847C40.8344 34.1392 40.7119 34.0447 40.6349 34.0237C40.5229 33.9922 40.8554 34.1882 40.8694 34.2057C40.8484 34.1742 40.7854 34.1357 40.7574 34.1077C40.6839 34.0342 40.6104 33.9607 40.5369 33.8837C40.5089 33.8522 40.4634 33.7752 40.4319 33.7577C40.4249 33.7542 40.6769 34.1112 40.5929 33.9642C40.5264 33.8452 40.4389 33.7367 40.3724 33.6212C40.3059 33.5057 40.2464 33.3937 40.1904 33.2747C40.1624 33.2152 40.1379 33.1417 40.1064 33.0857C40.1029 33.0787 40.2464 33.4707 40.1939 33.2817C40.1029 32.9597 39.9769 32.6552 39.8964 32.3297C39.8229 32.0287 39.7634 31.7207 39.7144 31.4162C39.6269 30.8597 39.7459 31.7662 39.7214 31.4757C39.7109 31.3602 39.6969 31.2482 39.6899 31.1327C39.6584 30.7092 39.6584 30.2857 39.6759 29.8622C39.6864 29.6417 39.7004 29.4247 39.7214 29.2042C39.7319 29.0992 39.7424 28.9942 39.7529 28.8892C39.7599 28.8297 39.7669 28.7667 39.7739 28.7072C39.8124 28.3572 39.7144 29.0922 39.7494 28.8822C39.9209 27.8602 40.1309 26.8557 40.4354 25.8652C40.5894 25.3542 40.7644 24.8502 40.9569 24.3532C40.9989 24.2412 41.0444 24.1257 41.0899 24.0137C41.1144 23.9507 41.1424 23.8842 41.1669 23.8212C41.2824 23.5377 41.1109 23.9577 41.1004 23.9787C41.2264 23.7337 41.3244 23.4712 41.4434 23.2227C41.9019 22.2602 42.4269 21.3292 43.0429 20.4577C43.1094 20.3632 43.1759 20.2722 43.2424 20.1812C43.5224 19.8032 43.0569 20.4087 43.2424 20.1742C43.4034 19.9782 43.5609 19.7822 43.7289 19.5932C44.0509 19.2327 44.3974 18.8897 44.7649 18.5747C44.8419 18.5082 44.9224 18.4452 45.0029 18.3822C45.1709 18.2387 44.6494 18.6377 44.8314 18.5152C44.8664 18.4907 44.9014 18.4627 44.9364 18.4382C45.1324 18.3052 45.3284 18.1687 45.5349 18.0497C45.7134 17.9482 45.8954 17.8607 46.0774 17.7697C46.3434 17.6367 45.6259 17.9377 45.9654 17.8187C46.0774 17.7802 46.1894 17.7382 46.3014 17.7032C46.4904 17.6437 46.6794 17.5982 46.8754 17.5632C46.9279 17.5527 46.9804 17.5492 47.0294 17.5387C47.2044 17.5002 46.6934 17.5737 46.7284 17.5807C46.8474 17.5982 46.9979 17.5562 47.1204 17.5527C47.3059 17.5492 47.4914 17.5702 47.6769 17.5702C47.9499 17.5737 47.4249 17.5317 47.4214 17.5317C47.4739 17.5457 47.5299 17.5457 47.5824 17.5597C47.7049 17.5842 47.8274 17.6087 47.9464 17.6402C47.9849 17.6507 48.0304 17.6682 48.0689 17.6752C48.3104 17.7067 47.9149 17.6087 47.8764 17.5807C47.9709 17.6542 48.1179 17.7032 48.2229 17.7627C48.4469 17.8922 48.6464 18.0602 48.8704 18.1862C48.8529 18.1757 48.5029 17.8817 48.7234 18.0742C48.7724 18.1162 48.8214 18.1582 48.8704 18.2002C48.9544 18.2737 49.0384 18.3542 49.1224 18.4312C49.3114 18.6132 49.4899 18.8092 49.6579 19.0087C49.6999 19.0612 49.7419 19.1137 49.7839 19.1627C49.9309 19.3377 49.5529 18.8337 49.6754 19.0262C49.7384 19.1242 49.8154 19.2187 49.8819 19.3167C50.0394 19.5442 50.1829 19.7787 50.3229 20.0202C50.4629 20.2617 50.5959 20.5172 50.7184 20.7727C50.7744 20.8882 50.8269 21.0002 50.8794 21.1157C50.9109 21.1822 50.9354 21.2487 50.9669 21.3152C51.0649 21.5217 50.7884 20.8637 50.9284 21.2242C51.8104 23.4642 52.2969 25.8197 52.6889 28.1892C52.8674 29.2602 53.0214 30.3382 53.1929 31.4127C53.3469 32.3787 54.5999 32.9982 55.4819 32.7147C56.5284 32.3752 56.9449 31.4582 56.7839 30.4257L56.7769 30.4082Z" fill="#E84D59"/>
        <path d="M26.9817 34.3768C28.1048 34.3768 29.0152 32.9603 29.0152 31.2128C29.0152 29.4654 28.1048 28.0488 26.9817 28.0488C25.8587 28.0488 24.9482 29.4654 24.9482 31.2128C24.9482 32.9603 25.8587 34.3768 26.9817 34.3768Z" fill="black"/>
        <path d="M40.4881 34.5731C41.6112 34.5731 42.5216 33.1565 42.5216 31.4091C42.5216 29.6617 41.6112 28.2451 40.4881 28.2451C39.365 28.2451 38.4546 29.6617 38.4546 31.4091C38.4546 33.1565 39.365 34.5731 40.4881 34.5731Z" fill="black"/>
        <path d="M50.4911 43.2251C51.2961 47.2711 48.8181 51.2786 44.7511 52.2096C40.6596 53.1441 36.7501 50.5226 35.7177 46.5501C35.4762 45.6226 34.0411 46.0146 34.2826 46.9456C35.5251 51.7196 40.2782 54.7646 45.1467 53.6446C50.0432 52.5211 52.8851 47.6456 51.9261 42.8296C51.7406 41.8916 50.3021 42.2871 50.4911 43.2251Z" fill="black"/>
    </g>
    <defs>
        <clipPath id="clip0_605_11651">
            <rect width="70" height="70" fill="white"/>
        </clipPath>
    </defs>
</svg>