<svg width="375" height="667" viewBox="0 0 375 667" fill="none" xmlns="http://www.w3.org/2000/svg">
<rect width="375" height="667" fill="#FCF9D1"/>
<path d="M103.566 298.128C99.6059 298.128 96.4859 296.352 96.4859 293.088C96.4859 289.824 99.6059 288.048 103.566 288.048C107.526 288.048 110.646 289.824 110.646 293.088C110.646 296.352 107.526 298.128 103.566 298.128ZM93.4139 300.984C93.4139 300.552 93.7019 300.192 94.2059 300.192C94.2779 300.192 94.3739 300.192 94.4459 300.216C97.2059 300.912 100.326 301.368 103.566 301.368C106.83 301.368 109.926 300.912 112.686 300.216C112.758 300.192 112.854 300.192 112.926 300.192C113.43 300.192 113.718 300.576 113.718 300.984C113.718 301.296 113.526 301.608 113.142 301.704C110.55 302.424 107.55 302.832 104.43 302.904V309.072C104.43 309.648 104.022 309.912 103.566 309.912C103.11 309.912 102.702 309.648 102.702 309.072V302.904C99.5819 302.832 96.5819 302.424 93.9899 301.704C93.5819 301.608 93.4139 301.296 93.4139 300.984ZM98.2139 293.088C98.2139 295.392 100.638 296.64 103.566 296.64C106.494 296.64 108.918 295.392 108.918 293.088C108.918 290.784 106.494 289.536 103.566 289.536C100.638 289.536 98.2139 290.784 98.2139 293.088ZM132.683 288.216C132.683 287.088 134.411 287.064 134.411 288.216V309.168C134.411 310.32 132.683 310.296 132.683 309.168V288.216ZM117.443 295.992C117.443 295.368 117.803 295.056 118.499 295.056H125.387V290.424H117.995C116.843 290.424 116.843 288.912 117.995 288.912H126.035C126.731 288.912 127.091 289.224 127.091 289.848V295.776C127.091 296.16 126.803 296.496 126.251 296.496H119.147V300.84C119.147 301.296 119.291 301.512 119.771 301.656C120.491 301.848 122.099 301.968 123.251 301.968C124.523 301.968 126.323 301.776 128.027 301.272C129.083 300.96 129.443 302.376 128.387 302.712C126.611 303.264 124.475 303.456 123.251 303.456C122.051 303.456 120.035 303.336 118.619 302.928C117.731 302.688 117.443 302.136 117.443 301.224V295.992ZM154.143 288.216C154.143 287.64 154.551 287.376 155.007 287.376C155.463 287.376 155.871 287.64 155.871 288.216V292.848H158.607C159.183 292.848 159.447 293.208 159.447 293.616C159.447 294.024 159.183 294.384 158.607 294.384H155.871V301.968C155.871 302.544 155.463 302.808 155.007 302.808C154.551 302.808 154.143 302.544 154.143 301.968V288.216ZM139.599 289.608C139.599 289.032 139.959 288.72 140.655 288.72H148.623C149.319 288.72 149.679 289.032 149.679 289.608V296.76C149.679 297.672 149.511 297.936 148.911 298.248C148.071 298.728 146.607 299.04 144.639 299.04C142.671 299.04 141.207 298.728 140.367 298.248C139.767 297.936 139.599 297.672 139.599 296.76V289.608ZM141.279 296.544C141.279 296.904 141.351 297.048 141.759 297.192C142.383 297.408 143.463 297.552 144.639 297.552C145.815 297.552 146.919 297.408 147.519 297.192C147.927 297.048 147.999 296.904 147.999 296.544V290.208H141.279V296.544ZM142.215 302.544C142.215 301.968 142.623 301.704 143.079 301.704C143.535 301.704 143.943 301.968 143.943 302.544V307.608C143.943 307.824 144.111 307.992 144.327 307.992H155.679C156.255 307.992 156.519 308.352 156.519 308.76C156.519 309.168 156.255 309.528 155.679 309.528H143.535C142.767 309.528 142.215 308.976 142.215 308.208V302.544ZM177.812 288.216C177.812 287.64 178.22 287.376 178.676 287.376C179.132 287.376 179.54 287.64 179.54 288.216V309.168C179.54 309.744 179.132 310.008 178.676 310.008C178.22 310.008 177.812 309.744 177.812 309.168V288.216ZM161.108 304.776C161.108 304.368 161.396 304.032 161.9 304.032C161.972 304.032 162.068 304.032 162.14 304.056C163.604 304.464 165.98 304.608 168.236 304.608C170.54 304.608 173.348 304.2 174.932 303.624C175.196 303.528 175.316 303.528 175.388 303.528C175.892 303.528 176.18 303.84 176.18 304.224C176.18 304.536 175.988 304.824 175.604 304.968C173.732 305.664 170.708 306.096 168.236 306.096C165.788 306.096 163.268 305.904 161.684 305.472C161.276 305.376 161.108 305.088 161.108 304.776ZM162.428 294.408C162.428 290.808 164.948 288.552 168.236 288.552C171.524 288.552 174.044 290.808 174.044 294.408C174.044 298.008 171.524 300.264 168.236 300.264C164.948 300.264 162.428 298.008 162.428 294.408ZM164.108 294.408C164.108 297.216 166.028 298.8 168.236 298.8C170.42 298.8 172.364 297.216 172.364 294.408C172.364 291.6 170.444 290.016 168.236 290.016C166.028 290.016 164.108 291.6 164.108 294.408ZM198.416 290.64V289.704C198.416 289.128 198.824 288.864 199.28 288.864C199.736 288.864 200.144 289.128 200.144 289.704V290.64C200.144 291.768 200.288 292.512 200.864 293.496C202.064 295.632 204.176 297.168 206.672 298.152C207.152 298.344 207.344 298.632 207.344 298.944C207.344 299.352 206.984 299.736 206.456 299.736C206.336 299.736 206.192 299.712 206.048 299.664C203.384 298.704 201.08 296.76 199.784 294.864C199.52 294.432 199.352 294.12 199.28 293.928C199.208 294.072 199.016 294.48 198.776 294.864C197.456 296.76 195.176 298.704 192.488 299.664C192.344 299.712 192.224 299.736 192.08 299.736C191.552 299.736 191.216 299.352 191.216 298.968C191.216 298.656 191.408 298.344 191.888 298.152C194.384 297.168 196.52 295.632 197.696 293.496C198.272 292.488 198.416 291.768 198.416 290.64ZM189.128 305.352C189.128 304.92 189.416 304.56 189.92 304.56C189.992 304.56 190.088 304.56 190.16 304.584C192.92 305.28 196.04 305.736 199.28 305.736C202.544 305.736 205.64 305.28 208.4 304.584C208.472 304.56 208.568 304.56 208.64 304.56C209.144 304.56 209.432 304.944 209.432 305.352C209.432 305.664 209.24 305.976 208.856 306.072C206.024 306.864 202.712 307.272 199.28 307.272C195.848 307.272 192.536 306.864 189.704 306.072C189.296 305.976 189.128 305.664 189.128 305.352ZM221.845 307.272C218.413 307.272 215.101 306.864 212.269 306.072C211.861 305.976 211.693 305.664 211.693 305.352C211.693 304.92 211.981 304.56 212.485 304.56C212.557 304.56 212.653 304.56 212.725 304.584C215.485 305.28 218.605 305.736 221.845 305.736C225.109 305.736 228.205 305.28 230.965 304.584C231.037 304.56 231.133 304.56 231.205 304.56C231.709 304.56 231.997 304.944 231.997 305.352C231.997 305.664 231.805 305.976 231.421 306.072C228.589 306.864 225.277 307.272 221.845 307.272ZM213.517 298.56C213.517 298.152 213.805 297.816 214.309 297.816C214.381 297.816 214.477 297.816 214.549 297.84C215.293 298.008 216.229 298.176 217.261 298.32V290.496H214.909C214.333 290.496 214.069 290.16 214.069 289.752C214.069 289.368 214.333 289.008 214.909 289.008H228.781C229.357 289.008 229.621 289.368 229.621 289.752C229.621 290.16 229.357 290.496 228.781 290.496H226.429V298.32C227.461 298.176 228.397 298.008 229.141 297.84C229.213 297.816 229.309 297.816 229.381 297.816C229.885 297.816 230.173 298.152 230.173 298.56C230.173 298.92 229.957 299.16 229.477 299.28C227.701 299.736 224.797 300.096 221.845 300.096C218.893 300.096 215.989 299.736 214.213 299.28C213.733 299.16 213.517 298.92 213.517 298.56ZM218.989 298.488C219.925 298.56 220.909 298.608 221.845 298.608C222.781 298.608 223.765 298.56 224.701 298.488V290.496H218.989V298.488ZM252.329 305.808C252.329 308.208 250.025 310.056 245.921 310.056C241.817 310.056 239.513 308.208 239.513 305.808C239.513 303.384 241.817 301.512 245.921 301.512C250.025 301.512 252.329 303.384 252.329 305.808ZM235.721 293.832C235.721 293.208 236.081 292.896 236.777 292.896H243.761V289.896H236.273C235.121 289.896 235.121 288.432 236.273 288.432H244.409C245.105 288.432 245.465 288.744 245.465 289.368V293.52C245.465 293.904 245.177 294.24 244.625 294.24H237.425V296.808C237.425 297.288 237.569 297.456 238.049 297.624C238.745 297.84 240.545 297.936 241.457 297.936C242.489 297.936 244.457 297.744 246.161 297.24C247.217 296.928 247.577 298.344 246.521 298.68C244.745 299.232 242.681 299.424 241.457 299.424C240.257 299.424 238.289 299.328 236.897 298.896C236.009 298.632 235.721 298.104 235.721 297.192V293.832ZM241.241 305.808C241.241 307.32 242.897 308.568 245.945 308.568C248.945 308.568 250.601 307.32 250.601 305.808C250.601 304.248 248.945 302.976 245.945 302.976C242.897 302.976 241.241 304.248 241.241 305.808ZM250.961 288.216C250.961 287.088 252.689 287.064 252.689 288.216V299.952C252.689 301.104 250.961 301.08 250.961 299.952V288.216ZM276.43 297.816C277.006 297.816 277.27 298.152 277.27 298.56C277.27 298.944 277.006 299.304 276.43 299.304H257.518C256.942 299.304 256.678 298.944 256.678 298.56C256.678 298.152 256.942 297.816 257.518 297.816H276.43ZM259.726 302.136C259.726 301.752 259.99 301.416 260.566 301.416H272.686C273.382 301.416 273.742 301.728 273.742 302.304V305.472C273.742 305.952 273.454 306.288 272.806 306.288H261.694V308.496H273.718C274.294 308.496 274.558 308.832 274.558 309.216C274.558 309.6 274.294 309.936 273.718 309.936H261.022C260.326 309.936 259.966 309.624 259.966 309.048V305.832C259.966 305.256 260.326 304.944 261.022 304.944H272.014V302.856H260.566C259.99 302.856 259.726 302.52 259.726 302.136ZM260.494 291.696C260.494 289.152 263.038 287.544 266.974 287.544C270.91 287.544 273.454 289.152 273.454 291.696C273.454 294.24 270.91 295.848 266.974 295.848C263.038 295.848 260.494 294.24 260.494 291.696ZM262.222 291.696C262.222 293.352 264.07 294.408 266.974 294.408C269.878 294.408 271.726 293.352 271.726 291.696C271.726 290.04 269.878 288.984 266.974 288.984C264.07 288.984 262.222 290.04 262.222 291.696ZM128.124 316.216C128.124 315.64 128.532 315.376 128.988 315.376C129.444 315.376 129.852 315.64 129.852 316.216V320.848H132.588C133.164 320.848 133.428 321.208 133.428 321.616C133.428 322.024 133.164 322.384 132.588 322.384H129.852V329.968C129.852 330.544 129.444 330.808 128.988 330.808C128.532 330.808 128.124 330.544 128.124 329.968V316.216ZM113.58 317.608C113.58 317.032 113.94 316.72 114.636 316.72H122.604C123.3 316.72 123.66 317.032 123.66 317.608V324.76C123.66 325.672 123.492 325.936 122.892 326.248C122.052 326.728 120.588 327.04 118.62 327.04C116.652 327.04 115.188 326.728 114.348 326.248C113.748 325.936 113.58 325.672 113.58 324.76V317.608ZM115.26 324.544C115.26 324.904 115.332 325.048 115.74 325.192C116.364 325.408 117.444 325.552 118.62 325.552C119.796 325.552 120.9 325.408 121.5 325.192C121.908 325.048 121.98 324.904 121.98 324.544V318.208H115.26V324.544ZM116.196 330.544C116.196 329.968 116.604 329.704 117.06 329.704C117.516 329.704 117.924 329.968 117.924 330.544V335.608C117.924 335.824 118.092 335.992 118.308 335.992H129.66C130.236 335.992 130.5 336.352 130.5 336.76C130.5 337.168 130.236 337.528 129.66 337.528H117.516C116.748 337.528 116.196 336.976 116.196 336.208V330.544ZM139.337 322.48C138.449 322.192 138.185 321.832 138.185 320.824V316.936C138.185 316.36 138.545 316.048 139.241 316.048H151.241C151.817 316.048 152.081 316.384 152.081 316.792C152.081 317.176 151.817 317.536 151.241 317.536H139.913V320.488C139.913 320.968 140.033 321.112 140.513 321.256C141.689 321.568 143.369 321.64 145.241 321.64C147.209 321.64 149.609 321.4 151.649 320.848C151.745 320.824 151.817 320.8 151.913 320.8C152.369 320.8 152.633 321.16 152.633 321.544C152.633 321.856 152.441 322.168 152.009 322.288C149.897 322.888 147.401 323.128 145.241 323.128C143.081 323.128 140.609 322.912 139.337 322.48ZM134.945 325.984C134.945 325.576 135.209 325.24 135.785 325.24H154.697C155.273 325.24 155.537 325.576 155.537 325.984C155.537 326.368 155.273 326.728 154.697 326.728H135.785C135.209 326.728 134.945 326.368 134.945 325.984ZM137.849 329.896C137.849 329.512 138.113 329.176 138.689 329.176H151.097C151.793 329.176 152.153 329.488 152.153 330.064V333.352C152.153 333.832 151.865 334.168 151.217 334.168H139.817V336.496H152.129C152.705 336.496 152.969 336.832 152.969 337.216C152.969 337.6 152.705 337.936 152.129 337.936H139.145C138.449 337.936 138.089 337.624 138.089 337.048V333.712C138.089 333.136 138.449 332.824 139.145 332.824H150.425V330.616H138.689C138.113 330.616 137.849 330.28 137.849 329.896ZM174.358 316.216C174.358 315.64 174.766 315.376 175.222 315.376C175.678 315.376 176.086 315.64 176.086 316.216V337.168C176.086 337.744 175.678 338.008 175.222 338.008C174.766 338.008 174.358 337.744 174.358 337.168V324.472H169.942C169.87 329.032 167.782 331.792 164.278 331.792C160.726 331.792 158.71 328.96 158.71 324.256C158.71 319.6 160.726 316.72 164.278 316.72C167.47 316.72 169.486 319.072 169.87 322.936H174.358V316.216ZM160.438 324.256C160.438 328 161.95 330.304 164.302 330.304C166.702 330.304 168.214 328 168.214 324.256C168.214 320.56 166.702 318.184 164.302 318.184C161.95 318.184 160.438 320.56 160.438 324.256ZM202.93 321.112C202.93 321.952 202.666 322.336 201.898 322.576C200.722 322.96 198.778 323.224 196.69 323.272V325.6H205.282C205.858 325.6 206.122 325.936 206.122 326.344C206.122 326.728 205.858 327.088 205.282 327.088H186.37C185.794 327.088 185.53 326.728 185.53 326.344C185.53 325.936 185.794 325.6 186.37 325.6H194.962V323.272C192.874 323.224 190.93 322.96 189.754 322.576C188.986 322.336 188.722 321.952 188.722 321.112V316.816C188.722 316.312 189.082 315.952 189.586 315.952C190.09 315.952 190.45 316.312 190.45 316.816V317.92H201.202V316.816C201.202 316.312 201.562 315.952 202.066 315.952C202.57 315.952 202.93 316.312 202.93 316.816V321.112ZM188.434 329.896C188.434 329.512 188.698 329.176 189.274 329.176H201.682C202.378 329.176 202.738 329.488 202.738 330.064V333.352C202.738 333.832 202.45 334.168 201.802 334.168H190.402V336.496H202.714C203.29 336.496 203.554 336.832 203.554 337.216C203.554 337.6 203.29 337.936 202.714 337.936H189.73C189.034 337.936 188.674 337.624 188.674 337.048V333.712C188.674 333.136 189.034 332.824 189.73 332.824H201.01V330.616H189.274C188.698 330.616 188.434 330.28 188.434 329.896ZM190.45 320.776C190.45 321.112 190.594 321.256 190.882 321.328C191.938 321.616 193.906 321.808 195.826 321.808C197.746 321.808 199.714 321.616 200.77 321.328C201.058 321.256 201.202 321.112 201.202 320.776V319.36H190.45V320.776ZM224.078 316.216C224.078 315.088 225.806 315.064 225.806 316.216V323.008H228.302C229.454 323.008 229.454 324.544 228.302 324.544H225.806V337.168C225.806 338.32 224.078 338.296 224.078 337.168V316.216ZM208.958 329.224C211.694 325.696 212.654 322.696 212.774 318.64H209.582C208.454 318.64 208.454 317.104 209.582 317.104H213.638C214.19 317.104 214.526 317.464 214.502 317.944C214.238 323.416 213.11 326.728 210.254 330.304C209.51 331.216 208.262 330.16 208.958 329.224ZM215.63 330.736C218.006 326.752 218.87 323.392 219.038 318.544H216.062C215.174 318.544 215.174 317.008 216.062 317.008H219.878C220.43 317.008 220.766 317.368 220.742 317.848C220.454 324.28 219.494 327.616 216.998 331.672C216.422 332.56 215.078 331.648 215.63 330.736ZM240.955 335.272C237.523 335.272 234.211 334.864 231.379 334.072C230.971 333.976 230.803 333.664 230.803 333.352C230.803 332.92 231.091 332.56 231.595 332.56C231.667 332.56 231.763 332.56 231.835 332.584C233.275 332.944 234.811 333.256 236.419 333.448V327.184L236.371 327.112C234.787 326.056 233.875 324.448 233.875 322.456C233.875 318.976 236.707 316.576 240.955 316.576C245.203 316.576 248.035 318.976 248.035 322.456C248.035 324.448 247.123 326.056 245.539 327.112L245.491 327.184V333.448C247.099 333.256 248.635 332.944 250.075 332.584C250.147 332.56 250.243 332.56 250.315 332.56C250.819 332.56 251.107 332.944 251.107 333.352C251.107 333.664 250.915 333.976 250.531 334.072C247.699 334.864 244.387 335.272 240.955 335.272ZM235.603 322.456C235.603 325.024 237.715 326.848 240.955 326.848C244.195 326.848 246.307 325.024 246.307 322.456C246.307 319.888 244.195 318.064 240.955 318.064C237.715 318.064 235.603 319.888 235.603 322.456ZM238.147 333.64C239.059 333.688 240.019 333.736 240.955 333.736C241.891 333.736 242.851 333.688 243.763 333.64V327.952C242.923 328.216 241.987 328.336 240.955 328.336C239.923 328.336 238.987 328.216 238.147 327.952V333.64ZM257.448 326.128C259.32 325.168 261.456 323.968 261.456 321.496C261.456 319.672 260.256 318.496 258.12 318.544C256.992 318.568 255.984 319.024 255.264 320.128C254.904 320.68 254.496 320.776 254.064 320.536C253.632 320.296 253.488 319.96 253.728 319.48C254.424 318.088 256.08 317.056 258.096 317.056C261.456 317.056 263.208 319.048 263.208 321.544C263.208 324.472 261 326.08 258.504 327.328V329.656C258.504 330.256 258.264 330.52 257.688 330.52C257.088 330.52 256.824 330.256 256.824 329.656V327.112C256.824 326.68 257.016 326.32 257.448 326.128ZM256.488 334.84C256.488 334.192 256.992 333.688 257.688 333.688C258.384 333.688 258.888 334.192 258.888 334.84C258.888 335.512 258.384 336.016 257.688 336.016C256.992 336.016 256.488 335.512 256.488 334.84Z" fill="black"/>
<path d="M133.177 230.88C136.72 240.293 140.374 251.863 150.363 256.313C153.128 257.543 155.985 258.249 159.025 257.919C161.772 257.625 164.308 256.9 166.762 255.625C171.129 253.359 174.636 249.524 177.227 245.395C181.934 237.862 184.891 227.384 180.954 218.943C178.674 214.062 173.199 210.428 167.769 212.382C162.074 214.438 159.757 220.411 159.647 226.072C159.464 235.495 163.429 245.844 171.596 251.047C182.245 257.836 195.393 252.717 203.799 244.771C208.084 240.715 211.453 235.724 213.605 230.228C215.564 225.209 216.452 218.888 213.632 214.016C212.03 211.254 209.256 208.942 206.097 208.263C202.123 207.4 198.442 208.731 195.347 211.226C189.533 215.897 187.757 224.384 188.004 231.485C188.242 238.339 190.55 245.597 196.638 249.395C202.096 252.808 208.935 252.469 214.658 249.964C217.341 248.79 219.74 246.964 222.074 245.22C224.006 243.78 225.902 242.275 227.632 240.605C230.645 237.697 233.117 234.284 235.726 231.026C237.731 228.522 239.782 226.063 241.888 223.65C243.225 222.117 243.509 219.631 241.888 218.144C240.423 216.796 237.823 216.502 236.395 218.144C232.979 222.062 229.784 226.145 226.524 230.201C224.308 232.953 221.928 235.495 219.172 237.715C218.97 237.88 218.769 238.036 218.558 238.201C218.641 238.137 219.254 237.669 218.705 238.091C218.247 238.44 217.78 238.789 217.313 239.128C216.141 239.981 214.951 240.816 213.742 241.615C213.275 241.917 212.808 242.211 212.323 242.477C212.039 242.633 211.746 242.789 211.453 242.927C211.325 242.991 210.336 243.395 211.206 243.055C209.933 243.551 208.651 243.899 207.305 244.119C208.331 243.954 207.333 244.101 207.141 244.119C206.838 244.138 206.545 244.156 206.243 244.165C205.749 244.174 205.264 244.165 204.769 244.129C204.485 244.11 203.68 244.22 204.65 244.129C204.403 244.147 204.046 244.028 203.799 243.973C203.148 243.835 202.526 243.624 201.885 243.413C200.988 243.119 202.608 243.807 201.775 243.367C201.528 243.239 201.271 243.119 201.024 242.982C200.612 242.752 200.237 242.486 199.843 242.229C200.667 242.78 199.916 242.275 199.752 242.138C199.541 241.954 199.33 241.752 199.138 241.55C198.946 241.349 198.754 241.128 198.561 240.917C198.296 240.587 198.314 240.624 198.634 241.027C198.515 240.871 198.406 240.706 198.296 240.55C197.966 240.046 197.682 239.523 197.417 238.981C197.444 239.036 196.941 237.963 197.16 238.449C197.38 238.935 196.931 237.825 196.95 237.88C196.693 237.174 196.483 236.449 196.309 235.715C196.217 235.339 196.144 234.963 196.071 234.586C196.025 234.329 195.979 234.073 195.943 233.825C195.988 234.219 195.979 234.174 195.924 233.696C195.778 232.238 195.723 230.788 195.769 229.32C195.796 228.512 195.869 227.723 195.943 226.916C196.052 225.631 195.796 227.632 196.016 226.365C196.098 225.861 196.19 225.347 196.3 224.852C196.464 224.108 196.666 223.365 196.904 222.64C197.023 222.282 197.151 221.925 197.289 221.576C197.701 220.466 197.105 221.934 197.408 221.31C197.71 220.686 198.003 220.117 198.351 219.548C198.534 219.245 198.735 218.952 198.937 218.658C199.202 218.291 199.211 218.282 198.964 218.612C199.111 218.438 199.266 218.264 199.422 218.099C199.678 217.823 199.953 217.585 200.219 217.319C201.033 216.502 199.797 217.53 200.695 216.915C201.006 216.704 201.317 216.502 201.638 216.328C201.757 216.264 202.782 215.86 201.958 216.144C202.269 216.034 203.762 215.741 202.755 215.842C203.048 215.814 203.35 215.796 203.643 215.796C203.835 215.796 204.027 215.805 204.22 215.823C203.661 215.741 203.597 215.731 204.027 215.823C204.293 215.906 204.568 215.979 204.842 216.053C205.703 216.291 204.183 215.621 204.934 216.098C205.163 216.245 205.41 216.392 205.648 216.53C206.426 216.979 205.108 215.961 205.749 216.603C206.078 216.943 206.408 217.264 206.719 217.621C206.078 216.869 206.664 217.585 206.774 217.759C206.976 218.08 207.141 218.42 207.315 218.768C206.866 217.888 207.269 218.695 207.333 218.906C207.415 219.181 207.47 219.466 207.553 219.741C207.818 220.649 207.553 218.906 207.58 219.851C207.58 220.126 207.608 220.402 207.617 220.677C207.626 221.081 207.626 221.484 207.617 221.897C207.608 222.145 207.589 222.393 207.571 222.64C207.562 222.805 207.543 222.971 207.525 223.145C207.47 223.576 207.489 223.484 207.571 222.87C207.415 222.971 207.333 224.191 207.287 224.411C207.168 224.934 207.031 225.457 206.884 225.971C206.756 226.411 206.61 226.852 206.463 227.283C206.371 227.549 206.271 227.815 206.17 228.072C206.106 228.246 206.033 228.421 205.959 228.604C206.17 228.118 206.188 228.072 206.014 228.467C205.007 230.65 203.835 232.733 202.434 234.687C202.251 234.935 202.068 235.183 201.885 235.431C202.443 234.678 201.821 235.513 201.729 235.623C201.336 236.109 200.933 236.587 200.512 237.055C199.669 238 198.781 238.899 197.847 239.752C197.38 240.183 196.904 240.596 196.41 241C196.309 241.082 195.466 241.743 196.208 241.174C195.961 241.367 195.704 241.55 195.448 241.743C194.423 242.477 193.361 243.165 192.262 243.78C191.712 244.083 191.154 244.376 190.595 244.642C190.311 244.78 190.028 244.908 189.744 245.037C190.614 244.642 189.661 245.064 189.524 245.119C188.37 245.569 187.18 245.936 185.971 246.211C185.669 246.276 185.367 246.34 185.065 246.404C184.864 246.441 183.893 246.496 184.864 246.45C184.241 246.477 183.627 246.523 183.005 246.523C182.419 246.523 181.824 246.496 181.238 246.441L180.954 246.413C180.514 246.358 180.578 246.367 181.146 246.441C180.972 246.477 180.505 246.331 180.331 246.294C179.8 246.184 179.278 246.055 178.766 245.909C178.537 245.835 177.383 245.606 177.291 245.395L177.749 245.587C177.594 245.523 177.438 245.45 177.291 245.376C177.062 245.266 176.843 245.156 176.614 245.037C176.138 244.78 175.671 244.505 175.222 244.202C175.048 244.092 174.883 243.963 174.718 243.853C173.995 243.367 175.387 244.431 174.718 243.863C174.343 243.541 173.968 243.229 173.62 242.89C173.272 242.55 172.924 242.202 172.603 241.835C172.439 241.651 172.283 241.468 172.127 241.275C171.431 240.44 172.365 241.651 171.981 241.101C171.468 240.358 170.964 239.614 170.516 238.835C170.278 238.403 170.04 237.972 169.829 237.522C169.719 237.302 169.618 237.082 169.518 236.853C169.06 235.843 169.673 237.293 169.426 236.651C168.73 234.825 168.163 232.972 167.806 231.045C167.732 230.659 167.668 230.265 167.613 229.87C167.476 229.017 167.714 230.834 167.632 229.971C167.613 229.742 167.577 229.513 167.558 229.283C167.467 228.32 167.43 227.347 167.439 226.375C167.439 226.017 167.458 225.659 167.476 225.301C167.494 225.035 167.714 223.585 167.522 224.558C167.641 223.971 167.751 223.393 167.925 222.824C167.97 222.659 168.062 222.145 168.199 222.035C167.97 222.549 167.952 222.613 168.126 222.227C168.199 222.071 168.273 221.915 168.355 221.769C168.474 221.548 168.602 221.337 168.73 221.126C168.794 221.025 169.28 220.438 168.84 220.934C168.401 221.429 169.307 220.466 169.454 220.31C170.03 219.704 169.353 220.255 169.335 220.365C169.335 220.282 169.792 220.062 169.866 220.016C169.902 219.998 170.397 219.704 170.415 219.732C169.792 219.98 169.673 220.035 170.049 219.897C170.177 219.851 170.305 219.814 170.433 219.778C170.497 219.759 171.001 219.686 171.019 219.649C170.864 219.98 169.966 219.668 170.772 219.713C170.9 219.713 171.047 219.713 171.166 219.713C172.036 219.695 170.955 219.897 170.928 219.668C170.928 219.668 171.477 219.805 171.523 219.814C172.32 219.989 171.495 219.677 171.376 219.713C171.468 219.686 171.871 219.961 171.953 220.007C172.081 220.08 172.21 220.154 172.329 220.236C172.658 220.466 172.585 220.402 172.1 220.035C172.301 220.374 172.86 220.75 173.153 221.044C173.739 221.631 172.851 220.502 173.116 220.97C173.226 221.163 173.382 221.347 173.501 221.539C173.821 222.035 174.078 222.567 174.334 223.099C173.922 222.246 174.371 223.218 174.416 223.365C174.49 223.576 174.563 223.796 174.627 224.007C174.728 224.347 174.81 224.696 174.883 225.044C174.92 225.228 174.947 225.411 174.984 225.586C175.066 225.998 174.792 225.742 174.92 225.108C174.856 225.439 175.002 225.934 175.021 226.274C175.048 226.751 175.048 227.228 175.039 227.705C175.021 228.356 175.149 229.494 174.865 230.081C175.222 229.329 174.957 229.439 174.874 229.944C174.837 230.173 174.801 230.393 174.755 230.623C174.654 231.164 174.545 231.696 174.416 232.228C174.206 233.137 173.949 234.027 173.656 234.917C173.519 235.348 173.363 235.779 173.208 236.21C173.116 236.449 173.034 236.678 172.942 236.908C172.53 237.935 173.134 236.513 172.851 237.137C172.008 239 171.056 240.798 169.911 242.486C169.747 242.725 169.289 243.651 169.023 243.725L169.325 243.34C169.225 243.468 169.115 243.606 169.014 243.734C168.858 243.927 168.694 244.119 168.529 244.312C167.879 245.074 167.183 245.789 166.45 246.468C166.084 246.799 165.709 247.12 165.324 247.432C164.656 247.991 166.048 246.927 165.324 247.422C165.123 247.56 164.93 247.707 164.729 247.845C163.923 248.386 163.081 248.872 162.211 249.276L161.991 249.377C161.607 249.542 161.698 249.505 162.257 249.267C162.11 249.248 161.726 249.469 161.579 249.524C161.122 249.68 160.655 249.826 160.188 249.946C159.757 250.056 159.299 250.102 158.869 250.221C158.329 250.368 159.895 250.129 159.043 250.193C158.713 250.221 158.375 250.258 158.045 250.267C157.532 250.285 157.02 250.267 156.507 250.267C155.628 250.267 157.367 250.515 156.424 250.248C156.141 250.166 155.838 250.111 155.555 250.037C154.996 249.881 154.447 249.68 153.897 249.487C154.007 249.524 154.666 249.845 154.044 249.542C153.705 249.377 153.366 249.221 153.037 249.037C152.551 248.771 152.075 248.478 151.617 248.166C151.388 248.01 151.169 247.845 150.949 247.679C151.773 248.294 151.031 247.725 150.876 247.597C150.033 246.881 149.264 246.083 148.55 245.239C148.367 245.028 148.193 244.808 148.019 244.597C148.669 245.386 148.065 244.652 147.955 244.496C147.625 244.037 147.305 243.578 147.003 243.101C146.389 242.147 145.831 241.165 145.309 240.156C144.787 239.146 144.302 238.128 143.844 237.082C143.734 236.825 143.624 236.568 143.505 236.311C143.917 237.275 143.542 236.394 143.468 236.21C143.258 235.697 143.056 235.183 142.855 234.669C142.104 232.751 141.417 230.806 140.685 228.879C139.952 226.953 138.03 225.466 135.905 226.164C134.056 226.76 132.426 228.916 133.195 230.953L133.177 230.88Z" fill="#FFCC00"/>
<path d="M120.407 487.608C122.111 487.812 123.179 488.616 123.179 490.128C123.179 491.568 122.087 492.528 120.011 492.528C118.955 492.528 117.911 492.168 117.263 491.544C117.107 491.352 117.011 491.088 117.239 490.908C117.443 490.704 117.683 490.788 117.863 490.98C118.427 491.508 119.267 491.784 120.095 491.784C121.535 491.784 122.303 491.184 122.303 490.104C122.303 488.952 121.427 488.508 120.203 488.364L119.783 488.316C118.319 488.148 117.311 487.344 117.311 485.94C117.311 484.62 118.499 483.576 120.083 483.576C120.959 483.576 121.787 483.756 122.363 484.272C122.567 484.464 122.615 484.632 122.483 484.848C122.339 485.028 122.123 485.088 121.883 484.884C121.463 484.56 120.911 484.32 120.107 484.32C119.147 484.32 118.211 484.896 118.211 485.916C118.211 486.984 119.063 487.452 120.011 487.56L120.407 487.608ZM125.439 483.624C125.775 483.624 125.895 483.744 126.111 484.116L130.119 490.872H130.143L130.131 488.196V484.068C130.131 483.756 130.251 483.624 130.563 483.624C130.863 483.624 130.983 483.756 130.983 484.068V492.06C130.983 492.372 130.815 492.504 130.563 492.504C130.215 492.504 130.083 492.384 129.867 492.012L125.871 485.256H125.847L125.859 487.932V492.06C125.859 492.372 125.739 492.504 125.439 492.504C125.127 492.504 125.007 492.372 125.007 492.06V484.068C125.007 483.756 125.175 483.624 125.439 483.624ZM136.351 487.608C138.055 487.812 139.123 488.616 139.123 490.128C139.123 491.568 138.031 492.528 135.955 492.528C134.899 492.528 133.855 492.168 133.207 491.544C133.051 491.352 132.955 491.088 133.183 490.908C133.387 490.704 133.627 490.788 133.807 490.98C134.371 491.508 135.211 491.784 136.039 491.784C137.479 491.784 138.247 491.184 138.247 490.104C138.247 488.952 137.371 488.508 136.147 488.364L135.727 488.316C134.263 488.148 133.255 487.344 133.255 485.94C133.255 484.62 134.443 483.576 136.027 483.576C136.903 483.576 137.731 483.756 138.307 484.272C138.511 484.464 138.559 484.632 138.427 484.848C138.283 485.028 138.067 485.088 137.827 484.884C137.407 484.56 136.855 484.32 136.051 484.32C135.091 484.32 134.155 484.896 134.155 485.916C134.155 486.984 135.007 487.452 135.955 487.56L136.351 487.608ZM147.542 483.696C147.818 483.696 147.986 483.876 147.974 484.116C147.962 484.5 147.926 484.896 147.866 485.256H149.594V483.3C149.594 483.012 149.798 482.88 150.014 482.88C150.242 482.88 150.434 483.012 150.434 483.3V493.344C150.434 493.632 150.242 493.764 150.014 493.764C149.798 493.764 149.594 493.632 149.594 493.344V488.88H147.662C147.374 488.88 147.242 488.712 147.242 488.508C147.242 488.304 147.374 488.136 147.662 488.136H149.594V486H147.902C147.878 486 147.842 486 147.818 485.988H147.71C147.206 487.944 146.018 489.504 144.206 490.668C144.11 490.716 144.026 490.752 143.942 490.752C143.69 490.752 143.498 490.524 143.498 490.296C143.498 490.188 143.546 490.092 143.654 490.008C145.886 488.592 147.038 486.504 147.11 484.464H143.81C143.534 484.464 143.402 484.284 143.402 484.08C143.402 483.876 143.534 483.696 143.81 483.696H147.542ZM151.862 483.108C151.862 482.82 152.066 482.688 152.282 482.688C152.51 482.688 152.702 482.82 152.702 483.108V493.56C152.702 493.848 152.51 493.98 152.282 493.98C152.066 493.98 151.862 493.848 151.862 493.56V483.108ZM162.76 483.108C162.76 482.82 162.964 482.688 163.192 482.688C163.42 482.688 163.624 482.82 163.624 483.108V488.544C163.624 488.832 163.42 488.964 163.192 488.964C162.964 488.964 162.76 488.832 162.76 488.544V485.988H160.672C160.384 485.988 160.252 485.808 160.252 485.604C160.252 485.4 160.384 485.22 160.672 485.22H162.76V483.108ZM154.732 487.956C154.732 487.824 154.804 487.68 154.984 487.596C155.824 487.176 156.748 486.432 157.18 485.616C157.42 485.136 157.468 484.704 157.468 484.164C156.712 484.14 155.968 484.08 155.344 483.984C155.092 483.936 154.996 483.792 154.996 483.624C154.996 483.372 155.164 483.216 155.44 483.252C156.28 483.372 157.252 483.432 158.02 483.432C158.788 483.432 159.664 483.372 160.384 483.264C160.66 483.216 160.828 483.372 160.828 483.624C160.828 483.792 160.732 483.936 160.48 483.984C159.916 484.092 159.148 484.152 158.332 484.176C158.344 484.716 158.404 485.16 158.608 485.592C159.028 486.408 159.916 487.032 160.684 487.452C160.864 487.56 160.948 487.704 160.948 487.836C160.948 488.052 160.792 488.232 160.54 488.232C160.456 488.232 160.372 488.22 160.288 488.172C159.46 487.764 158.296 486.828 157.912 485.916C157.372 486.864 156.496 487.776 155.476 488.268C155.356 488.328 155.26 488.364 155.176 488.364C154.924 488.364 154.732 488.172 154.732 487.956ZM156.916 491.676C156.916 490.248 158.212 489.3 160.24 489.3C162.268 489.3 163.564 490.248 163.564 491.676C163.564 493.08 162.268 494.028 160.24 494.028C158.212 494.028 156.916 493.08 156.916 491.676ZM157.78 491.676C157.78 492.648 158.752 493.284 160.252 493.284C161.728 493.284 162.7 492.648 162.7 491.676C162.7 490.692 161.728 490.032 160.252 490.032C158.752 490.032 157.78 490.692 157.78 491.676ZM170.767 489.288C168.655 489.288 167.227 488.028 167.227 486.288C167.227 484.548 168.655 483.288 170.767 483.288C172.879 483.288 174.307 484.548 174.307 486.288C174.307 488.028 172.879 489.288 170.767 489.288ZM165.691 491.676C165.691 491.46 165.835 491.28 166.087 491.28C166.123 491.28 166.171 491.28 166.207 491.292C167.587 491.64 169.147 491.868 170.767 491.868C172.399 491.868 173.947 491.64 175.327 491.292C175.363 491.28 175.411 491.28 175.447 491.28C175.699 491.28 175.843 491.472 175.843 491.676C175.843 491.832 175.747 491.988 175.555 492.036C174.139 492.432 172.483 492.636 170.767 492.636C169.051 492.636 167.395 492.432 165.979 492.036C165.775 491.988 165.691 491.832 165.691 491.676ZM168.091 486.288C168.091 487.572 169.147 488.544 170.767 488.544C172.387 488.544 173.443 487.572 173.443 486.288C173.443 485.004 172.387 484.032 170.767 484.032C169.147 484.032 168.091 485.004 168.091 486.288ZM182.049 492.672C180.333 492.672 178.677 492.468 177.261 492.072C176.757 491.928 176.937 491.196 177.489 491.328C178.749 491.64 180.153 491.856 181.617 491.892V489.516C180.705 489.492 179.793 489.384 179.085 489.156C178.641 489.012 178.497 488.76 178.497 488.304V486.444C178.497 486.156 178.677 486 179.025 486H184.701V484.128H178.821C178.245 484.128 178.245 483.384 178.821 483.384H185.037C185.385 483.384 185.565 483.54 185.565 483.828V486.372C185.565 486.552 185.421 486.72 185.145 486.72H179.361V488.136C179.361 488.364 179.433 488.472 179.673 488.544C180.189 488.7 181.185 488.784 182.121 488.784C183.105 488.784 184.485 488.628 185.553 488.364C186.081 488.232 186.261 488.952 185.733 489.084C184.749 489.336 183.513 489.492 182.481 489.516V491.892C183.957 491.856 185.349 491.64 186.609 491.328C187.161 491.196 187.341 491.928 186.837 492.072C185.421 492.468 183.765 492.672 182.049 492.672ZM198.783 483.108C198.783 482.82 198.987 482.688 199.215 482.688C199.443 482.688 199.647 482.82 199.647 483.108V485.304H201.015C201.303 485.304 201.435 485.484 201.435 485.688C201.435 485.892 201.303 486.072 201.015 486.072H199.647V489.984C199.647 490.272 199.443 490.404 199.215 490.404C198.987 490.404 198.783 490.272 198.783 489.984V483.108ZM191.427 488.448C191.427 488.304 191.511 488.16 191.715 488.1C193.839 487.44 195.075 486.24 195.531 485.004C195.675 484.62 195.723 484.272 195.699 484.08H191.895C191.619 484.08 191.487 483.9 191.487 483.708C191.487 483.504 191.619 483.336 191.895 483.336H196.203C196.479 483.336 196.611 483.48 196.611 483.66C196.599 484.2 196.515 484.68 196.359 485.172C195.855 486.804 194.391 488.064 192.051 488.832C191.967 488.856 191.871 488.88 191.811 488.88C191.583 488.88 191.427 488.664 191.427 488.448ZM192.939 490.392C192.939 490.104 193.143 489.972 193.371 489.972C193.599 489.972 193.803 490.104 193.803 490.392V492.804C193.803 492.912 193.887 492.996 193.995 492.996H199.551C199.839 492.996 199.971 493.176 199.971 493.38C199.971 493.584 199.839 493.764 199.551 493.764H193.599C193.215 493.764 192.939 493.488 192.939 493.104V490.392ZM210.617 483.108C210.617 482.82 210.821 482.688 211.049 482.688C211.277 482.688 211.481 482.82 211.481 483.108V489.984C211.481 490.272 211.277 490.404 211.049 490.404C210.821 490.404 210.617 490.272 210.617 489.984V487.104H209.069C208.781 487.104 208.649 486.924 208.649 486.732C208.649 486.528 208.781 486.36 209.069 486.36H210.617V485.148H209.069C208.781 485.148 208.649 484.968 208.649 484.776C208.649 484.572 208.781 484.404 209.069 484.404H210.617V483.108ZM202.565 488.112C202.565 487.884 202.745 487.68 203.069 487.74C203.333 487.776 203.597 487.8 203.849 487.824V484.104H203.033C202.745 484.104 202.613 483.948 202.613 483.744C202.613 483.54 202.745 483.36 203.033 483.36H208.409C208.697 483.36 208.829 483.54 208.829 483.744C208.829 483.948 208.697 484.104 208.409 484.104H207.533V487.776C207.953 487.704 208.325 487.644 208.577 487.584C208.661 487.56 208.745 487.536 208.805 487.536C209.033 487.536 209.153 487.716 209.153 487.908C209.153 488.064 209.045 488.22 208.817 488.28C208.001 488.496 206.765 488.64 205.541 488.64C204.509 488.64 203.549 488.592 202.901 488.472C202.649 488.424 202.565 488.28 202.565 488.112ZM204.461 490.272C204.461 489.984 204.665 489.852 204.893 489.852C205.121 489.852 205.325 489.984 205.325 490.272V492.804C205.325 492.912 205.409 492.996 205.517 492.996H211.337C211.625 492.996 211.757 493.176 211.757 493.38C211.757 493.584 211.625 493.764 211.337 493.764H205.121C204.737 493.764 204.461 493.488 204.461 493.104V490.272ZM204.677 487.884C204.965 487.896 205.265 487.896 205.577 487.896C205.925 487.896 206.321 487.884 206.705 487.848V484.104H204.677V487.884ZM221.495 483.624C221.759 483.624 221.903 483.792 221.903 484.02C221.903 484.656 221.807 485.232 221.651 485.856C221.147 487.872 219.803 489.552 217.403 490.788C217.319 490.836 217.247 490.86 217.175 490.86C216.923 490.86 216.755 490.632 216.755 490.404C216.755 490.272 216.815 490.152 216.947 490.08C219.119 488.964 220.415 487.356 220.847 485.616C220.943 485.208 221.003 484.776 221.015 484.392H217.103C216.827 484.392 216.695 484.212 216.695 484.008C216.695 483.804 216.827 483.624 217.103 483.624H221.495ZM224.075 483.108C224.075 482.82 224.279 482.688 224.507 482.688C224.735 482.688 224.939 482.82 224.939 483.108V486.504H226.307C226.595 486.504 226.727 486.684 226.727 486.888C226.727 487.092 226.595 487.272 226.307 487.272H224.939V493.584C224.939 493.872 224.735 494.004 224.507 494.004C224.279 494.004 224.075 493.872 224.075 493.584V483.108ZM236.774 489.984V493.476C236.774 493.764 236.594 493.92 236.246 493.92H230.282C229.934 493.92 229.754 493.764 229.754 493.476V489.984C229.754 489.696 229.958 489.564 230.186 489.564C230.414 489.564 230.618 489.696 230.618 489.984V490.896H235.91V489.984C235.91 489.696 236.114 489.564 236.342 489.564C236.57 489.564 236.774 489.696 236.774 489.984ZM228.086 485.676C228.086 484.152 229.286 483.084 230.978 483.084C232.67 483.084 233.87 484.152 233.87 485.676C233.87 487.212 232.682 488.22 230.978 488.22C229.274 488.22 228.086 487.212 228.086 485.676ZM228.926 485.676C228.926 486.768 229.73 487.488 230.978 487.488C232.226 487.488 233.03 486.768 233.03 485.676C233.03 484.584 232.226 483.816 230.978 483.816C229.73 483.816 228.926 484.584 228.926 485.676ZM235.91 493.176V491.616H230.618V493.176H235.91ZM235.91 483.108C235.91 482.82 236.114 482.688 236.342 482.688C236.57 482.688 236.774 482.82 236.774 483.108V488.304C236.774 488.592 236.57 488.724 236.342 488.724C236.114 488.724 235.91 488.592 235.91 488.304V483.108ZM246.64 483.108C246.64 482.82 246.844 482.688 247.072 482.688C247.3 482.688 247.504 482.82 247.504 483.108V486.864H248.872C249.16 486.864 249.292 487.044 249.292 487.248C249.292 487.452 249.16 487.632 248.872 487.632H247.504V493.584C247.504 493.872 247.3 494.004 247.072 494.004C246.844 494.004 246.64 493.872 246.64 493.584V483.108ZM238.912 484.536C238.912 484.284 239.08 484.116 239.356 484.164C240.052 484.272 241.024 484.344 241.804 484.356V483.108C241.804 482.82 242.02 482.688 242.236 482.688C242.464 482.688 242.668 482.82 242.668 483.108V484.356C243.46 484.344 244.48 484.272 245.068 484.164C245.344 484.104 245.512 484.284 245.512 484.536C245.512 484.704 245.416 484.824 245.164 484.884C244.516 485.028 243.22 485.1 242.236 485.1C241.252 485.1 240.016 485.028 239.26 484.896C239.008 484.848 238.912 484.704 238.912 484.536ZM239.74 488.64C239.74 487.152 240.7 486.096 242.236 486.096C243.772 486.096 244.732 487.152 244.732 488.64C244.732 490.116 243.772 491.16 242.236 491.16C240.7 491.16 239.74 490.116 239.74 488.64ZM240.556 488.64C240.556 489.672 241.192 490.44 242.236 490.44C243.28 490.44 243.916 489.672 243.916 488.64C243.916 487.584 243.28 486.792 242.236 486.792C241.192 486.792 240.556 487.584 240.556 488.64ZM258.474 483.108C258.474 482.82 258.678 482.688 258.906 482.688C259.134 482.688 259.338 482.82 259.338 483.108V493.584C259.338 493.872 259.134 494.004 258.906 494.004C258.678 494.004 258.474 493.872 258.474 493.584V483.108ZM250.71 484.008C250.71 483.804 250.842 483.624 251.118 483.624H255.726C255.99 483.624 256.134 483.792 256.134 484.02C256.134 484.716 256.038 485.232 255.906 485.856C255.462 487.896 253.842 489.972 251.526 490.824C251.442 490.848 251.37 490.872 251.31 490.872C251.034 490.872 250.866 490.656 250.866 490.404C250.866 490.272 250.962 490.128 251.094 490.08C253.182 489.216 254.694 487.5 255.09 485.616C255.174 485.208 255.222 484.776 255.246 484.392H251.118C250.842 484.392 250.71 484.212 250.71 484.008Z" fill="#767676"/>
</svg>
