<svg width="110" height="50" viewBox="0 0 110 50" fill="none" xmlns="http://www.w3.org/2000/svg">
<path d="M0.176755 22.8796C3.72021 32.2934 7.37354 43.8633 17.363 48.3132C20.1281 49.5427 22.9849 50.2492 26.0247 49.9189C28.7716 49.6253 31.3079 48.9004 33.7617 47.6251C38.1292 45.3588 41.6361 41.5236 44.2273 37.3948C48.9336 29.8619 51.891 19.3839 47.9538 10.9427C45.6739 6.06152 40.1985 2.42815 34.7689 4.38247C29.0737 6.43771 26.7572 12.4107 26.6474 18.0718C26.4642 27.4947 30.4289 37.8443 38.5962 43.0467C49.2449 49.8363 62.3932 44.7165 70.7986 36.7708C75.0837 32.7154 78.4532 27.7241 80.6049 22.2282C82.5643 17.2094 83.4525 10.8877 80.6324 6.01565C79.03 3.25392 76.2557 0.941773 73.0968 0.26281C69.123 -0.599656 65.4422 0.730745 62.3474 3.22639C56.5332 7.89656 54.7569 16.3836 55.0041 23.4852C55.2422 30.339 57.5496 37.5966 63.6384 41.3951C69.0955 44.8083 75.9352 44.4688 81.6578 41.964C84.3406 40.7896 86.7395 38.9637 89.0744 37.2204C91.0063 35.7799 92.9017 34.2752 94.6322 32.6053C97.6446 29.6968 100.117 26.2836 102.726 23.0264C104.731 20.5216 106.782 18.0627 108.888 15.6496C110.225 14.1173 110.509 11.6309 108.888 10.1445C107.423 8.79572 104.823 8.50212 103.395 10.1445C99.9794 14.0623 96.7839 18.1452 93.5243 22.2007C91.3085 24.9532 88.9279 27.4947 86.1719 29.7151C85.9704 29.8803 85.769 30.0363 85.5584 30.2014C85.6408 30.1372 86.2543 29.6693 85.7049 30.0913C85.2471 30.44 84.7801 30.7886 84.3132 31.1281C83.1412 31.9814 81.9508 32.8163 80.7422 33.6146C80.2753 33.9174 79.8083 34.211 79.323 34.477C79.0392 34.633 78.7462 34.789 78.4532 34.9266C78.325 34.9909 77.3361 35.3946 78.206 35.0551C76.9332 35.5505 75.6514 35.8992 74.3054 36.1194C75.3309 35.9543 74.3329 36.1011 74.1406 36.1194C73.8384 36.1378 73.5454 36.1561 73.2433 36.1653C72.7489 36.1745 72.2636 36.1653 71.7691 36.1286C71.4853 36.1102 70.6796 36.2203 71.6501 36.1286C71.4029 36.1469 71.0458 36.0277 70.7986 35.9726C70.1485 35.835 69.5259 35.6239 68.8849 35.4129C67.9876 35.1193 69.6083 35.8074 68.7751 35.367C68.5278 35.2386 68.2715 35.1193 68.0243 34.9817C67.6122 34.7523 67.2368 34.4862 66.8431 34.2293C67.6672 34.7798 66.9164 34.2752 66.7515 34.1376C66.541 33.9541 66.3304 33.7522 66.1381 33.5504C65.9458 33.3485 65.7535 33.1283 65.5612 32.9173C65.2957 32.587 65.314 32.6237 65.6345 33.0274C65.5155 32.8714 65.4056 32.7062 65.2957 32.5503C64.9661 32.0456 64.6822 31.5226 64.4167 30.9813C64.4442 31.0364 63.9406 29.9629 64.1603 30.4491C64.3801 30.9354 63.9314 29.8252 63.9497 29.8803C63.6934 29.1738 63.4828 28.449 63.3088 27.7149C63.2172 27.3388 63.144 26.9626 63.0707 26.5864C63.025 26.3295 62.9792 26.0726 62.9426 25.8249C62.9883 26.2194 62.9792 26.1735 62.9242 25.6964C62.7777 24.2376 62.7228 22.7879 62.7686 21.3198C62.7961 20.5124 62.8693 19.7234 62.9426 18.9159C63.0524 17.6314 62.7961 19.6316 63.0158 18.3654C63.0982 17.8608 63.1898 17.347 63.2997 16.8515C63.4645 16.1083 63.6659 15.3652 63.904 14.6403C64.023 14.2825 64.1512 13.9246 64.2885 13.576C64.7006 12.4658 64.1054 13.9338 64.4076 13.3099C64.7097 12.686 65.0027 12.1171 65.3506 11.5483C65.5338 11.2455 65.7352 10.9519 65.9366 10.6583C66.2022 10.2913 66.2113 10.2821 65.9641 10.6124C66.1106 10.4381 66.2663 10.2638 66.4219 10.0986C66.6783 9.82334 66.953 9.58479 67.2185 9.31871C68.0334 8.50212 66.7973 9.52974 67.6946 8.915C68.0059 8.70397 68.3173 8.50212 68.6377 8.32779C68.7568 8.26357 69.7822 7.85986 68.9582 8.14429C69.2695 8.03419 70.762 7.74058 69.7548 7.84151C70.0478 7.81398 70.3499 7.79563 70.6429 7.79563C70.8352 7.79563 71.0275 7.8048 71.2198 7.82315C70.6612 7.74058 70.5971 7.7314 71.0275 7.82315C71.293 7.90573 71.5677 7.97913 71.8424 8.05253C72.7031 8.29109 71.1831 7.6213 71.934 8.09841C72.1629 8.24522 72.4101 8.39202 72.6481 8.52964C73.4264 8.97923 72.1079 7.96078 72.7489 8.60305C73.0785 8.94253 73.4081 9.26366 73.7194 9.62149C73.0785 8.86913 73.6645 9.58479 73.7744 9.75912C73.9758 10.0802 74.1406 10.4197 74.3146 10.7684C73.8659 9.88757 74.2688 10.695 74.3329 10.906C74.4153 11.1813 74.4702 11.4657 74.5526 11.741C74.8182 12.6493 74.5526 10.906 74.5801 11.8511C74.5801 12.1263 74.6076 12.4016 74.6167 12.6768C74.6259 13.0805 74.6259 13.4842 74.6167 13.8971C74.6076 14.1449 74.5893 14.3926 74.5709 14.6403C74.5618 14.8055 74.5435 14.9706 74.5252 15.1449C74.4702 15.5762 74.4885 15.4844 74.5709 14.8697C74.4153 14.9706 74.3329 16.1909 74.2871 16.4111C74.1681 16.9341 74.0307 17.4571 73.8842 17.9709C73.756 18.4113 73.6095 18.8517 73.463 19.283C73.3715 19.549 73.2708 19.8151 73.17 20.072C73.1059 20.2463 73.0327 20.4207 72.9594 20.6042C73.17 20.1179 73.1884 20.072 73.0144 20.4666C72.0072 22.6502 70.8352 24.733 69.4343 26.6873C69.2512 26.9351 69.0681 27.1828 68.8849 27.4305C69.4435 26.6781 68.8208 27.5131 68.7293 27.6232C68.3356 28.1095 67.9327 28.5866 67.5115 29.0545C66.6691 29.9996 65.781 30.8987 64.847 31.752C64.3801 32.1833 63.904 32.5961 63.4095 32.9998C63.3088 33.0824 62.4664 33.743 63.2081 33.1742C62.9609 33.3669 62.7045 33.5504 62.4481 33.743C61.4226 34.477 60.3605 35.1652 59.2618 35.7799C58.7124 36.0827 58.1539 36.3763 57.5953 36.6424C57.3115 36.78 57.0277 36.9085 56.7438 37.0369C57.6136 36.6424 56.6614 37.0644 56.5241 37.1195C55.3704 37.5691 54.1801 37.9361 52.9715 38.2113C52.6693 38.2756 52.3671 38.3398 52.065 38.404C51.8635 38.4407 50.893 38.4958 51.8635 38.4499C51.2409 38.4774 50.6275 38.5233 50.0048 38.5233C49.4188 38.5233 48.8237 38.4958 48.2377 38.4407L47.9538 38.4132C47.5143 38.3581 47.5784 38.3673 48.1461 38.4407C47.9722 38.4774 47.5052 38.3306 47.3312 38.2939C46.8002 38.1838 46.2783 38.0554 45.7655 37.9086C45.5366 37.8352 44.3829 37.6058 44.2914 37.3948L44.7492 37.5874C44.5935 37.5232 44.4379 37.4498 44.2914 37.3764C44.0625 37.2663 43.8427 37.1562 43.6138 37.0369C43.1377 36.78 42.6707 36.5048 42.2221 36.202C42.0481 36.0919 41.8833 35.9634 41.7185 35.8533C40.9951 35.367 42.3869 36.4314 41.7185 35.8625C41.3431 35.5414 40.9677 35.2294 40.6197 34.8899C40.2718 34.5505 39.9239 34.2018 39.6034 33.8348C39.4386 33.6513 39.2829 33.4678 39.1273 33.2751C38.4314 32.4402 39.3653 33.6513 38.9808 33.1008C38.468 32.3576 37.9644 31.6144 37.5158 30.8345C37.2777 30.4033 37.0396 29.972 36.8291 29.5225C36.7192 29.3023 36.6185 29.082 36.5177 28.8527C36.0599 27.8434 36.6734 29.2931 36.4262 28.6508C35.7303 26.825 35.1626 24.9716 34.8055 23.0448C34.7323 22.6594 34.6682 22.2649 34.6133 21.8704C34.4759 21.0171 34.714 22.8338 34.6316 21.9713C34.6133 21.7419 34.5766 21.5125 34.5583 21.2831C34.4668 20.3198 34.4301 19.3472 34.4393 18.3746C34.4393 18.0168 34.4576 17.6589 34.4759 17.3011C34.4942 17.035 34.714 15.5854 34.5217 16.5579C34.6407 15.9707 34.7506 15.3927 34.9246 14.8238C34.9703 14.6587 35.0619 14.1449 35.1992 14.0348C34.9703 14.5486 34.952 14.6128 35.126 14.2274C35.1993 14.0715 35.2725 13.9155 35.3549 13.7687C35.4739 13.5485 35.6021 13.3374 35.7303 13.1264C35.7944 13.0255 36.2797 12.4383 35.8402 12.9337C35.4007 13.4292 36.3072 12.4658 36.4537 12.3098C37.0305 11.7043 36.3529 12.2548 36.3346 12.3649C36.3346 12.2823 36.7924 12.0621 36.8657 12.0162C36.9023 11.9979 37.3967 11.7043 37.4151 11.7318C36.7924 11.9795 36.6734 12.0346 37.0488 11.8969C37.177 11.8511 37.3052 11.8144 37.4334 11.7777C37.4975 11.7593 38.001 11.6859 38.0194 11.6492C37.8637 11.9795 36.9664 11.6676 37.7721 11.7134C37.9003 11.7134 38.0468 11.7134 38.1659 11.7134C39.0357 11.6951 37.9553 11.8969 37.9278 11.6676C37.9278 11.6676 38.4772 11.8052 38.523 11.8144C39.3195 11.9887 38.4955 11.6767 38.3765 11.7134C38.468 11.6859 38.8709 11.9612 38.9533 12.007C39.0815 12.0804 39.2097 12.1538 39.3287 12.2364C39.6583 12.4658 39.5851 12.4016 39.0998 12.0346C39.3012 12.374 39.8598 12.7502 40.1528 13.0438C40.7388 13.631 39.8506 12.5025 40.1161 12.9704C40.226 13.1631 40.3817 13.3466 40.5007 13.5393C40.8212 14.0348 41.0775 14.5669 41.3339 15.0991C40.9219 14.2458 41.3705 15.2184 41.4163 15.3652C41.4896 15.5762 41.5628 15.7964 41.6269 16.0074C41.7276 16.3469 41.81 16.6956 41.8833 17.0442C41.9199 17.2277 41.9474 17.4112 41.984 17.5855C42.0664 17.9984 41.7917 17.7415 41.9199 17.1084C41.8558 17.4387 42.0023 17.9342 42.0206 18.2737C42.0481 18.7508 42.0481 19.2279 42.0389 19.705C42.0206 20.3564 42.1488 21.4942 41.865 22.0814C42.2221 21.329 41.9565 21.4391 41.8741 21.9438C41.8375 22.1731 41.8009 22.3933 41.7551 22.6227C41.6544 23.1641 41.5445 23.6962 41.4163 24.2284C41.2057 25.1367 40.9493 26.0267 40.6563 26.9167C40.519 27.3479 40.3634 27.7792 40.2077 28.2104C40.1161 28.449 40.0337 28.6783 39.9422 28.9077C39.5301 29.9353 40.1344 28.5132 39.8506 29.1371C39.0082 30.9997 38.056 32.798 36.9115 34.4862C36.7467 34.7248 36.2888 35.6515 36.0233 35.7249L36.3255 35.3395C36.2247 35.468 36.1149 35.6056 36.0142 35.734C35.8585 35.9267 35.6937 36.1194 35.5289 36.3121C34.8788 37.0736 34.1829 37.7893 33.4504 38.4683C33.0842 38.7986 32.7088 39.1197 32.3242 39.4316C31.6558 39.9913 33.0475 38.927 32.3242 39.4225C32.1228 39.5601 31.9305 39.7069 31.729 39.8445C30.9233 40.3859 30.0809 40.8721 29.2111 41.2759L28.9913 41.3768C28.6068 41.5419 28.6983 41.5052 29.2569 41.2667C29.1104 41.2483 28.7258 41.4685 28.5793 41.5236C28.1215 41.6796 27.6545 41.8264 27.1876 41.9456C26.7572 42.0557 26.2994 42.1016 25.8691 42.2209C25.3289 42.3677 26.8946 42.1291 26.043 42.1934C25.7134 42.2209 25.3746 42.2576 25.045 42.2668C24.5323 42.2851 24.0195 42.2668 23.5068 42.2668C22.6278 42.2668 24.3675 42.5145 23.4244 42.2484C23.1405 42.1659 22.8384 42.1108 22.5545 42.0374C21.996 41.8814 21.4466 41.6796 20.8973 41.4869C21.0071 41.5236 21.6664 41.8447 21.0438 41.5419C20.705 41.3768 20.3662 41.2208 20.0366 41.0373C19.5513 40.7712 19.0752 40.4776 18.6174 40.1657C18.3885 40.0097 18.1687 39.8445 17.949 39.6794C18.773 40.2941 18.0314 39.7253 17.8757 39.5968C17.0333 38.8811 16.2642 38.0829 15.55 37.2388C15.3669 37.0278 15.1929 36.8075 15.019 36.5965C15.6691 37.3856 15.0647 36.6516 14.9549 36.4956C14.6253 36.0368 14.3048 35.5781 14.0026 35.101C13.3892 34.1467 12.8306 33.165 12.3087 32.1557C11.7868 31.1465 11.3015 30.128 10.8437 29.082C10.7339 28.8251 10.624 28.5682 10.505 28.3113C10.917 29.2747 10.5416 28.3939 10.4683 28.2104C10.2577 27.6966 10.0563 27.1828 9.85487 26.669C9.10406 24.7514 8.41735 22.8062 7.68485 20.8794C6.95235 18.9527 5.02955 17.4663 2.90531 18.1636C1.05575 18.76 -0.57405 20.9161 0.195071 22.953L0.176755 22.8796Z" fill="#FFCC00"/>
</svg>
