<svg xmlns="http://www.w3.org/2000/svg" width="55" height="25" viewBox="0 0 55 25" fill="none">
    <path d="M0.0883777 11.4398C1.8601 16.1467 3.68677 21.9316 8.68148 24.1566C10.0641 24.7713 11.4924 25.1246 13.0124 24.9594C14.3858 24.8126 15.6539 24.4502 16.8809 23.8125C19.0646 22.6794 20.818 20.7618 22.1136 18.6974C24.4668 14.931 25.9455 9.69194 23.9769 5.47136C22.837 3.03076 20.0993 1.21408 17.3845 2.19123C14.5369 3.21885 13.3786 6.20537 13.3237 9.03592C13.2321 13.7474 15.2144 18.9222 19.2981 21.5233C24.6224 24.9181 31.1966 22.3583 35.3993 18.3854C37.5418 16.3577 39.2266 13.8621 40.3024 11.1141C41.2822 8.60468 41.7262 5.44383 40.3162 3.00782C39.515 1.62696 38.1278 0.470884 36.5484 0.131403C34.5615 -0.29983 32.7211 0.365372 31.1737 1.6132C28.2666 3.94828 27.3785 8.1918 27.5021 11.7426C27.6211 15.1695 28.7748 18.7983 31.8192 20.6976C34.5478 22.4041 37.9676 22.2344 40.8289 20.982C42.1703 20.3948 43.3698 19.4819 44.5372 18.6102C45.5032 17.89 46.4508 17.1376 47.3161 16.3027C48.8223 14.8484 50.0584 13.1418 51.3631 11.5132C52.3657 10.2608 53.3912 9.03133 54.4442 7.82479C55.1126 7.05866 55.2545 5.81542 54.4442 5.07224C53.7117 4.39786 52.4115 4.25106 51.6973 5.07224C49.9897 7.03114 48.392 9.07261 46.7621 11.1003C45.6542 12.4766 44.4639 13.7474 43.0859 14.8576C42.9852 14.9401 42.8845 15.0181 42.7792 15.1007C42.8204 15.0686 43.1271 14.8346 42.8524 15.0457C42.6235 15.22 42.3901 15.3943 42.1566 15.5641C41.5706 15.9907 40.9754 16.4082 40.3711 16.8073C40.1376 16.9587 39.9041 17.1055 39.6615 17.2385C39.5196 17.3165 39.3731 17.3945 39.2266 17.4633C39.1625 17.4954 38.6681 17.6973 39.103 17.5275C38.4666 17.7753 37.8257 17.9496 37.1527 18.0597C37.6655 17.9771 37.1664 18.0505 37.0703 18.0597C36.9192 18.0689 36.7727 18.0781 36.6216 18.0826C36.3744 18.0872 36.1318 18.0826 35.8846 18.0643C35.7427 18.0551 35.3398 18.1102 35.8251 18.0643C35.7014 18.0735 35.5229 18.0138 35.3993 17.9863C35.0742 17.9175 34.7629 17.812 34.4425 17.7065C33.9938 17.5597 34.8041 17.9037 34.3875 17.6835C34.2639 17.6193 34.1357 17.5597 34.0121 17.4908C33.8061 17.3762 33.6184 17.2431 33.4216 17.1147C33.8336 17.3899 33.4582 17.1376 33.3758 17.0688C33.2705 16.977 33.1652 16.8761 33.069 16.7752C32.9729 16.6742 32.8768 16.5641 32.7806 16.4586C32.6479 16.2935 32.657 16.3118 32.8172 16.5137C32.7577 16.4357 32.7028 16.3531 32.6479 16.2751C32.483 16.0228 32.3411 15.7613 32.2084 15.4907C32.2221 15.5182 31.9703 14.9814 32.0802 15.2246C32.19 15.4677 31.9657 14.9126 31.9749 14.9401C31.8467 14.5869 31.7414 14.2245 31.6544 13.8575C31.6086 13.6694 31.572 13.4813 31.5354 13.2932C31.5125 13.1647 31.4896 13.0363 31.4713 12.9124C31.4942 13.1097 31.4896 13.0868 31.4621 12.8482C31.3889 12.1188 31.3614 11.3939 31.3843 10.6599C31.398 10.2562 31.4347 9.86168 31.4713 9.45797C31.5262 8.81571 31.398 9.8158 31.5079 9.18272C31.5491 8.9304 31.5949 8.67349 31.6498 8.42576C31.7322 8.05417 31.8329 7.68257 31.952 7.32015C32.0115 7.14124 32.0756 6.96232 32.1443 6.78799C32.3503 6.2329 32.0527 6.96691 32.2038 6.65495C32.3549 6.343 32.5014 6.05857 32.6753 5.77414C32.7669 5.62275 32.8676 5.47594 32.9683 5.32914C33.1011 5.14564 33.1057 5.14105 32.9821 5.3062C33.0553 5.21904 33.1331 5.13187 33.211 5.0493C33.3391 4.91167 33.4765 4.79239 33.6093 4.65935C34.0167 4.25106 33.3987 4.76487 33.8473 4.4575C34.003 4.35199 34.1586 4.25106 34.3189 4.16389C34.3784 4.13178 34.8911 3.92993 34.4791 4.07214C34.6347 4.01709 35.381 3.87029 34.8774 3.92075C35.0239 3.90699 35.175 3.89781 35.3215 3.89781C35.4176 3.89781 35.5137 3.9024 35.6099 3.91158C35.3306 3.87029 35.2986 3.8657 35.5137 3.91158C35.6465 3.95286 35.7839 3.98956 35.9212 4.02627C36.3515 4.14554 35.5916 3.81065 35.967 4.04921C36.0814 4.12261 36.205 4.19601 36.3241 4.26482C36.7132 4.48961 36.054 3.98039 36.3744 4.30152C36.5392 4.47126 36.7041 4.63183 36.8597 4.81074C36.5392 4.43456 36.8322 4.79239 36.8872 4.87956C36.9879 5.04012 37.0703 5.20987 37.1573 5.38419C36.933 4.94378 37.1344 5.34749 37.1664 5.45301C37.2076 5.59063 37.2351 5.73285 37.2763 5.87048C37.4091 6.32465 37.2763 5.45301 37.29 5.92553C37.29 6.06316 37.3038 6.20078 37.3084 6.33841C37.3129 6.54027 37.3129 6.74212 37.3084 6.94856C37.3038 7.07243 37.2946 7.19629 37.2855 7.32015C37.2809 7.40273 37.2717 7.48531 37.2626 7.57247C37.2351 7.78809 37.2443 7.74221 37.2855 7.43484C37.2076 7.48531 37.1664 8.09546 37.1436 8.20556C37.084 8.46705 37.0154 8.72855 36.9421 8.98545C36.878 9.20565 36.8048 9.42586 36.7315 9.64148C36.6857 9.77452 36.6354 9.90756 36.585 10.036C36.553 10.1232 36.5164 10.2103 36.4797 10.3021C36.585 10.0589 36.5942 10.036 36.5072 10.2333C36.0036 11.3251 35.4176 12.3665 34.7172 13.3437C34.6256 13.4675 34.534 13.5914 34.4425 13.7153C34.7217 13.3391 34.4104 13.7565 34.3646 13.8116C34.1678 14.0547 33.9663 14.2933 33.7558 14.5273C33.3346 14.9998 32.8905 15.4494 32.4235 15.876C32.19 16.0916 31.952 16.2981 31.7048 16.4999C31.6544 16.5412 31.2332 16.8715 31.604 16.5871C31.4804 16.6834 31.3523 16.7752 31.2241 16.8715C30.7113 17.2385 30.1803 17.5826 29.6309 17.89C29.3562 18.0414 29.0769 18.1882 28.7977 18.3212C28.6557 18.39 28.5138 18.4542 28.3719 18.5185C28.8068 18.3212 28.3307 18.5322 28.262 18.5597C27.6852 18.7845 27.09 18.968 26.4857 19.1057C26.3346 19.1378 26.1836 19.1699 26.0325 19.202C25.9318 19.2204 25.4465 19.2479 25.9318 19.2249C25.6205 19.2387 25.3137 19.2617 25.0024 19.2617C24.7094 19.2617 24.4118 19.2479 24.1188 19.2204L23.9769 19.2066C23.7572 19.1791 23.7892 19.1837 24.0731 19.2204C23.9861 19.2387 23.7526 19.1653 23.6656 19.147C23.4001 19.0919 23.1391 19.0277 22.8828 18.9543C22.7683 18.9176 22.1915 18.8029 22.1457 18.6974L22.3746 18.7937C22.2968 18.7616 22.2189 18.7249 22.1457 18.6882C22.0312 18.6332 21.9214 18.5781 21.8069 18.5185C21.5688 18.39 21.3354 18.2524 21.111 18.101C21.024 18.0459 20.9416 17.9817 20.8592 17.9267C20.4976 17.6835 21.1934 18.2157 20.8592 17.9313C20.6715 17.7707 20.4838 17.6147 20.3099 17.445C20.1359 17.2752 19.9619 17.1009 19.8017 16.9174C19.7193 16.8256 19.6415 16.7339 19.5636 16.6376C19.2157 16.2201 19.6827 16.8256 19.4904 16.5504C19.234 16.1788 18.9822 15.8072 18.7579 15.4173C18.6389 15.2016 18.5198 14.986 18.4145 14.7612C18.3596 14.6511 18.3092 14.541 18.2589 14.4263C18.03 13.9217 18.3367 14.6465 18.2131 14.3254C17.8652 13.4125 17.5813 12.4858 17.4028 11.5224C17.3661 11.3297 17.3341 11.1324 17.3066 10.9352C17.238 10.5085 17.357 11.4169 17.3158 10.9856C17.3066 10.871 17.2883 10.7563 17.2792 10.6416C17.2334 10.1599 17.2151 9.67359 17.2196 9.1873C17.2196 9.00839 17.2288 8.82947 17.238 8.65056C17.2471 8.51752 17.357 7.79268 17.2608 8.27896C17.3204 7.98536 17.3753 7.69634 17.4623 7.41191C17.4852 7.32933 17.531 7.07243 17.5996 7.01738C17.4852 7.27428 17.476 7.30639 17.563 7.11371C17.5996 7.03572 17.6362 6.95773 17.6775 6.88433C17.737 6.77423 17.8011 6.66872 17.8652 6.56321C17.8972 6.51274 18.1398 6.21913 17.9201 6.46686C17.7003 6.7146 18.1536 6.2329 18.2268 6.15491C18.5152 5.85213 18.1765 6.12738 18.1673 6.18243C18.1673 6.14115 18.3962 6.03104 18.4328 6.00811C18.4512 5.99893 18.6984 5.85213 18.7075 5.86589C18.3962 5.98976 18.3367 6.01728 18.5244 5.94847C18.5885 5.92553 18.6526 5.90718 18.7167 5.88883C18.7487 5.87966 19.0005 5.84295 19.0097 5.8246C18.9319 5.98976 18.4832 5.83378 18.8861 5.85672C18.9502 5.85672 19.0234 5.85672 19.0829 5.85672C19.5179 5.84754 18.9776 5.94847 18.9639 5.83378C18.9639 5.83378 19.2386 5.90259 19.2615 5.90718C19.6598 5.99434 19.2477 5.83836 19.1882 5.85672C19.234 5.84295 19.4354 5.98058 19.4767 6.00352C19.5407 6.04022 19.6048 6.07692 19.6644 6.11821C19.8292 6.2329 19.7925 6.20078 19.5499 6.01728C19.6506 6.18702 19.9299 6.37511 20.0764 6.52192C20.3694 6.81552 19.9253 6.25125 20.0581 6.48522C20.113 6.58156 20.1908 6.6733 20.2503 6.76964C20.4106 7.01738 20.5388 7.28345 20.667 7.54953C20.4609 7.12289 20.6853 7.60918 20.7082 7.68258C20.7448 7.78809 20.7814 7.89819 20.8135 8.00371C20.8638 8.17345 20.905 8.34778 20.9416 8.52211C20.96 8.61386 20.9737 8.70561 20.992 8.79277C21.0332 8.99921 20.8959 8.87076 20.96 8.55422C20.9279 8.71937 21.0012 8.9671 21.0103 9.13684C21.024 9.3754 21.024 9.61395 21.0195 9.8525C21.0103 10.1782 21.0744 10.7471 20.9325 11.0407C21.111 10.6645 20.9783 10.7196 20.9371 10.9719C20.9187 11.0866 20.9004 11.1967 20.8776 11.3114C20.8272 11.582 20.7722 11.8481 20.7082 12.1142C20.6029 12.5684 20.4747 13.0134 20.3282 13.4584C20.2595 13.674 20.1817 13.8896 20.1039 14.1052C20.0581 14.2245 20.0169 14.3392 19.9711 14.4539C19.7651 14.9677 20.0672 14.2566 19.9253 14.5685C19.5041 15.4998 19.028 16.399 18.4557 17.2431C18.3733 17.3624 18.1444 17.8257 18.0117 17.8624L18.1627 17.6698C18.1124 17.734 18.0574 17.8028 18.0071 17.867C17.9292 17.9634 17.8468 18.0597 17.7644 18.156C17.4394 18.5368 17.0915 18.8946 16.7252 19.2341C16.5421 19.3993 16.3544 19.5598 16.1621 19.7158C15.8279 19.9957 16.5238 19.4635 16.1621 19.7112C16.0614 19.78 15.9652 19.8535 15.8645 19.9223C15.4617 20.1929 15.0405 20.4361 14.6055 20.6379L14.4957 20.6884C14.3034 20.771 14.3492 20.7526 14.6284 20.6333C14.5552 20.6242 14.3629 20.7343 14.2897 20.7618C14.0608 20.8398 13.8273 20.9132 13.5938 20.9728C13.3786 21.0279 13.1497 21.0508 12.9345 21.1105C12.6644 21.1839 13.4473 21.0646 13.0215 21.0967C12.8567 21.1104 12.6873 21.1288 12.5225 21.1334C12.2661 21.1426 12.0098 21.1334 11.7534 21.1334C11.3139 21.1334 12.1837 21.2573 11.7122 21.1242C11.5703 21.0829 11.4192 21.0554 11.2773 21.0187C10.998 20.9407 10.7233 20.8398 10.4486 20.7434C10.5036 20.7618 10.8332 20.9224 10.5219 20.771C10.3525 20.6884 10.1831 20.6104 10.0183 20.5187C9.77565 20.3856 9.53759 20.2388 9.30868 20.0828C9.19423 20.0048 9.08435 19.9223 8.97448 19.8397C9.38651 20.1471 9.01568 19.8626 8.93785 19.7984C8.51667 19.4406 8.13211 19.0414 7.77502 18.6194C7.68345 18.5139 7.59647 18.4038 7.50948 18.2983C7.83453 18.6928 7.53237 18.3258 7.47744 18.2478C7.31263 18.0184 7.1524 17.789 7.00132 17.5505C6.69459 17.0734 6.41532 16.5825 6.15436 16.0779C5.89341 15.5732 5.65078 15.064 5.42187 14.541C5.36693 14.4126 5.31199 14.2841 5.25248 14.1557C5.45849 14.6374 5.27079 14.197 5.23417 14.1052C5.12887 13.8483 5.02815 13.5914 4.92743 13.3345C4.55203 12.3757 4.20867 11.4031 3.84243 10.4397C3.47618 9.47633 2.51477 8.73313 1.45265 9.08179C0.527876 9.37998 -0.287023 10.4581 0.0975368 11.4765L0.0883777 11.4398Z" fill="#E84D59"/>
</svg>