<svg xmlns="http://www.w3.org/2000/svg" width="375" height="515" viewBox="0 0 375 515" fill="none">
    <path d="M375.24 514.75V0.75H298.44V15.53C301.47 17.25 303.44 20.5 303.44 24.23C303.44 29.75 298.96 34.23 293.44 34.23C287.92 34.23 283.44 29.75 283.44 24.23C283.44 20.5 285.41 17.25 288.44 15.53V0.75H245.6V15.53H245.52C248.55 17.25 250.6 20.5 250.6 24.23C250.6 29.75 246.12 34.23 240.6 34.23C235.08 34.23 230.6 29.75 230.6 24.23C230.6 20.5 232.65 17.25 235.68 15.53H235.6V0.75H192.75V15.53C195.78 17.25 197.75 20.5 197.75 24.23C197.75 29.75 193.27 34.23 187.75 34.23C182.23 34.23 177.75 29.75 177.75 24.23C177.75 20.5 179.72 17.25 182.75 15.53V0.75H139.91V15.53C142.94 17.25 144.91 20.5 144.91 24.23C144.91 29.75 140.43 34.23 134.91 34.23C129.39 34.23 124.91 29.75 124.91 24.23C124.91 20.5 126.88 17.25 129.91 15.53V0.75H87.0802V15.53C90.1102 17.25 92.0802 20.5 92.0802 24.23C92.0802 29.75 87.6002 34.23 82.0802 34.23C76.5602 34.23 72.0802 29.75 72.0802 24.23C72.0802 20.5 74.0502 17.25 77.0802 15.53V0.75H0.250244V514.75H375.24Z" fill="white" stroke="#777677" stroke-width="0.5" stroke-miterlimit="10"/>
</svg>