<svg xmlns="http://www.w3.org/2000/svg" width="38" height="38" viewBox="0 0 38 38" fill="none">
    <path d="M17.8127 28.7373H20.1877V23.6311H25.3335V21.2561H20.1877V16.1103H17.8127V21.2561H12.6668V23.6311H17.8127V28.7373ZM8.7085 34.8332C8.07516 34.8332 7.521 34.5957 7.046 34.1207C6.571 33.6457 6.3335 33.0915 6.3335 32.4582V5.5415C6.3335 4.90817 6.571 4.354 7.046 3.879C7.521 3.404 8.07516 3.1665 8.7085 3.1665H22.9981L31.6668 11.8353V32.4582C31.6668 33.0915 31.4293 33.6457 30.9543 34.1207C30.4793 34.5957 29.9252 34.8332 29.2918 34.8332H8.7085ZM21.8106 12.904V5.5415H8.7085V32.4582H29.2918V12.904H21.8106Z" fill="white"/>
</svg>