<svg xmlns="http://www.w3.org/2000/svg" width="360" height="640" viewBox="0 0 360 640" fill="none">
<g clip-path="url(#clip0_198_3968)">
<rect width="360" height="640" fill="white"/>
<g clip-path="url(#clip1_198_3968)">
<path d="M359.501 0.499023H0.498627V639.501H359.501V0.499023Z" fill="#FCF9D1" stroke="#EFF0F1" stroke-miterlimit="10"/>
<path d="M0.498627 623.525H359.501" stroke="#EFF0F1" stroke-miterlimit="10"/>
<path d="M0.498627 607.551H359.501" stroke="#EFF0F1" stroke-miterlimit="10"/>
<path d="M0.498627 591.576H359.501" stroke="#EFF0F1" stroke-miterlimit="10"/>
<path d="M0.498627 575.601H359.501" stroke="#EFF0F1" stroke-miterlimit="10"/>
<path d="M0.498627 559.626H359.501" stroke="#EFF0F1" stroke-miterlimit="10"/>
<path d="M0.498627 543.65H359.501" stroke="#EFF0F1" stroke-miterlimit="10"/>
<path d="M0.498627 527.676H359.501" stroke="#EFF0F1" stroke-miterlimit="10"/>
<path d="M0.498627 511.7H359.501" stroke="#EFF0F1" stroke-miterlimit="10"/>
<path d="M0.498627 495.726H359.501" stroke="#EFF0F1" stroke-miterlimit="10"/>
<path d="M0.498627 479.75H359.501" stroke="#EFF0F1" stroke-miterlimit="10"/>
<path d="M0.498627 463.775H359.501" stroke="#EFF0F1" stroke-miterlimit="10"/>
<path d="M0.498627 447.801H359.501" stroke="#EFF0F1" stroke-miterlimit="10"/>
<path d="M0.498627 431.825H359.501" stroke="#EFF0F1" stroke-miterlimit="10"/>
<path d="M0.498627 415.851H359.501" stroke="#EFF0F1" stroke-miterlimit="10"/>
<path d="M0.498627 399.875H359.501" stroke="#EFF0F1" stroke-miterlimit="10"/>
<path d="M0.498627 383.9H359.501" stroke="#EFF0F1" stroke-miterlimit="10"/>
<path d="M0.498627 367.925H359.501" stroke="#EFF0F1" stroke-miterlimit="10"/>
<path d="M0.498627 351.95H359.501" stroke="#EFF0F1" stroke-miterlimit="10"/>
<path d="M0.498627 335.975H359.501" stroke="#EFF0F1" stroke-miterlimit="10"/>
<path d="M0.498627 320H359.501" stroke="#EFF0F1" stroke-miterlimit="10"/>
<path d="M0.498627 304.025H359.501" stroke="#EFF0F1" stroke-miterlimit="10"/>
<path d="M0.498627 288.05H359.501" stroke="#EFF0F1" stroke-miterlimit="10"/>
<path d="M0.498627 272.075H359.501" stroke="#EFF0F1" stroke-miterlimit="10"/>
<path d="M0.498627 256.1H359.501" stroke="#EFF0F1" stroke-miterlimit="10"/>
<path d="M0.498627 240.125H359.501" stroke="#EFF0F1" stroke-miterlimit="10"/>
<path d="M0.498627 224.149H359.501" stroke="#EFF0F1" stroke-miterlimit="10"/>
<path d="M0.498627 208.175H359.501" stroke="#EFF0F1" stroke-miterlimit="10"/>
<path d="M0.498627 192.2H359.501" stroke="#EFF0F1" stroke-miterlimit="10"/>
<path d="M0.498627 176.225H359.501" stroke="#EFF0F1" stroke-miterlimit="10"/>
<path d="M0.498627 160.25H359.501" stroke="#EFF0F1" stroke-miterlimit="10"/>
<path d="M0.498627 144.274H359.501" stroke="#EFF0F1" stroke-miterlimit="10"/>
<path d="M0.498627 128.3H359.501" stroke="#EFF0F1" stroke-miterlimit="10"/>
<path d="M0.498627 112.324H359.501" stroke="#EFF0F1" stroke-miterlimit="10"/>
<path d="M0.498627 96.3496H359.501" stroke="#EFF0F1" stroke-miterlimit="10"/>
<path d="M0.498627 80.374H359.501" stroke="#EFF0F1" stroke-miterlimit="10"/>
<path d="M0.498627 64.3994H359.501" stroke="#EFF0F1" stroke-miterlimit="10"/>
<path d="M0.498627 48.4248H359.501" stroke="#EFF0F1" stroke-miterlimit="10"/>
<path d="M0.498627 32.4492H359.501" stroke="#EFF0F1" stroke-miterlimit="10"/>
<path d="M0.498627 16.4746H359.501" stroke="#EFF0F1" stroke-miterlimit="10"/>
<path d="M343.187 0.499023V639.501" stroke="#EFF0F1" stroke-miterlimit="10"/>
<path d="M326.862 0.499023V639.501" stroke="#EFF0F1" stroke-miterlimit="10"/>
<path d="M310.547 0.499023V639.501" stroke="#EFF0F1" stroke-miterlimit="10"/>
<path d="M294.233 0.499023V639.501" stroke="#EFF0F1" stroke-miterlimit="10"/>
<path d="M277.908 0.499023V639.501" stroke="#EFF0F1" stroke-miterlimit="10"/>
<path d="M261.593 0.499023V639.501" stroke="#EFF0F1" stroke-miterlimit="10"/>
<path d="M245.269 0.499023V639.501" stroke="#EFF0F1" stroke-miterlimit="10"/>
<path d="M228.954 0.499023V639.501" stroke="#EFF0F1" stroke-miterlimit="10"/>
<path d="M212.639 0.499023V639.501" stroke="#EFF0F1" stroke-miterlimit="10"/>
<path d="M196.315 0.499023V639.501" stroke="#EFF0F1" stroke-miterlimit="10"/>
<path d="M180 0.499023V639.501" stroke="#EFF0F1" stroke-miterlimit="10"/>
<path d="M163.685 0.499023V639.501" stroke="#EFF0F1" stroke-miterlimit="10"/>
<path d="M147.361 0.499023V639.501" stroke="#EFF0F1" stroke-miterlimit="10"/>
<path d="M131.046 0.499023V639.501" stroke="#EFF0F1" stroke-miterlimit="10"/>
<path d="M114.731 0.499023V639.501" stroke="#EFF0F1" stroke-miterlimit="10"/>
<path d="M98.4067 0.499023V639.501" stroke="#EFF0F1" stroke-miterlimit="10"/>
<path d="M82.092 0.499023V639.501" stroke="#EFF0F1" stroke-miterlimit="10"/>
<path d="M65.7673 0.499023V639.501" stroke="#EFF0F1" stroke-miterlimit="10"/>
<path d="M49.4526 0.499023V639.501" stroke="#EFF0F1" stroke-miterlimit="10"/>
<path d="M33.1379 0.499023V639.501" stroke="#EFF0F1" stroke-miterlimit="10"/>
<path d="M16.8133 0.499023V639.501" stroke="#EFF0F1" stroke-miterlimit="10"/>
</g>
</g>
<defs>
<clipPath id="clip0_198_3968">
<rect width="360" height="640" fill="white"/>
</clipPath>
<clipPath id="clip1_198_3968">
<rect width="360" height="640" fill="white"/>
</clipPath>
</defs>
</svg>
