<svg xmlns="http://www.w3.org/2000/svg" width="22" height="21" viewBox="0 0 22 21" fill="none">
  <path d="M10 21C8.61667 21 7.31667 20.7375 6.1 20.2125C4.88333 19.6875 3.825 18.975 2.925 18.075C2.025 17.175 1.3125 16.1167 0.7875 14.9C0.2625 13.6833 0 12.3833 0 11C0 9.61667 0.2625 8.31667 0.7875 7.1C1.3125 5.88333 2.025 4.825 2.925 3.925C3.825 3.025 4.88333 2.3125 6.1 1.7875C7.31667 1.2625 8.61667 1 10 1C10.7167 1 11.4083 1.07083 12.075 1.2125C12.7417 1.35417 13.3833 1.55833 14 1.825V4.075C13.4167 3.74167 12.7875 3.47917 12.1125 3.2875C11.4375 3.09583 10.7333 3 10 3C7.78333 3 5.89583 3.77917 4.3375 5.3375C2.77917 6.89583 2 8.78333 2 11C2 13.2167 2.77917 15.1042 4.3375 16.6625C5.89583 18.2208 7.78333 19 10 19C12.2167 19 14.1042 18.2208 15.6625 16.6625C17.2208 15.1042 18 13.2167 18 11C18 10.4667 17.9458 9.95 17.8375 9.45C17.7292 8.95 17.5833 8.46667 17.4 8H19.55C19.7 8.48333 19.8125 8.97083 19.8875 9.4625C19.9625 9.95417 20 10.4667 20 11C20 12.3833 19.7375 13.6833 19.2125 14.9C18.6875 16.1167 17.975 17.175 17.075 18.075C16.175 18.975 15.1167 19.6875 13.9 20.2125C12.6833 20.7375 11.3833 21 10 21ZM18 6V4H16V2H18V0H20V2H22V4H20V6H18ZM13.5 10C13.9167 10 14.2708 9.85417 14.5625 9.5625C14.8542 9.27083 15 8.91667 15 8.5C15 8.08333 14.8542 7.72917 14.5625 7.4375C14.2708 7.14583 13.9167 7 13.5 7C13.0833 7 12.7292 7.14583 12.4375 7.4375C12.1458 7.72917 12 8.08333 12 8.5C12 8.91667 12.1458 9.27083 12.4375 9.5625C12.7292 9.85417 13.0833 10 13.5 10ZM6.5 10C6.91667 10 7.27083 9.85417 7.5625 9.5625C7.85417 9.27083 8 8.91667 8 8.5C8 8.08333 7.85417 7.72917 7.5625 7.4375C7.27083 7.14583 6.91667 7 6.5 7C6.08333 7 5.72917 7.14583 5.4375 7.4375C5.14583 7.72917 5 8.08333 5 8.5C5 8.91667 5.14583 9.27083 5.4375 9.5625C5.72917 9.85417 6.08333 10 6.5 10ZM10 16.5C11.1333 16.5 12.1625 16.1792 13.0875 15.5375C14.0125 14.8958 14.6833 14.05 15.1 13H4.9C5.31667 14.05 5.9875 14.8958 6.9125 15.5375C7.8375 16.1792 8.86667 16.5 10 16.5Z" fill="#767676"/>
</svg>
